<svg width="148" height="40" viewBox="0 0 148 40" fill="none" xmlns="http://www.w3.org/2000/svg">
<path d="M74 0L80 6L68 6L74 0Z" fill="#1E713F"/>
<rect y="6" width="148" height="34" rx="8" fill="#1E713F"/>
<path d="M18.681 28L19.815 25.613L16.231 17.92H17.372L20.354 24.507L23.392 17.92H24.491L19.801 28H18.681ZM24.0216 29.68V27.118C24.4509 27.118 24.7589 26.9803 24.9456 26.705C25.1322 26.425 25.2839 25.9793 25.4006 25.368C25.4799 24.9713 25.5452 24.5443 25.5966 24.087C25.6479 23.6297 25.6922 23.107 25.7296 22.519C25.7669 21.9263 25.8019 21.2333 25.8346 20.44H30.8326V27.118H31.5606V29.68H30.5666V28H25.0086V29.68H24.0216ZM25.7646 27.118H29.8106V21.322H26.7866C26.7726 21.6767 26.7516 22.0523 26.7236 22.449C26.7002 22.8457 26.6699 23.2423 26.6326 23.639C26.5999 24.0357 26.5602 24.409 26.5136 24.759C26.4716 25.1043 26.4202 25.4077 26.3596 25.669C26.2896 26.005 26.2126 26.292 26.1286 26.53C26.0492 26.768 25.9279 26.964 25.7646 27.118ZM35.1254 28.21C34.5561 28.21 34.0778 28.1073 33.6904 27.902C33.3078 27.6967 33.0208 27.4237 32.8294 27.083C32.6381 26.7423 32.5424 26.3713 32.5424 25.97C32.5424 25.5593 32.6241 25.2093 32.7874 24.92C32.9554 24.626 33.1818 24.3857 33.4664 24.199C33.7558 24.0123 34.0894 23.87 34.4674 23.772C34.8501 23.6787 35.2724 23.597 35.7344 23.527C36.2011 23.4523 36.6561 23.3893 37.0994 23.338C37.5474 23.282 37.9394 23.2283 38.2754 23.177L37.9114 23.401C37.9254 22.6543 37.7808 22.1013 37.4774 21.742C37.1741 21.3827 36.6468 21.203 35.8954 21.203C35.3774 21.203 34.9388 21.3197 34.5794 21.553C34.2248 21.7863 33.9751 22.155 33.8304 22.659L32.8294 22.365C33.0021 21.6883 33.3498 21.1633 33.8724 20.79C34.3951 20.4167 35.0741 20.23 35.9094 20.23C36.6001 20.23 37.1858 20.3607 37.6664 20.622C38.1518 20.8787 38.4948 21.252 38.6954 21.742C38.7888 21.9613 38.8494 22.2063 38.8774 22.477C38.9054 22.7477 38.9194 23.023 38.9194 23.303V28H38.0024V26.103L38.2684 26.215C38.0118 26.8637 37.6128 27.3583 37.0714 27.699C36.5301 28.0397 35.8814 28.21 35.1254 28.21ZM35.2444 27.321C35.7251 27.321 36.1451 27.2347 36.5044 27.062C36.8638 26.8893 37.1531 26.6537 37.3724 26.355C37.5918 26.0517 37.7341 25.711 37.7994 25.333C37.8554 25.0903 37.8858 24.8243 37.8904 24.535C37.8951 24.241 37.8974 24.0217 37.8974 23.877L38.2894 24.08C37.9394 24.1267 37.5591 24.1733 37.1484 24.22C36.7424 24.2667 36.3411 24.3203 35.9444 24.381C35.5524 24.4417 35.1978 24.514 34.8804 24.598C34.6658 24.6587 34.4581 24.745 34.2574 24.857C34.0568 24.9643 33.8911 25.109 33.7604 25.291C33.6344 25.473 33.5714 25.6993 33.5714 25.97C33.5714 26.1893 33.6251 26.4017 33.7324 26.607C33.8444 26.8123 34.0218 26.9827 34.2644 27.118C34.5118 27.2533 34.8384 27.321 35.2444 27.321ZM40.0417 28V27.097C40.3217 27.1483 40.5341 27.1367 40.6787 27.062C40.8281 26.9827 40.9377 26.852 41.0077 26.67C41.0777 26.4833 41.1361 26.2523 41.1827 25.977C41.2574 25.5197 41.3251 25.0157 41.3857 24.465C41.4464 23.9143 41.5001 23.3077 41.5467 22.645C41.5981 21.9777 41.6494 21.2427 41.7007 20.44H46.8387V28H45.8167V21.427H42.6527C42.6201 21.9217 42.5827 22.414 42.5407 22.904C42.4987 23.394 42.4544 23.8653 42.4077 24.318C42.3657 24.766 42.3191 25.179 42.2677 25.557C42.2164 25.935 42.1627 26.2617 42.1067 26.537C42.0227 26.9523 41.9107 27.2837 41.7707 27.531C41.6354 27.7783 41.4324 27.9417 41.1617 28.021C40.8911 28.1003 40.5177 28.0933 40.0417 28ZM54.8005 20.44V28H53.7995V22.113L49.6555 28H48.7875V20.44H49.7885V26.278L53.9395 20.44H54.8005ZM58.8162 28V21.392H56.1352V20.44H62.5262V21.392H59.8452V28H58.8162ZM63.8679 28L63.8539 20.44H64.8899V23.289H66.6609C66.8802 23.289 67.0949 23.2937 67.3049 23.303C67.5195 23.3123 67.7085 23.331 67.8719 23.359C68.2452 23.429 68.5765 23.5527 68.8659 23.73C69.1599 23.9073 69.3885 24.1523 69.5519 24.465C69.7199 24.7777 69.8039 25.1697 69.8039 25.641C69.8039 26.2897 69.6359 26.8007 69.2999 27.174C68.9685 27.5473 68.5485 27.79 68.0399 27.902C67.8485 27.944 67.6409 27.972 67.4169 27.986C67.1929 27.9953 66.9712 28 66.7519 28H63.8679ZM64.8899 27.118H66.7099C66.8685 27.118 67.0459 27.1133 67.2419 27.104C67.4379 27.0947 67.6105 27.069 67.7599 27.027C68.0072 26.957 68.2312 26.817 68.4319 26.607C68.6372 26.3923 68.7399 26.0703 68.7399 25.641C68.7399 25.2163 68.6419 24.8967 68.4459 24.682C68.2499 24.4627 67.9885 24.318 67.6619 24.248C67.5172 24.2153 67.3609 24.1943 67.1929 24.185C67.0249 24.1757 66.8639 24.171 66.7099 24.171H64.8899V27.118ZM74.1351 28V20.44H80.1481V28H79.1191V21.427H75.1641V28H74.1351ZM85.5078 28.21C84.8125 28.21 84.2245 28.035 83.7438 27.685C83.2631 27.3303 82.8991 26.852 82.6518 26.25C82.4045 25.6433 82.2808 24.9643 82.2808 24.213C82.2808 23.4477 82.4045 22.7663 82.6518 22.169C82.9038 21.567 83.2725 21.0933 83.7578 20.748C84.2431 20.4027 84.8405 20.23 85.5498 20.23C86.2405 20.23 86.8331 20.405 87.3278 20.755C87.8225 21.105 88.2005 21.581 88.4618 22.183C88.7278 22.785 88.8608 23.4617 88.8608 24.213C88.8608 24.969 88.7278 25.648 88.4618 26.25C88.1958 26.852 87.8131 27.3303 87.3138 27.685C86.8145 28.035 86.2125 28.21 85.5078 28.21ZM82.1058 31.36V20.44H83.0298V26.131H83.1418V31.36H82.1058ZM85.4028 27.251C85.9301 27.251 86.3688 27.118 86.7188 26.852C87.0688 26.586 87.3301 26.2243 87.5028 25.767C87.6801 25.305 87.7688 24.787 87.7688 24.213C87.7688 23.6437 87.6825 23.1303 87.5098 22.673C87.3371 22.2157 87.0735 21.854 86.7188 21.588C86.3688 21.322 85.9231 21.189 85.3818 21.189C84.8545 21.189 84.4158 21.3173 84.0658 21.574C83.7205 21.8307 83.4615 22.1877 83.2888 22.645C83.1161 23.0977 83.0298 23.6203 83.0298 24.213C83.0298 24.7963 83.1161 25.319 83.2888 25.781C83.4615 26.2383 83.7228 26.5977 84.0728 26.859C84.4228 27.1203 84.8661 27.251 85.4028 27.251ZM93.555 28.21C92.8036 28.21 92.162 28.0397 91.63 27.699C91.098 27.3583 90.6896 26.887 90.405 26.285C90.1203 25.683 89.978 24.9923 89.978 24.213C89.978 23.4197 90.1226 22.7243 90.412 22.127C90.7013 21.5297 91.112 21.0653 91.644 20.734C92.1806 20.398 92.8176 20.23 93.555 20.23C94.311 20.23 94.955 20.4003 95.487 20.741C96.0236 21.077 96.432 21.546 96.712 22.148C96.9966 22.7453 97.139 23.4337 97.139 24.213C97.139 25.0063 96.9966 25.704 96.712 26.306C96.4273 26.9033 96.0166 27.37 95.48 27.706C94.9433 28.042 94.3016 28.21 93.555 28.21ZM93.555 27.223C94.395 27.223 95.0203 26.9453 95.431 26.39C95.8416 25.83 96.047 25.1043 96.047 24.213C96.047 23.2983 95.8393 22.5703 95.424 22.029C95.0133 21.4877 94.3903 21.217 93.555 21.217C92.9903 21.217 92.5236 21.3453 92.155 21.602C91.791 21.854 91.518 22.2063 91.336 22.659C91.1586 23.107 91.07 23.625 91.07 24.213C91.07 25.123 91.28 25.8533 91.7 26.404C92.12 26.95 92.7383 27.223 93.555 27.223ZM102.267 31.15V28.147C101.53 28.2637 100.858 28.1843 100.251 27.909C99.6445 27.629 99.1615 27.1763 98.8021 26.551C98.4428 25.9257 98.2631 25.151 98.2631 24.227C98.2631 23.303 98.4428 22.5283 98.8021 21.903C99.1615 21.273 99.6445 20.818 100.251 20.538C100.858 20.258 101.53 20.1763 102.267 20.293V17.976H103.219V20.293C103.956 20.1763 104.628 20.258 105.235 20.538C105.842 20.818 106.325 21.273 106.684 21.903C107.043 22.5283 107.223 23.303 107.223 24.227C107.223 25.151 107.043 25.9257 106.684 26.551C106.325 27.1763 105.842 27.629 105.235 27.909C104.628 28.1843 103.956 28.2637 103.219 28.147V31.15H102.267ZM102.267 27.188V21.259C101.889 21.1937 101.525 21.2053 101.175 21.294C100.825 21.378 100.51 21.5437 100.23 21.791C99.9501 22.0337 99.7285 22.358 99.5651 22.764C99.4065 23.1653 99.3271 23.653 99.3271 24.227C99.3271 24.801 99.4088 25.291 99.5721 25.697C99.7355 26.0983 99.9571 26.4203 100.237 26.663C100.517 26.9057 100.832 27.069 101.182 27.153C101.532 27.237 101.894 27.2487 102.267 27.188ZM103.219 27.188C103.592 27.2487 103.954 27.237 104.304 27.153C104.654 27.069 104.969 26.908 105.249 26.67C105.529 26.4273 105.751 26.1053 105.914 25.704C106.077 25.298 106.159 24.8057 106.159 24.227C106.159 23.6483 106.077 23.1583 105.914 22.757C105.755 22.351 105.536 22.0267 105.256 21.784C104.976 21.5413 104.661 21.378 104.311 21.294C103.961 21.2053 103.597 21.1937 103.219 21.259V27.188ZM114.765 20.44V28H113.764V22.113L109.62 28H108.752V20.44H109.753V26.278L113.904 20.44H114.765ZM116.03 28V27.097C116.31 27.1483 116.522 27.1367 116.667 27.062C116.816 26.9827 116.926 26.852 116.996 26.67C117.066 26.4833 117.124 26.2523 117.171 25.977C117.246 25.5197 117.313 25.0157 117.374 24.465C117.435 23.9143 117.488 23.3077 117.535 22.645C117.586 21.9777 117.638 21.2427 117.689 20.44H122.827V28H121.805V21.427H118.641C118.608 21.9217 118.571 22.414 118.529 22.904C118.487 23.394 118.443 23.8653 118.396 24.318C118.354 24.766 118.307 25.179 118.256 25.557C118.205 25.935 118.151 26.2617 118.095 26.537C118.011 26.9523 117.899 27.2837 117.759 27.531C117.624 27.7783 117.421 27.9417 117.15 28.021C116.879 28.1003 116.506 28.0933 116.03 28ZM124.79 28L124.776 20.44H125.812V23.289H127.583C127.802 23.289 128.017 23.2937 128.227 23.303C128.441 23.3123 128.63 23.331 128.794 23.359C129.167 23.429 129.498 23.5527 129.788 23.73C130.082 23.9073 130.31 24.1523 130.474 24.465C130.642 24.7777 130.726 25.1697 130.726 25.641C130.726 26.2897 130.558 26.8007 130.222 27.174C129.89 27.5473 129.47 27.79 128.962 27.902C128.77 27.944 128.563 27.972 128.339 27.986C128.115 27.9953 127.893 28 127.674 28H124.79ZM125.812 27.118H127.632C127.79 27.118 127.968 27.1133 128.164 27.104C128.36 27.0947 128.532 27.069 128.682 27.027C128.929 26.957 129.153 26.817 129.354 26.607C129.559 26.3923 129.662 26.0703 129.662 25.641C129.662 25.2163 129.564 24.8967 129.368 24.682C129.172 24.4627 128.91 24.318 128.584 24.248C128.439 24.2153 128.283 24.1943 128.115 24.185C127.947 24.1757 127.786 24.171 127.632 24.171H125.812V27.118Z" fill="#FDFDFD"/>
</svg>
