<svg width="32" height="32" viewBox="0 0 32 32" fill="none" xmlns="http://www.w3.org/2000/svg">
<path d="M21.5 9C22.3284 9 23 8.32843 23 7.5C23 6.67157 22.3284 6 21.5 6C20.6716 6 20 6.67157 20 7.5C20 8.32843 20.6716 9 21.5 9Z" fill="#1E713F"/>
<path d="M14.414 20H9V14.586L15.03 8.556C15.0104 8.37132 15.0003 8.18573 15 8C15 6.81331 15.3519 5.65328 16.0112 4.66658C16.6705 3.67989 17.6075 2.91085 18.7039 2.45673C19.8003 2.0026 21.0067 1.88378 22.1705 2.11529C23.3344 2.3468 24.4035 2.91825 25.2426 3.75736C26.0818 4.59648 26.6532 5.66557 26.8847 6.82946C27.1162 7.99335 26.9974 9.19975 26.5433 10.2961C26.0892 11.3925 25.3201 12.3295 24.3334 12.9888C23.3467 13.6481 22.1867 14 21 14C20.8143 13.9996 20.6287 13.9896 20.444 13.97L14.414 20ZM11 18H13.586L19.756 11.83L20.274 11.925C20.5132 11.9724 20.7562 11.9975 21 12C21.8364 12.0103 22.6554 11.7614 23.3447 11.2874C24.0339 10.8135 24.5594 10.1377 24.8491 9.35305C25.1389 8.56837 25.1785 7.71324 24.9626 6.90512C24.7468 6.09701 24.286 5.37555 23.6436 4.83986C23.0012 4.30417 22.2087 3.98052 21.3749 3.91338C20.5412 3.84624 19.7071 4.03889 18.9872 4.46488C18.2674 4.89087 17.6971 5.5293 17.3547 6.29246C17.0123 7.05562 16.9146 7.90608 17.075 8.727L17.17 9.244L11 15.414V18ZM28 20H19V22H28V28H4V22H6V20H4C3.46973 20.0005 2.96133 20.2114 2.58637 20.5864C2.21141 20.9613 2.00053 21.4697 2 22V28C2.00053 28.5303 2.21141 29.0387 2.58637 29.4136C2.96133 29.7886 3.46973 29.9995 4 30H28C28.5303 29.9995 29.0387 29.7886 29.4136 29.4136C29.7886 29.0387 29.9995 28.5303 30 28V22C29.9995 21.4697 29.7886 20.9613 29.4136 20.5864C29.0387 20.2114 28.5303 20.0005 28 20Z" fill="#1E713F"/>
<path d="M7 26C7.55228 26 8 25.5523 8 25C8 24.4477 7.55228 24 7 24C6.44772 24 6 24.4477 6 25C6 25.5523 6.44772 26 7 26Z" fill="#1E713F"/>
</svg>
