<svg width="159" height="40" viewBox="0 0 159 40" fill="none" xmlns="http://www.w3.org/2000/svg">
<path d="M80 0L86 6L74 6L80 0Z" fill="#1E713F"/>
<rect y="6" width="159" height="34" rx="8" fill="#1E713F"/>
<path d="M24.603 28H23.567V19.733L18.016 28H16.98V17.92H18.016V26.18L23.567 17.92H24.603V28ZM29.287 28.21C28.5263 28.21 27.8613 28.0443 27.292 27.713C26.7273 27.377 26.2817 26.9127 25.955 26.32L26.781 25.795C27.0563 26.2617 27.3993 26.6163 27.81 26.859C28.2207 27.1017 28.692 27.223 29.224 27.223C29.7793 27.223 30.225 27.0947 30.561 26.838C30.897 26.5813 31.065 26.229 31.065 25.781C31.065 25.473 30.9927 25.228 30.848 25.046C30.708 24.864 30.4933 24.7333 30.204 24.654C29.9193 24.5747 29.5623 24.535 29.133 24.535H28.237V23.653H29.119C29.6417 23.653 30.0617 23.5597 30.379 23.373C30.701 23.1817 30.862 22.883 30.862 22.477C30.862 22.0477 30.701 21.7303 30.379 21.525C30.0617 21.315 29.6813 21.21 29.238 21.21C28.79 21.21 28.3653 21.3033 27.964 21.49C27.5673 21.672 27.2337 21.9077 26.963 22.197L26.305 21.504C26.683 21.0887 27.124 20.7737 27.628 20.559C28.1367 20.3397 28.699 20.23 29.315 20.23C29.8003 20.23 30.239 20.3163 30.631 20.489C31.0277 20.657 31.3403 20.9043 31.569 21.231C31.8023 21.5577 31.919 21.9497 31.919 22.407C31.919 22.8363 31.814 23.2073 31.604 23.52C31.3987 23.8327 31.107 24.0917 30.729 24.297L30.673 23.912C30.9997 23.9727 31.2703 24.1033 31.485 24.304C31.6997 24.5047 31.8583 24.745 31.961 25.025C32.0637 25.305 32.115 25.5897 32.115 25.879C32.115 26.3597 31.989 26.775 31.737 27.125C31.4897 27.4703 31.1513 27.7387 30.722 27.93C30.2973 28.1167 29.819 28.21 29.287 28.21ZM33.6527 28V20.44H34.5697L37.5167 26.628L40.4707 20.44H41.3807V28H40.3867V22.638L37.8457 28H37.1947L34.6537 22.638V28H33.6527ZM46.5384 28.21C45.801 28.21 45.1617 28.0467 44.6204 27.72C44.0837 27.3933 43.666 26.9337 43.3674 26.341C43.0687 25.7483 42.9194 25.053 42.9194 24.255C42.9194 23.429 43.0664 22.715 43.3604 22.113C43.6544 21.511 44.0674 21.0467 44.5994 20.72C45.136 20.3933 45.7684 20.23 46.4964 20.23C47.243 20.23 47.88 20.4027 48.4074 20.748C48.9347 21.0887 49.3337 21.5787 49.6044 22.218C49.875 22.8573 49.9987 23.6203 49.9754 24.507H48.9254V24.143C48.9067 23.163 48.6944 22.4233 48.2884 21.924C47.887 21.4247 47.299 21.175 46.5244 21.175C45.7124 21.175 45.0894 21.4387 44.6554 21.966C44.226 22.4933 44.0114 23.2447 44.0114 24.22C44.0114 25.172 44.226 25.9117 44.6554 26.439C45.0894 26.9617 45.703 27.223 46.4964 27.223C47.0377 27.223 47.509 27.0993 47.9104 26.852C48.3164 26.6 48.636 26.2383 48.8694 25.767L49.8284 26.138C49.5297 26.796 49.0887 27.307 48.5054 27.671C47.9267 28.0303 47.271 28.21 46.5384 28.21ZM43.6474 24.507V23.646H49.4224V24.507H43.6474ZM51.5218 28V20.44H52.5508V23.723H56.8138V20.44H57.8428V28H56.8138V24.71H52.5508V28H51.5218ZM65.8063 20.44V28H64.8053V22.113L60.6613 28H59.7933V20.44H60.7943V26.278L64.9453 20.44H65.8063ZM69.822 28V21.392H67.141V20.44H73.532V21.392H70.851V28H69.822ZM74.8737 28L74.8597 20.44H75.8957V23.289H77.6667C77.8861 23.289 78.1007 23.2937 78.3107 23.303C78.5254 23.3123 78.7144 23.331 78.8777 23.359C79.2511 23.429 79.5824 23.5527 79.8717 23.73C80.1657 23.9073 80.3944 24.1523 80.5577 24.465C80.7257 24.7777 80.8097 25.1697 80.8097 25.641C80.8097 26.2897 80.6417 26.8007 80.3057 27.174C79.9744 27.5473 79.5544 27.79 79.0457 27.902C78.8544 27.944 78.6467 27.972 78.4227 27.986C78.1987 27.9953 77.9771 28 77.7577 28H74.8737ZM75.8957 27.118H77.7157C77.8744 27.118 78.0517 27.1133 78.2477 27.104C78.4437 27.0947 78.6164 27.069 78.7657 27.027C79.0131 26.957 79.2371 26.817 79.4377 26.607C79.6431 26.3923 79.7457 26.0703 79.7457 25.641C79.7457 25.2163 79.6477 24.8967 79.4517 24.682C79.2557 24.4627 78.9944 24.318 78.6677 24.248C78.5231 24.2153 78.3667 24.1943 78.1987 24.185C78.0307 24.1757 77.8697 24.171 77.7157 24.171H75.8957V27.118ZM85.141 28V20.44H91.154V28H90.125V21.427H86.17V28H85.141ZM96.5137 28.21C95.8183 28.21 95.2303 28.035 94.7497 27.685C94.269 27.3303 93.905 26.852 93.6577 26.25C93.4103 25.6433 93.2867 24.9643 93.2867 24.213C93.2867 23.4477 93.4103 22.7663 93.6577 22.169C93.9097 21.567 94.2783 21.0933 94.7637 20.748C95.249 20.4027 95.8463 20.23 96.5557 20.23C97.2463 20.23 97.839 20.405 98.3337 20.755C98.8283 21.105 99.2063 21.581 99.4677 22.183C99.7337 22.785 99.8667 23.4617 99.8667 24.213C99.8667 24.969 99.7337 25.648 99.4677 26.25C99.2017 26.852 98.819 27.3303 98.3197 27.685C97.8203 28.035 97.2183 28.21 96.5137 28.21ZM93.1117 31.36V20.44H94.0357V26.131H94.1477V31.36H93.1117ZM96.4087 27.251C96.936 27.251 97.3747 27.118 97.7247 26.852C98.0747 26.586 98.336 26.2243 98.5087 25.767C98.686 25.305 98.7747 24.787 98.7747 24.213C98.7747 23.6437 98.6883 23.1303 98.5157 22.673C98.343 22.2157 98.0793 21.854 97.7247 21.588C97.3747 21.322 96.929 21.189 96.3877 21.189C95.8603 21.189 95.4217 21.3173 95.0717 21.574C94.7263 21.8307 94.4673 22.1877 94.2947 22.645C94.122 23.0977 94.0357 23.6203 94.0357 24.213C94.0357 24.7963 94.122 25.319 94.2947 25.781C94.4673 26.2383 94.7287 26.5977 95.0787 26.859C95.4287 27.1203 95.872 27.251 96.4087 27.251ZM104.561 28.21C103.809 28.21 103.168 28.0397 102.636 27.699C102.104 27.3583 101.695 26.887 101.411 26.285C101.126 25.683 100.984 24.9923 100.984 24.213C100.984 23.4197 101.128 22.7243 101.418 22.127C101.707 21.5297 102.118 21.0653 102.65 20.734C103.186 20.398 103.823 20.23 104.561 20.23C105.317 20.23 105.961 20.4003 106.493 20.741C107.029 21.077 107.438 21.546 107.718 22.148C108.002 22.7453 108.145 23.4337 108.145 24.213C108.145 25.0063 108.002 25.704 107.718 26.306C107.433 26.9033 107.022 27.37 106.486 27.706C105.949 28.042 105.307 28.21 104.561 28.21ZM104.561 27.223C105.401 27.223 106.026 26.9453 106.437 26.39C106.847 25.83 107.053 25.1043 107.053 24.213C107.053 23.2983 106.845 22.5703 106.43 22.029C106.019 21.4877 105.396 21.217 104.561 21.217C103.996 21.217 103.529 21.3453 103.161 21.602C102.797 21.854 102.524 22.2063 102.342 22.659C102.164 23.107 102.076 23.625 102.076 24.213C102.076 25.123 102.286 25.8533 102.706 26.404C103.126 26.95 103.744 27.223 104.561 27.223ZM113.273 31.15V28.147C112.536 28.2637 111.864 28.1843 111.257 27.909C110.65 27.629 110.167 27.1763 109.808 26.551C109.449 25.9257 109.269 25.151 109.269 24.227C109.269 23.303 109.449 22.5283 109.808 21.903C110.167 21.273 110.65 20.818 111.257 20.538C111.864 20.258 112.536 20.1763 113.273 20.293V17.976H114.225V20.293C114.962 20.1763 115.634 20.258 116.241 20.538C116.848 20.818 117.331 21.273 117.69 21.903C118.049 22.5283 118.229 23.303 118.229 24.227C118.229 25.151 118.049 25.9257 117.69 26.551C117.331 27.1763 116.848 27.629 116.241 27.909C115.634 28.1843 114.962 28.2637 114.225 28.147V31.15H113.273ZM113.273 27.188V21.259C112.895 21.1937 112.531 21.2053 112.181 21.294C111.831 21.378 111.516 21.5437 111.236 21.791C110.956 22.0337 110.734 22.358 110.571 22.764C110.412 23.1653 110.333 23.653 110.333 24.227C110.333 24.801 110.415 25.291 110.578 25.697C110.741 26.0983 110.963 26.4203 111.243 26.663C111.523 26.9057 111.838 27.069 112.188 27.153C112.538 27.237 112.9 27.2487 113.273 27.188ZM114.225 27.188C114.598 27.2487 114.96 27.237 115.31 27.153C115.66 27.069 115.975 26.908 116.255 26.67C116.535 26.4273 116.757 26.1053 116.92 25.704C117.083 25.298 117.165 24.8057 117.165 24.227C117.165 23.6483 117.083 23.1583 116.92 22.757C116.761 22.351 116.542 22.0267 116.262 21.784C115.982 21.5413 115.667 21.378 115.317 21.294C114.967 21.2053 114.603 21.1937 114.225 21.259V27.188ZM125.771 20.44V28H124.77V22.113L120.626 28H119.758V20.44H120.759V26.278L124.91 20.44H125.771ZM127.036 28V27.097C127.316 27.1483 127.528 27.1367 127.673 27.062C127.822 26.9827 127.932 26.852 128.002 26.67C128.072 26.4833 128.13 26.2523 128.177 25.977C128.252 25.5197 128.319 25.0157 128.38 24.465C128.441 23.9143 128.494 23.3077 128.541 22.645C128.592 21.9777 128.644 21.2427 128.695 20.44H133.833V28H132.811V21.427H129.647C129.614 21.9217 129.577 22.414 129.535 22.904C129.493 23.394 129.449 23.8653 129.402 24.318C129.36 24.766 129.313 25.179 129.262 25.557C129.211 25.935 129.157 26.2617 129.101 26.537C129.017 26.9523 128.905 27.2837 128.765 27.531C128.63 27.7783 128.427 27.9417 128.156 28.021C127.885 28.1003 127.512 28.0933 127.036 28ZM135.796 28L135.782 20.44H136.818V23.289H138.589C138.808 23.289 139.023 23.2937 139.233 23.303C139.447 23.3123 139.636 23.331 139.8 23.359C140.173 23.429 140.504 23.5527 140.794 23.73C141.088 23.9073 141.316 24.1523 141.48 24.465C141.648 24.7777 141.732 25.1697 141.732 25.641C141.732 26.2897 141.564 26.8007 141.228 27.174C140.896 27.5473 140.476 27.79 139.968 27.902C139.776 27.944 139.569 27.972 139.345 27.986C139.121 27.9953 138.899 28 138.68 28H135.796ZM136.818 27.118H138.638C138.796 27.118 138.974 27.1133 139.17 27.104C139.366 27.0947 139.538 27.069 139.688 27.027C139.935 26.957 140.159 26.817 140.36 26.607C140.565 26.3923 140.668 26.0703 140.668 25.641C140.668 25.2163 140.57 24.8967 140.374 24.682C140.178 24.4627 139.916 24.318 139.59 24.248C139.445 24.2153 139.289 24.1943 139.121 24.185C138.953 24.1757 138.792 24.171 138.638 24.171H136.818V27.118Z" fill="#FDFDFD"/>
</svg>
