<svg width="32" height="32" viewBox="0 0 32 32" fill="none" xmlns="http://www.w3.org/2000/svg">
<g clip-path="url(#clip0_2342_56401)">
<path fill-rule="evenodd" clip-rule="evenodd" d="M6.39994 2.1333C5.83414 2.1333 5.29152 2.35806 4.89144 2.75814C4.49136 3.15822 4.2666 3.70084 4.2666 4.26663V27.7333C4.2666 28.2991 4.49136 28.8417 4.89144 29.2418C5.29152 29.6419 5.83414 29.8666 6.39994 29.8666H22.3999C22.6828 29.8666 22.9541 29.7543 23.1542 29.5542C23.3542 29.3542 23.4666 29.0829 23.4666 28.8C23.4666 28.5171 23.3542 28.2458 23.1542 28.0457C22.9541 27.8457 22.6828 27.7333 22.3999 27.7333H6.39994V4.26663H22.3999C22.6828 4.26663 22.9541 4.15425 23.1542 3.95421C23.3542 3.75418 23.4666 3.48287 23.4666 3.19997C23.4666 2.91707 23.3542 2.64576 23.1542 2.44572C22.9541 2.24568 22.6828 2.1333 22.3999 2.1333H6.39994ZM26.8885 10.4448C26.6882 10.2445 26.4165 10.132 26.1333 10.132C25.85 10.132 25.5784 10.2445 25.3781 10.4448C25.1778 10.6451 25.0653 10.9167 25.0653 11.2C25.0653 11.4832 25.1778 11.7549 25.3781 11.9552L28.3583 14.9333H13.8666C13.5837 14.9333 13.3124 15.0457 13.1124 15.2457C12.9123 15.4458 12.7999 15.7171 12.7999 16C12.7999 16.2829 12.9123 16.5542 13.1124 16.7542C13.3124 16.9543 13.5837 17.0666 13.8666 17.0666H28.3583L25.3781 20.0448C25.1778 20.2451 25.0653 20.5167 25.0653 20.8C25.0653 21.0832 25.1778 21.3549 25.3781 21.5552C25.5784 21.7555 25.85 21.868 26.1333 21.868C26.4165 21.868 26.6882 21.7555 26.8885 21.5552L31.6885 16.7552C31.7878 16.6561 31.8666 16.5384 31.9204 16.4088C31.9742 16.2792 32.0018 16.1403 32.0018 16C32.0018 15.8597 31.9742 15.7207 31.9204 15.5911C31.8666 15.4616 31.7878 15.3439 31.6885 15.2448L26.8885 10.4448Z" fill="#1E713F"/>
</g>
<defs>
<clipPath id="clip0_2342_56401">
<rect width="32" height="32" fill="white"/>
</clipPath>
</defs>
</svg>
