<svg width="16" height="16" viewBox="0 0 16 16" fill="none" xmlns="http://www.w3.org/2000/svg">
<path fill-rule="evenodd" clip-rule="evenodd" d="M13.5911 4.3849C14.4813 5.24256 15.249 6.35088 15.894 7.70986C15.9638 7.8576 16 8.01897 16 8.18236C16 8.34576 15.9638 8.50712 15.894 8.65487C14.1581 12.3285 11.5268 14.1653 7.99999 14.1653C6.72775 14.1653 5.57172 13.9252 4.5319 13.445L5.54352 12.4334C6.29219 12.7072 7.11101 12.8441 7.99999 12.8441C10.9616 12.8441 13.1287 11.3431 14.6554 8.18328C14.082 6.99789 13.4188 6.04609 12.6575 5.31853L13.5911 4.3849ZM13.9453 1.04305L14.7275 1.82622C14.7412 1.83985 14.752 1.85604 14.7594 1.87386C14.7668 1.89168 14.7706 1.91079 14.7706 1.93008C14.7706 1.94937 14.7668 1.96847 14.7594 1.98629C14.752 2.00411 14.7412 2.0203 14.7275 2.03394L1.65981 15.1011C1.63228 15.1286 1.59496 15.1441 1.55604 15.1441C1.51713 15.1441 1.4798 15.1286 1.45228 15.1011L0.668929 14.3178C0.64142 14.2902 0.625967 14.2529 0.625967 14.214C0.625967 14.1751 0.64142 14.1378 0.668929 14.1102L2.61069 12.169C1.63437 11.2881 0.799456 10.1173 0.105961 8.6567C0.0361868 8.50895 0 8.34759 0 8.1842C0 8.0208 0.0361868 7.85944 0.105961 7.71169C1.84184 4.03809 4.47318 2.20129 7.99999 2.20129C9.38062 2.20129 10.6242 2.48387 11.7307 3.04904L13.7376 1.04305C13.7512 1.0294 13.7674 1.01858 13.7852 1.01119C13.803 1.0038 13.8221 1 13.8414 1C13.8607 1 13.8798 1.0038 13.8976 1.01119C13.9155 1.01858 13.9317 1.0294 13.9453 1.04305ZM7.99999 3.52246C5.04019 3.52246 2.87309 5.02347 1.34456 8.18328C1.96845 9.47289 2.69877 10.486 3.54597 11.2337L5.0767 9.703C4.75075 9.09208 4.62977 8.39257 4.73163 7.70766C4.83349 7.02276 5.15278 6.38872 5.64241 5.8991C6.13204 5.40947 6.76607 5.09018 7.45098 4.98832C8.13588 4.88646 8.83539 5.00743 9.44631 5.33339L10.7363 4.04341C9.91074 3.69421 9.00078 3.52246 7.99999 3.52246ZM6.09513 7.25239C5.94839 7.54078 5.87175 7.85971 5.87143 8.18328C5.87119 8.39625 5.90407 8.60796 5.96886 8.81084L8.55415 6.22555C8.2459 6.12716 7.91879 6.10287 7.59939 6.15465C7.27999 6.20644 6.97731 6.33283 6.71594 6.52357C6.45456 6.71431 6.24187 6.96401 6.09513 7.25239ZM7.74026 10.2299C7.80228 10.2356 7.86485 10.2385 7.92834 10.2385C8.19827 10.2387 8.46558 10.1856 8.71499 10.0824C8.9644 9.97913 9.19102 9.82776 9.38188 9.63689C9.57275 9.44602 9.72413 9.2194 9.82736 8.96999C9.93059 8.72058 9.98365 8.45327 9.9835 8.18335C9.9835 8.11986 9.98057 8.05728 9.97488 7.99526L10.9441 7.02603C11.1674 7.60898 11.217 8.24412 11.0869 8.85467C10.9569 9.46521 10.6528 10.025 10.2114 10.4664C9.77002 10.9078 9.21021 11.2119 8.59966 11.342C7.98912 11.472 7.35398 11.4224 6.77103 11.1991L7.74026 10.2299Z" fill="#A4A4A4"/>
</svg>
