<?xml version="1.0" encoding="utf-8"?><svg width="60" height="60" fill="none" xmlns="http://www.w3.org/2000/svg" viewBox="0 0 60 60"><path d="M30 15a9.375 9.375 0 100 18.75A9.375 9.375 0 0030 15zm0 15a5.625 5.625 0 110-11.25A5.625 5.625 0 0130 30z" fill="#1E713F"/><path d="M30 3.75A26.25 26.25 0 1056.25 30 26.28 26.28 0 0030 3.75zM18.75 49.457v-2.582a5.63 5.63 0 015.625-5.625h11.25a5.63 5.63 0 015.625 5.625v2.582a22.31 22.31 0 01-22.5 0zm26.235-2.72a9.379 9.379 0 00-9.36-9.237h-11.25a9.378 9.378 0 00-9.36 9.236 22.5 22.5 0 1129.972 0h-.002z" fill="#1E713F"/></svg>