<?xml version="1.0" encoding="utf-8"?><svg width="148" height="40" fill="none" xmlns="http://www.w3.org/2000/svg" viewBox="0 0 148 40"><path d="M74 0l6 6H68l6-6z" fill="#1E713F"/><rect y="6" width="148" height="34" rx="8" fill="#1E713F"/><path d="M18.681 28l1.134-2.387-3.584-7.693h1.141l2.982 6.587 3.038-6.587h1.099L19.801 28h-1.12zm5.34 1.68v-2.562c.43 0 .738-.138.925-.413.186-.28.338-.726.455-1.337.079-.397.144-.824.196-1.281.05-.457.095-.98.133-1.568.037-.593.072-1.286.105-2.079h4.998v6.678h.728v2.562h-.994V28h-5.558v1.68h-.987zm1.744-2.562h4.046v-5.796h-3.024c-.014.355-.035.73-.063 1.127a34.26 34.26 0 01-.091 1.19c-.033.397-.073.77-.12 1.12a8.745 8.745 0 01-.153.91c-.07.336-.147.623-.231.861a1.4 1.4 0 01-.364.588zm9.36 1.092c-.569 0-1.047-.103-1.435-.308a2.089 2.089 0 01-.86-.819 2.235 2.235 0 01-.288-1.113c0-.41.082-.76.245-1.05.168-.294.395-.534.68-.721.289-.187.622-.329 1-.427.383-.093.805-.175 1.267-.245.467-.075.922-.138 1.365-.189.448-.056.84-.11 1.176-.161l-.364.224c.014-.747-.13-1.3-.434-1.659-.303-.36-.83-.539-1.582-.539-.518 0-.956.117-1.316.35-.354.233-.604.602-.749 1.106l-1-.294c.172-.677.52-1.202 1.042-1.575.523-.373 1.202-.56 2.037-.56.691 0 1.277.13 1.757.392.486.257.829.63 1.03 1.12.093.22.153.464.181.735.028.27.042.546.042.826V28h-.917v-1.897l.266.112c-.256.649-.655 1.143-1.197 1.484-.54.34-1.19.511-1.946.511zm.12-.889c.48 0 .9-.086 1.26-.259.359-.173.648-.408.867-.707.22-.303.362-.644.427-1.022.056-.243.087-.509.091-.798.005-.294.007-.513.007-.658l.392.203c-.35.047-.73.093-1.14.14-.407.047-.808.1-1.205.161a10.4 10.4 0 00-1.064.217c-.214.06-.422.147-.623.259-.2.107-.366.252-.497.434a1.165 1.165 0 00-.189.679c0 .22.054.432.161.637.112.205.29.376.532.511.248.135.574.203.98.203zm4.797.679v-.903c.28.051.492.04.637-.035.15-.08.259-.21.329-.392.07-.187.128-.418.175-.693.074-.457.142-.961.203-1.512.06-.55.114-1.157.16-1.82.052-.667.103-1.402.155-2.205h5.138V28h-1.022v-6.573h-3.164a75.179 75.179 0 01-.245 2.891c-.042.448-.089.861-.14 1.239a15.36 15.36 0 01-.161.98c-.084.415-.196.747-.336.994a.984.984 0 01-.61.49c-.27.08-.643.072-1.12-.021zM54.8 20.44V28h-1v-5.887L49.656 28h-.868v-7.56h1v5.838l4.152-5.838h.86zM58.816 28v-6.608h-2.68v-.952h6.39v.952h-2.68V28h-1.03zm5.052 0l-.014-7.56h1.036v2.849h1.77c.22 0 .435.005.645.014.214.01.403.028.567.056.373.07.704.194.994.371.294.177.522.422.686.735.168.313.252.705.252 1.176 0 .649-.168 1.16-.504 1.533a2.3 2.3 0 01-1.26.728c-.192.042-.4.07-.623.084-.224.01-.446.014-.665.014h-2.884zm1.022-.882h1.82c.159 0 .336-.005.532-.014.196-.01.368-.035.518-.077.247-.07.471-.21.672-.42.205-.215.308-.537.308-.966 0-.425-.098-.744-.294-.959a1.415 1.415 0 00-.784-.434 2.84 2.84 0 00-.47-.063 8.752 8.752 0 00-.482-.014h-1.82v2.947zm9.245.882v-7.56h6.013V28H79.12v-6.573h-3.955V28h-1.029zm11.373.21c-.695 0-1.283-.175-1.764-.525-.48-.355-.845-.833-1.092-1.435-.248-.607-.371-1.286-.371-2.037 0-.765.123-1.447.37-2.044.253-.602.621-1.076 1.107-1.421.485-.345 1.083-.518 1.792-.518.69 0 1.283.175 1.778.525.495.35.873.826 1.134 1.428.266.602.399 1.279.399 2.03 0 .756-.133 1.435-.4 2.037a3.406 3.406 0 01-1.147 1.435c-.5.35-1.101.525-1.806.525zm-3.402 3.15V20.44h.924v5.691h.112v5.229h-1.036zm3.297-4.109c.527 0 .966-.133 1.316-.399.35-.266.611-.628.784-1.085.177-.462.266-.98.266-1.554 0-.57-.087-1.083-.26-1.54a2.36 2.36 0 00-.79-1.085c-.35-.266-.796-.399-1.337-.399-.528 0-.966.128-1.316.385-.346.257-.605.614-.777 1.071-.173.453-.26.975-.26 1.568 0 .583.087 1.106.26 1.568.172.457.434.817.784 1.078.35.261.793.392 1.33.392zm8.152.959c-.751 0-1.393-.17-1.925-.511a3.325 3.325 0 01-1.225-1.414c-.285-.602-.427-1.293-.427-2.072 0-.793.145-1.489.434-2.086.29-.597.7-1.062 1.232-1.393.537-.336 1.174-.504 1.911-.504.756 0 1.4.17 1.932.511a3.22 3.22 0 011.225 1.407c.285.597.427 1.286.427 2.065 0 .793-.142 1.491-.427 2.093a3.272 3.272 0 01-1.232 1.4c-.537.336-1.178.504-1.925.504zm0-.987c.84 0 1.465-.278 1.876-.833.41-.56.616-1.286.616-2.177 0-.915-.208-1.643-.623-2.184-.41-.541-1.034-.812-1.869-.812-.565 0-1.031.128-1.4.385a2.282 2.282 0 00-.819 1.057c-.177.448-.266.966-.266 1.554 0 .91.21 1.64.63 2.191.42.546 1.038.819 1.855.819zm8.712 3.927v-3.003c-.737.117-1.409.037-2.016-.238-.607-.28-1.09-.733-1.449-1.358-.36-.625-.539-1.4-.539-2.324 0-.924.18-1.699.54-2.324.359-.63.841-1.085 1.448-1.365s1.279-.362 2.016-.245v-2.317h.952v2.317c.737-.117 1.409-.035 2.016.245s1.09.735 1.449 1.365c.359.625.539 1.4.539 2.324 0 .924-.18 1.699-.539 2.324-.359.625-.842 1.078-1.449 1.358-.607.275-1.279.355-2.016.238v3.003h-.952zm0-3.962v-5.929a2.598 2.598 0 00-1.092.035c-.35.084-.665.25-.945.497-.28.243-.502.567-.665.973-.159.401-.238.889-.238 1.463 0 .574.082 1.064.245 1.47.163.401.385.723.665.966s.595.406.945.49c.35.084.712.096 1.085.035zm.952 0c.373.06.735.049 1.085-.035s.665-.245.945-.483c.28-.243.502-.565.665-.966.163-.406.245-.898.245-1.477 0-.579-.082-1.069-.245-1.47-.159-.406-.378-.73-.658-.973a2.214 2.214 0 00-.945-.49c-.35-.089-.714-.1-1.092-.035v5.929zm11.546-6.748V28h-1.001v-5.887L109.62 28h-.868v-7.56h1.001v5.838l4.151-5.838h.861zM116.03 28v-.903c.28.051.492.04.637-.035a.713.713 0 00.329-.392c.07-.187.128-.418.175-.693.075-.457.142-.961.203-1.512.061-.55.114-1.157.161-1.82.051-.667.103-1.402.154-2.205h5.138V28h-1.022v-6.573h-3.164a78.392 78.392 0 01-.245 2.891c-.042.448-.089.861-.14 1.239a15.15 15.15 0 01-.161.98c-.084.415-.196.747-.336.994a.983.983 0 01-.609.49c-.271.08-.644.072-1.12-.021zm8.76 0l-.014-7.56h1.036v2.849h1.771c.219 0 .434.005.644.014.214.01.403.028.567.056.373.07.704.194.994.371.294.177.522.422.686.735.168.313.252.705.252 1.176 0 .649-.168 1.16-.504 1.533a2.304 2.304 0 01-1.26.728c-.192.042-.399.07-.623.084-.224.01-.446.014-.665.014h-2.884zm1.022-.882h1.82c.158 0 .336-.005.532-.014.196-.01.368-.035.518-.077.247-.07.471-.21.672-.42.205-.215.308-.537.308-.966 0-.425-.098-.744-.294-.959a1.417 1.417 0 00-.784-.434 2.845 2.845 0 00-.469-.063 8.752 8.752 0 00-.483-.014h-1.82v2.947z" fill="#FDFDFD"/></svg>