<?xml version="1.0" encoding="utf-8"?><svg width="159" height="40" fill="none" xmlns="http://www.w3.org/2000/svg" viewBox="0 0 159 40"><path d="M80 0l6 6H74l6-6z" fill="#1E713F"/><rect y="6" width="159" height="34" rx="8" fill="#1E713F"/><path d="M24.603 28h-1.036v-8.267L18.016 28H16.98V17.92h1.036v8.26l5.551-8.26h1.036V28zm4.684.21c-.76 0-1.426-.166-1.995-.497a3.621 3.621 0 01-1.337-1.393l.826-.525c.275.467.618.821 1.029 1.064.41.243.882.364 1.414.364.555 0 1.001-.128 1.337-.385.336-.257.504-.609.504-1.057 0-.308-.072-.553-.217-.735-.14-.182-.355-.313-.644-.392-.285-.08-.642-.119-1.071-.119h-.896v-.882h.882c.523 0 .943-.093 1.26-.28.322-.191.483-.49.483-.896 0-.43-.161-.747-.483-.952-.317-.21-.698-.315-1.141-.315-.448 0-.873.093-1.274.28a3.15 3.15 0 00-1.001.707l-.658-.693a3.77 3.77 0 011.323-.945 4.218 4.218 0 011.687-.329c.485 0 .924.086 1.316.259.397.168.71.415.938.742.233.327.35.719.35 1.176 0 .43-.105.8-.315 1.113a2.374 2.374 0 01-.875.777l-.056-.385c.327.06.597.191.812.392.215.2.373.441.476.721.103.28.154.565.154.854 0 .48-.126.896-.378 1.246a2.435 2.435 0 01-1.015.805 3.53 3.53 0 01-1.435.28zm4.366-.21v-7.56h.917l2.947 6.188 2.954-6.188h.91V28h-.994v-5.362L37.846 28h-.651l-2.541-5.362V28h-1.001zm12.885.21c-.737 0-1.376-.163-1.918-.49a3.325 3.325 0 01-1.253-1.379c-.298-.593-.448-1.288-.448-2.086 0-.826.147-1.54.441-2.142a3.278 3.278 0 011.24-1.393c.536-.327 1.168-.49 1.896-.49.747 0 1.384.173 1.911.518.528.34.927.83 1.197 1.47.271.64.395 1.402.371 2.289h-1.05v-.364c-.018-.98-.23-1.72-.637-2.219-.401-.5-.989-.749-1.764-.749-.812 0-1.435.264-1.869.791-.429.527-.644 1.279-.644 2.254 0 .952.215 1.692.644 2.219.434.523 1.048.784 1.841.784.542 0 1.013-.124 1.414-.371.406-.252.726-.614.96-1.085l.958.371a3.43 3.43 0 01-1.323 1.533c-.578.36-1.234.539-1.967.539zm-2.89-3.703v-.861h5.774v.861h-5.775zM51.521 28v-7.56h1.029v3.283h4.263V20.44h1.029V28h-1.03v-3.29h-4.262V28h-1.03zm14.284-7.56V28h-1v-5.887L60.66 28h-.868v-7.56h1.001v5.838l4.151-5.838h.861zM69.822 28v-6.608h-2.681v-.952h6.391v.952h-2.681V28h-1.029zm5.052 0l-.014-7.56h1.036v2.849h1.77c.22 0 .435.005.645.014.214.01.403.028.567.056.373.07.704.194.994.371.294.177.522.422.686.735.168.313.252.705.252 1.176 0 .649-.168 1.16-.504 1.533a2.3 2.3 0 01-1.26.728c-.192.042-.4.07-.623.084-.224.01-.446.014-.665.014h-2.884zm1.022-.882h1.82c.158 0 .336-.005.532-.014a2.33 2.33 0 00.518-.077c.247-.07.471-.21.672-.42.205-.215.308-.537.308-.966 0-.425-.098-.744-.294-.959a1.415 1.415 0 00-.784-.434 2.84 2.84 0 00-.47-.063 8.752 8.752 0 00-.482-.014h-1.82v2.947zM85.14 28v-7.56h6.013V28h-1.029v-6.573H86.17V28h-1.029zm11.373.21c-.696 0-1.284-.175-1.764-.525-.481-.355-.845-.833-1.092-1.435-.248-.607-.371-1.286-.371-2.037 0-.765.123-1.447.37-2.044.253-.602.621-1.076 1.107-1.421.485-.345 1.082-.518 1.792-.518.69 0 1.283.175 1.778.525.494.35.872.826 1.134 1.428.266.602.399 1.279.399 2.03 0 .756-.133 1.435-.4 2.037a3.406 3.406 0 01-1.147 1.435c-.5.35-1.102.525-1.806.525zm-3.402 3.15V20.44h.924v5.691h.112v5.229h-1.036zm3.297-4.109c.527 0 .966-.133 1.316-.399.35-.266.611-.628.784-1.085.177-.462.266-.98.266-1.554 0-.57-.087-1.083-.26-1.54a2.361 2.361 0 00-.79-1.085c-.35-.266-.796-.399-1.337-.399-.528 0-.966.128-1.316.385-.346.257-.605.614-.777 1.071-.173.453-.26.975-.26 1.568 0 .583.087 1.106.26 1.568.172.457.434.817.784 1.078.35.261.793.392 1.33.392zm8.152.959c-.752 0-1.393-.17-1.925-.511a3.32 3.32 0 01-1.225-1.414c-.285-.602-.427-1.293-.427-2.072 0-.793.144-1.489.434-2.086.289-.597.7-1.062 1.232-1.393.536-.336 1.173-.504 1.911-.504.756 0 1.4.17 1.932.511.536.336.945.805 1.225 1.407.284.597.427 1.286.427 2.065 0 .793-.143 1.491-.427 2.093a3.278 3.278 0 01-1.232 1.4c-.537.336-1.179.504-1.925.504zm0-.987c.84 0 1.465-.278 1.876-.833.41-.56.616-1.286.616-2.177 0-.915-.208-1.643-.623-2.184-.411-.541-1.034-.812-1.869-.812-.565 0-1.032.128-1.4.385a2.282 2.282 0 00-.819 1.057c-.178.448-.266.966-.266 1.554 0 .91.21 1.64.63 2.191.42.546 1.038.819 1.855.819zm8.712 3.927v-3.003c-.737.117-1.409.037-2.016-.238-.607-.28-1.09-.733-1.449-1.358-.359-.625-.539-1.4-.539-2.324 0-.924.18-1.699.539-2.324.359-.63.842-1.085 1.449-1.365.607-.28 1.279-.362 2.016-.245v-2.317h.952v2.317c.737-.117 1.409-.035 2.016.245s1.09.735 1.449 1.365c.359.625.539 1.4.539 2.324 0 .924-.18 1.699-.539 2.324-.359.625-.842 1.078-1.449 1.358-.607.275-1.279.355-2.016.238v3.003h-.952zm0-3.962v-5.929a2.598 2.598 0 00-1.092.035c-.35.084-.665.25-.945.497-.28.243-.502.567-.665.973-.159.401-.238.889-.238 1.463 0 .574.082 1.064.245 1.47.163.401.385.723.665.966s.595.406.945.49c.35.084.712.096 1.085.035zm.952 0c.373.06.735.049 1.085-.035s.665-.245.945-.483c.28-.243.502-.565.665-.966.163-.406.245-.898.245-1.477 0-.579-.082-1.069-.245-1.47-.159-.406-.378-.73-.658-.973a2.214 2.214 0 00-.945-.49c-.35-.089-.714-.1-1.092-.035v5.929zm11.546-6.748V28h-1.001v-5.887L120.626 28h-.868v-7.56h1.001v5.838l4.151-5.838h.861zm1.265 7.56v-.903c.28.051.492.04.637-.035a.713.713 0 00.329-.392c.07-.187.128-.418.175-.693.075-.457.142-.961.203-1.512.061-.55.114-1.157.161-1.82.051-.667.103-1.402.154-2.205h5.138V28h-1.022v-6.573h-3.164a78.392 78.392 0 01-.245 2.891c-.042.448-.089.861-.14 1.239a15.15 15.15 0 01-.161.98c-.084.415-.196.747-.336.994a.983.983 0 01-.609.49c-.271.08-.644.072-1.12-.021zm8.76 0l-.014-7.56h1.036v2.849h1.771c.219 0 .434.005.644.014.214.01.403.028.567.056.373.07.704.194.994.371.294.177.522.422.686.735.168.313.252.705.252 1.176 0 .649-.168 1.16-.504 1.533a2.304 2.304 0 01-1.26.728c-.192.042-.399.07-.623.084-.224.01-.446.014-.665.014h-2.884zm1.022-.882h1.82c.158 0 .336-.005.532-.014.196-.01.368-.035.518-.077.247-.07.471-.21.672-.42.205-.215.308-.537.308-.966 0-.425-.098-.744-.294-.959a1.417 1.417 0 00-.784-.434 2.845 2.845 0 00-.469-.063 8.752 8.752 0 00-.483-.014h-1.82v2.947z" fill="#FDFDFD"/></svg>