<?xml version="1.0" encoding="utf-8"?><svg width="32" height="32" fill="none" xmlns="http://www.w3.org/2000/svg" viewBox="0 0 32 32"><g clip-path="url(#anclip0_2342_56401)"><path fill-rule="evenodd" clip-rule="evenodd" d="M6.4 2.133a2.133 2.133 0 00-2.133 2.134v23.466A2.133 2.133 0 006.4 29.867h16a1.067 1.067 0 100-2.134h-16V4.267h16a1.067 1.067 0 000-2.134h-16zm20.488 8.312a1.068 1.068 0 00-1.51 1.51l2.98 2.978H13.867a1.067 1.067 0 000 2.134h14.491l-2.98 2.978a1.068 1.068 0 101.51 1.51l4.8-4.8a1.068 1.068 0 000-1.51l-4.8-4.8z" fill="#1E713F"/></g><defs><clipPath id="anclip0_2342_56401"><path fill="#fff" d="M0 0h32v32H0z"/></clipPath></defs></svg>