<?xml version="1.0" encoding="utf-8"?><svg width="65" height="79" fill="none" xmlns="http://www.w3.org/2000/svg" viewBox="0 0 65 79"><path d="M53.472 44.614a.25.25 0 11-.499.001.25.25 0 01.5 0zM57.888 30.008a.25.25 0 01-.249.25.25.25 0 010-.5.25.25 0 01.25.25zM60.518 39.943a.25.25 0 11-.498 0 .25.25 0 11.498 0zM49.15 33.886a.25.25 0 11-.5.001.25.25 0 01.5 0zM60.269 21.964a.25.25 0 11-.499.001.25.25 0 01.499 0zM37.634 3.713a.25.25 0 11-.498.001.25.25 0 01.498 0zM49.645 6.582a.25.25 0 11-.5 0 .25.25 0 01.5 0zM33.545 9.492a.251.251 0 01-.055.35.248.248 0 01-.348-.056.25.25 0 01.055-.35.248.248 0 01.348.056zM40.566 14.251a.25.25 0 01-.055.35.248.248 0 01-.348-.056.25.25 0 01.056-.35.248.248 0 01.347.056zM50.325 24.757a.25.25 0 01-.056.35.248.248 0 01-.347-.056.25.25 0 01.055-.35.248.248 0 01.348.056zM34.25 20.742a.25.25 0 01-.056.35.248.248 0 01-.348-.056.25.25 0 01.056-.35.248.248 0 01.348.056zM39.732 27.644a.25.25 0 01-.056.35.248.248 0 01-.347-.056.25.25 0 01.055-.35.248.248 0 01.348.056zM43.508 39.66a.25.25 0 01-.056.349.249.249 0 01-.347-.056.25.25 0 01.055-.35.248.248 0 01.348.056zM31.183 76.592c1.389-1.695 2.992-3.206 4.692-4.59a36.592 36.592 0 012.648-1.952c.453-.31.916-.603 1.387-.886.236-.139.47-.283.71-.417l.721-.395c.97-.514 1.973-.963 2.988-1.375 1.014-.416 2.059-.75 3.105-1.063a31.64 31.64 0 013.187-.763l.808-.143.806-.13a97.05 97.05 0 001.606-.29 43.622 43.622 0 003.177-.708c.52-.141 1.04-.29 1.532-.486.244-.097.482-.209.686-.343.1-.067.19-.142.247-.217.06-.077.069-.131.062-.185a.513.513 0 00-.135-.222 1.774 1.774 0 00-.271-.23 5.351 5.351 0 00-.67-.395c-.474-.24-.972-.449-1.474-.651a79.617 79.617 0 00-1.519-.588c-.246-.094-.527-.188-.79-.343-.26-.152-.531-.353-.701-.678a1.173 1.173 0 01-.133-.526 1.454 1.454 0 01.086-.506c.111-.31.285-.561.47-.789.374-.45.804-.815 1.245-1.156.888-.675 1.84-1.23 2.8-1.76.96-.531 1.948-1.002 2.943-1.455.497-.226.998-.444 1.504-.65a40.644 40.644 0 011.524-.6l.021.05c-1.96.953-3.897 1.955-5.766 3.055-.931.553-1.843 1.143-2.68 1.807-.415.332-.816.687-1.133 1.082a2.302 2.302 0 00-.364.615c-.073.21-.074.395.012.558.083.166.26.317.468.437.208.121.443.21.704.313.507.201 1.015.404 1.52.616.506.215 1.01.435 1.506.696.247.133.493.272.73.448.119.088.236.184.345.305a.994.994 0 01.254.487.703.703 0 01-.03.321.82.82 0 01-.144.252 1.556 1.556 0 01-.37.314c-.258.158-.52.27-.784.367-.529.192-1.062.332-1.597.454-1.073.24-2.151.413-3.23.58-1.077.168-2.166.284-3.234.47-1.068.19-2.13.434-3.16.775-2.071.663-4.037 1.607-5.924 2.669a52.34 52.34 0 00-2.775 1.69 47.574 47.574 0 00-2.655 1.88 51.398 51.398 0 00-2.529 2.056c-.407.36-.817.718-1.215 1.09-.397.372-.79.752-1.17 1.142l-.041-.037z" fill="#FFF"/><path d="M46.35 69.857c.86-.638 1.7-1.298 2.55-1.95.857-.645 1.737-1.269 2.669-1.817.463-.276.943-.538 1.432-.772.49-.234.993-.432 1.502-.603a29.027 29.027 0 013.106-.84l.02.053c-.474.26-.964.484-1.455.697-.491.215-.986.413-1.477.616-.983.408-1.979.739-2.912 1.241-.938.488-1.838 1.057-2.723 1.654-.891.588-1.77 1.203-2.68 1.767l-.031-.046z" fill="#FFF"/><path d="M23.33 8.862a21.23 21.23 0 013.034-3.437 21.094 21.094 0 013.718-2.698A20.87 20.87 0 0138.848.043a79.6 79.6 0 011.158-.04c.383-.006.762 0 1.144 0l2.286.003c1.538-.006 3.09.136 4.598.469a21.036 21.036 0 018.346 3.867c2.449 1.886 4.506 4.297 5.931 7.051 1.433 2.747 2.27 5.813 2.38 8.915.029.78.022 1.541.022 2.307V57.05c-.001.383.006.763-.009 1.152-.01.388-.014.776-.052 1.162l-.044.58c-.02.193-.048.385-.071.578-.026.192-.047.385-.076.576l-.103.573a20.943 20.943 0 01-1.336 4.445 21.43 21.43 0 01-5.373 7.49c-2.307 2.059-5.054 3.635-8.02 4.509-1.481.442-3.01.719-4.551.825-.77.056-1.546.052-2.304.056-.762.006-1.524 0-2.286-.002-.379 0-.767-.023-1.152-.038-.386-.007-.77-.053-1.153-.09-.385-.03-.765-.095-1.146-.155-.382-.05-.758-.136-1.134-.218a20.713 20.713 0 01-4.358-1.486 20.962 20.962 0 01-3.915-2.4 21.172 21.172 0 01-3.288-3.19 21.153 21.153 0 007.324 5.323 20.364 20.364 0 004.322 1.335c.371.069.74.142 1.116.18.374.048.747.101 1.124.118.375.026.75.06 1.127.056.377.004.75.015 1.133.004.762-.002 1.524-.007 2.286-.002.38-.001.766.01 1.14-.005.375-.013.752-.008 1.126-.046 1.5-.103 2.988-.373 4.428-.802 2.888-.85 5.562-2.386 7.809-4.39a20.867 20.867 0 005.232-7.292 20.38 20.38 0 001.3-4.327l.1-.558c.029-.186.049-.374.074-.56.023-.188.05-.375.07-.563l.042-.564c.037-.376.042-.754.051-1.131.014-.375.008-.761.01-1.143V22.615c-.001-.765.005-1.534-.022-2.284-.108-3.02-.922-6.003-2.317-8.677-1.387-2.681-3.391-5.03-5.776-6.866a20.478 20.478 0 00-8.124-3.765 20.425 20.425 0 00-4.481-.456L41.15.57l-1.142.007a73.03 73.03 0 01-1.127.03 20.516 20.516 0 00-8.656 2.382 20.886 20.886 0 00-3.754 2.559 21.12 21.12 0 00-3.14 3.314z" fill="#FFF"/><path d="M50.67 13.35s.613-.127 1.099.307c0 0 .342.162.757 0 .414-.163 1.746-.814 2.953-.796 1.207.018 2.684.38 3.422.434.739.054 1.027-.018.631.18-.396.2-1.099.399-1.675.345-.576-.055-2.414-.091-3.152.009-.739.099-1.837.37-2.36.533-.522.163-.666.145-.63.434.036.29.108.611.216.767.108.156-.162.101-.504.101-.343 0-1.153-.198-1.387-.415-.234-.218-.198-.254 0-.453s.306-.597.198-.886c-.108-.29-.523-1.013-1.28-1.52-.755-.506-1.674-1.284-2.485-1.646-.81-.361-1.585-1.085-1.89-1.41-.307-.326-.415-.543 0-.38.413.163 2.053 1.03 2.683 1.338.63.308 1.063.615 1.567 1.085s1.423 1.34 1.837 1.972zM40.49 19.481s.268-.178.582-.065c0 0 .194.012.36-.145.166-.158.676-.724 1.254-.948.578-.224 1.35-.336 1.711-.453.362-.116.485-.206.335-.035-.15.171-.447.401-.732.486-.284.085-1.166.422-1.498.612-.332.19-.803.53-1.02.708-.218.178-.29.197-.218.328.073.13.168.27.25.323.08.053-.058.08-.221.146-.163.065-.587.127-.74.069-.152-.059-.142-.083-.086-.216a.474.474 0 00-.075-.46 1.83 1.83 0 00-.899-.476c-.456-.096-1.042-.288-1.497-.305-.455-.016-.961-.21-1.17-.307-.207-.096-.3-.178-.072-.18.229-.003 1.174.095 1.533.12.359.024.623.088.953.214.33.127.933.363 1.25.584zM23.719 48.822l.402-.51c.002-.002.201-.264.266-.706-.478.31-1.55.963-2.121.983l-.52.018.44-.277c.011-.007 1.096-.7 1.833-2.12l.248.13a6.438 6.438 0 01-1.357 1.772c.574-.255 1.26-.69 1.558-.895l.22-.151-.002.267c0 .242-.04.45-.09.622.652-.64 1.018-1.733 1.023-1.746l.153-.466.115.477c.186.775.47 1.179.712 1.39-.311-.584-.34-1.296-.34-1.335l-.013-.366.253.264c1.303 1.366 2.185 1.894 2.691 2.098a.738.738 0 01-.081-.129l-.144-.31.319.12c.729.272 1.295.322 1.67.31A7.02 7.02 0 0128.49 46.6l-.308-.345.446.115c.291.075.816.08 1.195.072-.688-.476-1.64-1.305-1.866-1.503a1.14 1.14 0 01-.05-.044l.188-.208.049.043c.4.331 1.267.56 1.796.676a8.32 8.32 0 01-.215-.282l-.003-.003a.228.228 0 01-.05-.057c-.074-.128-.015-.194.027-.221.106-.07.175.012.24.1.15.094.762.278 1.341.42v-.313l.158.021c1.12.151 1.828-.014 2.18-.145a.167.167 0 01-.017-.052c-.013-.084.04-.162.137-.203l.019-.007c.34-.09.546-.219.67-.33-6.287.612-6.921-1.655-6.946-1.754l-.072-.293.27.135c.874.433 1.722.48 2.226.454-.428-.275-.559-.612-.566-.63l-.123-.33.315.154c.481.235 1.826.491 2.665.635a3.743 3.743 0 01-.257-.282l-.256-.31.392.084c.517.11 1.041.08 1.41.029a2.56 2.56 0 01-.38-.237l-.359-.281.455.03c.781.052 1.3-.192 1.594-.4-4.596.399-8.435-2.063-8.474-2.088l.152-.235c.04.025 4.035 2.582 8.713 2l.33-.042-.202.266c-.024.03-.529.678-1.625.775.112.051.236.094.357.11l.679.087-.658.187a4.89 4.89 0 01-1.643.135c.132.125.262.227.355.267l.123.02.968.145-.97.132a.402.402 0 01-.178-.021c-.467-.073-1.983-.32-2.865-.588.13.12.322.248.595.339l.48.16-.494.11c-.052.011-1.183.252-2.489-.25.474.586 2.016 1.695 6.763 1.177L34.93 44l-.07.207c-.005.017-.121.345-.636.587l.146.012-.32.224c-.033.022-.788.533-2.49.339v.348l-.17-.04a13.094 13.094 0 01-1.108-.3.725.725 0 00.146.133l.675.384-.766-.124a9.929 9.929 0 01-1.357-.331c.475.39 1.032.823 1.367 1.002l.438.232-.494.031c-.038.002-.732.046-1.291.002.448.406 1.37 1.126 2.576 1.469l.4.113-.388.152c-.03.012-.667.252-1.804-.038l.014.007.386.195-.427.068c-.042.008-1.03.136-3.174-2.012.064.371.216.912.567 1.212l.302.256-.395-.01c-.038 0-.86-.037-1.326-1.429-.23.534-.715 1.46-1.436 1.834l-.576.298z" fill="#FFF"/><path d="M39.485 67.247c-.699 0-2.15-.282-4.278-2.089.304.59.708 1.31.94 1.506l.332.282-.434-.035a2.09 2.09 0 01-1.357-.744c.016.062.044.13.089.2l.243.383-.416-.179c-.077-.033-1.907-.825-2.26-1.656l.257-.11c.214.503 1.193 1.067 1.802 1.365a.788.788 0 01.062-.482l.126-.232.12.235c.255.495.664.732.967.844-.435-.624-.97-1.744-1.042-1.898l-.308-.65.529.487c2.356 2.175 3.938 2.483 4.627 2.488-.283-.282-.338-.69-.341-.713l-.024-.19.187.034c.527.096.92.152 1.209.184-1.222-.58-2.317-1.492-2.372-1.538l-.41-.344.525.098c1.954.367 3.151.414 3.85.374-2.873-.429-3.133-1.21-3.154-1.305l-.046-.206.207.037c.707.13 1.205.152 1.548.131-1.966-.26-3.937-.998-3.96-1.007l-1.068-.403 1.134.133c.412.048.756.002 1.018-.068-2.865-.076-3.923-.662-4.3-1.16-.271-.358-.19-.667-.187-.68l.04-.143.14.048c.824.283 1.963.49 2.685.604-.247-.22-.314-.415-.318-.428l-.078-.24.245.06c.923.23 1.594.244 2.033.2-6.422-1.155-7.885-2.24-8.179-2.795-.114-.216-.061-.358-.05-.384l.1-.22.141.196c.193.268 1.43.706 2.359.983-.021-.22.11-.427.127-.453l.082-.123.119.09c.464.354 1.493.5 2.046.555a7.367 7.367 0 01-.514-.783l-.248-.434.437.24c1.263.699 2.16.862 2.681.879-.544-.28-.75-.588-.76-.604l-.18-.276.323.062c2.204.422 3.28.27 3.758.118a27.224 27.224 0 01-2.255-.59l.063-.271c.617.094 1.346.005 1.927-.11-5.69-.135-7.642-1.87-7.727-1.948l-.673-.62.826.39c.229.107.476.146.684.156a4.182 4.182 0 01-.956-.83l-.58-.727.767.524c.807.55 1.916.713 2.652.757a2.807 2.807 0 01-.213-.122l-.594-.386.696.13c.602.114 1.475-.001 2.06-.107-7.103-1.7-7.736-4.595-7.76-4.72l-.078-.41.308.279a9.223 9.223 0 001.557 1.139 1.757 1.757 0 01-.086-.272l.275-.051a.503.503 0 00.005.02c.053.164.543.423 1.065.616-.04-.414.29-.93.34-1.003l.121-.182.114.187c.473.78 1.258 1.1 1.265 1.104l.041.025c.283.25.591.303.821.297-.748-.587-1.504-1.996-1.54-2.064l-.312-.585.52.408c1.588 1.245 2.76 1.6 3.416 1.691-.56-.358-1.133-.905-1.166-.937l-.314-.3.43.06c3.121.445 4.851.171 5.647-.054-1.017-.163-2.678-.626-2.767-.65l-.753-.211.78-.065c.213-.017.428-.07.62-.134-1.332-.052-3.342-.521-3.446-.546l-1.265-.297 1.299.02c1.161.02 1.354-.197 1.385-.264.035-.076-.046-.173-.047-.174l-.365-.422.52.199c.488.187 1.248.023 1.66-.092a.435.435 0 01-.06-.238l.008-.093.088-.03c.208-.07.433-.212.634-.364-3.36 1.127-8.176-.049-8.395-.103l.067-.272c.057.014 5.733 1.399 8.977-.19l.706-.347-.544.57c-.028.029-.651.676-1.24.928.02.025.054.04.1.043l.668.044-.63.228c-.048.017-1.078.385-1.86.252a.376.376 0 01-.033.176c-.078.173-.284.293-.625.361.997.195 2.481.436 3.13.294l.873-.19-.774.449c-.02.011-.373.214-.829.352.927.243 2.33.579 2.727.54l.607-.062-.52.32c-.063.04-1.55.915-5.933.36.36.311.932.764 1.306.854l.592.143-.595.13c-.06.013-1.387.278-3.697-1.346.383.609.948 1.38 1.393 1.551l.346.134-.348.129c-.031.011-.78.28-1.429-.278a3.199 3.199 0 01-1.25-1.017c-.142.27-.274.649-.113.792l.48.43-.614-.191a6.208 6.208 0 01-.935-.372l-.106.226c-.035-.015-.765-.317-1.709-1.07.56.937 2.362 2.9 7.934 4.114l.586.128-.582.145c-.056.014-1.1.272-2.05.292.072.023.147.045.223.062l.962.212-.983.064c-.071.006-1.438.087-2.691-.36.168.12.36.237.575.336l.399.183-.432.082c-.016.003-.24.043-.54.03 1.043.57 3.47 1.522 7.996 1.465l.896-.011-.85.284c-.053.018-.993.328-2.012.411.453.12 1.014.257 1.595.37l.256.048-.183.187c-.03.03-.753.722-3.884.196.183.135.454.291.838.414l.403.13-.4.137c-.045.015-1.045.337-2.99-.616.168.254.343.488.437.54l.524.291-.598-.028c-.07-.003-1.645-.083-2.43-.547a.314.314 0 00-.017.17c.008.03.026.074.1.113l1.194.617-1.294-.358c-.202-.056-1.64-.46-2.417-.866.519.507 2.313 1.498 8.493 2.557l.417.071-.378.192c-.034.017-.813.398-2.516.046.118.116.303.25.592.363l1.035.405-1.102-.135c-.082-.01-1.934-.24-3.25-.656.017.078.056.18.145.293.306.39 1.327 1.044 4.71 1.044h.435l-.342.253c-.02.014-.362.262-.96.353.907.288 2.477.724 3.896.807l.313.019-.223.221c-.046.046-.473.411-2.115.17.349.276 1.266.73 3.62.973l.44.045-.385.217c-.038.02-.915.485-4.343-.096.572.425 1.608 1.128 2.578 1.44l.458.147-.465.122c-.038.01-.396.084-1.867-.17.063.181.201.437.485.513l.448.121-.44.148a1.588 1.588 0 01-.478.057z" fill="#FFF"/><path d="M16.865 52.4a4.838 4.838 0 01-.13.251l.038-.03a.307.307 0 00.092-.222zm4.53 17.68l-.422-.286c-.021-.014-.509-.347-1.004-1.054a.597.597 0 01-.39-.058c-.186-.1-.324-.298-.41-.591-.311.29-.692.682-.746.847l-.267-.082c.15-.525.53-1.966.478-2.32a2.623 2.623 0 00-.049-.255c-.417.408-1.175 1.21-1.27 1.597l-.115.463-.153-.452a5.852 5.852 0 00-.249-.591c-.211.335-.665.94-1.286 1.133l-.354.11.194-.317c.004-.006.361-.598.562-1.305-.5.233-1.566.716-2.022.824l-.515.123.388-.362c.446-.415 1.395-1.392 1.878-2.196-.351.428-.83.908-1.316 1.078l-.268.093.09-.27c.074-.224.149-.542.161-.78-.307.43-.88 1.229-1.022 1.39l-.142.161-.25-.55c-.136.256-.356.639-.568.867l-.235.252-.007-.345c-.01-.512-.055-1.08-.12-1.416-.19.338-.553.86-1.081 1.056-.33.122-.674.1-1.022-.066l-1.648.667.847-.892-1.312.147c-.792.09-2.648-.161-2.727-.172l-.632-.086.61-.187c.033-.01 3.33-1.02 5.314-1.725 1.594-.567 3.128-1.204 3.837-2.039-.716.49-1.948 1.307-2.459 1.48-.702.236-1.017.351-1.02.352l-.118-.253a1.82 1.82 0 00.585-.63c-.366.189-.95.432-1.443.397l-.417-.032.353-.226c.006-.004.37-.239.762-.579-1.08.575-2.955 1.5-3.879 1.513l-.016-.28c-.015.001-.022.005-.022.005.001 0 .085-.042.18-.298-.304.034-.827.06-1.079-.11l-.21-.143.232-.102c1.058-.467 2.886-1.328 3.945-1.972-1.37.503-3.892 1.39-4.868 1.47l-.777.063.707-.33c.861-.402 2.007-1.096 2.266-1.564-.647.225-2.459.77-4.028.412l-.482-.11.468-.16c.518-.176 1.085-.43 1.357-.628-.833-.027-3.022-.158-3.474-.777l-.19-.26.318.038c.051.006 4.958.558 8.987-.956a8.185 8.185 0 01-2.105-.6l-.513-.22.556-.048c.072-.006 6.797-.604 8.972-3.328-.508.243-1.274.503-1.732.157l-.18-.136.2-.102c.029-.014 2.46-1.255 3.298-2.658-.623.595-1.269 1.11-1.529.981l-.142-.07c-.238.393-.575.792-.965.8l-.22.005.09-.202c0-.001.05-.121.064-.304-.269.565-.75 1.498-1.135 1.81l-.375.304.155-.458c.005-.017.121-.4-.185-.974-.245.313-.802.935-1.372.938l-.354.001.257-.243c.011-.01.93-.89 1.163-1.822-.377.535-1.02 1.35-1.513 1.483l-.418.113.273-.337a.58.58 0 00.1-.227c-.347.357-1.052 1.02-1.57 1.129l-.313.065.165-.276c.002-.002.092-.154.143-.37-.412.417-1.26 1.083-2.477 1.027l-.443-.018.373-.24c.018-.012 1.433-.922 2.407-1.71-.348.125-.736.212-1.021.13l-.315-.089.282-.166c1.396-.827 2.903-1.842 3.34-2.306l-.721.167.118-.229c-1.01.975-2.968 2.72-4.063 2.72h-.046l-.009-.28c-.003 0 .103-.033.164-.28a2.337 2.337 0 01-.886.364l-.429.067.31-.305a26.833 26.833 0 001.475-1.578c-.538.419-1.246.877-1.813.923l-.441.036.34-.283c.148-.123.35-.32.494-.509-.76.403-2.48 1.25-3.733 1.387l-.782.085.705-.35c.413-.206 1.404-.746 1.865-1.176-.17.01-.375-.003-.563-.075l-.289-.11.274-.145c.009-.005.635-.337 1.194-.735-.636.19-1.57.384-2.383.225l-.615-.121.608-.153c.384-.096.789-.221 1.129-.348-.859.162-2.163.25-3.468-.27l-.525-.208.561-.06c.075-.009 6.637-.735 9.174-1.87-.54.101-1.227.18-1.757.074l-.964-.194.98-.084c.076-.006.294-.044.402-.136-.5.03-1.74.044-2.174-.51l-.328-.418.49.202c.005.002.28.112.68.13-.57-.217-1.38-.581-1.752-1.02l-.299-.351.443.126c.065.019 6.564 1.812 12.419-1.435l.135.245c-4.93 2.735-10.305 1.956-12.05 1.595.709.456 1.793.78 1.807.783l.508.15-.516.122a2.603 2.603 0 01-.46.064c.478.072 1.011.05 1.278.021l.134-.014.02.134a.411.411 0 01-.121.36c.885-.013 1.91-.316 1.923-.32l.593-.177-.46.415c-1.358 1.23-7.429 2.064-9.438 2.311 1.878.483 3.64-.187 3.66-.195l.281-.11-.1.287c-.099.286-.764.558-1.35.748 1.083-.055 2.158-.513 2.172-.52l.643-.277-.488.504c-.396.41-1.087.84-1.505 1.082.215 0 .393-.047.396-.048l.305-.083-.144.282c-.174.342-.8.767-1.344 1.087 1.442-.43 3.056-1.349 3.075-1.36l.234-.134-.025.27c-.02.213-.196.46-.375.66.896-.378 1.947-1.401 1.96-1.414l.34-.334-.107.466c-.097.417-1.116 1.512-1.716 2.13.282-.144.476-.314.48-.316l.243-.216-.012.326a1.493 1.493 0 01-.102.533c1.474-.402 4.142-3.192 4.172-3.222l.67-.705-.697 1.354.57-.132.026.146c.08.456-1.766 1.67-3.145 2.505.436-.096.945-.351 1.162-.478l.794-.462-.621.678c-.578.632-1.986 1.603-2.702 2.08 1.27-.18 2.012-1.199 2.02-1.21l.214-.3.039.367c.024.23-.017.446-.07.612.493-.267 1.109-.889 1.342-1.15l.15-.169.084.21c.053.137.06.265.045.376.494-.387 1.11-1.27 1.345-1.645l.222-.355.035.418c.069.816-.5 1.657-.908 2.146.344-.23.658-.62.784-.808l.119-.174.114.177c.247.382.332.714.353.958.467-.63 1-1.855 1.006-1.87l.145-.335.115.346c.092.277.083.527.054.704.351-.208.707-.867.875-1.307l.11-.288.144.272c.13.246.145.442.117.589.337-.22.96-.778 1.48-1.312l.335-.344-.098.471c-.313 1.493-2.644 2.888-3.437 3.324.527.097 1.366-.34 1.688-.55l.47-.304-.272.49c-1.533 2.768-7.106 3.658-8.933 3.879 1.173.412 2.049.42 2.059.42h.673l-.618.268c-3.389 1.47-7.594 1.346-9.1 1.244.815.3 2.421.39 3.105.398l.183.002-.05.177c-.084.297-.707.603-1.197.803 1.709.174 3.57-.564 3.591-.572l.168-.067.023.18c.067.533-.846 1.17-1.599 1.6 1.773-.462 4.718-1.592 4.754-1.606l.495-.19-.337.41c-.525.638-3.41 1.983-4.44 2.45.246.017.554-.011.758-.046l.215-.036-.057.211a2.103 2.103 0 01-.139.385c1.413-.273 4.182-1.864 4.213-1.882l.598-.346-.418.552c-.296.391-.71.746-1.022.985.56-.142 1.114-.494 1.121-.498l.305-.196-.095.35a1.938 1.938 0 01-.341.68l.39-.134c.686-.231 2.9-1.798 2.922-1.814l.369-.262-.158.425c-.45 1.216-2.347 2.036-4.329 2.741-1.461.52-3.633 1.204-4.695 1.535.622.067 1.533.146 2.006.093l1.693-.19.382-.043-.486.511.569-.23.057.03c.295.154.582.182.853.082.676-.25 1.067-1.198 1.07-1.207l.092-.225.148.191c.166.213.23.973.255 1.465.225-.342.422-.753.424-.759l.129-.27.311.683c.263-.347.778-1.068 1.062-1.469l.123-.174.11.183c.14.233.067.683-.01.994.747-.45 1.448-1.588 1.456-1.6l.226-.372.032.434c.058.792-1.132 2.123-1.816 2.82.705-.278 1.649-.729 1.662-.735l.254-.121-.058.276c-.105.502-.304.97-.457 1.284.535-.365.877-1.03.881-1.038l.12-.237.127.234c.11.2.197.393.261.545.364-.613 1.23-1.433 1.345-1.54l.047-.046.064.008c.11.013.196.119.265.59.045.306-.144 1.139-.3 1.75.229-.238.471-.456.55-.525l.186-.165.043.246c.058.33.168.548.318.63.131.072.26.02.265.017l.106-.044.066.094c.256.382.517.657.706.832-.021-.428.05-.98.062-1.063l.062-.458.202.415c.174.359.638.521.95.592-.834-1.319-.498-2.015-.482-2.045l.09-.178.136.146c.167.179.698.546 1.02.76.055-.19.135-.451.167-.554l.043-.136.135.045c.746.249 1.116.626 1.294.977.096-.43.208-.862.23-.945l.113-.427.153.414a4.153 4.153 0 001.74 2.102 5.928 5.928 0 01-.16-1.104l-.028-.605.29.53c.186.344.525.57.796.707-.316-.595-.59-1.528-.628-1.66l-.308-1.07.563.96c.238.407.957.69 1.404.833a5.782 5.782 0 01-.363-.97l-.205-.741.452.621c.455.625 1.637 1.285 2.262 1.605a4.703 4.703 0 01-.251-.852l-.099-.531.344.416c.246.298.522.532.752.699-.098-.242-.144-.46-.148-.476l-.08-.382.304.243c.46.369 1.43.664 2.104.835-.628-.546-1.086-1.285-1.111-1.326l-.26-.422.441.224.473.238a6.51 6.51 0 01-.492-.812l.25-.125c.004.008.406.81.869 1.242l.202.188-.27.052c-.045.01-.068.013-.662-.283.302.396.789.95 1.309 1.2l.98.469-1.067-.206c-.077-.014-1.689-.33-2.613-.84.071.193.173.404.3.512l.82.704-.972-.47c-.024-.013-.486-.24-.97-.689.072.227.172.476.297.626l.393.473-.558-.255c-.071-.033-1.471-.678-2.329-1.424.103.263.222.506.326.59l.468.382-.588-.136c-.048-.011-.932-.22-1.526-.637.18.526.44 1.188.657 1.393l.406.383L28 68.94c-.031-.008-.63-.175-1.075-.61.04.317.11.684.223.872l.214.357-.385-.155c-.059-.023-1.332-.55-2.05-2.044-.098.396-.2.846-.24 1.115.001.148-.021.243-.022.247l-.213.842-.061-.867a1.371 1.371 0 01.02-.26c-.011-.315-.172-.902-1.131-1.267-.082.267-.16.529-.167.574l-.033.211-.18-.113a14.14 14.14 0 01-1.052-.743c-.028.291.03.903.688 1.828l.174.244-.298-.023c-.04-.003-.809-.066-1.262-.495-.033.379-.045.817.026.966l.219.461zM18.427 44.077c-.222 0-.463-.026-.716-.09l-.408-.106.39-.16c.017-.008 1.496-.625 2.502-1.577-.325.14-.714.274-1.038.283l-.47.013.387-.269c.005-.003.36-.254.51-.692-.46.392-1.34 1.088-1.92 1.183l-.403.066.278-.3c.022-.025.064-.064.12-.116.155-.145.439-.41.65-.704-.512.451-1.244 1.057-1.543 1.122l-.612.134.498-.383c.079-.06.224-.19.34-.34-.64.449-1.907 1.176-2.857.71l-.331-.162.355-.098c.016-.005 1.363-.385 2.078-1.002-.524.192-1.361.435-2.151.41l-.692-.024.647-.247c.356-.136.697-.297.937-.435-.703.137-1.896.29-2.288-.158l-.171-.196.257-.036c.035-.005 2.893-.402 4.38-.817-.282-.019-.549-.069-.663-.18l-.16-.157.21-.076c.031-.01 3.087-1.114 3.98-2.212l.216.177c-.754.928-2.847 1.814-3.718 2.154.255.028.609.03.925.008l.602-.04-.523.302c-.734.424-3.635.887-4.764 1.054.557.108 1.534-.047 2.158-.21l.192-.05-.019.2c-.018.2-.333.418-.697.605a7.529 7.529 0 001.75-.54l.38-.18-.197.372c-.365.689-1.501 1.175-2.143 1.402 1.11.099 2.517-1.083 2.533-1.096l.217-.184.013.285a.705.705 0 01-.055.29c.406-.32.89-.746 1.229-1.06l.286-.266-.053.388c-.051.373-.329.748-.6 1.043.677-.402 1.427-1.098 1.437-1.107l.24-.223-.005.328a1.578 1.578 0 01-.356.96c.55-.155 1.14-.502 1.148-.507l.586-.348-.403.552c-.708.97-2.01 1.69-2.682 2.017.865.068 1.492-.325 1.5-.329l.15.236c-.03.02-.609.383-1.443.383z" fill="#FFF"/><path d="M19.154 38.024l.235-.287c-.571.248-.998.24-1.022.24l-.815-.023.776-.25c.421-.137.533-.564.538-.582l.27.068a1.218 1.218 0 01-.208.415c.269-.078.611-.22.97-.483l.884-.648-.94 1.15c.214-.053.45-.132.563-.233l.185.21c-.291.26-1.003.364-1.083.375l-.353.048z" fill="#FFF"/><path d="M16.599 38.029l.547-.29c.2-.105.485-.293.676-.486-.372.126-.918.257-1.26.1l-.302-.136.308-.121c.02-.008 1.786-.713 2.54-1.658a1.117 1.117 0 01-.222.027l-.222.006c-.322.329-.75.71-1.123.855l-.345.134.17-.33c.006-.01.101-.204.032-.4-.22.43-.76 1.339-1.445 1.463l-.319.058.178-.273c.004-.006.31-.48.424-.938-.468.56-1.436 1.587-2.352 1.738l-.573.094.468-.346c.057-.042.167-.138.264-.257-.347.14-.897.306-1.495.273l-.65-.037.608-.234c.207-.08.69-.303.97-.553-.302.021-.725.028-.944-.082l-.278-.14.289-.116c.165-.066.472-.199.777-.352-.833.195-2.066.358-3.046-.035l-.512-.205.548-.064c.044-.005 3.981-.476 5.572-1.435-.516.086-1.262.163-1.766.012l-.373-.111c-.421.098-.844.157-1.071.072l-.308-.114.296-.144c.227-.11.462-.272.58-.407-.406.083-1.23.195-1.941-.064l-.595-.215.63-.056c.471-.041.99-.143 1.273-.259-.575-.099-1.761-.368-2.308-.967l-.297-.325.429.093c.088.019 8.51 1.8 10.829-1.325-.435.202-1.091.465-1.51.45l-.533-.02.476-.245c.006-.003.588-.308.662-.794l-2.335.681-.078-.27 2.677-.78.018.167c.04.38-.145.68-.349.892.588-.174 1.273-.544 1.282-.549l.394-.213-.203.4c-1.7 3.347-8.684 2.375-10.794 1.996.792.436 1.98.577 1.995.578l.183.021-.07.172c-.088.218-.466.358-.855.446.632.015 1.187-.142 1.195-.144l.144-.042.031.148c.051.24-.166.469-.392.635.482-.063 1.192-.278 1.647-.445l.238-.088-.053.249c-.036.168-.166.292-.313.381.75.023 1.666-.202 1.678-.205l.447-.112-.31.342c-.905.995-4.064 1.565-5.49 1.777 1.425.212 3.098-.41 3.117-.417l.559-.211-.408.438c-.238.255-.814.546-1.221.733.232.002.497-.02.678-.044l.25-.035-.103.231c-.105.235-.375.445-.644.606a3.69 3.69 0 001.014-.361l.267-.154-.06.303a.948.948 0 01-.141.327c.98-.498 1.934-1.793 1.945-1.808l.199-.272.052.333c.06.383-.13.861-.293 1.186.568-.393.99-1.353.994-1.364l.079-.18.144.133c.19.176.24.391.23.577.581-.371 1.232-1.175 1.24-1.184l.231-.287.017.369a.82.82 0 01-.054.313c.146-.047.245-.115.247-.116l.423-.295-.217.47c-.404.87-1.664 1.577-2.39 1.925.346-.055.73-.2.905-.279l.246-.11-.052.266c-.045.225-.246.443-.458.616.237-.074.369-.158.37-.16l.154.234c-.017.012-.437.285-1.145.314l-.618.025z" fill="#FFF"/><path d="M21.315 22.41c-.1.032-.215.067-.34.103l.189-.016c.003 0 .069-.011.15-.087zm7.225 17.014c-.171 0-1.291-.016-2.181-.406l.111-.257c.486.213 1.06.307 1.482.35a3.2 3.2 0 01-.467-.509l-.315-.436.487.227c.859.399 1.659.402 2.191.33-2.29-.424-3.126-1.028-3.417-1.479-.195-.303-.14-.526-.134-.55l.071-.256.17.203c.263.312 1.024.474 1.656.55a3.059 3.059 0 01-.598-.457l-.344-.361.481.129a5.16 5.16 0 001.4.187c-1.91-.41-2.345-1.306-2.365-1.35l-.144-.312.32.123c.545.208 1.231.406 1.632.515-.124-.295-.157-.616-.159-.635l-.051-.535.305.442c.193.28.623.483.989.613a4.254 4.254 0 01-.619-.982l-.155-.356.346.175c.713.361 1.81.696 2.438.873-.048-.081-.056-.142-.049-.185l.027-.155.15.044c.715.21 1.23.263 1.573.26-1.022-.352-2.567-1.014-2.647-1.048l.096-.263c.708.22 1.782.34 2.43.395a1.595 1.595 0 01-.147-.182l-.174-.258.307.04c.274.035.663-.15.969-.338a1.539 1.539 0 01-.524-.122l-.58-.282.644.016c.405.013.79-.105 1.107-.245-4.17.786-7.584-1.483-7.62-1.507l.148-.237c.78.459 2.41.659 3.134.728a1.569 1.569 0 01-.203-.538l-.033-.217.21.06c.457.133.82.169 1.093.162-.636-.135-1.243-.338-1.278-.35l-1.073-.36 1.128.088a4.49 4.49 0 002.14-.375c-4.069.802-6.385-1.224-6.41-1.247l-.65-.585.8.352c.186.083.626.082 1.032.057-.927-.38-1.824-1.091-1.871-1.129l.163-.227c.188.123.58.21.857.256-.022-.22.066-.466.091-.531l.058-.147.138.075c.287.154.633.188.91.186a.52.52 0 01-.161-.198.32.32 0 01-.006-.263l.053-.109.115.037c.526.167 1.153.053 1.585-.07-2.376-.464-4.057-2.118-4.133-2.193l-.506-.506.659.277c.484.203 1.259.345 1.803.426a7.592 7.592 0 01-.89-.82l-.466-.513.628.292a8.263 8.263 0 002.02.615 5.595 5.595 0 01-1.435-.93l-.656-.626.814.398c.91.445 2.589.487 3.45.477-.16-.117-.204-.212-.215-.25l-.062-.2.208.02c.126.012.263-.01.394-.049h-.02c-4.477 0-6.234-1.867-6.31-1.95l-.88-.964 1.063.755c.501.355 1.04.522 1.413.6a.507.507 0 01-.07-.307l.024-.162.155.05c.148.046.33.057.498.052-1.018-.532-1.883-1.48-1.925-1.526l-.32-.354.46.125c.139.038.406.085.626.122-.304-.445-.545-1.034-.558-1.065l.246-.13c.07.107.684.513 1.317.898a.593.593 0 01.16-.19l.041-.032.051.003c.132.006.242.004.332-.002a3.426 3.426 0 01-.578-.404l-.437-.392.566.152c.271.073.564.06.815.02-2.458-.433-3.706-1.726-3.917-1.962a.364.364 0 01-.036-.043l.22-.172.035.04c.185.163.856.295 1.467.366-.092-.106-.137-.192-.141-.2l-.137-.265.29.064c.345.075.89.03 1.295-.024-1.961-.784-2.706-2.053-2.739-2.111l-.408-.713.62.537c.062.053.242.131.447.209l-.035-.045a.19.19 0 01-.014-.02l.227-.162c-.007-.01-.014-.014-.014-.014.054.033.28.065.539.086-.71-.77-1.547-2.534-1.588-2.62l-.094-.2h.643c-.583-.871-.936-2.407-1.127-3.522-.086 1.044-.239 2.403-.48 2.983-.306.738-.89 2.052-1.15 2.632.364-.171.644-.49.647-.495l.176-.202.065.26c.028.11.034.204.028.283.196-.084.238-.133.24-.136 0 0-.008.011-.014.033l.27.067c0 .005-.002.012-.005.02-.399 1.446-1.843 2.509-2.752 3.052.457-.126.843-.29.85-.293l.265-.115-.076.28c-.04.148-.203.336-.37.498.434-.108.943-.269.95-.27l.193-.062-.011.202a.535.535 0 01-.087.24 2.37 2.37 0 00.297-.192l.287-.22-.065.356c-.083.456-.92 1.02-1.568 1.393.17-.045.348-.096.515-.147l.647-.198-.516.439c-1.5 1.275-3.545 1.718-4.514 1.862.63.143 1.234-.08 1.242-.084l.242-.092-.057.254c-.031.143-.143.272-.276.381.529-.172 1.106-.578 1.345-.774l.367-.302-.146.453c-.09.28-.208.518-.31.696a3.34 3.34 0 001.278-.894l.222-.283.026.36c.02.279-.024.526-.086.723a6.784 6.784 0 001.037-1.1l.274-.375-.022.464c-.019.41-.235.821-.402 1.08.173-.053.37-.141.5-.21l.54-.285-.363.493c-.56.76-1.74 1.52-2.411 1.914.742-.1 1.737-.456 1.75-.46l.286-.104-.109.286a1.1 1.1 0 01-.221.369c.176.013.385.01.54-.002l.357-.026-.246.262c-1.438 1.538-5.862 2.167-7.881 2.379 1.537.182 2.706-.147 2.72-.151l.749-.217-.627.464c-.191.141-.45.266-.71.37 1.028-.17 2.18-.608 2.196-.613l.387-.15-.22.354c-.06.098-.21.19-.387.27.411-.062.863-.185 1.086-.255l.365-.116-.206.325c-.341.537-2.024.876-3.396 1.067l-.241.253c-.19.197-.537.377-.832.506 1.1.016 2.784-.527 2.804-.534l.305-.1-.135.293c-.11.238-.536.492-.926.682.147-.027.306-.063.464-.105l.412-.11-.268.334a2.482 2.482 0 01-.356.33c.464-.14.723-.407.96-.65.095-.098.185-.19.283-.27.426-.343 1.027-.593 1.052-.604l.175-.071.017.188c.02.213-.178.476-.364.671a2.872 2.872 0 001.035-.27l.146-.078.051.159c.031.097.02.2-.032.302-.184.352-.919.686-1.468.893.847-.012 1.693-.339 1.704-.343l.24-.094-.053.253c-.228 1.098-2.938 1.268-4.271 1.284.763.2 1.648.085 1.66.084l.212-.029-.06.206c-.062.218-.508.393-.768.48l-.087-.267c.069-.023.138-.049.203-.076-.538.011-1.364-.045-1.922-.426l-.396-.27.478.014c1.105.033 3.828-.06 4.524-.782-.482.146-1.386.358-2.15.18l-.51-.12.5-.151c.57-.172 1.48-.53 1.813-.84a3.063 3.063 0 01-1.21.17l-.342-.024.262-.222c.143-.122.29-.274.393-.408a3.905 3.905 0 00-.657.41c-.085.069-.17.155-.259.247-.336.346-.754.775-1.704.826l-.503.026.418-.283c.08-.054.231-.16.381-.277-.334.061-.674.088-.808-.013l-.203-.153.236-.09c.292-.112.663-.28.958-.447-.794.211-2.11.494-2.832.275l-.423-.13.42-.138c.007-.002.45-.15.825-.35-.354.014-.796-.007-1.056-.16l-.382-.227.442-.034c1.297-.1 3.116-.343 4.178-.686-.385.067-.788.097-1.02-.004l-.12-.052c-.688.187-1.509.35-2.075.264l-.705-.106.693-.169c.006-.001.341-.084.725-.22a8.156 8.156 0 01-2.847-.208l-.841-.218.866-.058c.066-.004 6.336-.446 8.443-2.135-.22-.003-.476-.026-.616-.104l-.34-.188c-.518.139-1.133.264-1.505.2l-.409-.068.367-.193c.018-.01 1.506-.799 2.406-1.663a.933.933 0 01-.378.044l-.24-.04.155-.188c.003-.004.21-.256.364-.585-.288.32-.693.716-1.117.952l-.546.304.365-.509a1.71 1.71 0 00.25-.677 3.767 3.767 0 01-1.539.846l-.415.113.27-.337c.002-.003.156-.197.31-.508-.454.305-1.2.719-1.764.602l-.438-.09.412-.176c.133-.057.3-.147.434-.244-.395.068-1 .088-1.542-.245l-.372-.229.435-.03c.027-.003 2.423-.187 4.3-1.414-.697.173-.747.084-.788.01l-.073-.13.134-.065c.553-.269 1.347-.726 1.802-1.123a.642.642 0 01-.33.037l-.278-.058.215-.185c.056-.048.114-.107.165-.165-.36.107-.922.262-1.185.28l-.456.029.362-.28c.125-.098.28-.23.41-.358-.365.125-.885.273-1.322.282l-.68.013.62-.281c.026-.012 2.483-1.143 3.235-2.925a4.005 4.005 0 01-.302.112l-.753.25.623-.493s.016-.016.03-.05c-.2.17-.504.381-.844.442l-.26.046.108-.242c.009-.02.877-1.954 1.276-2.913.39-.938.546-4.21.547-4.242l.279-.008c.003.037.38 3.724 1.424 4.945l.198.232h-.784c.378.766 1.199 2.28 1.71 2.583l.468.278-.544-.017a7.084 7.084 0 01-.643-.045.783.783 0 00.086.081l.03.01.464.142-.468.127c-.032.009-.072.02-.145-.022a10.11 10.11 0 01-.5-.172c.43.487 1.301 1.262 2.762 1.727l.518.165-.533.106c-.044.009-.918.18-1.588.15a.938.938 0 00.212.143l.64.315-.711-.05a9.65 9.65 0 01-1.35-.185c.681.522 1.949 1.26 3.84 1.447l.544.054-.503.215c-.028.011-.525.22-1.093.23.136.082.293.164.453.215l.265.085-.226.162c-.036.027-.243.153-.802.133-.03.032-.052.066-.053.08.003.001.008.009.029.021l-.143.241a23.962 23.962 0 01-1.184-.746c.134.26.309.556.484.734l.294.298-.414-.06c-.018-.004-.283-.043-.552-.09.421.4 1.196 1.064 1.975 1.338l.476.167-.494.102a3.176 3.176 0 01-.899.048.62.62 0 00.256.18l.692.295-.752-.026c-.02 0-.274-.011-.637-.097 1.06.541 2.859 1.127 5.58 1.013l.517-.021-.436.28c-.02.013-.412.261-.833.343.082.049.195.106.352.165l.618.233-.659.038c-.093.006-1.91.107-3.292-.209.486.307 1.203.66 2.049.771l-.017.28c-.065-.001-1.45.01-2.946-.517.256.23.574.483.857.612l.773.353-.845-.086a14.898 14.898 0 01-1.846-.316c.743.585 2.224 1.565 4.01 1.756l.51.054-.466.213c-.048.021-1.08.486-2.02.332.071.048.183.103.357.155l.523.157-.534.114c-.035.008-.795.165-1.434-.095-.038.153-.045.308.006.353l.335.294-.442-.05a5.418 5.418 0 01-.324-.048c.493.316 1.154.677 1.716.77l.925.153-.93.124c-.1.014-.742.096-1.277.083.93.575 3.235 1.62 6.65.624l.666-.194-.54.438c-.043.035-.916.73-2.252.895.354.09.756.174 1.083.197l.41.028-.343.228c-.024.016-.566.366-1.761.08.051.143.142.318.292.415l.451.291-.535-.033a16.679 16.679 0 01-1.907-.245c1.526.622 4.01 1.262 6.731.464l.657-.193-.529.436c-.024.02-.38.308-.898.526l.303-.056-.434.348c-.033.027-.688.548-1.27.66.09.086.201.165.307.178l-.024.28c-.05-.003-.792-.043-1.612-.155.685.274 1.454.565 1.85.66l.38.09-.351.172c-.026.012-.586.272-1.947-.057.027.024.058.05.093.077l.505.403-.626-.157c-.07-.017-1.53-.387-2.602-.85.178.308.473.735.831.93l.82.447-.914-.187c-.044-.009-.88-.183-1.433-.573a.99.99 0 00.19.363l.328.35-.463-.117c-.01-.003-.774-.196-1.506-.44.385.338 1.191.812 2.77.97l.6.06-.565.211c-.033.013-.726.264-1.878.077.19.122.435.252.727.353l.845.292-.894-.02c-.071-.001-1.516-.038-2.284-.452a.776.776 0 00.024.037c.247.36 1.08 1.024 3.898 1.448l.506.076-.474.193c-.052.02-1.145.45-2.518.03.156.14.331.262.488.285l-.02.279h-.02zM33.014 62.852l.687.503c.114.082.228.164.343.242a1.8 1.8 0 00.338.19l-.087.225c-.037-.02-.04-.026-.054-.038a.338.338 0 01-.063-.089.571.571 0 01-.04-.108 1.083 1.083 0 01-.029-.202c-.008-.131.005-.256.02-.38l.02-.17.163.062c.15.056.307.104.461.154.155.049.312.095.469.134.313.082.632.148.947.16l-.029.195c-.1-.04-.188-.088-.277-.138a2.401 2.401 0 01-.257-.167 1.689 1.689 0 01-.422-.434c.148.136.313.242.485.332a3.292 3.292 0 00.534.218l.508.159-.536.035a3.706 3.706 0 01-1.015-.098 6.9 6.9 0 01-.966-.295l.184-.11a2.548 2.548 0 00-.028.334c.001.053.004.106.013.153.005.022.01.044.017.06.003.008.007.014.01.018a.023.023 0 01.001.004c-.003-.001.006.001-.019-.011l-.087.226c-.165-.07-.267-.164-.383-.253a7.638 7.638 0 01-.907-.911zM18.137 61.14a3.571 3.571 0 01-.766.885l-.023-.042c.372-.14.74-.292 1.1-.456.18-.083.359-.17.532-.263a2.26 2.26 0 00.477-.326l.244-.238-.143.308a6.473 6.473 0 01-1.054 1.576c-.21.237-.443.455-.692.654a4.982 4.982 0 01-.801.52l-.059-.192c.337-.053.676-.13 1.002-.233.323-.105.644-.237.898-.435l.314-.245-.126.375a8.027 8.027 0 01-.356.892c-.069.145-.142.289-.228.428a2.267 2.267 0 01-.3.4l-.143-.202a12.539 12.539 0 001.524-.907 6.36 6.36 0 00.69-.547c.212-.198.413-.41.548-.651l.406-.723-.152.817-.112.602-.05.3a2.815 2.815 0 00-.034.284l-.256-.074.934-1.483.242-.384.004.456c.002.267.02.545.065.81.022.133.05.265.09.39.04.124.089.245.157.342l-.23.061.117-1.048.054-.485.184.452a9.228 9.228 0 00.826 1.553c.164.242.337.479.54.685.2.206.423.393.676.513l-.128.145a4.577 4.577 0 01-.333-.724 2.211 2.211 0 01-.102-.393.803.803 0 01.03-.432l.081-.2.078.202c.078.199.167.397.266.587a3 3 0 00.163.272.692.692 0 00.2.207l-.105.066.009-.564.002-.148.109.1c.186.17.391.327.607.462.216.132.449.246.695.286l-.046.036.044-.326.007-.05.045.022c.352.17.736.299 1.13.314l-.01.027-.52-.492.541.469.03.026h-.04a2.208 2.208 0 01-.596-.078 3.492 3.492 0 01-.567-.201l.052-.029-.034.328-.004.042-.042-.005c-.268-.035-.512-.147-.74-.276a4.335 4.335 0 01-.642-.457l.112-.05.005.565v.123l-.105-.058c-.122-.065-.192-.159-.26-.25a3.05 3.05 0 01-.18-.285 6.002 6.002 0 01-.286-.6l.16.002a.64.64 0 00-.012.336c.022.12.056.24.101.358.088.235.203.468.33.683l.164.277-.291-.131a2.613 2.613 0 01-.75-.544 4.901 4.901 0 01-.58-.706 9.403 9.403 0 01-.86-1.595l.238-.032-.11 1.049-.035.335-.194-.274a1.517 1.517 0 01-.196-.413 2.987 2.987 0 01-.101-.425 5.464 5.464 0 01-.075-.856l.245.072-.925 1.489-.273.44.018-.514c.004-.126.021-.221.036-.327.015-.103.034-.204.052-.306l.117-.608.253.095c-.162.283-.381.507-.607.715-.227.208-.47.393-.72.565a12.974 12.974 0 01-1.564.918l-.67.33.527-.533c.099-.1.186-.224.265-.352.08-.128.152-.265.219-.404.134-.277.25-.57.35-.86l.188.13c-.301.233-.643.36-.983.463a7.011 7.011 0 01-1.04.222l-.578.08.52-.273a4.8 4.8 0 00.777-.485c.244-.187.474-.394.683-.621a6.66 6.66 0 001.064-1.514l.101.07c-.16.145-.338.238-.517.331-.18.09-.362.172-.546.25-.369.153-.742.293-1.119.422l-.136.046.113-.088c.305-.238.58-.521.796-.848z" fill="#FFF"/><path d="M25.986 64.604a3.47 3.47 0 01-.516-.344 2.922 2.922 0 01-.438-.446 2.426 2.426 0 01-.493-1.155l-.018-.11.11.032c.285.081.566.169.846.266.279.097.556.2.827.337l-.136.144-.535-.86-.202-.326.353.156c.472.209.96.398 1.45.56.491.16.993.3 1.494.354l-.052.267a.85.85 0 01-.366-.236.818.818 0 01-.203-.385l-.049-.219.217.053c.398.097.801.184 1.204.256.202.036.404.067.606.091.2.023.405.041.596.03l-.05.236-.838-.45-.423-.226h.48c.268.001.54-.001.81-.017.133-.01.267-.02.398-.039.127-.02.267-.047.351-.097l.028.168a15.239 15.239 0 01-1.737-.671 8.524 8.524 0 01-.823-.438c-.263-.162-.523-.35-.703-.605.199.24.467.403.735.55.27.145.551.272.837.387.572.224 1.154.43 1.744.596l.206.057-.178.11c-.15.094-.287.114-.427.144a5.138 5.138 0 01-.415.055c-.276.025-.55.04-.828.04l.056-.226.844.44.395.207-.445.03a3.777 3.777 0 01-.641-.025c-.21-.022-.416-.052-.622-.086a19.766 19.766 0 01-1.226-.246l.169-.166a.575.575 0 00.247.355c.04.027.094.052.128.065l1.19.415-1.242-.148c-.538-.064-1.048-.214-1.548-.383a16.35 16.35 0 01-1.468-.587l.151-.17.508.877.186.32-.322-.175a6.707 6.707 0 00-.792-.354 15.972 15.972 0 00-.825-.29l.092-.08c.029.198.058.399.134.587.071.188.161.371.28.537.234.333.544.612.89.838zM11.808 58.93c-.218.102-.44.194-.662.287a15.84 15.84 0 01-1.355.5c-.232.074-.463.141-.716.18l-.006-.252c.42.013.846.012 1.267-.019a7.25 7.25 0 001.245-.178l.4-.097-.267.304a1.994 1.994 0 01-.449.377 1.308 1.308 0 01-.562.193l-.032-.203c.307-.06.618-.13.923-.212.306-.08.607-.18.898-.311-.264.182-.563.31-.86.43-.149.06-.301.11-.454.16-.153.05-.306.095-.464.134l-.032-.203a1.12 1.12 0 00.456-.19 1.81 1.81 0 00.376-.34l.134.208a6.44 6.44 0 01-1.294.207 9.538 9.538 0 01-1.303-.007l-.005-.253c.221-.025.455-.084.685-.14.23-.058.46-.123.691-.185l1.386-.39zM12.13 60.167a5.714 5.714 0 01-.502.55c-.181.172-.373.334-.59.465l-.029-.092c.168-.027.34-.085.502-.15.163-.066.322-.143.476-.229.154-.087.303-.182.445-.286a5.9 5.9 0 00.414-.33l.214-.185-.059.279-.161.765-.171-.113c.244-.19.487-.384.723-.584.116-.101.232-.203.34-.31.104-.102.22-.227.262-.316l.359-.758-.108.823-.077.592-.22-.123.702-.59.305-.257-.082.387a2.53 2.53 0 01-.52 1.073 2.114 2.114 0 01-.44.409c-.16.12-.345.204-.53.279l-.06-.263a6.593 6.593 0 001.961-.595c.312-.145.605-.328.88-.532.28-.203.518-.452.741-.714l.24-.281-.096.352c-.117.429-.238.856-.364 1.283l-.08-.052c.406-.308.811-.617 1.222-.919-.383.337-.772.666-1.16.998l-.113.097.033-.15c.097-.433.199-.866.304-1.298l.144.07a4.58 4.58 0 01-.746.773c-.28.223-.579.427-.899.587-.319.162-.65.298-.99.408a6.093 6.093 0 01-1.048.243l-1.018.136.957-.399c.163-.067.324-.14.465-.248.143-.1.273-.223.383-.361a2.365 2.365 0 00.464-.945l.222.13-.704.587-.27.224.05-.347.085-.59.251.066a.901.901 0 01-.158.229c-.056.064-.114.12-.172.175a7.108 7.108 0 01-.359.315c-.243.202-.493.39-.75.573l-.242.172.07-.285.19-.76.154.095a5.902 5.902 0 01-.44.327 4.94 4.94 0 01-.471.28 3.74 3.74 0 01-.504.215 2.533 2.533 0 01-.537.126l-.254.026.226-.118c.215-.112.413-.26.601-.419.187-.161.37-.328.54-.51z" fill="#FFF"/><path d="M22.846 59.467c-.149.268-.307.531-.475.788a5.855 5.855 0 01-.27.374c-.099.118-.196.24-.337.326l-.031-.059.764-.434.075-.042-.006.088-.04.632-.1-.04.72-.93.084-.108.042.133c.071.227.15.453.237.674.044.11.09.22.142.325.05.101.111.211.175.271l-.14.05.113-.645.023-.13.114.068c.134.08.258.166.38.261.121.096.237.2.34.322l-.176.068a7.77 7.77 0 00-.042-.474 3.056 3.056 0 00-.082-.456l-.085-.3.255.182c.362.259.741.502 1.124.729.192.11.388.217.587.308.196.087.412.169.587.167l-.069.22a10.44 10.44 0 01-.87-.795 5.345 5.345 0 01-.392-.45c-.12-.162-.24-.332-.297-.563l-.084-.331.287.198c.345.24.707.466 1.076.665.185.1.374.19.565.268.19.077.39.141.569.146l-.112.222c-.156-.21-.303-.42-.443-.64a6.102 6.102 0 01-.201-.336 2.196 2.196 0 01-.173-.373l-.112-.338.31.177c.304.174.616.342.93.499.157.079.315.153.475.222.158.069.322.133.477.17l-.11.228a.737.737 0 01-.137-.162.642.642 0 01-.083-.199.512.512 0 01-.001-.225.625.625 0 01.082-.2l.058-.102.108.056c.366.189.742.367 1.122.527a7.2 7.2 0 00.575.215c.188.059.4.115.553.098l-.036.223a2.466 2.466 0 01-.523-.413 1.31 1.31 0 01-.343-.598l-.046-.2.194.07c.319.114.647.218.976.302.164.043.33.08.496.107.165.027.334.047.489.032l-.027.18c-.417-.19-.83-.383-1.243-.582-.206-.1-.411-.2-.615-.306-.204-.108-.406-.207-.603-.352l-.422-.31.488.196c.33.133.676.242 1.027.309.175.034.353.057.53.056.177 0 .356-.02.516-.09l.009.062a6.811 6.811 0 01-.877-.22 3.16 3.16 0 01-.42-.17c-.13-.07-.27-.151-.337-.29.072.135.214.209.346.274.135.062.278.108.421.15.288.082.582.145.877.19l.105.016-.096.047c-.17.083-.359.108-.542.114a2.832 2.832 0 01-.549-.04 5.694 5.694 0 01-1.06-.284l.067-.114c.175.12.386.222.587.323.204.101.41.197.617.293.413.19.83.375 1.249.556l.324.14-.351.038c-.188.021-.365.001-.54-.023a5.848 5.848 0 01-.515-.101 11.29 11.29 0 01-1.003-.291l.148-.131c.043.177.156.34.293.483a2.248 2.248 0 00.47.367l.31.179-.345.044c-.133.017-.249.004-.356-.019-.11-.02-.213-.05-.316-.08a7.479 7.479 0 01-.596-.22c-.39-.161-.77-.338-1.145-.53l.166-.045a.303.303 0 00-.045.232c.01.04.026.08.05.117a.495.495 0 00.084.1l.395.345-.505-.117a3.181 3.181 0 01-.525-.182 9.849 9.849 0 01-.49-.226 19 19 0 01-.948-.5l.198-.161c.035.103.092.215.153.322.06.108.126.215.194.32.137.212.282.422.43.624l.172.234-.284-.011c-.25-.01-.461-.088-.666-.17-.204-.084-.4-.18-.59-.285a11.65 11.65 0 01-1.101-.688l.203-.133c.035.148.136.312.247.459.113.148.238.291.37.43.263.274.548.535.841.778l.268.221-.336-.001c-.279-.002-.49-.101-.704-.192a7.324 7.324 0 01-.608-.324 13.532 13.532 0 01-1.133-.759l.17-.118c.044.169.063.33.08.494.017.163.027.324.034.488l.011.297-.188-.229a2.808 2.808 0 00-.66-.552l.136-.063-.124.643-.03.158-.11-.108c-.109-.108-.156-.22-.213-.331a4.924 4.924 0 01-.14-.339c-.085-.228-.16-.457-.229-.69l.126.024-.746.91-.117.144.017-.184.06-.631.07.045-.778.41-.031-.06c.123-.07.227-.187.326-.3.098-.116.19-.239.28-.362.178-.248.346-.504.506-.766zM17.272 55.723c-.16.174-.341.328-.537.462a1.98 1.98 0 01-.647.296l-.006-.052c.343-.024.684-.1 1.014-.2.33-.103.65-.237.954-.398l.355-.19-.29.282c-.45.434-.913.852-1.396 1.25-.242.2-.488.393-.746.574-.13.09-.262.177-.402.255-.142.075-.283.155-.479.17l-.015-.19c.393-.07.788-.16 1.174-.267a9.347 9.347 0 001.135-.388l.36-.151-.218.325c-.113.167-.23.325-.358.48-.129.153-.26.304-.436.434l-.1-.216c.246-.07.496-.164.735-.269.24-.105.473-.226.695-.362.221-.138.43-.295.621-.467a3.05 3.05 0 00.489-.588l.41-.645-.172.743-.256 1.103-.22-.13.782-.724.187-.172.041.257c.018.113.058.248.1.37.045.125.097.247.154.368.116.24.25.474.4.697l-.25.088a7.035 7.035 0 01-.003-.838c.019-.28.049-.561.151-.845l.253.017c-.005-.02 0-.002.003.001l.015.024a1.278 1.278 0 00.146.154c.076.066.16.128.246.188.173.117.357.224.544.325l-.185.144-.493-2.1-.199-.845.425.757c.185.329.386.654.601.964.108.155.222.305.34.448.119.14.251.277.39.36l-.157.138c-.116-.322-.23-.64-.325-.975-.01-.043-.022-.084-.03-.133a.417.417 0 01-.009-.09c.01-.036.008-.077.092-.102.044-.005.04.002.052.004l.028.011c.016.01.031.02.04.028.074.064.128.12.191.176a3.5 3.5 0 00.386.308c.272.185.573.325.892.403.318.08.651.095.98.06l-.027.142a12.09 12.09 0 01-.844-.51 7.203 7.203 0 01-.402-.287c-.128-.105-.258-.21-.359-.358l-.12-.18.188.11c.205.12.422.229.645.315.111.043.225.08.341.105.116.024.235.04.349.02l-.01.052a3.71 3.71 0 01-.59-.51 2.048 2.048 0 01-.24-.308 1.052 1.052 0 01-.15-.357c.029.127.09.243.162.349.072.107.159.203.25.295.182.181.386.342.599.483l.057.039-.067.013a.996.996 0 01-.373-.01 2.307 2.307 0 01-.355-.098 4.557 4.557 0 01-.668-.302l.067-.069c.086.121.216.224.343.32.13.095.265.184.403.27.276.17.558.333.844.485l.212.112-.238.03a2.999 2.999 0 01-1.036-.046 2.95 2.95 0 01-.956-.412 3.729 3.729 0 01-.413-.317c-.064-.056-.13-.12-.186-.165l-.011-.009a.044.044 0 00.012.005c.007 0-.001.004.038.002.033-.004.057-.035.06-.04a.073.073 0 00.015-.04c.002.005.001.017.006.037.007.034.019.075.03.114.094.317.216.636.336.95l.11.292-.267-.153a1.821 1.821 0 01-.46-.404 5.824 5.824 0 01-.36-.463 12.298 12.298 0 01-.62-.982l.226-.089.506 2.097.067.278-.252-.133a6.337 6.337 0 01-.572-.337 3.041 3.041 0 01-.272-.206 1.553 1.553 0 01-.188-.199c-.01-.014-.02-.028-.029-.044-.01-.02-.017-.027-.031-.072l.252.016c-.083.232-.114.5-.129.765-.014.265-.01.538.007.801l.033.504-.284-.415a5.348 5.348 0 01-.425-.733 4.227 4.227 0 01-.162-.396 2.458 2.458 0 01-.112-.429l.229.085-.787.719-.322.293.101-.423.264-1.101.238.098a3.301 3.301 0 01-.539.641c-.207.185-.43.35-.663.493a6.175 6.175 0 01-1.5.65l-.64.178.54-.394c.14-.102.27-.245.392-.39.122-.145.238-.302.347-.457l.141.174a9.554 9.554 0 01-1.17.377c-.396.101-.793.186-1.199.25l-.014-.19c.116-.005.262-.07.393-.14.133-.07.263-.152.39-.238.256-.172.503-.36.745-.552.485-.388.956-.795 1.417-1.211l.065.092a5.638 5.638 0 01-.983.377 4.676 4.676 0 01-1.036.173l-.006-.052c.227-.048.443-.145.643-.269.199-.124.385-.271.552-.438zM27.899 56.472a.91.91 0 01.004.496 1.097 1.097 0 01-.247.452l-.124-.15c.125-.101.244-.22.362-.336.116-.116.224-.241.33-.366.107-.124.197-.26.288-.394.09-.136.158-.28.224-.426l.252-.554-.001.598a.869.869 0 00.08.318.863.863 0 00.201.278l-.151.089a1.528 1.528 0 01.002-.244 1.47 1.47 0 01.037-.234c.033-.154.093-.3.172-.432a2.14 2.14 0 00-.056.667 1.4 1.4 0 00.03.211l.057.24-.208-.15a1.055 1.055 0 01-.29-.316.993.993 0 01-.133-.423l.25.044a2.838 2.838 0 01-.547.905 3.857 3.857 0 01-.787.685l-.124-.15c.054-.05.11-.1.154-.16a1.07 1.07 0 00.225-.648zM29.849 56.5c.15.002.302.055.428.145a.913.913 0 01.17.16c.05.06.091.127.13.196l-.09.03a45.233 45.233 0 01-.214-.851l-.048-.203.177.118c.466.31.929.625 1.388.944l-.175.168c-.212-.32-.425-.638-.633-.96l-.265-.411.44.216c.308.15.623.295.936.437.157.07.315.139.473.2.079.032.158.061.236.087.076.026.163.048.21.052l-.08.239c-.205-.168-.4-.34-.592-.522a4.817 4.817 0 01-.277-.286 1.52 1.52 0 01-.243-.346l-.13-.272.27.132c.214.104.433.204.651.298.11.047.22.09.332.13.111.039.224.079.335.1l-.038.106a3.261 3.261 0 01-.43-.37c-.13-.135-.253-.29-.3-.474a.768.768 0 00.147.233c.06.07.126.135.197.194.139.12.292.226.448.32l.226.133-.264-.028c-.253-.027-.483-.107-.714-.184a9.483 9.483 0 01-.678-.266l.14-.14c.049.091.134.189.22.278.088.089.179.177.274.263.19.17.389.335.59.49l.336.259-.416-.02a.737.737 0 01-.16-.023c-.05-.01-.092-.025-.136-.038a4.08 4.08 0 01-.252-.09 11.242 11.242 0 01-.486-.201c-.321-.14-.633-.292-.946-.448l.174-.196c.207.323.41.649.612.974l.344.55-.519-.383c-.45-.332-.897-.668-1.34-1.01l.128-.084c.052.287.1.576.145.865l.063.398-.152-.368a.956.956 0 00-.247-.354.78.78 0 00-.395-.188zM19.912 50.812c.162-.07.328-.146.512-.142.045.002.1.023.119.074.018.049.006.098-.006.141a1.073 1.073 0 01-.121.243c-.097.152-.212.29-.32.43-.11.14-.215.282-.32.426l-.618.87c-.212.283-.435.593-.79.751l-.065-.13c.458-.286.913-.587 1.328-.926l.196-.16-.053.25-.197.92-.164-.092.847-.834.227-.224-.042.32-.114.865-.212-.087 1.285-1.768.106-.146.099.15a1.832 1.832 0 01.202.422.837.837 0 01.041.248.508.508 0 01-.073.276l-.21-.148c.224-.302.442-.612.648-.927.104-.157.204-.316.298-.477.093-.16.184-.325.252-.489l.17-.415.089.443c.109.547.256 1.096.44 1.624.092.265.195.525.321.77s.268.483.45.671l-.221.125c-.086-.38-.155-.758-.206-1.144a6.63 6.63 0 01-.05-.585c-.003-.198-.006-.397.067-.618l.099-.295.132.29a6.636 6.636 0 00.901 1.43c.183.214.38.415.593.596.216.177.452.326.703.441l-.132.145a2.776 2.776 0 01-.194-.532 1.444 1.444 0 01-.037-.58l.04-.245.133.215c.075.122.191.242.313.34.124.1.262.182.406.251.146.066.299.119.456.156.078.02.159.03.238.046l.242.026-.06.121a7.232 7.232 0 01-.543-.789 3.693 3.693 0 01-.395-.875l-.042-.15.115.105c.238.217.494.42.765.598.135.09.277.169.424.235.146.065.303.12.464.113l-.005.018-.365-.246.376.23.025.015-.03.003a1.07 1.07 0 01-.481-.095 2.927 2.927 0 01-.439-.224 6.234 6.234 0 01-.794-.58l.073-.046c.092.296.245.572.412.836.169.263.356.517.553.758l.11.136-.171-.015-.254-.023c-.084-.015-.17-.023-.252-.044a2.644 2.644 0 01-.49-.156 2.22 2.22 0 01-.447-.264 1.567 1.567 0 01-.367-.387l.174-.03c-.024.159 0 .331.045.498.045.165.11.334.186.484l.132.26-.264-.114a3.502 3.502 0 01-.765-.458 4.913 4.913 0 01-.632-.62 6.915 6.915 0 01-.949-1.482l.231-.006c-.048.145-.053.337-.047.52.008.185.027.372.052.56.052.373.123.748.208 1.116l.107.461-.33-.337a3.031 3.031 0 01-.503-.735 6.353 6.353 0 01-.341-.8 9.293 9.293 0 01-.255-.826 12.155 12.155 0 01-.192-.843l.259.027a4.323 4.323 0 01-.273.522c-.099.166-.202.328-.308.487-.212.319-.433.629-.663.936l-.21-.148c.044-.068.043-.19.004-.31a1.605 1.605 0 00-.167-.354l.205.003-1.297 1.76-.283.383.07-.47.13-.864.186.096-.863.816-.239.226.075-.32.215-.916.143.09c-.435.34-.896.631-1.366.911l-.065-.13c.306-.129.537-.41.754-.685l.646-.85c.11-.14.22-.28.335-.416.114-.138.231-.27.33-.416.05-.073.097-.148.127-.229.013-.04.024-.083.011-.12-.01-.037-.051-.056-.093-.06-.173-.013-.347.055-.51.118zM27.863 52.099a3.055 3.055 0 001.297.823c.16.054.328.083.494.109l-.092.167c-.228-.252-.448-.51-.655-.78a6.306 6.306 0 01-.3-.42 2.281 2.281 0 01-.134-.23c-.02-.043-.042-.082-.057-.133-.008-.027-.018-.045-.023-.078a.997.997 0 01-.01-.1l-.01-.26.228.161a5.628 5.628 0 001.451.717c.257.089.522.144.79.18.267.04.537.036.806.015l-.01.192a6.688 6.688 0 01-.917-.348 3.603 3.603 0 01-.429-.238c-.132-.093-.272-.203-.326-.36.076.146.222.227.358.305.141.074.29.132.441.187.302.102.611.194.92.264l.527.119-.537.073c-.284.038-.573.06-.859.03a4.354 4.354 0 01-.843-.163 5.608 5.608 0 01-.795-.314 4.94 4.94 0 01-.74-.44l.218-.098a.073.073 0 01.004.026c-.001.008.01.029.013.043.008.03.026.065.042.1.033.068.073.139.117.208.084.14.178.276.275.412.195.27.4.537.608.797l.175.218-.266-.05a2.701 2.701 0 01-.998-.401 2.76 2.76 0 01-.763-.733z" fill="#FFF"/><path d="M26.205 50.1c.217.257.418.523.616.792l-.167.034c.024-.214.047-.429.077-.643l.026-.188.165.11c.336.222.667.452.994.689l-.21.16a23.847 23.847 0 01-.235-.69l-.12-.375.312.233c.1.076.222.152.342.217a3.39 3.39 0 001.197.381c-.286.04-.584.024-.869-.048a2.471 2.471 0 01-.42-.138 2.17 2.17 0 01-.4-.212l.192-.142c.09.224.176.452.26.679l.154.415-.363-.255c-.33-.232-.655-.47-.975-.716l.19-.079c-.041.212-.09.422-.137.633l-.053.239-.114-.205a14.9 14.9 0 01-.462-.89zM13.476 49.216a5.94 5.94 0 00.8-.34c.254-.133.504-.29.69-.5l.249-.286-.173.339c-.215.419-.443.829-.701 1.223-.13.197-.266.39-.415.577-.155.18-.308.368-.552.492l-.073-.18c.433-.183.863-.384 1.279-.601.207-.11.414-.22.61-.344.19-.123.393-.264.5-.417l.328-.473-.1.557a2.034 2.034 0 01-.19.563c-.089.177-.21.343-.367.478l-.141-.216a6.883 6.883 0 001.107-.738c.17-.141.332-.29.47-.457.14-.164.262-.341.332-.532l.264.066a7.581 7.581 0 01-.331 1.264 3.618 3.618 0 01-.278.6c-.114.192-.249.383-.45.523l-.122-.217a4.147 4.147 0 00.76-.471c.231-.185.444-.4.568-.652l.106-.215.094.213c.06.133.11.264.156.402.022.07.043.14.058.215.01.077.037.148-.009.271l-.181-.071.408-1.324.05-.163.09.142.317.499-.126.03.173-1.28.012-.088.057.07c.021.027.073.044.12.035.05-.009.101-.027.147-.057.093-.058.178-.133.255-.217.156-.164.29-.35.42-.538a4.34 4.34 0 01-.388.568c-.074.088-.157.17-.255.238a.451.451 0 01-.168.074c-.062.011-.137.004-.193-.058l.07-.018-.113 1.287-.017.191-.109-.16-.333-.49.14-.021-.37 1.335-.181-.071a.425.425 0 00-.014-.142 1.723 1.723 0 00-.057-.19 4.112 4.112 0 00-.158-.375l.2-.001c-.14.31-.372.549-.62.749a4.324 4.324 0 01-.805.51l-.122-.216c.15-.106.27-.271.37-.445.102-.176.184-.366.253-.563.14-.39.24-.805.306-1.214l.264.066a2.075 2.075 0 01-.378.623c-.154.183-.33.34-.51.487a7.235 7.235 0 01-1.163.758l-1.025.53.884-.746c.125-.106.229-.242.307-.395a1.851 1.851 0 00.17-.485l.23.084c-.085.12-.181.21-.28.284-.099.078-.201.144-.304.21-.207.127-.419.24-.633.347-.43.21-.867.398-1.313.572l-.072-.18c.179-.082.345-.255.494-.424a7.53 7.53 0 00.421-.55c.262-.383.514-.777.744-1.182l.076.053c-.211.219-.473.362-.737.485a5.402 5.402 0 01-.822.293zM8.897 49.44a3.511 3.511 0 01-.572.332 5.87 5.87 0 01-.604.244l-.04-.269a2.706 2.706 0 01.783.182c.083.035.164.075.24.126-.181 0-.353-.006-.526-.01l-.511-.02-.673-.027.633-.243c.203-.078.408-.146.62-.201.21-.054.424-.1.65-.114zM8.28 50.42c.275-.129.547-.257.813-.392a7.79 7.79 0 00.388-.214c.122-.075.246-.164.317-.25l.06-.074.079.035a.41.41 0 01.156.12.572.572 0 01.087.147.814.814 0 01.058.309l-.22-.106c.205-.167.406-.338.614-.5.206-.165.414-.328.625-.487l.163-.123.035.195c.03.167.056.335.081.503l-.14-.077a2.337 2.337 0 00.56-.311 1.649 1.649 0 00.443-.486 1.306 1.306 0 01-.143.31 1.605 1.605 0 01-.215.273 2.081 2.081 0 01-.569.41l-.108.051-.033-.129c-.04-.165-.081-.33-.118-.495l.199.072c-.2.173-.403.342-.607.51-.202.169-.411.33-.617.495l-.22.176v-.281a.664.664 0 00-.029-.215.32.32 0 00-.042-.084c-.014-.021-.047-.046-.047-.048l.139-.037c-.129.14-.269.208-.408.28a4.1 4.1 0 01-.425.179 6.142 6.142 0 01-.875.245zM19.687 44.439a9.038 9.038 0 01-.345.601 5.44 5.44 0 01-.395.576l-.099-.135c.527-.266 1.06-.519 1.595-.768l.527-.246-.37.455-.284.35-.142-.22c.113-.035.233-.082.346-.133.113-.05.225-.105.328-.17.21-.127.392-.292.486-.49l.239.101c-.127.29-.253.578-.385.865l-.166-.122c.24-.197.475-.412.686-.645.106-.115.209-.236.296-.367.086-.13.167-.268.214-.422a1.38 1.38 0 01-.153.459 3.107 3.107 0 01-.256.414c-.193.262-.41.5-.65.724l-.323.298.157-.421c.11-.296.226-.59.341-.883l.238.1c-.12.285-.35.476-.579.623a2.772 2.772 0 01-.36.193 3.26 3.26 0 01-.385.14l-.431.126.288-.346.29-.346.157.209c-.542.233-1.085.462-1.635.679l-.358.141.26-.276c.153-.164.3-.341.444-.519.144-.179.283-.363.424-.545zM32.517 46.944c.147.145.288.295.43.444.143.148.283.299.421.451l-.15.055c-.011-.19-.017-.38-.024-.571l-.006-.15.15.047c.448.141.894.289 1.336.444l-.117.247c-.272-.165-.535-.34-.794-.525a5.593 5.593 0 01-.381-.292 2.767 2.767 0 01-.184-.167c-.03-.03-.06-.062-.089-.1a.487.487 0 01-.044-.069c-.013-.027-.033-.066-.025-.133l.017-.16.148.072c.307.146.628.28.95.396.162.055.324.116.491.159.167.043.335.079.509.097-.174.018-.35.007-.525-.015a4.293 4.293 0 01-.519-.094 7.365 7.365 0 01-1.003-.326l.166-.088c.005-.027-.003-.028.004-.02a.916.916 0 00.093.102c.053.05.112.097.172.143.122.093.248.183.376.272.256.176.52.346.781.514l1.022.656-1.139-.41c-.441-.159-.88-.325-1.317-.497l.145-.103c-.007.19-.013.38-.023.57l-.014.237-.137-.181c-.124-.164-.246-.33-.365-.5-.12-.166-.24-.333-.355-.505zM22.745 41.79c.199.232.394.467.588.702l-.076.021c.019-.271.034-.543.057-.815l.012-.15.113.106c.228.217.46.433.693.643.117.105.235.21.354.31.06.05.12.1.18.145a1.842 1.842 0 00.13.09l.01.004a.033.033 0 00-.015-.003c.003 0-.015-.002-.034.002a.092.092 0 00-.044.026l-.038.097-.073-.84-.022-.263.223.145.912.59-.184.198c-.3-.39-.594-.783-.888-1.177l-.247-.33.393.117c.31.091.622.18.933.265.156.041.313.082.468.117.152.033.323.07.445.072l-.03.219a4.341 4.341 0 01-.589-.317 1.988 1.988 0 01-.27-.21c-.08-.083-.174-.179-.186-.335l-.009-.114.112.033c.317.092.64.176.966.241.164.032.328.056.494.07.165.01.333.019.495-.028-.156.063-.33.079-.497.08-.169 0-.338-.01-.505-.03a7.403 7.403 0 01-.997-.177l.103-.08c.006.065.07.144.144.209.076.065.163.122.253.175.18.105.376.196.57.272l.507.196-.538.023c-.203.008-.351-.031-.518-.06a20.067 20.067 0 01-1.428-.36l.147-.212c.299.39.597.78.89 1.175l.473.635-.657-.437-.904-.601.2-.12.052.841.004.062-.042.035a.15.15 0 01-.058.03.116.116 0 01-.048.004.265.265 0 01-.044-.01.486.486 0 01-.103-.06 1.76 1.76 0 01-.1-.079 5.459 5.459 0 01-.18-.161c-.117-.11-.23-.22-.343-.332a35.21 35.21 0 01-.664-.68l.125-.045c-.036.27-.08.539-.118.809l-.016.107-.06-.086c-.176-.25-.35-.5-.521-.754zM20.417 39.41c-.166.198-.34.384-.511.576-.172.19-.348.376-.524.56l-.108-.164c.255-.117.509-.24.758-.367.125-.064.246-.132.366-.2.119-.069.237-.142.332-.223l.418-.355-.203.513c-.083.212-.17.422-.259.632l-.189-.175c.27-.14.541-.285.806-.435.132-.077.262-.155.39-.236.125-.08.25-.17.344-.266l.182-.186-.022.246c-.018.207-.035.414-.059.62l-.097-.034c.147-.173.29-.348.442-.517-.113.197-.235.388-.355.58l-.09.145-.007-.178c-.009-.208-.01-.415-.014-.622l.16.06c-.108.139-.235.233-.36.331a5.596 5.596 0 01-.387.267c-.263.169-.53.325-.808.47l-.326.17.137-.345c.084-.211.17-.422.258-.632l.216.158c-.124.101-.25.174-.377.246-.127.07-.258.133-.388.193-.26.122-.524.228-.794.326l-.5.184.393-.348c.192-.17.384-.34.581-.504.198-.164.392-.332.595-.49zM20.897 36.3a1.372 1.372 0 01-.38.694l-.023-.041 1.24-.368.132-.039-.071.12-.319.537-.083-.1c.117-.056.236-.13.341-.213.106-.084.202-.18.284-.285.083-.105.148-.222.195-.345.051-.122.07-.255.084-.385l.186.013-.1 1.948-.217-.074c.22-.335.434-.674.643-1.016.104-.171.206-.343.304-.516.095-.172.194-.352.255-.518l.288-.78-.034.828-.087 2.074-.263-.072.442-.837.12-.228.119.228c.133.257.27.512.41.765.071.126.142.252.216.375.073.12.151.248.229.344l-.222.09-.052-1.215-.01-.246.2.14c.345.242.69.486 1.032.733l-.16.141-1.125-2.264-.078-.155.163.051 1.669.522-.027.063a3.274 3.274 0 01-.492-.377c-.148-.142-.29-.303-.357-.498.08.19.228.339.383.47.155.13.326.245.5.345l.23.13-.256-.067-1.69-.447.085-.104 1.19 2.23.205.385-.365-.244c-.35-.235-.698-.474-1.045-.714l.19-.106.063 1.215.02.384-.242-.294c-.106-.13-.179-.252-.258-.378-.077-.126-.15-.253-.223-.38-.145-.254-.285-.51-.422-.768h.239l-.434.841-.295.573.032-.644.106-2.074.253.048c-.08.211-.181.382-.281.561-.102.177-.207.35-.313.522a37.59 37.59 0 01-.658 1.017l-.252.377.035-.451.15-1.945.186.013a1.532 1.532 0 01-.338.818 1.842 1.842 0 01-.7.524l-.207.086.123-.187.343-.521.06.081-1.256.31-.09.022.067-.063c.19-.177.35-.4.413-.66zM17.065 33.894c-.15.165-.298.332-.45.494l-.033-.047.975-.496.98-.483.344-.17-.234.31-.597.79-.137-.172 1.475-.742.013-.007.022-.005a1.843 1.843 0 00.71-.331 1.605 1.605 0 00.485-.606l.259.103c-.282.813-.563 1.628-.854 2.438l-.2-.13c.28-.263.566-.522.852-.78l.165-.15.009.219.028.714-.157-.047c.327-.42.658-.838.994-1.25l.051-.063.024.074c.11.34.22.68.325 1.022a58.67 58.67 0 01-.406-.993l.075.011c-.303.439-.611.873-.923 1.305l-.138.19-.02-.238-.059-.713.174.07c-.274.27-.548.542-.826.809l-.355.34.154-.47c.268-.819.547-1.634.823-2.45l.26.104a1.85 1.85 0 01-.576.71 2.099 2.099 0 01-.828.376l.035-.012-1.493.706-.457.215.32-.387.63-.764.11.14-1.001.44-1.006.426-.148.063.115-.11c.161-.153.327-.302.491-.453zM28.003 33.243c.135.11.27.218.409.319.139.1.286.19.433.256l-.112.067-.002-.444v-.164l.15.083c.34.186.675.379 1.01.572l-.173.197c-.207-.26-.416-.516-.619-.779l-.251-.325.393.105c.255.067.51.13.763.2s.508.14.76.215l-.108.174a25.34 25.34 0 01-.367-.474l-.13-.172.203.04c.177.034.353.075.53.115.177.039.353.078.529.124-.182-.007-.362-.02-.542-.035-.18-.013-.361-.025-.54-.044l.073-.133c.137.145.273.292.407.44l.22.24-.327-.066c-.258-.053-.514-.113-.77-.171-.258-.057-.512-.123-.768-.184l.142-.22c.207.258.407.523.61.785l.47.605-.643-.408a50.651 50.651 0 01-.974-.63l.15-.081-.04.442-.012.122-.1-.056a2.107 2.107 0 01-.42-.33 3.796 3.796 0 01-.354-.385zM21.88 32.381c.165-.132.334-.258.503-.384l.058-.043.014.077c.067.397.125.795.177 1.194l-.188-.055c.14-.196.283-.391.428-.584l.066-.088.099.059c.244.147.488.296.729.448l-.208.1.059-.536.025-.224.188.123.638.415-.202.147-.113-.47-.071-.293.255.153c.1.06.213.117.324.168.111.052.225.099.34.14.232.077.473.133.713.125l-.03.136a4.162 4.162 0 01-.424-.322 2.127 2.127 0 01-.191-.186.487.487 0 01-.125-.233c.026.085.093.144.157.2.065.058.135.108.207.156.144.095.297.18.448.258l.206.106-.235.03a2.024 2.024 0 01-.786-.07 3.516 3.516 0 01-.73-.291l.184-.14.13.465.094.334-.296-.187-.643-.406.213-.101-.065.535-.026.216-.182-.116c-.24-.154-.479-.31-.716-.468l.165-.03c-.151.189-.304.375-.46.56l-.17.204-.016-.258a32.45 32.45 0 01-.06-1.204l.07.034c-.183.104-.366.208-.554.306zM22.409 27.616c.158-.203.323-.4.487-.598l.06-.073.023.097c.104.434.199.869.289 1.305l-.196-.03a.358.358 0 01.174-.163.363.363 0 01.239-.007.774.774 0 01.317.224c.084.087.154.181.218.277.068.095.122.194.182.292l-.25.08c-.051-.455-.11-.908-.155-1.363l-.054-.528.303.433c.21.3.43.594.653.884.113.144.229.285.348.42.118.134.246.272.376.355l-.138.127a6.158 6.158 0 01-.152-.464 3.61 3.61 0 01-.06-.24 1.065 1.065 0 01-.018-.126c0-.048-.016-.079.02-.161.043-.052.096-.039.116-.034a.331.331 0 01.067.027c.04.02.074.044.107.068.067.048.13.1.19.153.123.105.238.218.349.334a10.935 10.935 0 00-.388-.282 2.663 2.663 0 00-.2-.127.816.816 0 00-.102-.05.202.202 0 00-.045-.012c-.017-.004-.013.008.005-.01.007-.007.002.046.012.076.007.036.018.073.028.11.021.074.048.149.075.223.055.147.118.294.18.439l.117.269-.255-.142c-.188-.106-.317-.24-.454-.373a8.328 8.328 0 01-.374-.42c-.24-.285-.464-.58-.682-.885l.25-.095c.054.454.098.91.147 1.363l.069.639-.319-.56c-.053-.093-.102-.19-.16-.279a1.796 1.796 0 00-.184-.253.61.61 0 00-.21-.17c-.034-.01-.062-.016-.087-.008-.024.006-.056.036-.069.055l-.158.228-.038-.257c-.066-.44-.127-.882-.178-1.325l.083.025c-.185.179-.368.358-.558.532zM23.981 26.212c.152.034.292.087.43.146l-.152.085a4.232 4.232 0 01-.037-.713l.016-.63.247.572c.059.136.11.276.154.42.042.145.08.291.096.448a2.469 2.469 0 01-.279-.363 3.893 3.893 0 01-.22-.389l.262-.058c.005.238-.005.476-.04.713l-.028.19-.124-.104a2.499 2.499 0 01-.325-.317zM24.953 26.985c.042-.166.096-.326.156-.483l.045-.118.095.11c.145.168.278.343.41.52l-.242.074a11.08 11.08 0 010-.79l.007-.185.164.059c.18.064.358.132.534.208.175.077.35.158.519.256a4.975 4.975 0 01-.573-.082 8.707 8.707 0 01-.558-.13l.17-.126c.01.263.01.527 0 .79l-.015.446-.225-.372a8.584 8.584 0 01-.327-.576l.14-.008c-.092.14-.19.276-.3.407zM23.722 22.981c.147.137.281.283.41.432l-.134-.012c.06-.076.125-.147.187-.221l.086-.102.089.12c.11.147.219.295.32.448.105.15.201.306.299.462l-.237.123a.707.707 0 01-.04-.192c-.002-.067-.006-.139.034-.222a.268.268 0 01.205-.15c.04-.01.074-.007.107-.004a.826.826 0 01.258.08c.053.02.1.05.147.08.096.055.18.127.265.196-.107-.028-.207-.066-.31-.092a1.66 1.66 0 00-.298-.06.2.2 0 00-.065 0c-.021.001-.042.002-.053.01-.035.009-.028.024-.037.038-.015.038.005.144.036.216l-.236.124c-.103-.151-.207-.302-.303-.459-.1-.154-.19-.313-.282-.473l.175.018c-.074.062-.146.127-.222.186l-.09.07-.045-.082a5.48 5.48 0 01-.266-.534zM22.636 18.02a2.68 2.68 0 01-.593.947c-.047.045-.094.09-.154.13a.494.494 0 01-.232.097l-.03-.272a4.606 4.606 0 011.054-.012 4.59 4.59 0 01-1.015.283l-.03-.272c.013-.009.054-.02.094-.054.041-.026.084-.065.125-.101.085-.074.167-.16.251-.243.17-.166.337-.342.53-.503zM24.124 19.034a1.21 1.21 0 01-.066-.177 2.213 2.213 0 01-.085-.53l-.017-.339.252.237c.102.096.198.198.284.311.085.113.163.233.22.376a1.564 1.564 0 01-.38-.211 2.45 2.45 0 01-.317-.277l.235-.102a2.223 2.223 0 01-.03.355c-.007.06-.022.119-.036.178a1.21 1.21 0 01-.06.178zM21.704 16.018a1.74 1.74 0 01.486-.297c.174-.077.36-.127.553-.151.192-.024.394-.022.587.039.192.056.376.174.47.346a1.364 1.364 0 00-.51-.131 2.66 2.66 0 00-.513.024c-.347.04-.694.122-1.073.17zM23.1 16.127a.883.883 0 01.108.282c.022.094.03.189.03.283 0 .094-.008.188-.03.282a.877.877 0 01-.109.283.877.877 0 01-.109-.283 1.235 1.235 0 01-.03-.282c0-.095.008-.189.03-.283a.883.883 0 01.11-.282zM23.19 19.846c.058.227.088.453.109.68.022.226.03.453.03.679 0 .227-.008.453-.03.68a4.26 4.26 0 01-.109.68 4.27 4.27 0 01-.109-.68 7.057 7.057 0 01-.03-.68c0-.226.009-.453.03-.68.021-.226.051-.452.11-.679zM23.793 19.843a.766.766 0 01.294-.033c.093.005.182.025.268.053l-.159.064a.955.955 0 01.146-.185.738.738 0 01.206-.152.743.743 0 01-.026.255.951.951 0 01-.085.22l-.048.094-.111-.03a1.05 1.05 0 01-.255-.1.764.764 0 01-.23-.186zM23.047 28.895c.058.162.088.324.109.485.022.162.03.324.03.486 0 .162-.008.323-.03.485-.02.162-.05.324-.109.485a2.255 2.255 0 01-.109-.485 3.613 3.613 0 01-.03-.485c0-.162.009-.324.03-.486.021-.161.052-.323.11-.485z" fill="#FFF"/><path d="M23.517 28.895c.058.24.088.482.109.722a8.856 8.856 0 010 1.445c-.02.241-.05.482-.109.723a4.794 4.794 0 01-.109-.723 8.856 8.856 0 010-1.445c.021-.24.051-.481.11-.722zM23.148 41.062a10.261 10.261 0 01-.109-1.063 19.057 19.057 0 010-2.126c.02-.355.05-.71.109-1.064.058.355.088.709.108 1.063a19.154 19.154 0 010 2.127c-.02.354-.05.708-.108 1.063zM23.768 37.82c.058.259.088.517.109.776a10.218 10.218 0 010 1.552c-.02.259-.05.517-.108.776a5.478 5.478 0 01-.11-.776 10.218 10.218 0 01-.03-.776c.003-.259.009-.517.031-.776.02-.258.05-.517.108-.776zM23.1 48.287c.057.178.087.356.108.534.022.178.03.356.03.534 0 .178-.008.356-.03.534-.02.178-.05.356-.109.535a2.699 2.699 0 01-.109-.535 4.353 4.353 0 01-.03-.534c0-.178.008-.356.03-.534.021-.178.051-.356.11-.534zM23.97 48.709c.058.17.088.342.109.514.022.171.03.343.031.514 0 .171-.008.343-.03.514-.02.172-.051.343-.11.514a2.51 2.51 0 01-.108-.514 3.998 3.998 0 01-.03-.514c0-.172.008-.343.03-.514.02-.172.05-.343.109-.514zM23.353 67.204l.117 4.313-.14-.141 1.218.04-.1.1.103-3.066.096 3.066.003.097-.102.003-1.217.04-.145.005.005-.146.162-4.31z" fill="#FFF"/><path d="M23.353 67.204l.117 4.313-.14-.141 1.218.04-.1.1.103-3.066.096 3.066.003.097-.102.003-1.217.04-.145.005.005-.146.162-4.31z" fill="#FFF"/></svg>