<?xml version="1.0" encoding="utf-8"?><svg width="256" height="79" fill="none" xmlns="http://www.w3.org/2000/svg" viewBox="0 0 256 79"><path d="M85.16 34.635l-6.566-8.076 6.006-7.646h2.375L80.812 26.4v.135l6.857 8.1h-2.51zm-8.516 0l.068-7.986-.068-7.736h1.883v15.722h-1.883zM92.263 33.278c.538 0 1.05-.08 1.535-.238a8.823 8.823 0 001.3-.531 12.9 12.9 0 00.862-.476v-3.755c-.194-.03-.485-.064-.873-.102a16.553 16.553 0 00-1.524-.056c-1.39 0-2.249.143-2.577.43-.195.15-.344.418-.448.803-.105.384-.157.848-.157 1.391 0 .89.145 1.535.437 1.934.291.4.773.6 1.445.6zm-.314 1.651c-.687 0-1.296-.162-1.826-.486-.53-.324-.945-.8-1.244-1.425-.299-.626-.448-1.384-.448-2.274 0-1.07.213-1.912.639-2.522.426-.611 1.027-1.045 1.804-1.301.776-.256 1.68-.385 2.711-.385h2.375c0-.754-.019-1.414-.055-1.98-.038-.565-.161-.983-.37-1.255a1.006 1.006 0 00-.616-.407 3.637 3.637 0 00-.818-.09 8.64 8.64 0 00-1.715.17c-.56.112-1.068.244-1.523.395-.456.151-.953.34-1.49.566l-.65-1.47c.567-.257 1.09-.472 1.568-.645a12.49 12.49 0 011.602-.453 8.59 8.59 0 011.827-.192c1.015 0 1.822.2 2.42.6.597.399 1.027.957 1.288 1.673.262.717.392 1.558.392 2.523v8.664h-1.21l-.269-1.38h-.134c-.15.106-.362.253-.639.441a9.101 9.101 0 01-.963.566 6.644 6.644 0 01-1.222.475 5.2 5.2 0 01-1.434.192zM100.151 34.929l-.247-1.47c.209-.015.445-.05.706-.102.261-.053.489-.14.684-.26.134-.091.257-.219.369-.385.112-.166.217-.471.314-.916.097-.445.175-1.128.235-2.048l.605-8.28h7.978v13.167h-1.86l.067-6.221-.067-5.317h-4.392l-.695 8.258c-.09 1.116-.377 1.99-.863 2.624-.485.633-1.258.95-2.319.95h-.515zM115.478 38.39l1.748-5.135-4.168-11.786h1.994l3.003 9.614h.09l3.002-9.614h1.995l-4.392 12.329-1.3 4.592h-1.972zM138.402 34.635l-5.221-6.628 4.907-6.538h2.286l-5.064 6.515v.113l5.4 6.538h-2.308zm-7.014 0l.112-6.628-.112-6.538h1.86l-.112 6.538.112 6.628h-1.86zm-7.462 0l5.401-6.538v-.113l-5.065-6.515h2.286l4.907 6.538-5.221 6.628h-2.308zM147.992 34.93c-1.016 0-1.912-.235-2.689-.702-.777-.467-1.382-1.21-1.815-2.229-.433-1.017-.65-2.348-.65-3.992 0-1.342.146-2.458.437-3.348.292-.89.691-1.587 1.199-2.093a4.3 4.3 0 011.793-1.074 7.434 7.434 0 012.196-.317c.567 0 1.146.038 1.736.113.59.076 1.072.158 1.446.249l-.224 1.583c-.284-.03-.732-.086-1.345-.17a14.756 14.756 0 00-1.972-.124c-.552 0-1.019.046-1.4.136-.381.09-.676.241-.885.452-.284.317-.527.894-.729 1.731-.201.837-.302 1.836-.302 2.997 0 1.072.082 1.935.246 2.59.165.657.359 1.155.583 1.494.224.34.426.577.605.712.119.09.28.174.482.25.201.075.489.112.863.112.433 0 .873-.052 1.322-.158a10.92 10.92 0 001.232-.362c.373-.136.792-.309 1.255-.52l.583 1.47c-.658.392-1.285.69-1.883.894-.597.203-1.292.305-2.084.305zM162.222 34.635l-5.221-6.628 4.907-6.538h2.42l-5.288 6.515v.113l5.602 6.538h-2.42zm-6.992 0l.112-6.628-.112-6.538h1.86l-.112 6.538.112 6.628h-1.86zM166.658 34.635V21.469h1.86l-.224 11.107h.112l5.737-11.107h2.375v13.166h-1.86l.224-11.108h-.089l-5.759 11.108h-2.376zM185.661 19.908c-1.001 0-1.815-.268-2.443-.803-.627-.535-.963-1.384-1.008-2.545l1.389-.045c.06.497.235.893.527 1.187.291.294.803.442 1.535.442.851 0 1.43-.148 1.737-.442.305-.294.489-.69.549-1.187l1.165.045c-.06 1.161-.4 2.01-1.02 2.545-.62.535-1.431.803-2.431.803zm-4.953 14.727V21.47h1.86l-.224 11.107h.112l5.736-11.107h2.377v13.166h-1.861l.225-11.108h-.091l-5.758 11.108h-2.376zM202.265 34.635v-11.56l-4.301.023v-1.63h10.352v1.63l-4.192-.023v11.56h-1.859zM215.418 33.278c.166 0 .371-.02.618-.057.246-.037.466-.14.661-.305.208-.181.391-.464.549-.848.156-.385.279-.947.369-1.686.089-.739.135-1.72.135-2.94 0-.996-.027-1.777-.08-2.342-.052-.566-.126-.988-.223-1.267-.097-.279-.212-.479-.348-.6a1.476 1.476 0 00-.391-.248c-.188-.09-.474-.136-.863-.136-.479 0-.968.079-1.467.237a11.232 11.232 0 00-2.252.985v8.732c.313.09.783.192 1.411.305.627.113 1.254.17 1.881.17zm-5.153 5.112V21.47h1.256l.246 1.335h.134c.284-.211.612-.442.986-.69a6.619 6.619 0 011.288-.656 4.398 4.398 0 011.603-.283c.807 0 1.505.23 2.095.69.59.46 1.046 1.176 1.366 2.149.322.973.482 2.236.482 3.79 0 1.462-.134 2.657-.403 3.585-.268.927-.628 1.651-1.076 2.172-.447.52-.955.882-1.523 1.085a5.07 5.07 0 01-1.725.306 13.632 13.632 0 01-2.118-.17 46.93 46.93 0 00-.75-.124v3.732h-1.861zM226.332 33.278c.538 0 1.05-.08 1.534-.238a8.855 8.855 0 001.301-.531c.38-.196.668-.355.862-.476v-3.755c-.194-.03-.486-.064-.873-.102a16.574 16.574 0 00-1.525-.056c-1.388 0-2.248.143-2.577.43-.194.15-.343.418-.447.803-.106.384-.158.848-.158 1.391 0 .89.147 1.535.437 1.934.292.4.774.6 1.446.6zm-.314 1.651c-.687 0-1.296-.162-1.826-.486-.531-.324-.946-.8-1.243-1.425-.3-.626-.449-1.384-.449-2.274 0-1.07.212-1.912.638-2.522.427-.611 1.028-1.045 1.804-1.301.778-.256 1.681-.385 2.712-.385h2.375c0-.754-.019-1.414-.056-1.98-.037-.565-.16-.983-.369-1.255a1.01 1.01 0 00-.618-.407c-.26-.06-.534-.09-.817-.09-.582 0-1.154.056-1.714.17-.56.112-1.068.244-1.524.395-.456.151-.951.34-1.489.566l-.652-1.47a22.577 22.577 0 011.569-.645 12.579 12.579 0 011.603-.453 8.584 8.584 0 011.826-.192c1.016 0 1.822.2 2.421.6.598.399 1.026.957 1.288 1.673.261.717.393 1.558.393 2.523v8.664h-1.212l-.268-1.38h-.134a83.77 83.77 0 01-.638.441c-.278.189-.6.377-.964.566a6.675 6.675 0 01-1.221.475 5.21 5.21 0 01-1.435.192zM243.385 34.635l-5.221-6.628 4.906-6.538h2.422l-5.29 6.515v.113l5.602 6.538h-2.419zm-6.993 0l.114-6.628-.114-6.538h1.861l-.111 6.538.111 6.628h-1.861zM249.949 34.635v-11.56l-4.301.023v-1.63H256v1.63l-4.19-.023v11.56h-1.861zM104.784 59.224v-8.181h5.225v8.18H109l.025-4.378.012-2.931h-3.269l.012 2.931.025 4.379h-1.021zM112.561 59.224v-8.181h1.02l-.036 4.308.024 2.213 3.293-6.521h1.531v8.18h-1.02l.036-3.872-.024-3.378-3.646 7.25h-1.178zM122.039 59.224l.024-7.345-2.37.035v-.871h5.711v.871l-2.369-.035.024 7.345h-1.02zM129.414 58.494c.348 0 .65-.037.905-.112.256-.074.466-.225.632-.453.166-.227.29-.563.371-1.007.081-.443.121-1.033.121-1.771s-.038-1.33-.115-1.778c-.077-.447-.197-.786-.358-1.018a1.174 1.174 0 00-.632-.465 3.214 3.214 0 00-.924-.117c-.365 0-.674.039-.929.117a1.167 1.167 0 00-.626.465c-.162.232-.282.571-.359 1.018-.077.448-.115 1.04-.115 1.778s.04 1.328.121 1.771c.081.444.203.78.365 1.007.162.228.372.379.632.453.259.075.563.112.911.112zm0 .895c-.421 0-.82-.063-1.197-.189a2.364 2.364 0 01-.996-.653c-.288-.31-.513-.743-.674-1.3-.163-.558-.244-1.268-.244-2.131 0-.864.081-1.57.244-2.12.161-.548.386-.978.674-1.288.287-.31.62-.526.996-.648a3.879 3.879 0 011.197-.182c.429 0 .83.06 1.203.182.373.122.703.338.99.648.288.31.513.74.675 1.289.162.55.243 1.255.243 2.119 0 .863-.081 1.573-.243 2.13-.162.558-.387.991-.675 1.3-.287.311-.617.529-.99.654a3.752 3.752 0 01-1.203.189zM134.615 59.224l.291-8.181h1.483l1.908 5.332h.085l1.919-5.332h1.483l.291 8.18h-1.02l-.097-7.191h-.085l-1.908 5.273h-1.252l-1.895-5.273h-.085l-.098 7.192h-1.02zM144.567 59.224v-8.181h1.02l-.036 3.908-.462-.33h4.472l-.462.33-.024-3.908h1.02v8.18h-1.02l.024-4.06.462.33h-4.472l.462-.33.036 4.06h-1.02zM152.647 59.224v-8.181h1.02l-.036 4.308.024 2.213 3.293-6.521h1.531v8.18h-1.02l.036-3.872-.024-3.378-3.646 7.25h-1.178zM165.648 59.224l-3.56-4.202 3.257-3.979h1.288l-3.342 3.896v.07l3.718 4.215h-1.361zm-4.617 0l.036-4.155-.036-4.026h1.021v8.18h-1.021zM173.571 55.669c.259 0 .469-.014.632-.041a.718.718 0 00.389-.183c.137-.133.23-.363.279-.688.049-.326.073-.74.073-1.242 0-.424-.022-.752-.067-.983-.045-.232-.097-.398-.158-.5a.602.602 0 00-.188-.212 1.116 1.116 0 00-.395-.136 3.306 3.306 0 00-.626-.053c-.316 0-.613.014-.893.041-.28.028-.492.058-.638.089v3.767c.113.016.326.043.638.082.312.04.63.059.954.059zm-2.613 3.555l.049-3.79-.049-4.391c.333-.031.636-.06.912-.083a24.598 24.598 0 011.883-.082c.721 0 1.28.23 1.677.688.397.46.595 1.148.595 2.066 0 .574-.071 1.048-.212 1.425-.142.377-.334.669-.577.877a2.166 2.166 0 01-.815.441 3.31 3.31 0 01-.923.13c-.251 0-.531-.01-.839-.03-.307-.02-.534-.033-.68-.04v2.789h-1.021zM178.516 56.646l-.34-.459h3.281l-.34.459-1.373-5.168.571.436h-.997l.571-.436-1.373 5.168zm-1.713 2.578l2.297-8.181h1.433l2.297 8.18h-1.045l-.644-2.447.51.282h-3.645l.486-.282-.644 2.448h-1.045zM186.681 59.389c-.575 0-1.081-.136-1.518-.407-.438-.27-.78-.712-1.027-1.324-.247-.612-.371-1.424-.371-2.436 0-.895.079-1.627.237-2.196.158-.569.377-1.01.657-1.324.279-.314.609-.53.99-.647a4.175 4.175 0 011.239-.177c.195 0 .426.01.692.03.268.02.527.043.778.07.251.028.443.057.571.088l-.12.848a55.731 55.731 0 00-.888-.083 36.23 36.23 0 00-.559-.04 6.714 6.714 0 00-.413-.018c-.396 0-.715.02-.954.058-.239.04-.415.126-.528.26-.106.125-.207.31-.304.553-.097.243-.174.575-.231.994-.057.42-.085.96-.085 1.619 0 .832.083 1.497.249 1.995.166.498.33.826.492.983.114.11.251.187.413.23.163.043.345.064.548.064.307 0 .605-.031.892-.094.288-.062.543-.137.766-.224.222-.086.464-.192.722-.317l.352.776a7.41 7.41 0 01-.716.36 4.565 4.565 0 01-.819.253c-.32.07-.676.106-1.065.106zM192.345 59.224l.024-7.345-2.369.035v-.871h5.71v.871l-2.369-.035.024 7.345h-1.02zM197.011 59.224v-8.181h4.143v.871l-3.585-.035.475-.448-.086 3.508-.45-.294h3.354v.836h-3.354l.45-.342.086 3.685-.475-.447 3.585-.024v.87h-4.143zM203.255 59.224v-8.181h1.022l-.037 3.908-.462-.33h4.473l-.464.33-.024-3.908h1.022v8.18h-1.022l.024-4.06.464.33h-4.473l.462-.33.037 4.06h-1.022zM211.337 59.224v-8.181h1.02l-.036 4.308.024 2.213 3.293-6.521h1.53v8.18h-1.02l.037-3.872-.024-3.378-3.646 7.25h-1.178zM222.504 50.702c-.544 0-.985-.14-1.325-.418-.341-.279-.523-.72-.548-1.324l.754-.024a1 1 0 00.285.618c.158.153.436.23.834.23.461 0 .774-.077.94-.23a.966.966 0 00.298-.618l.632.024c-.016.4-.106.73-.268.988a1.45 1.45 0 01-.649.571c-.272.122-.59.183-.953.183zm-2.785 8.522v-8.18h1.022l-.037 4.307.024 2.213 3.295-6.52h1.53v8.18h-1.02l.035-3.873-.024-3.378-3.645 7.251h-1.18zM254.582 42.534H75.754v.56h178.828v-.56zM52.948 44.614a.25.25 0 11-.5.001.25.25 0 01.5 0zM57.364 30.008a.25.25 0 01-.25.25.25.25 0 010-.5.25.25 0 01.25.25zM59.993 39.943a.25.25 0 11-.497.001.25.25 0 01.497-.001zM48.625 33.886a.25.25 0 11-.5.001.25.25 0 01.5 0zM59.744 21.964a.25.25 0 11-.499.001.25.25 0 01.499 0zM37.11 3.713a.25.25 0 11-.5.001.25.25 0 01.5 0zM49.12 6.582a.25.25 0 11-.499 0 .25.25 0 01.5 0zM33.02 9.492a.251.251 0 01-.055.35.248.248 0 01-.347-.056.25.25 0 01.055-.35.248.248 0 01.348.056zM40.042 14.251a.25.25 0 01-.056.35.248.248 0 01-.347-.056.25.25 0 01.055-.35.248.248 0 01.348.056zM49.8 24.757a.25.25 0 01-.055.35.248.248 0 01-.348-.056.25.25 0 01.055-.35.248.248 0 01.348.056zM33.725 20.742a.25.25 0 01-.056.35.248.248 0 01-.347-.056.25.25 0 01.055-.35.248.248 0 01.348.056zM39.207 27.644a.25.25 0 01-.055.35.248.248 0 01-.348-.056.25.25 0 01.055-.35.248.248 0 01.348.056zM42.983 39.66a.25.25 0 01-.055.349.249.249 0 01-.348-.056.25.25 0 01.055-.35.248.248 0 01.348.056z" fill="#231F20"/><path d="M30.658 76.592c1.39-1.695 2.992-3.206 4.692-4.59a36.592 36.592 0 012.648-1.952c.453-.31.916-.603 1.387-.886.236-.139.47-.283.71-.417l.721-.395c.97-.514 1.973-.963 2.988-1.375 1.014-.416 2.059-.75 3.105-1.063a31.64 31.64 0 013.187-.763l.808-.143.806-.13a97.05 97.05 0 001.606-.29 43.622 43.622 0 003.177-.708c.52-.141 1.04-.29 1.532-.486.244-.097.482-.209.686-.343.1-.067.19-.142.247-.217.06-.077.069-.131.062-.185a.512.512 0 00-.135-.222 1.774 1.774 0 00-.271-.23 5.351 5.351 0 00-.67-.395c-.474-.24-.972-.449-1.473-.651a79.617 79.617 0 00-1.52-.588c-.246-.094-.527-.188-.79-.343-.26-.152-.53-.353-.701-.678a1.173 1.173 0 01-.133-.526 1.454 1.454 0 01.086-.506c.111-.31.285-.561.47-.789.374-.45.804-.815 1.245-1.156.888-.675 1.84-1.23 2.8-1.76.96-.531 1.948-1.002 2.943-1.455.497-.226.998-.444 1.504-.65a40.644 40.644 0 011.524-.6l.021.05c-1.96.953-3.897 1.955-5.766 3.055-.931.553-1.843 1.143-2.68 1.807-.415.332-.815.687-1.133 1.082a2.302 2.302 0 00-.364.615c-.073.21-.074.395.012.558.083.166.261.317.468.437.208.121.443.21.704.313.507.201 1.015.404 1.52.616.506.215 1.01.435 1.506.696.247.133.493.272.73.448.119.088.236.184.345.305a.994.994 0 01.255.487.703.703 0 01-.03.321.82.82 0 01-.145.252 1.557 1.557 0 01-.37.314c-.258.158-.52.27-.784.367-.528.192-1.062.332-1.597.454-1.073.24-2.151.413-3.23.58-1.077.168-2.166.284-3.233.47-1.069.19-2.13.434-3.162.775-2.07.663-4.036 1.607-5.923 2.669a52.34 52.34 0 00-2.775 1.69 47.574 47.574 0 00-2.655 1.88 51.398 51.398 0 00-2.529 2.056c-.407.36-.817.718-1.215 1.09-.397.372-.789.752-1.169 1.142l-.042-.037z" fill="#232629"/><path d="M45.826 69.857c.86-.638 1.699-1.298 2.55-1.95.856-.645 1.736-1.269 2.668-1.817.463-.276.943-.538 1.433-.772.49-.234.992-.432 1.502-.603a29.025 29.025 0 013.105-.84l.02.053c-.474.26-.964.484-1.455.697-.49.215-.986.413-1.477.616-.983.408-1.978.739-2.911 1.241-.94.488-1.839 1.057-2.724 1.654-.89.588-1.77 1.203-2.68 1.767l-.03-.046z" fill="#232629"/><path d="M22.806 8.862a21.23 21.23 0 013.033-3.437 21.094 21.094 0 013.719-2.698A20.87 20.87 0 0138.323.043c.386-.016.772-.03 1.158-.04.383-.006.763 0 1.144 0l2.286.003C44.45 0 46.001.142 47.51.475a21.037 21.037 0 018.346 3.867c2.45 1.886 4.507 4.297 5.932 7.051 1.433 2.747 2.27 5.813 2.38 8.915.028.78.022 1.541.022 2.307V57.05c-.002.383.005.763-.01 1.152-.009.388-.014.776-.051 1.162l-.045.58c-.02.193-.047.385-.07.578-.027.192-.047.385-.077.576l-.102.573a20.949 20.949 0 01-1.336 4.445 21.432 21.432 0 01-5.374 7.49c-2.307 2.059-5.054 3.635-8.02 4.509-1.481.442-3.01.719-4.55.825-.771.056-1.547.052-2.305.056-.762.006-1.524 0-2.285-.002-.38 0-.768-.023-1.153-.038-.386-.007-.77-.053-1.153-.09-.385-.03-.765-.095-1.145-.155-.383-.05-.758-.136-1.135-.218a20.71 20.71 0 01-4.357-1.486 20.958 20.958 0 01-3.916-2.4 21.164 21.164 0 01-3.288-3.19 21.152 21.152 0 007.324 5.323 20.364 20.364 0 004.323 1.335c.37.069.74.142 1.116.18.373.048.746.101 1.123.118.376.026.75.06 1.127.056.377.004.75.015 1.134.004.761-.002 1.523-.007 2.285-.002.38-.001.766.01 1.14-.005.375-.013.752-.008 1.126-.046 1.5-.103 2.988-.373 4.429-.802 2.887-.85 5.561-2.386 7.808-4.39a20.867 20.867 0 005.232-7.292 20.386 20.386 0 001.3-4.327l.1-.558c.03-.186.05-.374.074-.56.023-.188.05-.375.07-.563l.043-.564c.036-.376.041-.754.05-1.131.014-.375.008-.761.01-1.143V22.615c0-.765.006-1.534-.022-2.284-.107-3.02-.922-6.003-2.317-8.677-1.387-2.681-3.39-5.03-5.776-6.866a20.477 20.477 0 00-8.124-3.765 20.426 20.426 0 00-4.48-.456L40.624.57l-1.142.007a73.05 73.05 0 01-1.127.03 20.517 20.517 0 00-8.655 2.382 20.89 20.89 0 00-3.755 2.559 21.119 21.119 0 00-3.14 3.314z" fill="#231F20"/><path d="M50.146 13.35s.612-.127 1.098.307c0 0 .343.162.757 0 .414-.163 1.747-.814 2.954-.796 1.206.018 2.683.38 3.422.434.738.054 1.027-.018.63.18-.396.2-1.099.399-1.675.345-.576-.055-2.413-.091-3.152.009-.738.099-1.837.37-2.36.533-.522.163-.666.145-.63.434.036.29.108.611.216.767.108.156-.162.101-.504.101-.342 0-1.153-.198-1.387-.415-.234-.218-.198-.254 0-.453s.306-.597.198-.886c-.108-.29-.522-1.013-1.279-1.52-.756-.506-1.675-1.284-2.485-1.646-.81-.361-1.585-1.085-1.891-1.41-.307-.326-.415-.543 0-.38.414.163 2.053 1.03 2.683 1.338.63.308 1.063.615 1.567 1.085.505.47 1.423 1.34 1.838 1.972zM39.966 19.481s.267-.178.581-.065c0 0 .194.012.36-.145.167-.158.676-.724 1.254-.948.578-.224 1.35-.336 1.712-.453.361-.116.485-.206.334-.035-.15.171-.447.401-.731.486-.285.085-1.166.422-1.499.612-.332.19-.803.53-1.02.708-.218.178-.29.197-.218.328.073.13.169.27.25.323.08.053-.058.08-.22.146-.164.065-.587.127-.74.069-.153-.059-.143-.083-.087-.216a.474.474 0 00-.075-.46 1.832 1.832 0 00-.898-.476c-.457-.096-1.043-.288-1.497-.305-.455-.016-.962-.21-1.17-.307-.208-.096-.3-.178-.072-.18.228-.003 1.174.095 1.532.12.359.024.623.088.953.214.33.127.933.363 1.251.584zM23.194 48.822l.402-.51c.003-.002.201-.264.266-.706-.478.31-1.55.963-2.121.983l-.52.018.441-.277c.01-.007 1.095-.7 1.832-2.12l.248.13a6.44 6.44 0 01-1.356 1.772c.573-.255 1.259-.69 1.557-.895l.22-.151-.001.267c0 .242-.04.45-.091.622.652-.64 1.019-1.733 1.023-1.746l.153-.466.115.477c.187.775.47 1.179.712 1.39-.31-.584-.339-1.296-.34-1.335l-.013-.366.253.264c1.303 1.366 2.186 1.894 2.692 2.098a.738.738 0 01-.082-.129l-.143-.31.318.12c.73.272 1.295.322 1.67.31a7.02 7.02 0 01-2.463-1.661l-.308-.345.447.115c.29.075.816.08 1.194.072-.688-.476-1.64-1.305-1.866-1.503a1.14 1.14 0 01-.05-.044l.188-.208.05.043c.4.331 1.266.56 1.795.676a8.319 8.319 0 01-.215-.282l-.002-.003a.228.228 0 01-.051-.057c-.074-.128-.015-.194.027-.221.107-.07.175.012.24.1.15.094.762.278 1.341.42v-.313l.159.021c1.12.151 1.827-.014 2.18-.145a.17.17 0 01-.018-.052c-.013-.084.04-.162.138-.203l.018-.007c.34-.09.546-.219.67-.33-6.287.612-6.92-1.655-6.945-1.754l-.072-.293.27.135c.873.433 1.721.48 2.226.454-.428-.275-.56-.612-.567-.63l-.123-.33.315.154c.481.235 1.827.491 2.665.635a3.765 3.765 0 01-.257-.282l-.256-.31.392.084c.518.11 1.041.08 1.41.029a2.56 2.56 0 01-.38-.237l-.359-.281.455.03c.782.052 1.3-.192 1.594-.4-4.596.399-8.434-2.063-8.474-2.088l.152-.235c.04.025 4.035 2.582 8.713 2l.33-.042-.202.266c-.024.03-.529.678-1.624.775.112.051.236.094.357.11l.678.087-.658.187c-.036.01-.785.22-1.642.135.13.125.262.227.354.267l.123.02.968.145-.97.132a.402.402 0 01-.177-.021c-.468-.073-1.984-.32-2.866-.588.131.12.322.248.595.339l.48.16-.494.11c-.052.011-1.183.252-2.488-.25.474.586 2.016 1.695 6.762 1.177l.217-.024-.07.207c-.005.017-.12.345-.636.587l.146.012-.32.224c-.033.022-.788.533-2.49.339v.348l-.17-.04a13.094 13.094 0 01-1.108-.3.728.728 0 00.146.133l.676.384-.767-.124a9.932 9.932 0 01-1.357-.331c.476.39 1.032.823 1.368 1.002l.438.232-.495.031c-.037.002-.732.046-1.29.002.448.406 1.37 1.126 2.575 1.469l.4.113-.387.152c-.031.012-.668.252-1.805-.038l.014.007.387.195-.427.068c-.042.008-1.031.136-3.174-2.012.064.371.215.912.567 1.212l.301.256-.395-.01c-.038 0-.859-.037-1.326-1.429-.23.534-.714 1.46-1.436 1.834l-.576.298z" fill="#231F20"/><path d="M38.96 67.247c-.698 0-2.15-.282-4.278-2.089.304.59.708 1.31.94 1.506l.333.282-.434-.035a2.09 2.09 0 01-1.358-.744c.017.062.044.13.09.2l.242.383-.415-.179c-.078-.033-1.907-.825-2.26-1.656l.257-.11c.214.503 1.192 1.067 1.801 1.365a.787.787 0 01.062-.482l.126-.232.121.235c.254.495.663.732.966.844-.434-.624-.969-1.744-1.041-1.898l-.308-.65.528.487c2.357 2.175 3.939 2.483 4.627 2.488-.283-.282-.338-.69-.34-.713l-.025-.19.188.034c.526.096.919.152 1.208.184-1.222-.58-2.317-1.492-2.372-1.538l-.41-.344.525.098c1.955.367 3.152.414 3.85.374-2.873-.429-3.133-1.21-3.154-1.305l-.046-.206.207.037c.707.13 1.205.152 1.548.131-1.965-.26-3.937-.998-3.96-1.007l-1.067-.403 1.133.133c.412.048.757.002 1.018-.068-2.865-.076-3.922-.662-4.3-1.16-.271-.358-.19-.667-.187-.68l.04-.143.14.048c.824.283 1.963.49 2.686.604-.248-.22-.314-.415-.318-.428l-.078-.24.244.06c.924.23 1.594.244 2.033.2-6.422-1.155-7.885-2.24-8.178-2.795-.115-.216-.062-.358-.05-.384l.1-.22.14.196c.194.268 1.43.706 2.36.983-.022-.22.11-.427.127-.453l.082-.123.118.09c.465.354 1.494.5 2.047.555a7.362 7.362 0 01-.514-.783l-.248-.434.436.24c1.264.699 2.16.862 2.681.879-.543-.28-.749-.588-.76-.604l-.18-.276.324.062c2.203.422 3.28.27 3.757.118a27.25 27.25 0 01-2.255-.59l.063-.271c.618.094 1.346.005 1.928-.11-5.691-.135-7.643-1.87-7.728-1.948l-.672-.62.826.39c.228.107.476.146.683.156a4.187 4.187 0 01-.956-.83l-.58-.727.767.524c.807.55 1.917.713 2.652.757a2.792 2.792 0 01-.212-.122l-.595-.386.696.13c.602.114 1.476-.001 2.06-.107-7.103-1.7-7.736-4.595-7.76-4.72l-.078-.41.309.279a9.227 9.227 0 001.556 1.139 1.746 1.746 0 01-.085-.272l.274-.051.005.02c.053.164.543.423 1.066.616-.041-.414.29-.93.34-1.003l.12-.182.114.187c.473.78 1.258 1.1 1.266 1.104l.04.025c.283.25.592.303.822.297-.748-.587-1.505-1.996-1.541-2.064l-.312-.585.52.408c1.588 1.245 2.76 1.6 3.416 1.691-.56-.358-1.133-.905-1.166-.937l-.314-.3.43.06c3.122.445 4.851.171 5.647-.054-1.016-.163-2.678-.626-2.767-.65l-.753-.211.78-.065c.213-.017.428-.07.62-.134-1.332-.052-3.342-.521-3.446-.546l-1.265-.297 1.299.02c1.162.02 1.354-.197 1.385-.264.035-.076-.046-.173-.046-.174l-.366-.422.52.199c.488.187 1.249.023 1.66-.092a.435.435 0 01-.059-.238l.007-.093.088-.03c.208-.07.434-.212.635-.364-3.36 1.127-8.177-.049-8.396-.103l.067-.272c.057.014 5.733 1.399 8.977-.19l.706-.347-.544.57c-.028.029-.651.676-1.24.928.02.025.054.04.101.043l.667.044-.629.228c-.049.017-1.078.385-1.86.252a.377.377 0 01-.033.176c-.078.173-.285.293-.626.361.997.195 2.482.436 3.13.294l.873-.19-.773.449c-.02.011-.374.214-.83.352.928.243 2.33.579 2.727.54l.608-.062-.521.32c-.063.04-1.55.915-5.932.36.36.311.932.764 1.305.854l.592.143-.595.13c-.06.013-1.386.278-3.697-1.346.383.609.948 1.38 1.394 1.551l.345.134-.347.129c-.032.011-.781.28-1.43-.278a3.2 3.2 0 01-1.25-1.017c-.142.27-.273.649-.113.792l.48.43-.614-.191a6.213 6.213 0 01-.934-.372l-.106.226c-.035-.015-.765-.317-1.71-1.07.56.937 2.362 2.9 7.934 4.114l.586.128-.582.145c-.056.014-1.1.272-2.05.292.073.023.148.045.224.062l.96.212-.981.064c-.072.006-1.438.087-2.692-.36.168.12.361.237.575.336l.399.183-.431.082c-.017.003-.24.043-.541.03 1.043.57 3.47 1.522 7.997 1.465l.896-.011-.85.284c-.054.018-.994.328-2.013.411.454.12 1.014.257 1.595.37l.256.048-.183.187c-.03.03-.752.722-3.884.196.183.135.454.291.838.414l.403.13-.4.137c-.045.015-1.045.337-2.99-.616.168.254.343.488.438.54l.524.291-.599-.028c-.07-.003-1.645-.083-2.43-.547a.315.315 0 00-.017.17c.008.03.027.074.101.113l1.194.617-1.295-.358c-.201-.056-1.64-.46-2.417-.866.519.507 2.313 1.498 8.493 2.557l.417.071-.377.192c-.035.017-.814.398-2.516.046.117.116.303.25.592.363l1.035.405-1.103-.135c-.082-.01-1.934-.24-3.25-.656.017.078.056.18.145.293.307.39 1.327 1.044 4.71 1.044h.436l-.343.253c-.02.014-.362.262-.96.353.907.288 2.478.724 3.896.807l.314.019-.224.221c-.046.046-.473.411-2.115.17.35.276 1.266.73 3.621.973l.439.045-.385.217c-.037.02-.914.485-4.343-.096.572.425 1.608 1.128 2.578 1.44l.458.147-.465.122c-.037.01-.396.084-1.867-.17.064.181.202.437.485.513l.448.121-.44.148a1.588 1.588 0 01-.477.057z" fill="#231F20"/><path d="M16.34 52.4a4.761 4.761 0 01-.13.251l.038-.03a.306.306 0 00.092-.222zm4.531 17.68l-.422-.286c-.022-.014-.51-.347-1.005-1.054a.597.597 0 01-.389-.058c-.187-.1-.325-.298-.41-.591-.312.29-.693.682-.747.847l-.266-.082c.15-.525.53-1.966.477-2.32a2.617 2.617 0 00-.048-.255c-.418.408-1.176 1.21-1.271 1.597l-.115.463-.153-.452a5.836 5.836 0 00-.248-.591c-.212.335-.666.94-1.286 1.133l-.354.11.193-.317c.004-.006.362-.598.563-1.305-.5.233-1.567.716-2.023.824l-.515.123.388-.362c.446-.415 1.395-1.392 1.878-2.196-.35.428-.829.908-1.316 1.078l-.268.093.09-.27c.075-.224.15-.542.162-.78-.307.43-.88 1.229-1.022 1.39l-.143.161-.25-.55c-.136.256-.356.639-.568.867l-.235.252-.006-.345c-.01-.512-.055-1.08-.121-1.416-.189.338-.553.86-1.081 1.056-.33.122-.673.1-1.022-.066l-1.648.667.847-.892-1.311.147c-.793.09-2.649-.161-2.727-.172l-.633-.086.61-.187c.034-.01 3.331-1.02 5.315-1.725 1.593-.567 3.127-1.204 3.836-2.039-.715.49-1.948 1.307-2.458 1.48-.703.236-1.017.351-1.02.352l-.118-.253a1.82 1.82 0 00.585-.63c-.367.189-.95.432-1.444.397l-.417-.032.353-.226c.006-.004.37-.239.762-.579-1.079.575-2.954 1.5-3.878 1.513l-.017-.28c-.015.001-.021.005-.022.005.002 0 .085-.042.18-.298-.304.034-.827.06-1.078-.11l-.21-.143.232-.102c1.057-.467 2.886-1.328 3.944-1.972-1.37.503-3.892 1.39-4.868 1.47l-.776.063.706-.33c.861-.402 2.008-1.096 2.266-1.564-.646.225-2.459.77-4.027.412l-.483-.11.469-.16c.517-.176 1.084-.43 1.357-.628-.834-.027-3.023-.158-3.475-.777L0 59.73l.318.038c.052.006 4.958.558 8.987-.956a8.185 8.185 0 01-2.105-.6l-.512-.22.556-.048c.071-.006 6.796-.604 8.971-3.328-.508.243-1.273.503-1.732.157l-.18-.136.201-.102c.028-.014 2.46-1.255 3.297-2.658-.623.595-1.269 1.11-1.528.981l-.142-.07c-.239.393-.576.792-.966.8l-.22.005.09-.202c0-.001.05-.121.064-.304-.268.565-.75 1.498-1.135 1.81l-.374.304.155-.458c.005-.017.12-.4-.185-.974-.245.313-.803.935-1.373.938l-.354.001.258-.243c.01-.01.93-.89 1.163-1.822-.378.535-1.02 1.35-1.514 1.483l-.417.113.272-.337a.577.577 0 00.101-.227c-.348.357-1.053 1.02-1.57 1.129l-.314.065.166-.276c.001-.002.091-.154.143-.37-.412.417-1.26 1.083-2.478 1.027l-.443-.018.373-.24c.019-.012 1.434-.922 2.407-1.71-.348.125-.736.212-1.021.13l-.314-.089.281-.166c1.397-.827 2.903-1.842 3.34-2.306l-.72.167.117-.229c-1.01.975-2.968 2.72-4.063 2.72h-.045l-.01-.28c-.002 0 .104-.033.164-.28a2.337 2.337 0 01-.886.364l-.429.067.31-.305a26.833 26.833 0 001.475-1.578c-.538.419-1.245.877-1.813.923l-.441.036.341-.283c.148-.123.35-.32.494-.509-.76.403-2.48 1.25-3.734 1.387l-.781.085.704-.35c.414-.206 1.405-.746 1.865-1.176-.17.01-.374-.003-.562-.075l-.29-.11.274-.145c.01-.005.636-.337 1.194-.735-.636.19-1.57.384-2.383.225l-.614-.121.607-.153c.384-.096.79-.221 1.13-.348-.86.162-2.163.25-3.468-.27l-.525-.208.56-.06c.075-.009 6.637-.735 9.175-1.87-.54.101-1.227.18-1.757.074l-.964-.194.98-.084c.075-.006.294-.044.402-.136-.5.03-1.741.044-2.175-.51l-.328-.418.491.202c.004.002.279.112.68.13-.571-.217-1.382-.581-1.753-1.02l-.299-.351.443.126c.065.019 6.564 1.812 12.42-1.435l.134.245c-4.93 2.735-10.305 1.956-12.049 1.595.708.456 1.792.78 1.806.783l.509.15-.517.122a2.603 2.603 0 01-.46.064c.478.072 1.012.05 1.278.021l.134-.014.02.134a.411.411 0 01-.121.36c.886-.013 1.91-.316 1.924-.32l.592-.177-.46.415c-1.357 1.23-7.428 2.064-9.437 2.311 1.877.483 3.64-.187 3.659-.195l.282-.11-.1.287c-.1.286-.765.558-1.35.748 1.082-.055 2.158-.513 2.171-.52l.643-.277-.488.504c-.396.41-1.087.84-1.505 1.082.215 0 .394-.047.396-.048l.305-.083-.144.282c-.174.342-.8.767-1.344 1.087 1.443-.43 3.056-1.349 3.076-1.36l.233-.134-.025.27c-.02.213-.196.46-.374.66.896-.378 1.946-1.401 1.958-1.414l.342-.334-.108.466c-.097.417-1.115 1.512-1.716 2.13.282-.144.477-.314.48-.316l.243-.216-.011.326a1.493 1.493 0 01-.103.533c1.474-.402 4.143-3.192 4.172-3.222l.671-.705-.698 1.354.57-.132.026.146c.08.456-1.766 1.67-3.145 2.505.437-.096.945-.351 1.162-.478l.794-.462-.62.678c-.579.632-1.986 1.603-2.702 2.08 1.27-.18 2.012-1.199 2.02-1.21l.213-.3.04.367c.024.23-.018.446-.07.612.492-.267 1.108-.889 1.341-1.15l.151-.169.083.21c.054.137.06.265.045.376.495-.387 1.11-1.27 1.345-1.645l.223-.355.035.418c.068.816-.502 1.657-.909 2.146.345-.23.659-.62.785-.808l.118-.174.114.177c.248.382.333.714.353.958.468-.63 1-1.855 1.006-1.87l.145-.335.116.346c.092.277.083.527.053.704.351-.208.708-.867.875-1.307l.11-.288.144.272c.13.246.145.442.117.589.337-.22.961-.778 1.48-1.312l.335-.344-.098.471c-.313 1.493-2.643 2.888-3.436 3.324.527.097 1.365-.34 1.688-.55l.469-.304-.271.49C15.24 57.05 9.668 57.94 7.84 58.162c1.174.412 2.05.42 2.06.42h.672l-.618.268c-3.389 1.47-7.594 1.346-9.1 1.244.815.3 2.422.39 3.106.398l.182.002-.05.177c-.083.297-.706.603-1.196.803 1.708.174 3.57-.564 3.59-.572l.168-.067.023.18c.068.533-.846 1.17-1.599 1.6 1.773-.462 4.718-1.592 4.755-1.606l.495-.19-.338.41c-.525.638-3.409 1.983-4.44 2.45.247.017.554-.011.758-.046l.215-.036-.057.211a2.103 2.103 0 01-.139.385c1.413-.273 4.183-1.864 4.213-1.882l.598-.346-.417.552c-.296.391-.71.746-1.023.985.561-.142 1.114-.494 1.121-.498l.306-.196-.096.35a1.938 1.938 0 01-.341.68l.39-.134c.686-.231 2.9-1.798 2.922-1.814l.369-.262-.158.425c-.45 1.216-2.346 2.036-4.328 2.741-1.462.52-3.634 1.204-4.696 1.535.623.067 1.534.146 2.006.093l1.694-.19.381-.043-.485.511.568-.23.057.03c.295.154.583.182.853.082.677-.25 1.067-1.198 1.071-1.207l.09-.225.15.191c.165.213.23.973.254 1.465.226-.342.422-.753.424-.759l.13-.27.31.683c.263-.347.778-1.068 1.062-1.469l.124-.174.11.183c.14.233.067.683-.01.994.747-.45 1.448-1.588 1.455-1.6l.227-.372.031.434c.059.792-1.131 2.123-1.816 2.82.705-.278 1.65-.729 1.662-.735l.254-.121-.058.276c-.104.502-.303.97-.457 1.284.536-.365.877-1.03.882-1.038l.12-.237.127.234c.109.2.197.393.26.545.364-.613 1.23-1.433 1.345-1.54l.047-.046.065.008c.108.013.195.119.264.59.045.306-.143 1.139-.3 1.75.229-.238.472-.456.55-.525l.187-.165.043.246c.057.33.167.548.317.63.132.072.26.02.265.017l.106-.044.066.094c.256.382.517.657.706.832-.02-.428.051-.98.062-1.063l.063-.458.201.415c.174.359.638.521.951.592-.835-1.319-.498-2.015-.483-2.045l.091-.178.136.146c.166.179.697.546 1.02.76.054-.19.135-.451.167-.554l.042-.136.135.045c.746.249 1.116.626 1.295.977.095-.43.208-.862.23-.945l.112-.427.153.414a4.153 4.153 0 001.74 2.102 5.928 5.928 0 01-.16-1.104l-.028-.605.29.53c.187.344.526.57.797.707-.316-.595-.59-1.528-.628-1.66l-.308-1.07.562.96c.238.407.957.69 1.404.833a5.778 5.778 0 01-.363-.97l-.204-.741.452.621c.454.625 1.636 1.285 2.26 1.605a4.712 4.712 0 01-.25-.852l-.099-.531.344.416c.246.298.522.532.752.699-.097-.242-.144-.46-.147-.476l-.08-.382.303.243c.46.369 1.431.664 2.104.835-.627-.546-1.086-1.285-1.11-1.326l-.26-.422.44.224.474.238a6.523 6.523 0 01-.492-.812l.25-.125c.003.008.405.81.868 1.242l.202.188-.27.052c-.045.01-.067.013-.661-.283.302.396.788.95 1.308 1.2l.98.469-1.066-.206c-.078-.014-1.69-.33-2.613-.84.07.193.172.404.299.512l.82.704-.972-.47c-.024-.013-.485-.24-.969-.689.072.227.171.476.296.626l.393.473-.558-.255c-.071-.033-1.471-.678-2.329-1.424.103.263.222.506.326.59l.468.382-.587-.136c-.049-.011-.933-.22-1.527-.637.18.526.441 1.188.658 1.393l.405.383-.537-.146c-.032-.008-.63-.175-1.076-.61.04.317.111.684.223.872l.214.357-.385-.155c-.058-.023-1.332-.55-2.05-2.044-.098.396-.2.846-.24 1.115a1.11 1.11 0 01-.022.247l-.213.842-.061-.867a1.371 1.371 0 01.02-.26c-.01-.315-.171-.902-1.13-1.267-.083.267-.16.529-.167.574l-.034.211-.18-.113c-.033-.021-.682-.44-1.051-.743-.028.291.029.903.687 1.828l.174.244-.298-.023c-.039-.003-.809-.066-1.262-.495-.033.379-.044.817.026.966l.22.461zM17.902 44.077c-.222 0-.462-.026-.716-.09l-.408-.106.39-.16c.017-.008 1.496-.625 2.503-1.577-.325.14-.715.274-1.038.283l-.471.013.388-.269c.004-.003.36-.254.509-.692-.459.392-1.34 1.088-1.92 1.183l-.403.066.278-.3c.023-.025.065-.064.12-.116.155-.145.439-.41.651-.704-.513.451-1.244 1.057-1.544 1.122l-.611.134.497-.383c.079-.06.224-.19.34-.34-.64.449-1.907 1.176-2.856.71l-.332-.162.355-.098c.017-.005 1.363-.385 2.079-1.002-.525.192-1.362.435-2.152.41l-.692-.024.647-.247c.356-.136.697-.297.937-.435-.702.137-1.896.29-2.287-.158l-.172-.196.257-.036c.035-.005 2.893-.402 4.38-.817-.281-.019-.549-.069-.663-.18l-.16-.157.21-.076c.031-.01 3.087-1.114 3.98-2.212l.216.177c-.753.928-2.846 1.814-3.717 2.154.254.028.608.03.924.008l.602-.04-.523.302c-.733.424-3.634.887-4.763 1.054.557.108 1.534-.047 2.157-.21l.192-.05-.018.2c-.019.2-.334.418-.698.605a7.53 7.53 0 001.75-.54l.38-.18-.197.372c-.365.689-1.5 1.175-2.143 1.402 1.11.099 2.517-1.083 2.533-1.096l.217-.184.013.285a.705.705 0 01-.055.29c.406-.32.891-.746 1.23-1.06l.285-.266-.053.388c-.051.373-.328.748-.6 1.043.677-.402 1.428-1.098 1.438-1.107l.24-.223-.006.328a1.578 1.578 0 01-.356.96c.55-.155 1.14-.502 1.148-.507l.587-.348-.403.552c-.709.97-2.011 1.69-2.683 2.017.865.068 1.493-.325 1.5-.329l.15.236c-.03.02-.609.383-1.442.383z" fill="#231F20"/><path d="M18.63 38.024l.234-.287c-.571.248-.998.24-1.022.24l-.815-.023.776-.25c.421-.137.533-.564.538-.582l.271.068a1.218 1.218 0 01-.209.415c.269-.078.611-.22.97-.483l.884-.648-.94 1.15c.215-.053.45-.132.564-.233l.184.21c-.291.26-1.003.364-1.083.375l-.353.048z" fill="#231F20"/><path d="M16.074 38.029l.547-.29c.2-.105.485-.293.676-.486-.372.126-.918.257-1.26.1l-.302-.136.308-.121c.02-.008 1.786-.713 2.54-1.658a1.115 1.115 0 01-.222.027l-.222.006c-.322.329-.75.71-1.123.855l-.345.134.17-.33c.006-.01.101-.204.032-.4-.22.43-.76 1.339-1.445 1.463l-.319.058.178-.273c.004-.006.31-.48.424-.938-.468.56-1.436 1.587-2.352 1.738l-.573.094.468-.346c.057-.042.168-.138.264-.257-.347.14-.897.306-1.495.273l-.65-.037.608-.234c.208-.08.69-.303.97-.553-.301.021-.725.028-.944-.082l-.278-.14.289-.116c.165-.066.473-.199.777-.352-.833.195-2.065.358-3.046-.035l-.512-.205.548-.064c.044-.005 3.981-.476 5.572-1.435-.516.086-1.262.163-1.766.012l-.373-.111c-.42.098-.844.157-1.071.072l-.308-.114.296-.144c.227-.11.462-.272.58-.407-.406.083-1.23.195-1.941-.064l-.595-.215.63-.056c.471-.041.99-.143 1.273-.259-.575-.099-1.761-.368-2.308-.967l-.297-.325.429.093c.088.019 8.51 1.8 10.829-1.325-.435.202-1.091.465-1.51.45l-.533-.02.476-.245c.006-.003.588-.308.662-.794l-2.335.681-.078-.27 2.677-.78.018.167c.04.38-.145.68-.349.892.588-.174 1.273-.544 1.282-.549l.394-.213-.203.4c-1.7 3.347-8.684 2.375-10.794 1.996.792.436 1.98.577 1.995.578l.183.021-.07.172c-.088.218-.466.358-.855.446.632.015 1.187-.142 1.195-.144l.144-.042.031.148c.051.24-.166.469-.392.635.482-.063 1.192-.278 1.647-.445l.238-.088-.053.249c-.036.168-.166.292-.313.381.75.023 1.666-.202 1.678-.205l.447-.112-.31.342c-.905.995-4.064 1.565-5.49 1.777 1.425.212 3.098-.41 3.117-.417l.56-.211-.409.438c-.238.255-.813.546-1.221.733.232.002.497-.02.679-.044l.25-.035-.104.231c-.105.235-.375.445-.644.606a3.69 3.69 0 001.014-.361l.267-.154-.06.303a.948.948 0 01-.141.327c.98-.498 1.934-1.793 1.945-1.808l.2-.272.05.333c.06.383-.129.861-.291 1.186.567-.393.989-1.353.994-1.364l.078-.18.144.133c.19.176.24.391.23.577.581-.371 1.232-1.175 1.24-1.184l.232-.287.016.369a.82.82 0 01-.054.313c.146-.047.245-.115.247-.116l.423-.295-.217.47c-.403.87-1.664 1.577-2.39 1.925.346-.055.73-.2.905-.279l.246-.11-.052.266c-.045.225-.245.443-.458.616.237-.074.369-.158.371-.16l.153.234c-.017.012-.437.285-1.145.314l-.618.025z" fill="#231F20"/><path d="M20.79 22.41c-.1.032-.214.067-.339.103l.188-.016c.003 0 .07-.011.151-.087zm7.226 17.014c-.172 0-1.291-.016-2.182-.406l.112-.257c.485.213 1.059.307 1.482.35a3.2 3.2 0 01-.467-.509l-.316-.436.488.227c.858.399 1.658.402 2.191.33-2.29-.424-3.126-1.028-3.417-1.479-.195-.303-.14-.526-.134-.55l.07-.256.171.203c.262.312 1.024.474 1.656.55a3.059 3.059 0 01-.598-.457l-.345-.361.482.129c.555.15 1.03.192 1.4.187-1.911-.41-2.345-1.306-2.366-1.35l-.143-.312.32.123c.544.208 1.23.406 1.631.515-.124-.295-.156-.616-.158-.635l-.052-.535.306.442c.193.28.622.483.988.613a4.254 4.254 0 01-.618-.982l-.155-.356.346.175c.712.361 1.81.696 2.437.873-.047-.081-.055-.142-.048-.185l.026-.155.15.044c.715.21 1.23.263 1.573.26-1.02-.352-2.567-1.014-2.646-1.048l.096-.263c.707.22 1.782.34 2.43.395a1.595 1.595 0 01-.147-.182l-.175-.258.308.04c.273.035.662-.15.968-.338a1.539 1.539 0 01-.524-.122l-.58-.282.645.016c.404.013.79-.105 1.107-.245-4.17.786-7.584-1.483-7.62-1.507l.148-.237c.78.459 2.41.659 3.134.728a1.569 1.569 0 01-.203-.538l-.034-.217.21.06c.457.133.82.169 1.093.162-.635-.135-1.242-.338-1.278-.35l-1.072-.36 1.128.088a4.49 4.49 0 002.14-.375c-4.07.802-6.385-1.224-6.41-1.247l-.65-.585.8.352c.186.083.625.082 1.032.057-.928-.38-1.824-1.091-1.871-1.129l.163-.227c.188.123.579.21.857.256-.022-.22.066-.466.091-.531l.057-.147.139.075c.286.154.632.188.909.186a.52.52 0 01-.16-.198.32.32 0 01-.006-.263l.053-.109.114.037c.527.167 1.154.053 1.586-.07-2.376-.464-4.058-2.118-4.133-2.193l-.507-.506.659.277c.485.203 1.26.345 1.804.426a7.592 7.592 0 01-.89-.82l-.467-.513.629.292a8.264 8.264 0 002.02.615 5.595 5.595 0 01-1.435-.93l-.657-.626.814.398c.91.445 2.59.487 3.45.477-.16-.117-.203-.212-.215-.25l-.061-.2.208.02c.125.012.262-.01.394-.049h-.02c-4.477 0-6.235-1.867-6.311-1.95l-.879-.964 1.063.755c.5.355 1.04.522 1.413.6a.507.507 0 01-.071-.307l.024-.162.156.05c.148.046.33.057.498.052-1.019-.532-1.884-1.48-1.926-1.526l-.32-.354.46.125c.14.038.407.085.627.122-.304-.445-.545-1.034-.558-1.065l.246-.13c.07.107.684.513 1.316.898a.593.593 0 01.16-.19l.042-.032.05.003c.133.006.242.004.332-.002a3.426 3.426 0 01-.578-.404l-.437-.392.567.152c.271.073.563.06.814.02-2.458-.433-3.706-1.726-3.917-1.962a.355.355 0 01-.036-.043l.22-.172.036.04c.184.163.856.295 1.467.366-.092-.106-.138-.192-.141-.2l-.138-.265.291.064c.345.075.89.03 1.295-.024-1.962-.784-2.706-2.053-2.74-2.111l-.407-.713.62.537c.061.053.241.131.447.209l-.035-.045a.19.19 0 01-.015-.02l.228-.162c-.008-.01-.015-.014-.015-.014.055.033.28.065.54.086-.71-.77-1.547-2.534-1.588-2.62l-.095-.2h.643c-.582-.871-.935-2.407-1.127-3.522-.085 1.044-.238 2.403-.479 2.983-.307.738-.891 2.052-1.15 2.632a2.27 2.27 0 00.647-.495l.175-.202.066.26c.027.11.034.204.027.283.196-.084.239-.133.241-.136 0 0-.009.011-.015.033l.271.067c0 .005-.002.012-.005.02-.4 1.446-1.844 2.509-2.753 3.052.458-.126.844-.29.85-.293l.265-.115-.075.28c-.04.148-.203.336-.371.498.435-.108.944-.269.951-.27l.193-.062-.011.202a.535.535 0 01-.087.24 2.36 2.36 0 00.296-.192l.287-.22-.064.356c-.083.456-.921 1.02-1.569 1.393.17-.045.349-.096.516-.147l.647-.198-.517.439c-1.5 1.275-3.545 1.718-4.514 1.862.63.143 1.234-.08 1.242-.084l.242-.092-.056.254c-.032.143-.143.272-.276.381.528-.172 1.105-.578 1.344-.774l.368-.302-.147.453c-.09.28-.207.518-.31.696.83-.334 1.273-.887 1.278-.894l.223-.283.026.36c.02.279-.025.526-.086.723a6.784 6.784 0 001.037-1.1l.273-.375-.021.464c-.019.41-.235.821-.402 1.08.173-.053.37-.141.5-.21l.54-.285-.364.493c-.559.76-1.74 1.52-2.41 1.914.742-.1 1.737-.456 1.75-.46l.286-.104-.11.286a1.101 1.101 0 01-.22.369c.175.013.385.01.539-.002l.357-.026-.245.262c-1.438 1.538-5.862 2.167-7.882 2.379 1.538.182 2.707-.147 2.72-.151l.75-.217-.628.464a3.31 3.31 0 01-.71.37c1.029-.17 2.18-.608 2.196-.613l.388-.15-.22.354c-.06.098-.211.19-.387.27.41-.062.863-.185 1.085-.255l.366-.116-.206.325c-.342.537-2.024.876-3.396 1.067l-.242.253c-.189.197-.536.377-.831.506 1.1.016 2.784-.527 2.804-.534l.305-.1-.136.293c-.11.238-.536.492-.926.682.147-.027.307-.063.464-.105l.413-.11-.268.334a2.483 2.483 0 01-.357.33c.464-.14.724-.407.96-.65.095-.098.185-.19.284-.27.425-.343 1.027-.593 1.052-.604l.174-.071.018.188c.02.213-.178.476-.364.671a2.87 2.87 0 001.034-.27L20.28 27l.05.159c.032.097.02.2-.032.302-.184.352-.918.686-1.467.893.847-.012 1.693-.339 1.703-.343l.24-.094-.052.253c-.228 1.098-2.938 1.268-4.271 1.284.762.2 1.648.085 1.66.084l.212-.029-.06.206c-.062.218-.508.393-.769.48l-.087-.267c.07-.023.138-.049.204-.076-.538.011-1.364-.045-1.923-.426l-.396-.27.479.014c1.105.033 3.827-.06 4.523-.782-.482.146-1.385.358-2.15.18l-.51-.12.501-.151c.569-.172 1.48-.53 1.813-.84a3.064 3.064 0 01-1.21.17l-.342-.024.261-.222c.144-.122.29-.274.393-.408a3.906 3.906 0 00-.656.41c-.085.069-.17.155-.26.247-.335.346-.753.775-1.704.826l-.503.026.418-.283c.08-.054.232-.16.382-.277-.335.061-.674.088-.809-.013l-.202-.153.236-.09c.292-.112.663-.28.957-.447-.794.211-2.11.494-2.831.275l-.424-.13.42-.138c.007-.002.45-.15.825-.35-.353.014-.796-.007-1.056-.16l-.381-.227.442-.034c1.296-.1 3.115-.343 4.178-.686-.386.067-.788.097-1.02-.004l-.12-.052c-.688.187-1.51.35-2.075.264l-.705-.106.693-.169c.006-.001.34-.084.724-.22a8.156 8.156 0 01-2.847-.208l-.84-.218.866-.058c.066-.004 6.336-.446 8.443-2.135-.22-.003-.476-.026-.616-.104l-.34-.188c-.518.139-1.133.264-1.506.2l-.408-.068.367-.193c.017-.01 1.505-.799 2.405-1.663a.933.933 0 01-.377.044l-.241-.04.156-.188c.003-.004.209-.256.364-.585-.288.32-.694.716-1.117.952l-.546.304.365-.509a1.71 1.71 0 00.25-.677 3.767 3.767 0 01-1.54.846l-.415.113.27-.337c.003-.003.157-.197.311-.508-.454.305-1.2.719-1.764.602l-.438-.09.411-.176c.134-.057.3-.147.435-.244-.395.068-1 .088-1.542-.245l-.373-.229.436-.03c.026-.003 2.422-.187 4.3-1.414-.698.173-.747.084-.789.01l-.072-.13.133-.065c.553-.269 1.348-.726 1.803-1.123a.642.642 0 01-.331.037l-.277-.058.215-.185c.056-.048.114-.107.165-.165-.361.107-.923.262-1.186.28l-.456.029.363-.28c.124-.098.279-.23.409-.358-.364.125-.884.273-1.321.282l-.68.013.62-.281c.026-.012 2.483-1.143 3.235-2.925a4.005 4.005 0 01-.302.112l-.753.25.623-.493s.016-.016.03-.05c-.2.17-.505.381-.845.442l-.26.046.109-.242c.008-.02.877-1.954 1.275-2.913.39-.938.547-4.21.548-4.242l.278-.008c.004.037.38 3.724 1.424 4.945l.198.232h-.783c.378.766 1.198 2.28 1.709 2.583l.468.278-.544-.017a7.084 7.084 0 01-.643-.045.783.783 0 00.086.081l.03.01.465.142-.469.127c-.032.009-.072.02-.144-.022a10.149 10.149 0 01-.501-.172c.431.487 1.302 1.262 2.763 1.727l.518.165-.534.106c-.043.009-.918.18-1.587.15a.938.938 0 00.211.143l.641.315-.712-.05a9.65 9.65 0 01-1.35-.185c.682.522 1.95 1.26 3.84 1.447l.544.054-.503.215c-.027.011-.524.22-1.092.23.135.082.292.164.453.215l.264.085-.225.162c-.037.027-.244.153-.803.133-.03.032-.052.066-.052.08.002.001.008.009.029.021l-.143.241a23.962 23.962 0 01-1.185-.746c.135.26.31.556.484.734l.295.298-.414-.06c-.018-.004-.284-.043-.552-.09.42.4 1.196 1.064 1.975 1.338l.476.167-.494.102a3.176 3.176 0 01-.9.048.62.62 0 00.256.18l.692.295-.751-.026c-.021 0-.274-.011-.637-.097 1.06.541 2.858 1.127 5.58 1.013l.516-.021-.436.28c-.02.013-.412.261-.832.343.081.049.195.106.352.165l.618.233-.659.038c-.093.006-1.91.107-3.292-.209.486.307 1.202.66 2.048.771l-.016.28c-.065-.001-1.45.01-2.947-.517.257.23.574.483.857.612l.774.353-.846-.086a14.898 14.898 0 01-1.846-.316c.743.585 2.225 1.565 4.012 1.756l.51.054-.468.213c-.047.021-1.08.486-2.019.332.071.048.183.103.356.155l.523.157-.534.114c-.034.008-.794.165-1.434-.095-.038.153-.044.308.007.353l.335.294-.442-.05a5.428 5.428 0 01-.325-.048c.494.316 1.154.677 1.717.77l.925.153-.93.124c-.1.014-.742.096-1.277.083.929.575 3.234 1.62 6.65.624l.666-.194-.54.438c-.044.035-.916.73-2.253.895.354.09.756.174 1.083.197l.41.028-.342.228c-.024.016-.567.366-1.762.08.052.143.143.318.293.415l.451.291-.535-.033a16.679 16.679 0 01-1.908-.245c1.526.622 4.011 1.262 6.732.464l.657-.193-.53.436c-.023.02-.379.308-.898.526l.303-.056-.434.348c-.032.027-.688.548-1.27.66.091.086.202.165.308.178l-.025.28c-.049-.003-.792-.043-1.611-.155.684.274 1.453.565 1.85.66l.38.09-.352.172c-.025.012-.585.272-1.947-.057.028.024.058.05.093.077l.505.403-.626-.157c-.069-.017-1.529-.387-2.602-.85.178.308.474.735.832.93l.82.447-.915-.187c-.043-.009-.879-.183-1.432-.573a.991.991 0 00.19.363l.327.35-.463-.117c-.01-.003-.773-.196-1.505-.44.385.338 1.19.812 2.77.97l.6.06-.565.211c-.034.013-.727.264-1.878.077.19.122.435.252.727.353l.845.292-.894-.02c-.072-.001-1.516-.038-2.284-.452a.776.776 0 00.024.037c.246.36 1.08 1.024 3.897 1.448l.507.076-.475.193c-.052.02-1.144.45-2.517.03.155.14.33.262.487.285l-.019.279h-.02zM32.49 62.852l.686.503c.114.082.229.164.343.242.112.075.24.153.338.19l-.086.225c-.038-.02-.04-.026-.054-.038a.344.344 0 01-.063-.089.564.564 0 01-.04-.108 1.084 1.084 0 01-.03-.202c-.007-.131.005-.256.02-.38l.02-.17.163.062c.15.056.307.104.462.154.155.049.311.095.468.134.314.082.632.148.947.16l-.029.195c-.1-.04-.188-.088-.277-.138a2.4 2.4 0 01-.257-.167 1.688 1.688 0 01-.422-.434c.148.136.313.242.486.332a3.307 3.307 0 00.535.218l.506.159-.536.035a3.706 3.706 0 01-1.015-.098c-.33-.077-.65-.171-.966-.295l.184-.11a2.565 2.565 0 00-.027.334c0 .053.003.106.012.153a.35.35 0 00.028.081c-.003 0 .006.002-.019-.01l-.086.226c-.165-.07-.267-.164-.384-.253a7.673 7.673 0 01-.907-.911zM17.612 61.14a3.567 3.567 0 01-.766.885l-.023-.042c.372-.14.74-.292 1.1-.456.181-.083.36-.17.533-.263.17-.096.345-.198.477-.326l.244-.238-.143.308a6.467 6.467 0 01-1.054 1.576c-.21.237-.444.455-.693.654a4.978 4.978 0 01-.801.52l-.058-.192c.336-.053.676-.13 1.001-.233.323-.105.645-.237.898-.435l.314-.245-.125.375a8.027 8.027 0 01-.356.892c-.07.145-.143.289-.228.428a2.267 2.267 0 01-.3.4l-.143-.202a12.54 12.54 0 001.523-.907 6.38 6.38 0 00.69-.547c.212-.198.414-.41.549-.651l.405-.723-.152.817-.112.602-.05.3a2.785 2.785 0 00-.034.284l-.256-.074.935-1.483.242-.384.003.456c.002.267.021.545.065.81.023.133.05.265.09.39.04.124.09.245.157.342l-.23.061.117-1.048.054-.485.184.452a9.259 9.259 0 00.826 1.553c.164.242.338.479.54.685.2.206.423.393.676.513l-.128.145a4.568 4.568 0 01-.333-.724 2.203 2.203 0 01-.102-.393.803.803 0 01.03-.432l.082-.2.078.202c.077.199.166.397.265.587.051.094.105.186.164.272a.691.691 0 00.2.207l-.105.066.008-.564.002-.148.11.1c.186.17.39.327.607.462.216.132.448.246.695.286l-.047.036.044-.326.007-.05.045.022c.352.17.737.299 1.131.314l-.01.027-.52-.492.54.469.03.026h-.04a2.208 2.208 0 01-.595-.078 3.496 3.496 0 01-.568-.201l.052-.029-.033.328-.005.042-.042-.005c-.267-.035-.512-.147-.74-.276a4.341 4.341 0 01-.641-.457l.11-.05.006.565.001.123-.106-.058c-.121-.065-.191-.159-.26-.25a3.049 3.049 0 01-.18-.285 5.98 5.98 0 01-.285-.6l.159.002a.64.64 0 00-.011.336c.021.12.056.24.1.358.089.235.203.468.33.683l.164.277-.291-.131a2.614 2.614 0 01-.75-.544 4.901 4.901 0 01-.579-.706 9.375 9.375 0 01-.86-1.595l.238-.032-.11 1.049-.036.335-.194-.274a1.511 1.511 0 01-.196-.413 2.987 2.987 0 01-.101-.425 5.476 5.476 0 01-.074-.856l.245.072-.925 1.489-.274.44.018-.514c.005-.126.021-.221.036-.327.015-.103.034-.204.052-.306l.117-.608.254.095c-.163.283-.382.507-.608.715-.227.208-.47.393-.72.565a12.974 12.974 0 01-1.564.918l-.67.33.527-.533c.1-.1.186-.224.266-.352.08-.128.15-.265.218-.404.134-.277.25-.57.35-.86l.188.13c-.3.233-.642.36-.982.463a7.014 7.014 0 01-1.041.222l-.578.08.52-.273c.27-.142.537-.293.778-.485.243-.187.474-.394.683-.621a6.684 6.684 0 001.063-1.514l.101.07c-.16.145-.338.238-.516.331-.18.09-.363.172-.546.25-.37.153-.742.293-1.12.422l-.136.046.113-.088c.305-.238.58-.521.796-.848z" fill="#231F20"/><path d="M25.462 64.604a3.47 3.47 0 01-.516-.344 2.918 2.918 0 01-.438-.446 2.426 2.426 0 01-.494-1.155l-.018-.11.111.032c.285.081.566.169.845.266.28.097.556.2.828.337l-.137.144-.534-.86-.203-.326.354.156c.472.209.959.398 1.45.56.49.16.992.3 1.494.354l-.052.267a.848.848 0 01-.367-.236.82.82 0 01-.203-.385l-.048-.219.217.053c.397.097.8.184 1.204.256.201.036.404.067.605.091.201.023.405.041.596.03l-.049.236-.838-.45-.423-.226h.48c.268.001.54-.001.809-.017.134-.01.268-.02.398-.039.127-.02.267-.047.351-.097l.029.168a15.232 15.232 0 01-1.738-.671 8.514 8.514 0 01-.823-.438c-.263-.162-.523-.35-.702-.605.198.24.466.403.734.55.27.145.551.272.837.387.572.224 1.155.43 1.745.596l.205.057-.177.11c-.15.094-.288.114-.428.144a5.126 5.126 0 01-.415.055 8.91 8.91 0 01-.828.04l.057-.226.843.44.395.207-.444.03a3.778 3.778 0 01-.642-.025c-.209-.022-.416-.052-.622-.086a19.748 19.748 0 01-1.225-.246l.168-.166a.577.577 0 00.248.355c.04.027.093.052.127.065l1.19.415-1.241-.148c-.539-.064-1.049-.214-1.548-.383a16.35 16.35 0 01-1.469-.587l.152-.17.507.877.186.32-.322-.175a6.721 6.721 0 00-.791-.354 15.976 15.976 0 00-.826-.29l.093-.08a2.327 2.327 0 00.413 1.123c.234.334.544.613.89.839zM11.283 58.93c-.218.102-.44.194-.662.287a15.792 15.792 0 01-1.355.5 4.77 4.77 0 01-.716.18l-.005-.252c.418.013.846.012 1.266-.019a7.25 7.25 0 001.245-.178l.4-.097-.266.304a1.995 1.995 0 01-.45.377 1.308 1.308 0 01-.562.193l-.032-.203c.307-.06.618-.13.923-.212.306-.08.607-.18.898-.311-.264.182-.562.31-.86.43-.148.06-.3.11-.454.16-.153.05-.306.095-.463.134l-.032-.203a1.12 1.12 0 00.455-.19 1.81 1.81 0 00.377-.34l.133.208c-.425.12-.86.176-1.294.207a9.539 9.539 0 01-1.302-.007l-.006-.253c.222-.025.455-.084.685-.14.231-.058.46-.123.692-.185l1.385-.39zM11.606 60.167a5.74 5.74 0 01-.503.55c-.18.172-.373.334-.59.465l-.028-.092c.167-.027.339-.085.5-.15.164-.066.323-.143.477-.229.154-.087.303-.182.446-.286a5.9 5.9 0 00.414-.33l.213-.185-.059.279-.161.765-.17-.113c.244-.19.487-.384.722-.584.116-.101.233-.203.34-.31.104-.102.22-.227.262-.316l.36-.758-.109.823-.077.592-.22-.123.702-.59.305-.257-.082.387a2.53 2.53 0 01-.52 1.073 2.117 2.117 0 01-.439.409 2.32 2.32 0 01-.53.279l-.061-.263a6.59 6.59 0 001.961-.595c.312-.145.605-.328.88-.532.28-.203.518-.452.742-.714l.24-.281-.096.352c-.118.429-.24.856-.365 1.283l-.08-.052c.406-.308.812-.617 1.222-.919-.383.337-.772.666-1.16.998l-.113.097.034-.15c.097-.433.198-.866.303-1.298l.144.07a4.58 4.58 0 01-.746.773c-.28.223-.578.427-.898.587-.32.162-.65.298-.99.408a6.095 6.095 0 01-1.049.243l-1.018.136.957-.399c.163-.067.325-.14.465-.248.144-.1.273-.223.383-.361a2.36 2.36 0 00.464-.945l.223.13-.705.587-.269.224.05-.347.085-.59.25.066a.906.906 0 01-.158.229c-.055.064-.113.12-.171.175a7.11 7.11 0 01-.36.315c-.243.202-.493.39-.75.573l-.242.172.07-.285.19-.76.154.095a5.944 5.944 0 01-.44.327c-.151.102-.309.195-.47.28-.164.082-.33.158-.504.215a2.533 2.533 0 01-.538.126l-.253.026.226-.118c.214-.112.413-.26.6-.419.187-.161.37-.328.54-.51z" fill="#231F20"/><path d="M22.321 59.467c-.149.268-.306.531-.475.788a5.778 5.778 0 01-.27.374c-.098.118-.195.24-.337.326l-.03-.059.764-.434.074-.042-.005.088-.041.632-.1-.04.72-.93.084-.108.042.133c.071.227.15.453.237.674.045.11.09.22.142.325.05.101.111.211.175.271l-.14.05.113-.645.023-.13.114.068c.135.08.258.166.38.261.122.096.238.2.341.322l-.177.068a7.77 7.77 0 00-.041-.474 3.056 3.056 0 00-.082-.456l-.085-.3.254.182c.363.259.741.502 1.124.729.193.11.388.217.587.308.196.087.412.169.587.167l-.069.22c-.305-.25-.594-.512-.87-.795a5.344 5.344 0 01-.392-.45c-.12-.162-.239-.332-.297-.563l-.084-.331.287.198c.345.24.707.466 1.077.665.184.1.373.19.564.268.19.077.39.141.57.146l-.113.222c-.155-.21-.303-.42-.443-.64a6.101 6.101 0 01-.201-.336 2.189 2.189 0 01-.172-.373l-.113-.338.31.177c.305.174.616.342.93.499.157.079.316.153.475.222.159.069.322.133.477.17l-.11.228a.735.735 0 01-.137-.162.64.64 0 01-.083-.199.512.512 0 01-.001-.225.625.625 0 01.082-.2l.059-.102.108.056c.366.189.742.367 1.121.527.19.078.382.155.575.215.188.059.4.115.553.098l-.035.223a2.455 2.455 0 01-.524-.413 1.31 1.31 0 01-.343-.598l-.046-.2.194.07c.32.114.647.218.976.302.165.043.33.08.496.107.165.027.334.047.49.032l-.028.18c-.416-.19-.83-.383-1.242-.582-.206-.1-.412-.2-.615-.306-.204-.108-.406-.207-.603-.352l-.422-.31.488.196c.33.133.676.242 1.026.309.176.034.354.057.53.056.177 0 .357-.02.516-.09l.009.062a6.815 6.815 0 01-.877-.22 3.159 3.159 0 01-.42-.17c-.13-.07-.27-.151-.337-.29.072.135.214.209.346.274.136.062.279.108.422.15.288.082.582.145.876.19l.106.016-.096.047a1.34 1.34 0 01-.543.114 2.834 2.834 0 01-.549-.04 5.696 5.696 0 01-1.06-.284l.067-.114c.176.12.386.222.587.323.204.101.41.197.617.293.414.19.831.375 1.25.556l.323.14-.35.038c-.19.021-.366.001-.54-.023a5.838 5.838 0 01-.516-.101c-.34-.081-.671-.179-1.003-.291l.148-.131a1.1 1.1 0 00.294.483 2.238 2.238 0 00.47.367l.31.179-.346.044a1.034 1.034 0 01-.356-.019c-.11-.02-.212-.05-.315-.08a7.493 7.493 0 01-.597-.22c-.39-.161-.769-.338-1.145-.53l.167-.045a.303.303 0 00-.045.232c.009.04.026.08.05.117a.492.492 0 00.083.1l.395.345-.505-.117a3.184 3.184 0 01-.525-.182 9.89 9.89 0 01-.49-.226 18.997 18.997 0 01-.947-.5l.197-.161c.035.103.093.215.153.322.06.108.126.215.195.32.137.212.282.422.43.624l.171.234-.283-.011c-.25-.01-.462-.088-.667-.17-.204-.084-.4-.18-.59-.285a11.635 11.635 0 01-1.101-.688l.203-.133c.035.148.136.312.247.459.113.148.238.291.37.43.264.274.549.535.842.778l.267.221-.336-.001c-.279-.002-.49-.101-.704-.192a7.31 7.31 0 01-.607-.324 13.549 13.549 0 01-1.133-.759l.17-.118c.043.169.063.33.08.494.016.163.026.324.033.488l.011.297-.188-.229a2.806 2.806 0 00-.66-.552l.137-.063-.125.643-.03.158-.11-.108c-.109-.108-.156-.22-.212-.331a4.974 4.974 0 01-.141-.339c-.085-.228-.16-.457-.229-.69l.126.024-.745.91-.118.144.018-.184.06-.631.068.045-.777.41-.031-.06c.123-.07.228-.187.327-.3.098-.116.189-.239.28-.362.177-.248.346-.504.505-.766zM16.747 55.723c-.16.174-.34.328-.537.462a1.982 1.982 0 01-.647.296l-.006-.052c.343-.024.684-.1 1.014-.2.33-.103.65-.237.954-.398l.356-.19-.291.282c-.45.434-.913.852-1.396 1.25-.241.2-.487.393-.746.574-.129.09-.261.177-.402.255-.142.075-.282.155-.479.17l-.014-.19c.393-.07.787-.16 1.173-.267a9.348 9.348 0 001.135-.388l.36-.151-.218.325c-.112.167-.23.325-.358.48-.128.153-.26.304-.435.434l-.1-.216c.246-.07.496-.164.734-.269a5.89 5.89 0 00.696-.362c.22-.138.429-.295.62-.467a3.05 3.05 0 00.49-.588l.41-.645-.173.743-.256 1.103-.22-.13.782-.724.187-.172.042.257c.017.113.057.248.1.37.044.125.096.247.153.368.116.24.25.474.4.697l-.25.088a7.035 7.035 0 01-.002-.838c.018-.28.048-.561.15-.845l.254.017c-.006-.02-.001-.002.003.001.003.007.01.015.015.024a1.28 1.28 0 00.146.154c.076.066.16.128.245.188.173.117.357.224.545.325l-.185.144-.493-2.1-.2-.845.426.757c.184.329.385.654.6.964.108.155.222.305.341.448.118.14.25.277.389.36l-.156.138c-.116-.322-.231-.64-.325-.975-.011-.043-.023-.084-.031-.133a.405.405 0 01-.008-.09c.01-.036.007-.077.091-.102.044-.005.041.002.053.004l.027.011a.3.3 0 01.04.028c.074.064.128.12.191.176.123.112.25.215.387.308.271.185.572.325.89.403.32.08.652.095.98.06l-.026.142c-.288-.16-.57-.327-.843-.51a7.164 7.164 0 01-.402-.287c-.129-.105-.259-.21-.36-.358l-.12-.18.188.11c.205.12.422.229.645.315.112.043.226.08.342.105.115.024.235.04.348.02l-.01.052a3.71 3.71 0 01-.59-.51 2.054 2.054 0 01-.24-.308 1.05 1.05 0 01-.15-.357c.029.127.09.243.163.349.072.107.158.203.25.295.181.181.386.342.598.483l.058.039-.068.013a.997.997 0 01-.372-.01 2.307 2.307 0 01-.355-.098 4.56 4.56 0 01-.669-.302l.067-.069c.086.121.216.224.343.32.13.095.266.184.403.27.276.17.558.333.845.485l.211.112-.238.03a2.998 2.998 0 01-1.036-.046 2.948 2.948 0 01-.956-.412 3.71 3.71 0 01-.413-.317c-.064-.056-.13-.12-.185-.165l-.012-.009a.044.044 0 00.013.005c.007 0-.002.004.037.002.033-.004.057-.035.061-.04a.072.072 0 00.014-.04c.003.005.002.017.007.037.006.034.018.075.029.114.095.317.216.636.336.95l.111.292-.267-.153a1.822 1.822 0 01-.461-.404 5.847 5.847 0 01-.36-.463 12.296 12.296 0 01-.62-.982l.227-.089.505 2.097.067.278-.252-.133a6.322 6.322 0 01-.572-.337 3.042 3.042 0 01-.271-.206 1.553 1.553 0 01-.189-.199c-.01-.014-.02-.028-.029-.044-.01-.02-.017-.027-.031-.072l.252.016c-.082.232-.113.5-.129.765a6.78 6.78 0 00.008.801l.033.504-.284-.415a5.347 5.347 0 01-.425-.733 4.254 4.254 0 01-.162-.396 2.476 2.476 0 01-.112-.429l.228.085-.787.719-.321.293.1-.423.264-1.101.238.098a3.302 3.302 0 01-.539.641c-.207.185-.429.35-.662.493a6.167 6.167 0 01-1.5.65l-.641.178.541-.394a2.37 2.37 0 00.391-.39c.123-.145.238-.302.348-.457l.14.174a9.543 9.543 0 01-1.17.377c-.395.101-.793.186-1.198.25l-.015-.19c.117-.005.263-.07.393-.14.133-.07.263-.152.39-.238.256-.172.503-.36.746-.552.484-.388.955-.795 1.416-1.211l.065.092a5.635 5.635 0 01-.983.377 4.676 4.676 0 01-1.036.173l-.006-.052c.227-.048.443-.145.643-.269.2-.124.386-.271.552-.438zM27.374 56.472a.911.911 0 01.005.496 1.097 1.097 0 01-.248.452l-.123-.15c.124-.101.244-.22.36-.336.118-.116.226-.241.332-.366.106-.124.197-.26.287-.394.09-.136.158-.28.224-.426l.252-.554v.598c0 .042.008.105.022.158a.876.876 0 00.057.16.864.864 0 00.202.278l-.152.089a1.54 1.54 0 01.04-.478c.032-.154.092-.3.171-.432a2.141 2.141 0 00-.056.667c.006.072.016.148.03.211l.058.24-.209-.15a1.054 1.054 0 01-.289-.316.993.993 0 01-.134-.423l.251.044a2.84 2.84 0 01-.548.905 3.854 3.854 0 01-.787.685l-.124-.15a1.075 1.075 0 00.379-.809zM29.324 56.5c.15.002.302.055.428.145a.91.91 0 01.17.16c.05.06.092.127.13.196l-.09.03a44.47 44.47 0 01-.213-.851l-.049-.203.178.118c.466.31.928.625 1.388.944l-.175.168c-.212-.32-.426-.638-.633-.96l-.266-.411.44.216c.309.15.624.295.937.437.157.07.314.139.472.2a3.9 3.9 0 00.237.087c.075.026.162.048.21.052l-.08.239c-.205-.168-.401-.34-.593-.522a4.817 4.817 0 01-.277-.286 1.523 1.523 0 01-.243-.346l-.129-.272.27.132c.213.104.432.204.65.298.11.047.221.09.332.13.112.039.224.079.336.1l-.039.106a3.267 3.267 0 01-.43-.37c-.13-.135-.252-.29-.3-.474a.77.77 0 00.148.233c.06.07.126.135.196.194.139.12.292.226.448.32l.226.133-.264-.028c-.253-.027-.482-.107-.713-.184a9.464 9.464 0 01-.679-.266l.14-.14c.05.091.134.189.22.278.088.089.18.177.274.263.19.17.389.335.59.49l.336.259-.415-.02a.738.738 0 01-.161-.023c-.049-.01-.092-.025-.135-.038a4.084 4.084 0 01-.253-.09 11.186 11.186 0 01-.486-.201c-.32-.14-.633-.292-.946-.448l.175-.196c.207.323.409.649.612.974l.343.55-.518-.383c-.45-.332-.898-.668-1.341-1.01l.129-.084c.051.287.098.576.144.865l.064.398-.153-.368a.954.954 0 00-.247-.354.779.779 0 00-.395-.188zM19.387 50.812c.162-.07.329-.146.513-.142.044.002.1.023.118.074.018.049.007.098-.005.141a1.073 1.073 0 01-.122.243c-.096.152-.211.29-.32.43-.109.14-.215.282-.32.426l-.618.87c-.212.283-.434.593-.79.751l-.065-.13c.458-.286.913-.587 1.328-.926l.197-.16-.054.25-.197.92-.164-.092.847-.834.228-.224-.043.32-.114.865-.212-.087 1.285-1.768.106-.146.099.15a1.848 1.848 0 01.202.422.843.843 0 01.042.248.508.508 0 01-.073.276l-.21-.148c.223-.302.441-.612.647-.927.104-.157.204-.316.298-.477.093-.16.185-.325.252-.489l.17-.415.09.443c.108.547.256 1.096.44 1.624.091.265.195.525.32.77.126.245.269.483.451.671l-.222.125c-.086-.38-.154-.758-.205-1.144a6.668 6.668 0 01-.05-.585c-.003-.198-.007-.397.067-.618l.098-.295.132.29a6.621 6.621 0 00.902 1.43c.183.214.38.415.592.596.217.177.452.326.703.441l-.132.145a2.776 2.776 0 01-.193-.532 1.444 1.444 0 01-.038-.58l.04-.245.133.215c.075.122.192.242.314.34.123.1.26.182.405.251.146.066.299.119.456.156.078.02.16.03.238.046l.243.026-.061.121a7.241 7.241 0 01-.542-.789 3.685 3.685 0 01-.396-.875l-.041-.15.114.105c.239.217.495.42.765.598.135.09.277.169.424.235.146.065.303.12.464.113l-.004.018-.366-.246.377.23.024.015-.029.003a1.07 1.07 0 01-.482-.095 2.927 2.927 0 01-.438-.224 6.233 6.233 0 01-.795-.58l.073-.046c.092.296.245.572.412.836.169.263.357.517.553.758l.111.136-.172-.015-.254-.023c-.084-.015-.169-.023-.252-.044a2.646 2.646 0 01-.49-.156 2.222 2.222 0 01-.447-.264 1.565 1.565 0 01-.366-.387l.173-.03c-.023.159.001.331.045.498.045.165.11.334.187.484l.131.26-.264-.114a3.504 3.504 0 01-.765-.458 4.914 4.914 0 01-.632-.62 6.915 6.915 0 01-.948-1.482l.23-.006c-.048.145-.053.337-.046.52.008.185.027.372.051.56.052.373.123.748.208 1.116l.108.461-.33-.337a3.029 3.029 0 01-.504-.735 6.338 6.338 0 01-.34-.8 9.293 9.293 0 01-.256-.826 12.097 12.097 0 01-.192-.843l.26.027a4.338 4.338 0 01-.274.522c-.098.166-.201.328-.308.487-.212.319-.433.629-.663.936l-.21-.148c.044-.068.044-.19.004-.31a1.241 1.241 0 00-.07-.183 1.623 1.623 0 00-.096-.172l.204.004-1.296 1.76-.284.383.071-.47.13-.864.186.096-.864.816-.239.226.075-.32.216-.916.142.09c-.435.34-.896.631-1.366.911l-.065-.13c.306-.129.537-.41.755-.685l.645-.85c.11-.14.221-.28.335-.416.114-.138.231-.27.331-.416.05-.073.096-.148.127-.229.012-.04.023-.083.01-.12-.01-.037-.05-.056-.093-.06-.173-.013-.346.055-.51.118zM27.338 52.099a3.049 3.049 0 001.297.823c.16.054.328.083.494.109l-.092.167a12.33 12.33 0 01-.655-.78 6.306 6.306 0 01-.3-.42 2.32 2.32 0 01-.134-.23c-.02-.043-.041-.082-.057-.133-.007-.027-.018-.045-.023-.078a1.027 1.027 0 01-.009-.1l-.01-.26.228.161a5.634 5.634 0 001.45.717c.257.089.523.144.79.18.267.04.537.036.806.015l-.01.192a6.678 6.678 0 01-.916-.348 3.587 3.587 0 01-.43-.238c-.132-.093-.271-.203-.326-.36.076.146.223.227.359.305a3.5 3.5 0 00.44.187c.303.102.611.194.92.264l.528.119-.538.073c-.283.038-.573.06-.859.03a4.357 4.357 0 01-.842-.163 5.613 5.613 0 01-.796-.314 4.945 4.945 0 01-.74-.44l.218-.098a.071.071 0 01.004.026c0 .008.01.029.013.043.008.03.026.065.042.1.034.068.074.139.117.208.084.14.178.276.275.412.195.27.4.537.609.797l.175.218-.267-.05a2.701 2.701 0 01-.998-.401 2.762 2.762 0 01-.763-.733z" fill="#231F20"/><path d="M25.68 50.1c.217.257.419.523.616.792l-.167.034c.025-.214.048-.429.078-.643l.026-.188.164.11c.336.222.668.452.994.689l-.21.16a23.845 23.845 0 01-.234-.69l-.12-.375.31.233c.102.076.224.152.343.217a3.39 3.39 0 001.197.381c-.285.04-.584.024-.869-.048a2.474 2.474 0 01-.42-.138 2.174 2.174 0 01-.4-.212l.192-.142c.091.224.177.452.26.679l.154.415-.362-.255c-.33-.232-.655-.47-.976-.716l.19-.079c-.041.212-.09.422-.137.633l-.053.239-.114-.205c-.161-.292-.319-.586-.461-.89zM12.951 49.216c.275-.093.543-.208.8-.34.255-.133.505-.29.69-.5l.25-.286-.174.339c-.214.419-.443.829-.7 1.223-.13.197-.266.39-.415.577-.156.18-.31.368-.553.492l-.072-.18c.432-.183.862-.384 1.278-.601.207-.11.415-.22.61-.344.19-.123.393-.264.5-.417l.328-.473-.1.557a2.02 2.02 0 01-.19.563c-.089.177-.21.343-.367.478l-.141-.216a6.867 6.867 0 001.107-.738c.17-.141.333-.29.47-.457.14-.164.262-.341.333-.532l.264.066a7.542 7.542 0 01-.332 1.264 3.634 3.634 0 01-.277.6c-.115.192-.25.383-.45.523l-.123-.217a4.134 4.134 0 00.76-.471c.232-.185.444-.4.568-.652l.106-.215.095.213c.058.133.11.264.155.402.022.07.044.14.058.215.01.077.037.148-.008.271l-.182-.071.408-1.324.05-.163.09.142.317.499-.126.03.173-1.28.012-.088.057.07c.022.027.073.044.121.035.05-.009.1-.027.146-.057.093-.058.179-.133.255-.217.156-.164.291-.35.42-.538-.117.196-.24.39-.388.568a1.27 1.27 0 01-.255.238.45.45 0 01-.167.074c-.063.011-.138.004-.193-.058l.068-.018-.112 1.287-.016.191-.11-.16-.332-.49.14-.021-.37 1.335-.182-.071a.428.428 0 00-.013-.142 1.767 1.767 0 00-.058-.19 4.141 4.141 0 00-.158-.375l.2-.001c-.14.31-.372.549-.62.749a4.324 4.324 0 01-.806.51l-.12-.216c.15-.106.27-.271.37-.445a3.34 3.34 0 00.252-.563c.14-.39.24-.805.307-1.214l.263.066a2.073 2.073 0 01-.378.623c-.154.183-.33.34-.51.487a7.235 7.235 0 01-1.163.758l-1.025.53.885-.746a1.28 1.28 0 00.307-.395 1.85 1.85 0 00.17-.485l.229.084c-.085.12-.18.21-.28.284-.098.078-.201.144-.304.21-.207.127-.418.24-.632.347-.431.21-.868.398-1.313.572l-.073-.18c.18-.082.345-.255.495-.424.148-.174.287-.36.42-.55.262-.383.514-.777.744-1.182l.077.053c-.212.219-.473.362-.737.485a5.4 5.4 0 01-.822.293zM8.372 49.44a3.511 3.511 0 01-.572.332 5.87 5.87 0 01-.604.244l-.04-.269a2.706 2.706 0 01.783.182c.083.035.165.075.24.126-.181 0-.353-.006-.526-.01l-.51-.02-.674-.027.633-.243c.203-.078.409-.146.62-.201.21-.054.425-.1.65-.114zM7.756 50.42c.274-.129.547-.257.813-.392.132-.068.262-.14.387-.214.122-.075.246-.164.318-.25l.06-.074.079.035c.08.036.113.073.156.12a.574.574 0 01.087.147.815.815 0 01.057.309l-.219-.106c.205-.167.406-.338.614-.5.206-.165.413-.328.624-.487l.164-.123.035.195c.03.167.056.335.081.503l-.141-.077a2.337 2.337 0 00.56-.311 1.642 1.642 0 00.443-.486 1.302 1.302 0 01-.142.31 1.605 1.605 0 01-.216.273 2.081 2.081 0 01-.568.41l-.109.051-.032-.129c-.041-.165-.082-.33-.119-.495l.2.072c-.2.173-.403.342-.607.51-.203.169-.412.33-.618.495l-.22.176.001-.281a.664.664 0 00-.03-.215.32.32 0 00-.042-.084c-.013-.021-.046-.046-.047-.048l.14-.037c-.129.14-.27.208-.408.28a4.1 4.1 0 01-.425.179 6.142 6.142 0 01-.876.245zM19.163 44.439a9.082 9.082 0 01-.345.601c-.12.198-.248.392-.396.576l-.099-.135c.528-.266 1.06-.519 1.595-.768l.528-.246-.37.455-.285.35-.142-.22c.113-.035.233-.082.346-.133.113-.05.225-.105.329-.17.209-.127.391-.292.486-.49l.238.101c-.127.29-.253.578-.384.865l-.166-.122c.239-.197.474-.412.685-.645.107-.115.21-.236.296-.367a1.65 1.65 0 00.214-.422 1.38 1.38 0 01-.152.459 3.107 3.107 0 01-.257.414 5.1 5.1 0 01-.65.724l-.322.298.156-.421c.11-.296.226-.59.341-.883l.239.1c-.12.285-.35.476-.58.623a2.773 2.773 0 01-.36.193 3.259 3.259 0 01-.385.14l-.43.126.288-.346.289-.346.157.209c-.542.233-1.085.462-1.634.679l-.36.141.26-.276c.155-.164.3-.341.446-.519.143-.179.282-.363.424-.545zM31.992 46.944c.147.145.288.295.43.444.143.148.284.299.421.451l-.15.055c-.011-.19-.017-.38-.024-.571l-.005-.15.15.047c.447.141.893.289 1.336.444l-.117.247c-.273-.165-.535-.34-.795-.525a5.618 5.618 0 01-.381-.292 2.792 2.792 0 01-.184-.167 1.1 1.1 0 01-.089-.1.487.487 0 01-.044-.069c-.012-.027-.032-.066-.025-.133l.017-.16.149.072c.306.146.627.28.95.396.162.055.324.116.49.159.167.043.335.079.51.097-.175.018-.351.007-.526-.015a4.296 4.296 0 01-.518-.094 7.368 7.368 0 01-1.004-.326l.166-.088c.005-.027-.002-.028.004-.02a.9.9 0 00.093.102c.053.05.112.097.173.143.121.093.247.183.375.272.256.176.52.346.782.514l1.021.656-1.138-.41c-.442-.159-.88-.325-1.317-.497l.144-.103c-.006.19-.012.38-.023.57l-.013.237-.138-.181c-.124-.164-.245-.33-.364-.5-.12-.166-.241-.333-.356-.505zM22.22 41.79c.2.232.394.467.588.702l-.076.021c.02-.271.034-.543.057-.815l.012-.15.113.106c.228.217.46.433.693.643.117.105.235.21.354.31.06.05.12.1.18.145.03.023.06.046.09.064l.04.026.01.004a.033.033 0 00-.015-.003c.003 0-.015-.002-.033.002a.092.092 0 00-.045.026l-.038.097-.072-.84-.023-.263.223.145.912.59-.184.198c-.3-.39-.594-.783-.888-1.177l-.246-.33.393.117c.309.091.621.18.933.265.155.041.312.082.467.117.152.033.323.07.446.072l-.031.219a4.341 4.341 0 01-.589-.317 1.988 1.988 0 01-.27-.21c-.08-.083-.174-.179-.186-.335l-.009-.114.112.033c.317.092.64.176.966.241.164.032.328.056.494.07.165.01.333.019.495-.028-.156.063-.33.079-.497.08-.169 0-.338-.01-.505-.03a7.403 7.403 0 01-.997-.177l.103-.08c.007.065.07.144.144.209.076.065.163.122.253.175.18.105.376.196.57.272l.507.196-.537.023c-.204.008-.352-.031-.519-.06a20.067 20.067 0 01-1.428-.36l.147-.212c.299.39.597.78.89 1.175l.473.635-.657-.437-.904-.601.2-.12.052.841.004.062-.042.035a.15.15 0 01-.058.03.116.116 0 01-.048.004.265.265 0 01-.044-.01.486.486 0 01-.103-.06 1.76 1.76 0 01-.1-.079 5.459 5.459 0 01-.18-.161c-.117-.11-.23-.22-.343-.332a35.21 35.21 0 01-.664-.68l.125-.045c-.036.27-.08.539-.118.809l-.016.107-.06-.086c-.176-.25-.35-.5-.521-.754zM19.892 39.41c-.165.198-.34.384-.51.576-.173.19-.349.376-.525.56l-.108-.164c.255-.117.51-.24.758-.367.125-.064.247-.132.366-.2.119-.069.237-.142.332-.223l.418-.355-.202.513c-.084.212-.171.422-.26.632l-.188-.175c.27-.14.54-.285.806-.435.131-.077.262-.155.39-.236.125-.08.25-.17.343-.266l.182-.186-.021.246c-.019.207-.035.414-.06.62l-.096-.034c.146-.173.29-.348.442-.517-.114.197-.236.388-.356.58l-.09.145-.007-.178c-.009-.208-.01-.415-.013-.622l.16.06c-.109.139-.235.233-.36.331a5.618 5.618 0 01-.387.267 10.86 10.86 0 01-.809.47l-.326.17.137-.345c.084-.211.17-.422.259-.632l.215.158c-.124.101-.25.174-.377.246-.127.07-.257.133-.387.193-.26.122-.525.228-.794.326l-.5.184.392-.348c.192-.17.385-.34.582-.504.198-.164.391-.332.594-.49zM20.373 36.3a1.372 1.372 0 01-.38.694l-.023-.041 1.24-.368.132-.039-.072.12-.318.537-.084-.1a1.8 1.8 0 00.341-.213c.106-.084.202-.18.284-.285.083-.105.148-.222.195-.345a1.36 1.36 0 00.084-.385l.186.013-.1 1.948-.217-.074c.22-.335.435-.674.643-1.016.104-.171.207-.343.304-.516.095-.172.194-.352.256-.518l.287-.78-.034.828-.087 2.074-.263-.072.442-.837.12-.228.12.228c.132.257.27.512.41.765.07.126.142.252.215.375.074.12.151.248.23.344l-.223.09-.052-1.215-.01-.246.2.14c.346.242.69.486 1.032.733l-.16.141-1.125-2.264-.077-.155.162.051 1.67.522-.027.063a3.274 3.274 0 01-.492-.377c-.149-.142-.29-.303-.358-.498.08.19.229.339.383.47.156.13.326.245.5.345l.23.13-.256-.067-1.69-.447.085-.104 1.19 2.23.205.385-.365-.244c-.35-.235-.698-.474-1.045-.714l.19-.106.064 1.215.02.384-.242-.294c-.106-.13-.18-.252-.259-.378-.076-.126-.15-.253-.223-.38-.144-.254-.284-.51-.422-.768h.24l-.435.841-.295.573.033-.644.105-2.074.253.048c-.08.211-.18.382-.28.561-.102.177-.208.35-.314.522-.214.343-.433.68-.657 1.017l-.252.377.035-.451.15-1.945.186.013c-.02.149-.046.298-.108.436a1.463 1.463 0 01-.23.382 1.837 1.837 0 01-.7.524l-.208.086.124-.187.343-.521.06.081-1.257.31-.09.022.067-.063c.19-.177.35-.4.414-.66zM16.54 33.894c-.15.165-.297.332-.45.494l-.032-.047.974-.496.98-.483.345-.17-.234.31-.597.79-.138-.172 1.475-.742.014-.007.022-.005a1.843 1.843 0 00.71-.331 1.602 1.602 0 00.485-.606l.258.103c-.282.813-.563 1.628-.854 2.438l-.2-.13c.281-.263.567-.522.853-.78l.165-.15.008.219.029.714-.158-.047c.327-.42.658-.838.995-1.25l.05-.063.025.074c.11.34.22.68.324 1.022a58.67 58.67 0 01-.405-.993l.075.011c-.303.439-.612.873-.924 1.305l-.138.19-.02-.238-.058-.713.173.07c-.274.27-.548.542-.825.809l-.355.34.154-.47c.268-.819.546-1.634.823-2.45l.259.104a1.855 1.855 0 01-.575.71 2.097 2.097 0 01-.829.376l.036-.012-1.493.706-.457.215.32-.387.63-.764.11.14-1.001.44-1.007.426-.148.063.115-.11c.162-.153.328-.302.492-.453zM27.479 33.243c.134.11.27.218.408.319.14.1.286.19.433.256l-.111.067-.002-.444v-.164l.15.083c.34.186.675.379 1.01.572l-.174.197c-.207-.26-.416-.516-.619-.779l-.25-.325.393.105c.254.067.51.13.763.2s.507.14.76.215l-.109.174a25.346 25.346 0 01-.367-.474l-.13-.172.203.04c.178.034.354.075.53.115.177.039.353.078.529.124-.181-.007-.361-.02-.542-.035-.18-.013-.36-.025-.54-.044l.073-.133a26 26 0 01.408.44l.22.24-.328-.066c-.258-.053-.514-.113-.77-.171-.257-.057-.512-.123-.768-.184l.142-.22c.207.258.408.523.61.785l.47.605-.642-.408a50.35 50.35 0 01-.974-.63l.15-.081-.041.442-.012.122-.1-.056a2.107 2.107 0 01-.42-.33 3.784 3.784 0 01-.353-.385zM21.355 32.381c.165-.132.334-.258.504-.384l.058-.043.013.077c.067.397.125.795.177 1.194l-.187-.055c.14-.196.282-.391.427-.584l.066-.088.1.059c.244.147.487.296.728.448l-.208.1.06-.536.024-.224.189.123.637.415-.202.147-.113-.47-.07-.293.255.153c.1.06.213.117.323.168.112.052.226.099.341.14.232.077.472.133.712.125l-.03.136a4.162 4.162 0 01-.424-.322 2.14 2.14 0 01-.191-.186.487.487 0 01-.125-.233c.026.085.094.144.157.2.065.058.135.108.207.156.144.095.297.18.449.258l.205.106-.234.03a2.023 2.023 0 01-.787-.07 3.526 3.526 0 01-.73-.291l.184-.14.13.465.094.334-.295-.187-.643-.406.213-.101-.065.535-.026.216-.182-.116c-.241-.154-.48-.31-.717-.468l.165-.03c-.15.189-.304.375-.459.56l-.17.204-.017-.258a32.45 32.45 0 01-.06-1.204l.071.034c-.184.104-.367.208-.554.306zM21.884 27.616c.159-.203.323-.4.487-.598l.06-.073.024.097c.104.434.198.869.288 1.305l-.196-.03a.358.358 0 01.174-.163.363.363 0 01.24-.007.774.774 0 01.316.224c.084.087.154.181.218.277.068.095.122.194.182.292l-.249.08c-.052-.455-.11-.908-.156-1.363l-.053-.528.302.433c.21.3.43.594.653.884.113.144.229.285.348.42.118.134.247.272.376.355l-.138.127a6.157 6.157 0 01-.152-.464 3.611 3.611 0 01-.06-.24 1.086 1.086 0 01-.018-.126c0-.048-.015-.079.02-.161.043-.052.096-.039.116-.034a.334.334 0 01.067.027c.04.02.074.044.108.068.067.048.129.1.19.153.123.105.237.218.348.334a10.935 10.935 0 00-.388-.282 2.643 2.643 0 00-.2-.127.81.81 0 00-.101-.05.2.2 0 00-.046-.012c-.017-.004-.012.008.005-.01.007-.007.002.046.012.076.008.036.018.073.028.11.021.074.048.149.075.223.056.147.118.294.18.439l.117.269-.254-.142c-.189-.106-.318-.24-.454-.373a8.328 8.328 0 01-.375-.42c-.24-.285-.464-.58-.682-.885l.25-.095c.055.454.098.91.147 1.363l.069.639-.319-.56c-.053-.093-.101-.19-.16-.279a1.796 1.796 0 00-.184-.253.608.608 0 00-.21-.17c-.034-.01-.062-.016-.087-.008-.024.006-.055.036-.069.055l-.158.228-.038-.257c-.066-.44-.126-.882-.178-1.325l.083.025c-.184.179-.368.358-.558.532zM23.456 26.212c.152.034.292.087.43.146l-.152.085a4.242 4.242 0 01-.036-.713l.016-.63.246.572c.06.136.11.276.154.42.043.145.08.291.096.448a2.462 2.462 0 01-.278-.363 3.874 3.874 0 01-.221-.389l.262-.058c.005.238-.005.476-.04.713l-.028.19-.123-.104a2.506 2.506 0 01-.326-.317zM24.428 26.985c.043-.166.097-.326.156-.483l.045-.118.095.11c.145.168.279.343.41.52l-.242.074a11.08 11.08 0 010-.79l.008-.185.163.059c.18.064.358.132.534.208.176.077.35.158.519.256a4.972 4.972 0 01-.572-.082 8.69 8.69 0 01-.559-.13l.17-.126c.01.263.01.527.001.79l-.015.446-.226-.372a8.673 8.673 0 01-.326-.576l.14-.008c-.093.14-.191.276-.3.407zM23.197 22.981c.147.137.282.283.411.432l-.134-.012c.06-.076.125-.147.187-.221l.085-.102.09.12c.109.147.218.295.32.448.104.15.2.306.298.462l-.236.123a.71.71 0 01-.04-.192c-.003-.067-.006-.139.034-.222a.268.268 0 01.205-.15c.04-.01.073-.007.106-.004a.825.825 0 01.258.08c.053.02.1.05.147.08.097.055.18.127.265.196-.106-.028-.207-.066-.31-.092a1.668 1.668 0 00-.297-.06.2.2 0 00-.066 0c-.02.001-.041.002-.053.01-.034.009-.027.024-.037.038-.015.038.006.144.037.216l-.237.124c-.103-.151-.207-.302-.303-.459-.099-.154-.19-.313-.281-.473l.174.018c-.074.062-.145.127-.222.186l-.089.07-.046-.082a5.503 5.503 0 01-.266-.534zM22.11 18.02a2.683 2.683 0 01-.591.947c-.048.045-.094.09-.154.13a.495.495 0 01-.233.097l-.03-.272a4.605 4.605 0 011.054-.012 4.59 4.59 0 01-1.015.283l-.029-.272c.013-.009.053-.02.094-.054.04-.026.083-.065.125-.101.084-.074.166-.16.25-.243.17-.166.337-.342.53-.503zM23.6 19.034a1.21 1.21 0 01-.067-.177c-.016-.058-.033-.117-.043-.176a2.202 2.202 0 01-.042-.354l-.016-.339.252.237c.101.096.198.198.283.311.085.113.164.233.22.376a1.565 1.565 0 01-.38-.211 2.449 2.449 0 01-.317-.277l.235-.102a2.235 2.235 0 01-.029.355c-.008.06-.022.119-.037.178a1.21 1.21 0 01-.06.178zM21.18 16.018c.143-.13.31-.223.486-.297.174-.077.36-.127.553-.151.192-.024.393-.022.587.039.191.056.375.174.47.346a1.364 1.364 0 00-.51-.131 2.66 2.66 0 00-.513.024c-.348.04-.695.122-1.074.17zM22.574 16.127a.883.883 0 01.109.282c.022.094.03.189.03.283 0 .094-.008.188-.03.282a.877.877 0 01-.109.283.877.877 0 01-.109-.283 1.235 1.235 0 01-.03-.282c0-.095.008-.189.03-.283a.883.883 0 01.11-.282zM22.666 19.846c.057.227.087.453.108.68.022.226.03.453.031.679 0 .227-.008.453-.03.68a4.27 4.27 0 01-.11.68 4.26 4.26 0 01-.108-.68 7.025 7.025 0 01-.031-.68c0-.226.009-.453.031-.68.02-.226.05-.452.109-.679zM23.268 19.843a.766.766 0 01.294-.033c.093.005.182.025.268.053l-.159.064a.955.955 0 01.146-.185.738.738 0 01.206-.152.743.743 0 01-.026.255.951.951 0 01-.085.22l-.048.094-.111-.03a1.05 1.05 0 01-.255-.1.764.764 0 01-.23-.186zM22.522 28.895c.058.162.088.324.109.485.022.162.03.324.031.486 0 .162-.009.323-.03.485-.021.162-.052.324-.11.485a2.255 2.255 0 01-.108-.485 3.613 3.613 0 01-.031-.485c0-.162.009-.324.03-.486.021-.161.052-.323.11-.485z" fill="#231F20"/><path d="M22.992 28.895c.058.24.088.482.109.722a8.856 8.856 0 010 1.445c-.02.241-.05.482-.109.723a4.793 4.793 0 01-.108-.723 8.811 8.811 0 010-1.445c.02-.24.05-.481.108-.722zM22.623 41.062a10.234 10.234 0 01-.108-1.063 19.258 19.258 0 01-.032-1.064c.003-.354.009-.708.03-1.063.022-.354.052-.709.11-1.063.058.355.088.709.109 1.063a19.154 19.154 0 010 2.127c-.021.354-.051.708-.109 1.063zM23.244 37.82c.058.259.088.517.108.776a10.167 10.167 0 010 1.552c-.02.259-.05.517-.108.776a5.478 5.478 0 01-.11-.776 10.219 10.219 0 01-.03-.776c.003-.259.009-.517.031-.776.02-.258.051-.517.109-.776zM22.574 48.287c.058.178.088.356.109.534.022.178.03.356.03.534 0 .178-.008.356-.03.534-.02.178-.05.356-.109.535a2.699 2.699 0 01-.109-.535 4.353 4.353 0 01-.03-.534c0-.178.008-.356.03-.534.021-.178.052-.356.11-.534zM23.446 48.709c.058.17.088.342.108.514.023.171.03.343.031.514 0 .171-.008.343-.03.514-.02.172-.05.343-.11.514a2.51 2.51 0 01-.108-.514 4.016 4.016 0 01-.03-.514c0-.172.008-.343.03-.514.021-.172.051-.343.109-.514zM22.828 67.204l.118 4.313-.14-.141 1.217.04-.1.1.103-3.066.096 3.066.003.097-.102.003-1.217.04-.145.005.005-.146.162-4.31z" fill="#231F20"/></svg>