<?xml version="1.0" encoding="utf-8"?><svg width="181" height="44" fill="none" xmlns="http://www.w3.org/2000/svg" viewBox="0 0 181 44"><path d="M9.774 18.264L3.21 10.187l6.005-7.646h2.375l-6.162 7.488v.136l6.857 8.099h-2.51zm-8.515 0l.067-7.986L1.26 2.54h1.882v15.723H1.26zM16.878 16.906c.538 0 1.05-.08 1.535-.237a8.827 8.827 0 001.3-.532c.38-.196.668-.354.862-.475v-3.755c-.194-.03-.485-.064-.874-.102a16.551 16.551 0 00-1.523-.057c-1.39 0-2.249.144-2.577.43-.195.151-.344.418-.449.803-.104.385-.156.848-.156 1.391 0 .89.145 1.535.436 1.935.292.4.774.6 1.446.6zm-.314 1.652c-.687 0-1.296-.163-1.826-.487-.53-.324-.945-.799-1.244-1.425-.299-.626-.448-1.384-.448-2.274 0-1.07.213-1.911.639-2.522.425-.61 1.027-1.044 1.804-1.3.776-.257 1.68-.385 2.711-.385h2.375c0-.754-.019-1.414-.056-1.98-.037-.565-.16-.984-.37-1.255a1.006 1.006 0 00-.616-.407 3.637 3.637 0 00-.818-.091c-.582 0-1.154.057-1.714.17a13.17 13.17 0 00-1.524.396c-.456.15-.952.339-1.49.565l-.65-1.47c.568-.257 1.09-.471 1.569-.645a12.481 12.481 0 011.602-.452 8.587 8.587 0 011.826-.193c1.016 0 1.823.2 2.42.6.598.4 1.027.958 1.289 1.674.261.716.392 1.557.392 2.522v8.665h-1.21l-.269-1.38h-.134c-.15.105-.363.252-.64.44a9.096 9.096 0 01-.962.566 6.641 6.641 0 01-1.222.475 5.2 5.2 0 01-1.434.193zM24.765 18.557l-.246-1.47c.21-.015.444-.049.706-.102.261-.053.489-.14.683-.26.135-.09.258-.219.37-.385.112-.166.216-.47.314-.916.097-.445.175-1.127.235-2.047l.605-8.28h7.978v13.166h-1.86l.067-6.22-.067-5.317h-4.392l-.695 8.257c-.09 1.116-.378 1.99-.863 2.624-.486.634-1.259.95-2.32.95h-.515zM40.093 22.018l1.748-5.135-4.168-11.786h1.994l3.003 9.615h.09l3.002-9.615h1.995l-4.393 12.33-1.3 4.591h-1.971zM63.017 18.263l-5.222-6.628 4.908-6.538h2.285l-5.064 6.515v.114l5.4 6.537h-2.307zm-7.015 0l.112-6.628-.111-6.538h1.86l-.113 6.538.112 6.628h-1.86zm-7.462 0l5.401-6.538v-.113l-5.064-6.515h2.285l4.908 6.538-5.221 6.628H48.54zM72.607 18.558c-1.016 0-1.912-.235-2.689-.702-.777-.467-1.382-1.21-1.815-2.228-.433-1.018-.65-2.349-.65-3.993 0-1.342.146-2.458.437-3.348.291-.89.69-1.587 1.199-2.093a4.294 4.294 0 011.793-1.074 7.433 7.433 0 012.195-.317c.568 0 1.147.038 1.737.113.59.076 1.072.159 1.446.25l-.225 1.583c-.283-.03-.732-.087-1.344-.17a14.775 14.775 0 00-1.972-.124c-.553 0-1.02.045-1.4.135-.382.091-.677.242-.886.453-.284.317-.526.893-.728 1.73-.202.837-.302 1.837-.302 2.998 0 1.071.082 1.934.246 2.59.164.656.359 1.154.583 1.493.224.34.426.577.605.713.12.09.28.173.481.248.202.076.49.114.863.114.433 0 .874-.053 1.323-.159a10.94 10.94 0 001.232-.362c.373-.135.792-.309 1.255-.52l.582 1.47c-.657.393-1.285.69-1.882.894-.598.204-1.292.306-2.084.306zM86.836 18.263l-5.22-6.628 4.907-6.538h2.42l-5.288 6.515v.114l5.602 6.537h-2.42zm-6.991 0l.112-6.628-.112-6.538h1.86l-.112 6.538.112 6.628h-1.86zM91.273 18.263V5.097h1.86l-.224 11.108h.112l5.737-11.108h2.375v13.166h-1.86l.224-11.107h-.09l-5.759 11.107h-2.375zM110.275 3.536c-1 0-1.815-.267-2.442-.803-.627-.535-.964-1.383-1.008-2.545l1.389-.045c.059.498.235.894.527 1.188.291.294.802.441 1.534.441.851 0 1.43-.147 1.737-.441.306-.294.49-.69.549-1.188l1.166.045c-.06 1.162-.401 2.01-1.02 2.545-.62.536-1.432.803-2.432.803zm-4.952 14.728V5.097h1.86l-.224 11.108h.112l5.736-11.108h2.377v13.166h-1.861l.225-11.107h-.091l-5.759 11.108h-2.375zM126.88 18.263V6.703l-4.302.023V5.097h10.352v1.629l-4.191-.023v11.56h-1.859zM140.033 16.906c.165 0 .37-.019.618-.056.245-.038.465-.14.661-.306.208-.18.39-.464.549-.848.156-.385.279-.946.368-1.685.089-.74.136-1.72.136-2.941 0-.996-.028-1.776-.08-2.342-.052-.565-.127-.987-.223-1.267-.097-.279-.213-.478-.348-.6a1.497 1.497 0 00-.391-.248c-.188-.09-.475-.136-.864-.136-.478 0-.968.08-1.467.238a11.212 11.212 0 00-2.252.984v8.732c.313.09.784.192 1.411.305.627.113 1.255.17 1.882.17zm-5.154 5.113V5.097h1.256l.246 1.335h.134c.285-.211.613-.441.987-.69a6.62 6.62 0 011.288-.656 4.389 4.389 0 011.602-.283c.808 0 1.506.23 2.096.69.59.46 1.046 1.177 1.366 2.15.322.972.482 2.235.482 3.788 0 1.464-.134 2.659-.404 3.586-.268.928-.627 1.652-1.076 2.172-.446.52-.954.882-1.522 1.086a5.08 5.08 0 01-1.726.305 13.651 13.651 0 01-2.118-.17 46.201 46.201 0 00-.75-.124v3.733h-1.861zM150.947 16.906c.538 0 1.05-.08 1.534-.237a8.9 8.9 0 001.301-.532c.379-.196.668-.354.861-.475v-3.755c-.193-.03-.485-.064-.873-.102a16.565 16.565 0 00-1.524-.057c-1.388 0-2.248.144-2.578.43-.193.151-.342.418-.446.803-.106.385-.159.848-.159 1.391 0 .89.147 1.535.438 1.935.292.4.774.6 1.446.6zm-.315 1.652c-.686 0-1.295-.163-1.825-.487-.531-.324-.946-.799-1.244-1.425-.299-.626-.448-1.384-.448-2.274 0-1.07.212-1.911.638-2.522.426-.61 1.028-1.044 1.804-1.3.778-.257 1.68-.385 2.711-.385h2.375c0-.754-.018-1.414-.055-1.98-.038-.565-.161-.984-.369-1.255a1.01 1.01 0 00-.618-.407c-.26-.06-.534-.091-.817-.091-.583 0-1.154.057-1.714.17-.56.113-1.069.245-1.525.396-.456.15-.951.339-1.488.565l-.652-1.47a22.58 22.58 0 011.569-.645 12.525 12.525 0 011.603-.452 8.579 8.579 0 011.825-.193c1.017 0 1.823.2 2.422.6.597.4 1.025.958 1.288 1.674.26.716.393 1.557.393 2.522v8.665h-1.212l-.268-1.38h-.134a81.45 81.45 0 01-.638.44 9.39 9.39 0 01-.965.566 6.619 6.619 0 01-1.221.475 5.2 5.2 0 01-1.435.193zM167.999 18.263l-5.22-6.628 4.906-6.538h2.421l-5.289 6.515v.114l5.602 6.537h-2.42zm-6.992 0l.113-6.628-.113-6.538h1.861l-.112 6.538.112 6.628h-1.861zM174.564 18.263V6.703l-4.301.023V5.097h10.352v1.629l-4.19-.023v11.56h-1.861zM29.399 42.852v-8.18h5.225v8.18h-1.009l.024-4.378.012-2.932h-3.268l.012 2.932.024 4.378H29.4zM37.175 42.852v-8.18h1.021l-.036 4.308.024 2.213 3.293-6.522h1.53v8.181h-1.02l.037-3.872-.025-3.379-3.645 7.251h-1.179zM46.653 42.852l.024-7.345-2.37.035v-.87h5.712v.87l-2.37-.035.025 7.345h-1.02zM54.029 42.123c.348 0 .65-.037.905-.112.255-.074.466-.225.632-.453.166-.228.29-.563.37-1.007.081-.443.122-1.033.122-1.771s-.039-1.33-.116-1.778c-.077-.447-.196-.786-.358-1.018a1.17 1.17 0 00-.632-.465 3.21 3.21 0 00-.923-.118c-.365 0-.675.04-.93.118a1.17 1.17 0 00-.626.465c-.162.232-.281.571-.358 1.018-.077.448-.116 1.04-.116 1.778s.04 1.328.122 1.771c.08.444.202.78.364 1.007.162.228.373.379.632.453.26.075.563.112.912.112zm0 .895c-.422 0-.82-.063-1.197-.189a2.364 2.364 0 01-.997-.653c-.287-.31-.512-.744-.674-1.3-.162-.558-.243-1.268-.243-2.131 0-.864.08-1.57.243-2.12.162-.548.387-.978.674-1.288.288-.31.62-.526.997-.648a3.874 3.874 0 011.197-.182c.429 0 .83.06 1.203.182.372.122.702.338.99.648.287.31.512.74.674 1.289.162.549.243 1.255.243 2.119 0 .863-.08 1.573-.243 2.13-.162.557-.387.991-.674 1.3-.288.31-.618.529-.99.654a3.75 3.75 0 01-1.203.188zM59.23 42.852l.291-8.18h1.483l1.907 5.332h.085l1.92-5.333H66.4l.291 8.181h-1.02l-.098-7.192h-.085l-1.907 5.274h-1.252l-1.895-5.274h-.086l-.097 7.192h-1.02zM69.181 42.852v-8.18h1.02l-.036 3.907-.461-.33h4.471l-.462.33-.024-3.908h1.02v8.181h-1.02l.024-4.06.462.329h-4.471l.461-.33.037 4.061h-1.02zM77.262 42.852v-8.18h1.02l-.036 4.308.024 2.213 3.293-6.522h1.531v8.181h-1.02l.036-3.872-.024-3.379-3.646 7.251h-1.178zM90.263 42.852l-3.56-4.202 3.256-3.979h1.288l-3.341 3.897v.07l3.718 4.214h-1.361zm-4.617 0l.036-4.155-.036-4.026h1.02v8.181h-1.02zM98.186 39.298c.259 0 .47-.014.631-.041a.715.715 0 00.39-.183c.137-.133.23-.363.279-.688.048-.326.073-.74.073-1.242 0-.424-.023-.752-.067-.983-.045-.232-.097-.398-.158-.5a.603.603 0 00-.189-.212 1.117 1.117 0 00-.394-.136 3.308 3.308 0 00-.626-.053c-.316 0-.614.014-.893.041-.28.028-.492.058-.638.089v3.767c.113.015.326.043.638.082.311.04.63.059.954.059zm-2.613 3.555l.049-3.79-.049-4.391c.332-.031.636-.06.912-.083.275-.023.577-.043.905-.059.328-.015.654-.023.978-.023.72 0 1.28.23 1.677.688.397.46.595 1.148.595 2.066 0 .573-.071 1.048-.213 1.425-.141.377-.334.669-.577.877a2.16 2.16 0 01-.814.441c-.3.087-.608.13-.923.13-.251 0-.53-.01-.839-.03a78.43 78.43 0 00-.68-.041v2.79h-1.02zM103.131 40.275l-.34-.46h3.28l-.34.46-1.373-5.168.571.435h-.996l.571-.435-1.373 5.168zm-1.714 2.577l2.297-8.18h1.434l2.296 8.18H106.4l-.644-2.448.51.282h-3.645l.486-.282-.644 2.448h-1.046zM111.296 43.017c-.575 0-1.081-.135-1.519-.406-.437-.27-.779-.712-1.027-1.324-.247-.612-.37-1.424-.37-2.437 0-.894.079-1.626.237-2.195.158-.569.377-1.01.656-1.324.28-.314.609-.53.99-.648a4.175 4.175 0 011.239-.176c.196 0 .426.01.693.03.268.019.526.043.778.07.251.028.443.057.571.088l-.121.848a55.731 55.731 0 00-.888-.083c-.193-.015-.379-.03-.558-.04a6.777 6.777 0 00-.413-.019c-.397 0-.715.02-.954.06-.239.039-.416.125-.529.258a2.1 2.1 0 00-.304.554c-.097.243-.174.574-.231.994-.056.42-.085.96-.085 1.619 0 .832.083 1.497.25 1.995.165.498.329.826.492.983a.92.92 0 00.413.23c.162.043.345.064.548.064.307 0 .604-.031.891-.094.289-.063.544-.137.767-.224.221-.086.463-.192.722-.317l.352.776c-.25.142-.49.261-.717.36a4.54 4.54 0 01-.819.252c-.32.071-.675.106-1.064.106zM116.959 42.852l.025-7.345-2.369.035v-.87h5.71v.87l-2.37-.035.025 7.345h-1.021zM121.625 42.852v-8.18h4.144v.87l-3.585-.035.474-.447-.085 3.508-.451-.295h3.354v.836h-3.354l.451-.341.085 3.684-.474-.447 3.585-.024v.871h-4.144zM127.87 42.852v-8.18h1.022l-.038 3.907-.461-.33h4.472l-.463.33-.024-3.908h1.022v8.181h-1.022l.024-4.06.463.329h-4.472l.461-.33.038 4.061h-1.022zM135.951 42.852v-8.18h1.02l-.035 4.308.024 2.213 3.292-6.522h1.53v8.181h-1.02l.038-3.872-.025-3.379-3.646 7.251h-1.178zM147.118 34.33c-.543 0-.984-.14-1.325-.418-.34-.278-.523-.72-.547-1.324l.754-.023a.99.99 0 00.285.617c.158.154.435.23.833.23.462 0 .775-.076.94-.23a.961.961 0 00.298-.617l.633.023c-.017.4-.106.73-.268.989-.162.259-.378.45-.65.57-.271.122-.59.183-.953.183zm-2.784 8.523v-8.181h1.022l-.037 4.308.024 2.213 3.294-6.521h1.53v8.18h-1.02l.035-3.872-.024-3.379-3.644 7.252h-1.18zM179.196 26.162H.369v.56h178.827v-.56z" fill="#231F20"/></svg>