<?xml version="1.0" encoding="utf-8"?><svg width="256" height="79" fill="none" xmlns="http://www.w3.org/2000/svg" viewBox="0 0 256 79"><path d="M85.16 34.635l-6.566-8.076 6.006-7.647h2.375L80.813 26.4v.136l6.857 8.099h-2.51zm-8.516 0l.068-7.986-.068-7.737h1.883v15.723h-1.883zM92.261 33.278c.538 0 1.05-.08 1.536-.238a8.827 8.827 0 001.3-.531c.38-.196.668-.355.862-.476v-3.755c-.194-.03-.486-.064-.874-.102a16.551 16.551 0 00-1.524-.056c-1.389 0-2.248.143-2.577.43-.194.15-.344.418-.448.803-.105.384-.157.848-.157 1.391 0 .89.146 1.535.437 1.934.292.4.773.6 1.445.6zm-.313 1.651c-.687 0-1.296-.162-1.826-.486-.53-.324-.945-.8-1.244-1.425-.299-.626-.448-1.384-.448-2.274 0-1.07.213-1.912.638-2.522.426-.611 1.028-1.045 1.804-1.301.777-.256 1.681-.385 2.712-.385h2.375c0-.754-.02-1.414-.056-1.98-.037-.565-.16-.983-.37-1.255a1.006 1.006 0 00-.616-.407 3.636 3.636 0 00-.818-.09c-.582 0-1.154.056-1.714.17-.56.112-1.068.244-1.524.395-.456.151-.952.34-1.49.566l-.65-1.47c.568-.257 1.09-.472 1.569-.645a12.489 12.489 0 011.602-.453 8.59 8.59 0 011.826-.192c1.016 0 1.823.2 2.42.6.598.399 1.027.957 1.289 1.673.261.717.392 1.558.392 2.523v8.664h-1.21l-.269-1.38h-.135c-.149.106-.362.253-.638.441a9.113 9.113 0 01-.964.566 6.642 6.642 0 01-1.221.475 5.2 5.2 0 01-1.434.192zM100.153 34.929l-.247-1.47c.209-.015.445-.05.706-.102a2.05 2.05 0 00.683-.26c.135-.091.258-.219.37-.385.112-.166.217-.471.314-.916.097-.445.175-1.128.235-2.048l.605-8.28h7.978v13.167h-1.86l.067-6.221-.067-5.317h-4.392l-.695 8.258c-.09 1.116-.377 1.99-.863 2.624-.485.633-1.258.95-2.319.95h-.515zM115.479 38.39l1.748-5.135-4.168-11.786h1.994l3.003 9.614h.089l3.003-9.614h1.994l-4.392 12.329-1.299 4.592h-1.972zM138.402 34.635l-5.222-6.628 4.908-6.538h2.286l-5.065 6.515v.113l5.401 6.538h-2.308zm-7.014 0l.112-6.628-.112-6.538h1.86l-.112 6.538.112 6.628h-1.86zm-7.462 0l5.4-6.538v-.113l-5.064-6.515h2.285l4.908 6.538-5.221 6.628h-2.308zM147.994 34.93c-1.016 0-1.913-.235-2.689-.702-.777-.467-1.382-1.21-1.815-2.229-.434-1.017-.65-2.348-.65-3.992 0-1.342.146-2.458.437-3.348.291-.89.691-1.587 1.199-2.093a4.29 4.29 0 011.792-1.074 7.439 7.439 0 012.196-.317c.568 0 1.147.038 1.737.113.59.076 1.072.158 1.445.249l-.224 1.583c-.284-.03-.732-.086-1.344-.17a14.767 14.767 0 00-1.972-.124c-.553 0-1.02.046-1.401.136-.381.09-.676.241-.885.452-.284.317-.527.894-.728 1.731-.202.837-.303 1.836-.303 2.997 0 1.072.082 1.935.247 2.59.164.657.358 1.155.582 1.494.225.34.426.577.606.712.119.09.28.174.481.25.202.075.489.112.863.112a5.74 5.74 0 001.322-.158 11 11 0 001.233-.362c.373-.136.791-.309 1.255-.52l.582 1.47c-.658.392-1.285.69-1.882.894-.598.203-1.293.305-2.084.305zM162.222 34.635l-5.221-6.628 4.907-6.538h2.42l-5.288 6.515v.113l5.602 6.538h-2.42zm-6.992 0l.113-6.628-.113-6.538h1.86l-.112 6.538.112 6.628h-1.86zM166.66 34.635V21.469h1.86l-.224 11.107h.112l5.737-11.107h2.375v13.166h-1.86l.224-11.108h-.089l-5.759 11.108h-2.376zM185.66 19.908c-1.001 0-1.816-.268-2.443-.803s-.964-1.384-1.008-2.545l1.389-.045c.059.497.235.893.527 1.187.291.294.802.442 1.535.442.85 0 1.429-.148 1.736-.442.306-.294.49-.69.549-1.187l1.166.045c-.06 1.161-.401 2.01-1.02 2.545-.62.535-1.432.803-2.431.803zm-4.953 14.727V21.47h1.86l-.224 11.107h.112l5.736-11.107h2.377v13.166h-1.861l.225-11.108h-.091l-5.759 11.108h-2.375zM202.266 34.635v-11.56l-4.301.023v-1.63h10.352v1.63l-4.192-.023v11.56h-1.859zM215.419 33.278c.166 0 .371-.02.618-.057.246-.037.466-.14.661-.305.208-.181.391-.464.549-.848.156-.385.279-.947.369-1.686.089-.739.135-1.72.135-2.94 0-.996-.028-1.777-.08-2.342-.052-.566-.126-.988-.223-1.267-.097-.279-.212-.479-.348-.6a1.476 1.476 0 00-.391-.248c-.188-.09-.474-.136-.863-.136-.479 0-.968.079-1.467.237a11.232 11.232 0 00-2.252.985v8.732c.313.09.783.192 1.411.305.627.113 1.254.17 1.881.17zm-5.153 5.112V21.47h1.256l.246 1.335h.134c.284-.211.612-.442.986-.69a6.619 6.619 0 011.288-.656 4.398 4.398 0 011.603-.283c.807 0 1.505.23 2.095.69.59.46 1.046 1.176 1.366 2.149.322.973.482 2.236.482 3.79 0 1.462-.134 2.657-.403 3.585-.268.927-.628 1.651-1.076 2.172-.447.52-.955.882-1.523 1.085a5.07 5.07 0 01-1.725.306 13.632 13.632 0 01-2.118-.17 46.93 46.93 0 00-.75-.124v3.732h-1.861zM226.332 33.278c.538 0 1.05-.08 1.534-.238a8.855 8.855 0 001.301-.531c.38-.196.668-.355.862-.476v-3.755c-.194-.03-.486-.064-.873-.102a16.574 16.574 0 00-1.525-.056c-1.388 0-2.248.143-2.577.43-.194.15-.343.418-.447.803-.106.384-.158.848-.158 1.391 0 .89.147 1.535.437 1.934.292.4.774.6 1.446.6zm-.314 1.651c-.687 0-1.296-.162-1.826-.486-.531-.324-.946-.8-1.243-1.425-.3-.626-.449-1.384-.449-2.274 0-1.07.212-1.912.638-2.522.427-.611 1.028-1.045 1.804-1.301.778-.256 1.681-.385 2.712-.385h2.375c0-.754-.019-1.414-.056-1.98-.037-.565-.16-.983-.369-1.255a1.01 1.01 0 00-.618-.407c-.26-.06-.534-.09-.817-.09-.582 0-1.154.056-1.714.17-.56.112-1.068.244-1.524.395-.456.151-.951.34-1.489.566l-.652-1.47a22.577 22.577 0 011.569-.645 12.579 12.579 0 011.603-.453 8.584 8.584 0 011.826-.192c1.016 0 1.822.2 2.421.6.598.399 1.026.957 1.288 1.673.261.717.393 1.558.393 2.523v8.664h-1.212l-.268-1.38h-.134a83.77 83.77 0 01-.638.441c-.278.189-.6.377-.964.566a6.675 6.675 0 01-1.221.475 5.21 5.21 0 01-1.435.192zM243.383 34.635l-5.221-6.628 4.907-6.538h2.421l-5.289 6.515v.113l5.602 6.538h-2.42zm-6.992 0l.113-6.628-.113-6.538h1.861l-.112 6.538.112 6.628h-1.861zM249.95 34.635v-11.56l-4.302.023v-1.63H256v1.63l-4.189-.023v11.56h-1.861zM104.785 59.224v-8.181h5.225v8.18h-1.008l.024-4.378.012-2.931h-3.269l.012 2.931.025 4.379h-1.021zM112.562 59.224v-8.181h1.021l-.036 4.308.024 2.213 3.293-6.521h1.531v8.18h-1.021l.037-3.872-.024-3.378-3.646 7.25h-1.179zM122.037 59.224l.024-7.345-2.37.035v-.871h5.712v.871l-2.37-.035.024 7.345h-1.02zM129.415 58.494c.349 0 .65-.037.906-.112.255-.074.465-.225.631-.453.166-.227.29-.563.371-1.007.081-.443.122-1.033.122-1.771s-.039-1.33-.116-1.778c-.077-.447-.196-.786-.358-1.018a1.17 1.17 0 00-.632-.465 3.209 3.209 0 00-.924-.117c-.364 0-.674.039-.929.117a1.171 1.171 0 00-.626.465c-.162.232-.281.571-.358 1.018-.078.448-.116 1.04-.116 1.778s.041 1.328.122 1.771c.081.444.202.78.364 1.007.162.228.373.379.632.453.259.075.563.112.911.112zm0 .895c-.421 0-.82-.063-1.196-.189a2.361 2.361 0 01-.997-.653c-.287-.31-.512-.743-.674-1.3-.163-.558-.243-1.268-.243-2.131 0-.864.08-1.57.243-2.12.162-.548.387-.978.674-1.288.287-.31.62-.526.997-.648a3.868 3.868 0 011.196-.182c.43 0 .831.06 1.203.182.373.122.703.338.991.648.287.31.512.74.674 1.289.162.55.243 1.255.243 2.119 0 .863-.081 1.573-.243 2.13-.162.558-.387.991-.674 1.3-.288.311-.618.529-.991.654a3.743 3.743 0 01-1.203.189zM134.613 59.224l.292-8.181h1.482l1.908 5.332h.085l1.92-5.332h1.482l.292 8.18h-1.021l-.097-7.191h-.085l-1.908 5.273h-1.251l-1.896-5.273h-.085l-.097 7.192h-1.021zM144.566 59.224v-8.181h1.021l-.036 3.908-.462-.33h4.471l-.461.33-.025-3.908h1.021v8.18h-1.021l.025-4.06.461.33h-4.471l.462-.33.036 4.06h-1.021zM152.648 59.224v-8.181h1.021l-.036 4.308.024 2.213 3.293-6.521h1.531v8.18h-1.021l.037-3.872-.025-3.378-3.645 7.25h-1.179zM165.649 59.224l-3.561-4.202 3.257-3.979h1.288l-3.342 3.896v.07l3.718 4.215h-1.36zm-4.618 0l.037-4.155-.037-4.026h1.021v8.18h-1.021zM173.569 55.669c.26 0 .47-.014.632-.041a.714.714 0 00.389-.183c.138-.133.231-.363.279-.688.049-.326.073-.74.073-1.242a5.59 5.59 0 00-.066-.983c-.045-.232-.098-.398-.158-.5a.604.604 0 00-.189-.212 1.109 1.109 0 00-.395-.136 3.303 3.303 0 00-.625-.053c-.316 0-.614.014-.893.041-.28.028-.493.058-.638.089v3.767c.113.016.326.043.638.082.311.04.629.059.953.059zm-2.612 3.555l.048-3.79-.048-4.391c.332-.031.636-.06.911-.083.276-.023.577-.043.905-.059.329-.015.655-.023.979-.023.72 0 1.279.23 1.677.688.396.46.595 1.148.595 2.066 0 .574-.071 1.048-.213 1.425-.142.377-.334.669-.577.877a2.162 2.162 0 01-.814.441c-.3.087-.608.13-.924.13-.251 0-.53-.01-.838-.03-.308-.02-.535-.033-.68-.04v2.789h-1.021zM178.518 56.646l-.34-.459h3.281l-.341.459-1.373-5.168.571.436h-.996l.571-.436-1.373 5.168zm-1.713 2.578l2.296-8.181h1.434l2.297 8.18h-1.045l-.644-2.447.51.282h-3.645l.486-.282-.644 2.448h-1.045zM186.681 59.389c-.574 0-1.08-.136-1.518-.407-.437-.27-.78-.712-1.027-1.324-.247-.612-.37-1.424-.37-2.436 0-.895.079-1.627.237-2.196.158-.569.376-1.01.656-1.324.279-.314.609-.53.99-.647a4.175 4.175 0 011.239-.177c.195 0 .426.01.692.03.268.02.527.043.778.07.252.028.443.057.572.088l-.121.848a55.731 55.731 0 00-.888-.083c-.194-.015-.38-.029-.558-.04a6.771 6.771 0 00-.414-.018c-.396 0-.714.02-.953.058-.239.04-.416.126-.529.26-.106.125-.207.31-.304.553-.097.243-.174.575-.231.994-.057.42-.085.96-.085 1.619 0 .832.083 1.497.249 1.995.166.498.33.826.492.983.114.11.251.187.413.23.163.043.345.064.548.064.307 0 .605-.031.892-.094.288-.062.543-.137.767-.224.221-.086.463-.192.722-.317l.352.776c-.25.142-.49.262-.717.36a4.565 4.565 0 01-.819.253c-.32.07-.676.106-1.065.106zM192.345 59.224l.024-7.345-2.369.035v-.871h5.71v.871l-2.369-.035.024 7.345h-1.02zM197.012 59.224v-8.181h4.143v.871l-3.585-.035.475-.448-.086 3.508-.45-.294h3.354v.836h-3.354l.45-.342.086 3.685-.475-.447 3.585-.024v.87h-4.143zM203.254 59.224v-8.181h1.022l-.038 3.908-.461-.33h4.472l-.463.33-.024-3.908h1.022v8.18h-1.022l.024-4.06.463.33h-4.472l.461-.33.038 4.06h-1.022zM211.336 59.224v-8.181h1.02l-.035 4.308.024 2.213 3.292-6.521h1.53v8.18h-1.02l.037-3.872-.024-3.378-3.646 7.25h-1.178zM222.503 50.702c-.543 0-.984-.14-1.325-.418-.341-.278-.523-.72-.547-1.324l.754-.023a.994.994 0 00.284.617c.158.154.436.23.834.23.462 0 .774-.076.94-.23a.961.961 0 00.298-.617l.633.023c-.017.4-.106.73-.268.989-.162.259-.378.45-.65.57-.272.122-.59.183-.953.183zm-2.784 8.523v-8.181h1.022l-.038 4.308.025 2.213 3.294-6.521h1.53v8.18h-1.02l.035-3.872-.024-3.378-3.644 7.25h-1.18zM254.582 42.534H75.754v.56h178.828v-.56zM52.947 44.614a.25.25 0 11-.499.001.25.25 0 01.5 0zM57.365 30.008a.25.25 0 01-.249.25.25.25 0 010-.5.25.25 0 01.25.25zM59.994 39.943a.25.25 0 11-.498 0 .25.25 0 11.498 0zM48.623 33.887a.25.25 0 11-.5 0 .25.25 0 01.5 0zM59.744 21.965a.25.25 0 11-.499 0 .25.25 0 01.499 0zM37.111 3.714a.25.25 0 11-.498 0 .25.25 0 11.498 0zM49.12 6.582a.25.25 0 11-.5.001.25.25 0 01.5 0zM33.02 9.492a.251.251 0 01-.055.35.248.248 0 01-.347-.056.25.25 0 01.055-.35.248.248 0 01.348.056zM40.04 14.25a.25.25 0 01-.055.35.248.248 0 01-.348-.056.25.25 0 01.056-.349.248.248 0 01.348.056zM49.802 24.756a.25.25 0 01-.055.35.248.248 0 01-.348-.056.25.25 0 01.055-.349.248.248 0 01.348.055zM33.724 20.743a.25.25 0 01-.055.35.248.248 0 01-.348-.056.25.25 0 01.055-.35.248.248 0 01.348.056zM39.208 27.644a.25.25 0 01-.055.35.248.248 0 01-.348-.056.25.25 0 01.056-.35.248.248 0 01.347.056zM42.982 39.66a.25.25 0 01-.056.349.249.249 0 01-.347-.056.25.25 0 01.055-.349.248.248 0 01.348.056z" fill="#231F20"/><path d="M30.656 76.593c1.39-1.696 2.992-3.207 4.693-4.59a36.592 36.592 0 012.647-1.953c.453-.309.917-.603 1.387-.885.237-.14.47-.283.71-.418l.722-.395c.97-.513 1.973-.963 2.987-1.375 1.015-.416 2.06-.749 3.106-1.063a31.63 31.63 0 013.187-.763l.807-.143.806-.13a95.832 95.832 0 001.606-.29 43.624 43.624 0 003.178-.707c.52-.142 1.04-.29 1.531-.486.245-.098.482-.21.686-.343.1-.068.19-.143.247-.217.061-.078.07-.132.062-.185a.511.511 0 00-.134-.223 1.773 1.773 0 00-.272-.23 5.373 5.373 0 00-.67-.395c-.473-.24-.971-.449-1.473-.651a80.138 80.138 0 00-1.519-.587c-.247-.095-.528-.188-.791-.343-.26-.153-.53-.354-.7-.678a1.174 1.174 0 01-.134-.526 1.459 1.459 0 01.087-.507c.11-.31.285-.561.469-.788.374-.451.805-.816 1.245-1.157.889-.674 1.84-1.23 2.8-1.76a41.85 41.85 0 012.944-1.454c.497-.227.998-.444 1.503-.651a40.644 40.644 0 011.524-.6l.022.051c-1.96.953-3.898 1.954-5.766 3.055-.931.553-1.843 1.143-2.68 1.806-.416.332-.816.687-1.133 1.083a2.3 2.3 0 00-.365.615c-.072.209-.073.395.012.558.083.166.262.316.469.436.208.122.443.211.704.314.507.2 1.014.403 1.52.616.506.214 1.01.435 1.506.696.247.133.493.271.73.447.119.088.236.184.345.305.106.121.216.275.254.487a.703.703 0 01-.03.322.82.82 0 01-.144.252 1.556 1.556 0 01-.371.314c-.257.158-.52.27-.784.366a13.32 13.32 0 01-1.597.454c-1.072.24-2.15.414-3.23.58-1.076.168-2.166.285-3.233.47-1.068.19-2.13.435-3.161.775-2.07.664-4.037 1.607-5.923 2.67a52.343 52.343 0 00-2.775 1.69 47.574 47.574 0 00-2.655 1.88 51.454 51.454 0 00-2.53 2.055c-.406.36-.816.719-1.214 1.09-.398.373-.79.752-1.17 1.142l-.042-.036z" fill="#232629"/><path d="M45.828 69.857c.86-.638 1.698-1.298 2.55-1.95.856-.645 1.736-1.269 2.668-1.817.463-.276.943-.538 1.433-.772.49-.234.992-.432 1.501-.603a29.027 29.027 0 013.106-.84l.02.053c-.474.26-.964.484-1.455.697-.49.215-.986.413-1.477.616-.983.408-1.978.739-2.911 1.241-.94.488-1.839 1.057-2.724 1.654-.891.588-1.77 1.203-2.68 1.767l-.03-.046z" fill="#232629"/><path d="M22.805 8.862a21.23 21.23 0 013.032-3.437 21.102 21.102 0 013.719-2.698A20.871 20.871 0 0138.322.043c.385-.016.771-.03 1.157-.04.384-.006.763 0 1.145 0l2.286.003C44.448 0 46 .142 47.508.475a21.037 21.037 0 018.346 3.867c2.449 1.886 4.506 4.297 5.931 7.051 1.433 2.747 2.27 5.813 2.38 8.915.029.78.022 1.541.022 2.307V57.05c-.001.383.006.763-.009 1.152-.01.388-.014.776-.052 1.162l-.044.58c-.02.193-.048.385-.071.578-.026.192-.047.385-.076.576l-.103.573a20.95 20.95 0 01-1.336 4.445 21.43 21.43 0 01-5.374 7.49c-2.307 2.059-5.053 3.635-8.02 4.509-1.48.442-3.01.719-4.55.825-.77.056-1.547.052-2.304.056-.762.006-1.524 0-2.286-.002-.379 0-.767-.023-1.152-.038-.386-.007-.77-.053-1.153-.09-.385-.03-.765-.095-1.146-.155-.382-.05-.758-.136-1.134-.218a20.71 20.71 0 01-4.358-1.486 20.958 20.958 0 01-3.915-2.4 21.172 21.172 0 01-3.288-3.19 21.153 21.153 0 007.323 5.323 20.363 20.363 0 004.323 1.335c.371.069.74.142 1.116.18.374.048.747.101 1.123.118.376.026.751.06 1.128.056.377.004.75.015 1.133.004.762-.002 1.524-.007 2.286-.002.38-.001.766.01 1.14-.005.375-.013.752-.008 1.126-.046 1.5-.103 2.987-.373 4.428-.802 2.888-.85 5.562-2.386 7.809-4.39a20.867 20.867 0 005.232-7.292 20.392 20.392 0 001.3-4.327l.1-.558c.029-.186.049-.374.074-.56.023-.188.05-.375.07-.563l.042-.564c.037-.376.042-.754.051-1.131.014-.375.008-.761.009-1.143V22.615c0-.765.006-1.534-.021-2.284-.108-3.02-.922-6.003-2.317-8.677-1.387-2.681-3.391-5.03-5.776-6.866a20.478 20.478 0 00-8.124-3.765A20.425 20.425 0 0042.91.567L40.624.57l-1.142.007a73.03 73.03 0 01-1.127.03 20.516 20.516 0 00-8.656 2.382 20.89 20.89 0 00-3.754 2.559 21.123 21.123 0 00-3.14 3.314z" fill="#231F20"/><path d="M50.145 13.35s.612-.127 1.098.307c0 0 .343.162.757 0 .414-.163 1.747-.814 2.954-.796 1.207.018 2.684.38 3.422.434.739.054 1.027-.018.63.18-.396.2-1.098.399-1.675.345-.576-.055-2.413-.091-3.152.009-.738.099-1.837.37-2.36.533-.522.163-.666.145-.63.434.036.29.108.611.217.767.108.156-.163.101-.505.101-.342 0-1.153-.198-1.387-.415-.234-.218-.198-.254 0-.453s.307-.597.198-.886c-.108-.29-.522-1.013-1.279-1.52-.756-.506-1.674-1.284-2.485-1.646-.81-.361-1.585-1.085-1.891-1.41-.306-.326-.415-.543 0-.38.414.163 2.053 1.03 2.683 1.338.63.308 1.063.615 1.567 1.085.505.47 1.423 1.34 1.838 1.972zM39.967 19.481s.267-.178.581-.065c0 0 .194.012.36-.145.167-.158.676-.724 1.254-.948.578-.224 1.35-.336 1.712-.453.361-.116.485-.206.334-.035-.15.171-.447.401-.731.486-.285.085-1.166.422-1.499.612-.332.19-.803.53-1.02.708-.218.178-.29.197-.218.328.073.13.169.27.25.323.08.053-.058.08-.22.146-.164.065-.588.127-.74.069-.153-.059-.143-.083-.087-.216a.474.474 0 00-.075-.46 1.83 1.83 0 00-.898-.476c-.457-.096-1.043-.288-1.497-.305-.455-.016-.962-.21-1.17-.307-.208-.096-.3-.178-.072-.18.228-.003 1.173.095 1.532.12.359.024.623.088.953.214.33.127.933.363 1.251.584zM23.195 48.822l.403-.51c.002-.002.2-.264.265-.706-.478.31-1.55.963-2.12.983l-.52.018.44-.277c.011-.007 1.095-.7 1.833-2.12l.247.13a6.44 6.44 0 01-1.356 1.772c.573-.255 1.259-.69 1.558-.895l.219-.151-.001.267c0 .242-.04.45-.091.622.653-.64 1.019-1.733 1.023-1.746l.154-.466.114.477c.187.775.47 1.179.712 1.39-.31-.584-.339-1.296-.34-1.335l-.012-.366.252.264c1.303 1.366 2.186 1.894 2.692 2.098a.753.753 0 01-.082-.129l-.143-.31.318.12c.73.272 1.295.322 1.67.31a7.02 7.02 0 01-2.463-1.661l-.307-.345.446.115c.291.075.816.08 1.194.072-.688-.476-1.64-1.305-1.865-1.503a1.202 1.202 0 01-.05-.044l.187-.208.05.043c.4.331 1.266.56 1.795.676a8.452 8.452 0 01-.215-.282l-.002-.003a.228.228 0 01-.051-.057c-.074-.128-.015-.194.027-.221.107-.07.176.012.24.1.15.094.763.278 1.342.42v-.313l.158.021c1.12.151 1.827-.014 2.18-.145a.164.164 0 01-.017-.052c-.014-.084.039-.162.137-.203l.018-.007c.34-.09.547-.219.67-.33-6.286.612-6.92-1.655-6.945-1.754l-.072-.293.27.135c.874.433 1.722.48 2.226.454-.428-.275-.56-.612-.566-.63l-.124-.33.316.154c.48.235 1.826.491 2.664.635a3.765 3.765 0 01-.257-.282l-.255-.31.392.084c.517.11 1.04.08 1.41.029a2.56 2.56 0 01-.38-.237l-.36-.281.455.03c.782.052 1.3-.192 1.595-.4-4.597.399-8.435-2.063-8.475-2.088l.152-.235c.04.025 4.035 2.582 8.713 2l.33-.042-.202.266c-.023.03-.528.678-1.624.775.112.051.236.094.357.11l.678.087-.658.187c-.036.01-.785.22-1.642.135.131.125.262.227.354.267l.123.02.968.145-.97.132a.402.402 0 01-.177-.021c-.468-.073-1.984-.32-2.865-.588.13.12.321.248.594.339l.48.16-.494.11c-.052.011-1.183.252-2.488-.25.474.586 2.016 1.695 6.762 1.177l.217-.024-.07.207c-.005.017-.12.345-.635.587l.145.012-.32.224c-.033.022-.788.533-2.49.339v.348l-.17-.04a13.074 13.074 0 01-1.108-.3.722.722 0 00.146.133l.676.384-.767-.124a9.932 9.932 0 01-1.357-.331c.476.39 1.032.823 1.368 1.002l.438.232-.494.031c-.038.002-.733.046-1.292.002.45.406 1.372 1.126 2.576 1.469l.4.113-.387.152c-.03.012-.668.252-1.805-.038l.014.007.387.195-.427.068c-.042.008-1.031.136-3.174-2.012.064.371.215.912.567 1.212l.302.256-.396-.01c-.038 0-.859-.037-1.326-1.429-.23.534-.714 1.46-1.436 1.834l-.576.298z" fill="#231F20"/><path d="M38.963 67.247c-.7 0-2.15-.282-4.279-2.09.304.59.708 1.311.94 1.507l.332.282-.433-.035a2.091 2.091 0 01-1.358-.745c.017.062.044.13.09.2l.242.383-.416-.178c-.077-.033-1.906-.826-2.26-1.657l.257-.11c.214.504 1.193 1.067 1.802 1.365a.788.788 0 01.062-.482l.126-.231.12.234c.255.495.664.732.967.844-.434-.624-.97-1.744-1.041-1.897l-.308-.651.528.488c2.357 2.174 3.939 2.482 4.627 2.488-.283-.282-.338-.69-.34-.714l-.025-.189.188.034c.526.096.919.152 1.208.184-1.222-.58-2.317-1.493-2.372-1.539l-.41-.344.525.099c1.955.367 3.152.413 3.85.374-2.873-.43-3.133-1.21-3.154-1.306l-.046-.206.207.038c.707.129 1.205.151 1.548.13-1.965-.26-3.937-.998-3.96-1.006l-1.068-.403 1.134.132c.412.049.757.002 1.018-.068-2.865-.076-3.922-.662-4.3-1.159-.271-.358-.19-.667-.187-.68l.04-.144.14.048c.824.284 1.963.49 2.686.604-.248-.219-.314-.415-.318-.428l-.078-.24.244.061c.924.23 1.594.244 2.033.2-6.422-1.155-7.885-2.24-8.178-2.796-.115-.216-.062-.357-.05-.384l.1-.22.14.196c.194.269 1.43.707 2.36.984-.022-.221.11-.428.127-.453l.082-.124.118.09c.465.355 1.494.5 2.047.555a7.367 7.367 0 01-.514-.783l-.248-.434.436.241c1.264.699 2.16.861 2.681.878-.543-.28-.749-.587-.76-.604l-.18-.276.323.062c2.204.423 3.281.27 3.758.119a27.178 27.178 0 01-2.255-.59l.063-.272c.618.094 1.346.005 1.928-.11-5.691-.134-7.643-1.87-7.728-1.948l-.672-.619.825.389c.23.107.477.147.684.157a4.18 4.18 0 01-.956-.83l-.58-.728.768.525c.806.55 1.916.713 2.651.756a2.811 2.811 0 01-.213-.121l-.594-.387.696.131c.602.114 1.476-.002 2.06-.107-7.103-1.701-7.736-4.595-7.76-4.721l-.078-.409.309.278a9.223 9.223 0 001.556 1.139 1.757 1.757 0 01-.085-.271l.274-.052a.503.503 0 00.005.021c.053.164.543.423 1.066.616-.041-.415.29-.93.34-1.003l.12-.183.114.188c.473.78 1.258 1.1 1.265 1.103l.041.025c.283.25.592.304.821.297-.747-.586-1.504-1.995-1.54-2.064l-.312-.585.52.409c1.588 1.245 2.76 1.6 3.416 1.69-.56-.357-1.133-.905-1.166-.936l-.314-.301.43.06c3.122.446 4.851.172 5.647-.054-1.016-.163-2.678-.626-2.767-.65l-.753-.21.78-.065c.213-.018.428-.07.62-.134-1.332-.052-3.342-.522-3.446-.546l-1.265-.298 1.299.021c1.162.02 1.354-.198 1.385-.264.035-.076-.046-.173-.046-.174l-.366-.423.52.2c.488.186 1.249.023 1.66-.093a.435.435 0 01-.059-.237l.007-.093.088-.03c.208-.07.434-.212.635-.364-3.36 1.127-8.177-.05-8.396-.104l.067-.272c.057.014 5.733 1.4 8.977-.19l.706-.346-.544.569c-.028.029-.651.677-1.24.928.02.025.054.04.101.043l.667.045-.63.227c-.048.017-1.078.385-1.86.252a.376.376 0 01-.033.177c-.078.172-.284.292-.625.36.997.196 2.482.436 3.13.295l.873-.19-.773.448c-.02.012-.374.214-.83.353.927.242 2.33.578 2.727.539l.608-.062-.521.32c-.063.04-1.55.915-5.932.361.36.31.932.763 1.305.853l.592.143-.595.13c-.06.014-1.386.279-3.697-1.346.383.61.948 1.38 1.394 1.552l.345.133-.347.13c-.032.011-.781.28-1.43-.278a3.199 3.199 0 01-1.25-1.017c-.142.27-.273.648-.113.792l.48.43-.614-.192a6.208 6.208 0 01-.934-.372l-.106.226c-.035-.015-.765-.317-1.71-1.069.56.936 2.362 2.9 7.934 4.114l.586.127-.582.146c-.056.014-1.1.272-2.05.291.073.024.148.045.224.062l.96.212-.981.065c-.072.005-1.438.087-2.692-.36.168.12.361.237.575.335l.399.184-.431.081c-.017.003-.24.044-.541.03 1.043.57 3.47 1.522 7.996 1.465l.897-.01-.85.284c-.054.017-.994.328-2.013.41.453.12 1.014.257 1.595.37l.256.049-.183.186c-.03.031-.752.723-3.884.197.183.134.454.29.838.414l.403.13-.4.136c-.045.015-1.045.337-2.99-.616.168.255.343.489.437.54l.525.292-.599-.028c-.07-.004-1.645-.083-2.43-.547a.314.314 0 00-.017.17c.008.03.027.074.101.112l1.194.617-1.295-.357c-.201-.056-1.64-.46-2.417-.866.519.507 2.313 1.498 8.493 2.556l.417.072-.377.192c-.035.017-.814.398-2.516.046.117.115.303.25.592.362l1.035.406-1.103-.136c-.082-.01-1.934-.24-3.25-.655.017.078.056.18.145.293.307.39 1.327 1.043 4.71 1.043h.436l-.343.253c-.02.015-.362.262-.96.354.907.288 2.478.724 3.896.807l.314.018-.224.222c-.046.045-.473.411-2.115.17.35.275 1.266.73 3.621.973l.439.045-.385.216c-.037.021-.914.486-4.343-.096.572.425 1.608 1.129 2.578 1.44l.458.148-.465.122c-.038.01-.396.084-1.867-.171.064.182.202.438.485.514l.448.121-.44.147a1.588 1.588 0 01-.477.058z" fill="#231F20"/><path d="M16.34 52.399a4.761 4.761 0 01-.13.252l.038-.031a.306.306 0 00.092-.221zm4.531 17.68l-.422-.285c-.022-.014-.51-.347-1.005-1.055a.597.597 0 01-.389-.058c-.187-.099-.325-.297-.41-.591-.312.29-.693.683-.747.847l-.266-.082c.15-.525.53-1.965.477-2.32a2.62 2.62 0 00-.048-.254c-.418.407-1.176 1.21-1.271 1.596l-.115.463-.153-.451a5.836 5.836 0 00-.248-.592c-.212.335-.666.94-1.286 1.134l-.354.11.193-.317c.004-.007.362-.599.563-1.305-.5.233-1.567.716-2.023.824l-.515.122.388-.361c.446-.416 1.395-1.392 1.878-2.197-.35.429-.829.909-1.316 1.079l-.268.093.09-.27c.075-.225.15-.542.162-.781-.307.43-.88 1.23-1.022 1.39l-.143.162-.25-.55c-.136.256-.356.639-.568.866l-.235.253-.006-.346c-.01-.511-.055-1.08-.121-1.416-.189.339-.553.861-1.081 1.057-.33.122-.673.1-1.022-.067l-1.648.667.847-.891-1.311.147c-.793.09-2.649-.162-2.727-.172l-.633-.087.61-.186c.034-.01 3.331-1.02 5.315-1.726 1.593-.566 3.127-1.204 3.836-2.038-.715.49-1.948 1.306-2.458 1.479-.703.237-1.017.352-1.02.353l-.118-.253a1.82 1.82 0 00.585-.63c-.367.188-.95.432-1.444.397l-.417-.033.353-.226c.006-.003.37-.238.762-.578-1.079.575-2.954 1.5-3.878 1.512l-.017-.28c-.015.002-.021.005-.022.005.002 0 .085-.042.18-.297-.304.033-.827.06-1.078-.11l-.21-.143.232-.102c1.057-.468 2.886-1.328 3.944-1.973-1.37.504-3.892 1.391-4.868 1.47l-.776.064.706-.33c.861-.402 2.008-1.096 2.266-1.565-.646.226-2.459.77-4.027.413l-.483-.11.469-.16c.517-.176 1.084-.431 1.357-.629-.834-.027-3.023-.157-3.475-.776l-.19-.26.318.038c.052.005 4.958.558 8.987-.957a8.188 8.188 0 01-2.105-.599l-.512-.221.556-.047c.071-.006 6.796-.604 8.971-3.328-.508.243-1.273.503-1.732.156l-.18-.136.201-.101c.028-.014 2.46-1.255 3.297-2.659-.623.596-1.269 1.11-1.528.981l-.142-.07c-.239.393-.576.792-.966.8l-.22.005.09-.201c0-.002.05-.122.064-.304-.268.565-.75 1.497-1.135 1.81l-.374.303.155-.458c.005-.016.12-.399-.185-.973-.245.313-.803.935-1.373.937l-.354.002.258-.244c.01-.01.93-.89 1.163-1.822-.378.536-1.02 1.35-1.514 1.484l-.417.112.272-.336a.578.578 0 00.101-.227c-.348.357-1.053 1.02-1.57 1.128l-.314.066.166-.276c.001-.002.091-.154.143-.37-.412.417-1.26 1.082-2.478 1.027L7.2 55.23l.373-.24c.019-.011 1.434-.922 2.407-1.71-.348.125-.736.212-1.021.131l-.314-.09.281-.166c1.397-.827 2.903-1.842 3.34-2.306l-.72.167.117-.228c-1.01.975-2.968 2.72-4.063 2.72l-.045-.001-.01-.28c-.002 0 .104-.033.164-.279a2.337 2.337 0 01-.886.364l-.429.067.31-.306a26.862 26.862 0 001.475-1.577c-.538.418-1.245.876-1.813.923l-.441.036.341-.284c.148-.123.35-.32.494-.508-.76.402-2.48 1.25-3.734 1.386l-.781.085.704-.35c.414-.205 1.405-.746 1.865-1.175-.17.009-.374-.004-.562-.075l-.29-.11.274-.146c.01-.004.636-.336 1.194-.734-.636.19-1.57.384-2.383.224l-.614-.12.607-.153a11.1 11.1 0 001.13-.349c-.86.163-2.163.25-3.468-.269l-.525-.208.56-.061c.075-.008 6.637-.735 9.175-1.87-.54.102-1.227.18-1.757.074l-.964-.194.98-.083c.075-.007.294-.045.402-.136-.5.03-1.741.043-2.175-.51l-.328-.419.491.203c.004.001.279.112.68.129-.571-.216-1.382-.58-1.753-1.019l-.299-.352.443.127c.065.018 6.564 1.812 12.42-1.436l.134.245c-4.93 2.735-10.305 1.956-12.049 1.596.708.455 1.792.779 1.806.783l.509.15-.517.121a2.602 2.602 0 01-.46.065c.478.072 1.012.05 1.278.021l.134-.015.02.134a.411.411 0 01-.121.36c.886-.013 1.91-.316 1.924-.32l.592-.177-.46.416c-1.357 1.23-7.428 2.064-9.437 2.31 1.877.483 3.64-.187 3.659-.195l.282-.11-.1.287c-.1.286-.765.559-1.35.748 1.082-.054 2.158-.513 2.171-.519l.643-.277-.488.504c-.396.41-1.087.84-1.505 1.082.215 0 .394-.048.396-.049l.305-.082-.144.282c-.174.341-.8.766-1.344 1.087 1.443-.431 3.056-1.35 3.076-1.36l.233-.134-.025.269c-.02.213-.196.46-.374.66.896-.378 1.946-1.4 1.958-1.413l.342-.335-.108.467c-.097.416-1.115 1.512-1.716 2.13.282-.144.477-.314.48-.317l.243-.215-.011.325a1.493 1.493 0 01-.103.533c1.474-.401 4.143-3.191 4.172-3.222l.671-.705-.698 1.355.57-.132.026.145c.08.457-1.766 1.67-3.145 2.505.437-.096.945-.35 1.162-.477l.794-.463-.62.679c-.579.631-1.986 1.603-2.702 2.08 1.27-.18 2.012-1.2 2.02-1.21l.213-.3.04.366c.024.231-.018.447-.07.613.492-.268 1.108-.89 1.341-1.15l.151-.17.083.211c.054.136.06.264.045.375.495-.386 1.11-1.27 1.345-1.645l.223-.354.035.417c.068.817-.502 1.658-.909 2.147.345-.23.659-.621.785-.808l.118-.175.114.177c.248.383.333.714.353.958.468-.63 1-1.855 1.006-1.87l.145-.335.116.347c.092.276.083.527.053.703.351-.208.708-.866.875-1.307l.11-.288.144.273c.13.245.145.441.117.588.337-.22.961-.777 1.48-1.311l.335-.344-.098.47c-.313 1.493-2.643 2.889-3.436 3.325.527.097 1.365-.341 1.688-.55l.469-.305-.271.49c-1.534 2.769-7.107 3.659-8.934 3.88 1.174.412 2.05.42 2.06.42h.672l-.618.268c-3.389 1.469-7.594 1.346-9.1 1.244.815.299 2.422.39 3.106.398l.182.002-.05.176c-.083.297-.706.604-1.196.803 1.708.175 3.57-.563 3.59-.571l.168-.068.023.18c.068.534-.846 1.171-1.599 1.6 1.773-.462 4.718-1.592 4.755-1.606l.495-.19-.338.41c-.525.639-3.409 1.983-4.44 2.45.247.017.554-.01.758-.045l.215-.036-.057.21a2.108 2.108 0 01-.139.385c1.413-.272 4.183-1.864 4.213-1.881l.598-.346-.417.552c-.296.39-.71.745-1.023.984.561-.142 1.114-.493 1.121-.498l.306-.196-.096.351a1.937 1.937 0 01-.341.679c.114-.04.244-.083.39-.133.686-.232 2.9-1.799 2.922-1.814l.369-.262-.158.425c-.45 1.216-2.346 2.036-4.328 2.74-1.462.52-3.634 1.205-4.696 1.535.623.068 1.534.146 2.006.093l1.694-.19.381-.042-.485.51.568-.23.057.03c.295.155.583.182.853.082.677-.25 1.067-1.198 1.071-1.207l.09-.224.15.19c.165.213.23.973.254 1.466.226-.343.422-.754.424-.76l.13-.27.31.683c.263-.347.778-1.067 1.062-1.468l.124-.174.11.182c.14.234.067.684-.01.994.747-.449 1.448-1.587 1.455-1.6l.227-.371.031.434c.059.791-1.131 2.123-1.816 2.819.705-.278 1.65-.728 1.662-.734l.254-.122-.058.277c-.104.502-.303.97-.457 1.283.536-.364.877-1.03.882-1.037l.12-.237.127.233c.109.201.197.394.26.546.364-.613 1.23-1.434 1.345-1.541l.047-.045.065.008c.108.013.195.118.264.59.045.305-.143 1.139-.3 1.75.229-.239.472-.456.55-.525l.187-.165.043.246c.057.33.167.548.317.63.132.072.26.02.265.017l.106-.045.066.095c.256.381.517.656.706.831-.02-.428.051-.98.062-1.063l.063-.457.201.415c.174.358.638.52.951.592-.835-1.32-.498-2.015-.483-2.046l.091-.178.136.146c.166.18.697.546 1.02.76.054-.19.135-.45.167-.554l.042-.136.135.045c.746.25 1.116.627 1.295.977.095-.429.208-.862.23-.945l.112-.426.153.413a4.153 4.153 0 001.74 2.103 5.927 5.927 0 01-.16-1.105l-.028-.605.29.531c.187.343.526.57.797.706-.316-.595-.59-1.527-.628-1.659l-.308-1.07.562.96c.238.406.957.69 1.404.833a5.778 5.778 0 01-.363-.97l-.204-.742.452.622c.454.625 1.636 1.284 2.26 1.604a4.712 4.712 0 01-.25-.852l-.099-.53.344.415c.246.299.522.532.752.7-.097-.242-.144-.46-.147-.477l-.08-.381.303.243c.46.368 1.431.663 2.104.834-.627-.546-1.086-1.284-1.11-1.325l-.26-.422.44.223.474.238a6.523 6.523 0 01-.492-.811l.25-.125c.003.007.405.81.868 1.241l.202.188-.27.053c-.045.009-.067.013-.661-.284.302.397.788.95 1.308 1.2l.98.47-1.066-.206c-.078-.015-1.69-.33-2.613-.84.07.193.172.403.299.512l.82.704-.972-.471c-.024-.012-.485-.239-.969-.688.072.227.171.475.296.626l.393.473-.558-.256c-.071-.032-1.471-.678-2.329-1.424.103.264.222.507.326.59l.468.382-.587-.136c-.049-.01-.933-.22-1.527-.637.18.526.441 1.189.658 1.393l.405.384-.537-.146c-.032-.009-.63-.176-1.076-.61.04.316.111.684.223.872l.214.357-.385-.155c-.058-.024-1.332-.55-2.05-2.045-.098.397-.2.847-.24 1.116a1.11 1.11 0 01-.022.246l-.213.843-.061-.867a1.371 1.371 0 01.02-.26c-.01-.315-.171-.902-1.13-1.268-.083.268-.16.53-.167.574l-.034.212-.18-.114c-.033-.02-.682-.44-1.051-.743-.028.292.029.904.687 1.828l.174.244-.298-.022c-.039-.003-.809-.067-1.262-.496-.033.38-.044.817.026.966l.22.462zM17.9 44.077c-.222 0-.462-.026-.716-.09l-.407-.106.389-.16c.018-.008 1.497-.625 2.503-1.577-.325.14-.714.274-1.038.283l-.47.013.387-.269c.004-.003.36-.254.509-.692-.458.392-1.34 1.088-1.92 1.183l-.403.066.278-.3c.023-.025.065-.064.12-.116.156-.145.44-.41.651-.704-.513.451-1.244 1.057-1.543 1.122l-.612.134.497-.383c.08-.06.224-.19.34-.34-.64.449-1.907 1.176-2.856.71l-.332-.162.356-.098c.016-.005 1.362-.385 2.078-1.002-.524.192-1.362.435-2.152.41l-.691-.024.646-.247c.356-.136.697-.297.937-.435-.702.137-1.895.29-2.287-.158l-.172-.196.258-.036c.035-.005 2.892-.402 4.38-.817-.282-.019-.55-.069-.664-.18l-.16-.157.21-.076c.032-.01 3.088-1.114 3.98-2.212l.217.177c-.754.928-2.847 1.814-3.718 2.154.254.028.609.03.924.008l.602-.04-.522.302c-.734.424-3.635.887-4.764 1.054.557.108 1.534-.047 2.157-.21l.193-.05-.019.2c-.019.2-.333.418-.697.605a7.53 7.53 0 001.75-.54l.38-.18-.198.372c-.364.689-1.5 1.175-2.143 1.402 1.11.099 2.518-1.083 2.534-1.096l.217-.184.012.285a.705.705 0 01-.054.29c.406-.32.89-.746 1.229-1.06l.286-.266-.054.388c-.05.373-.328.748-.6 1.043.678-.402 1.428-1.098 1.438-1.107l.24-.223-.005.328a1.578 1.578 0 01-.356.96c.55-.155 1.14-.502 1.147-.507l.587-.348-.403.552c-.708.97-2.01 1.69-2.682 2.017.865.068 1.492-.325 1.5-.329l.15.236c-.03.02-.61.383-1.443.383z" fill="#231F20"/><path d="M18.63 38.024l.235-.287c-.572.248-.999.24-1.022.24l-.816-.023.777-.25c.42-.137.533-.564.537-.582l.271.068a1.218 1.218 0 01-.208.415c.268-.078.61-.22.969-.483l.884-.648-.94 1.15c.215-.053.45-.132.564-.233l.185.21c-.292.26-1.004.364-1.084.375l-.352.048z" fill="#231F20"/><path d="M16.075 38.028l.547-.289c.2-.106.485-.294.676-.487-.372.126-.918.257-1.26.101l-.302-.136.308-.122c.02-.008 1.786-.712 2.54-1.658a1.116 1.116 0 01-.222.028l-.222.005c-.322.33-.75.71-1.123.855l-.345.134.17-.329c.006-.01.101-.205.032-.4-.22.43-.76 1.338-1.445 1.463l-.319.058.178-.273c.004-.006.31-.481.424-.938-.468.56-1.436 1.587-2.352 1.737l-.573.094.468-.345c.057-.042.167-.138.264-.257-.347.14-.897.305-1.495.272l-.65-.036.608-.235c.208-.08.69-.302.97-.553-.301.022-.725.028-.944-.082l-.278-.14.289-.115c.165-.066.473-.2.777-.353-.833.195-2.065.359-3.046-.034l-.512-.206.548-.064c.044-.005 3.981-.476 5.572-1.435-.516.086-1.262.164-1.766.013l-.373-.112c-.421.099-.844.157-1.071.072l-.308-.114.296-.143c.227-.11.462-.272.58-.408-.406.084-1.23.196-1.941-.063l-.595-.216.63-.055c.471-.042.99-.143 1.273-.26-.575-.098-1.761-.367-2.308-.967l-.297-.324.429.093c.088.018 8.51 1.799 10.828-1.326-.434.202-1.09.466-1.508.45l-.534-.02.476-.244c.006-.004.588-.308.662-.794l-2.335.68-.078-.269 2.677-.78.018.166c.04.38-.145.681-.349.892.588-.174 1.273-.543 1.282-.548l.394-.214-.203.401c-1.7 3.347-8.684 2.374-10.794 1.995.792.437 1.98.577 1.995.579l.183.02-.07.172c-.088.218-.466.359-.855.447.632.015 1.187-.142 1.195-.144l.144-.042.031.147c.051.241-.166.47-.392.635.482-.062 1.192-.277 1.647-.445l.238-.087-.053.248c-.036.169-.166.293-.313.382.75.023 1.666-.203 1.678-.206l.447-.111-.31.342c-.904.995-4.064 1.565-5.49 1.777 1.425.212 3.098-.41 3.117-.418l.56-.21-.409.437c-.238.256-.813.547-1.221.733a5.01 5.01 0 00.679-.044l.25-.035-.104.232c-.105.234-.375.444-.644.605a3.688 3.688 0 001.014-.36l.267-.154-.06.302a.948.948 0 01-.141.328c.98-.499 1.934-1.793 1.945-1.809l.2-.271.05.333c.06.382-.129.86-.291 1.186.567-.394.988-1.353.994-1.365l.078-.18.144.133c.19.176.24.392.23.578.581-.372 1.233-1.175 1.24-1.184l.231-.287.017.368a.822.822 0 01-.054.314c.146-.048.245-.116.247-.116l.423-.296-.217.47c-.403.87-1.664 1.578-2.39 1.926.346-.055.73-.2.905-.28l.246-.11-.052.266c-.045.226-.246.443-.458.617.237-.074.369-.159.371-.16l.153.234c-.017.011-.437.285-1.145.313l-.618.025z" fill="#231F20"/><path d="M20.79 22.41c-.1.031-.214.066-.339.102l.188-.015c.003-.001.07-.012.151-.087zm7.226 17.013c-.172 0-1.291-.015-2.182-.405l.112-.257c.485.212 1.059.307 1.482.349a3.2 3.2 0 01-.467-.508l-.316-.436.488.226c.858.4 1.658.402 2.191.331-2.29-.424-3.126-1.028-3.417-1.48-.195-.302-.14-.525-.134-.55l.07-.255.171.203c.262.312 1.024.474 1.656.55a3.059 3.059 0 01-.598-.457l-.345-.362.482.13c.555.149 1.03.191 1.4.187-1.911-.41-2.345-1.307-2.366-1.35l-.143-.313.32.123a18.8 18.8 0 001.631.515c-.124-.295-.156-.616-.158-.634l-.052-.535.306.441c.193.28.622.483.988.614a4.254 4.254 0 01-.618-.982l-.155-.356.346.175c.712.36 1.81.696 2.437.872-.047-.081-.055-.141-.048-.184l.026-.156.15.045c.715.21 1.23.263 1.573.26-1.02-.353-2.567-1.015-2.646-1.049l.096-.263c.707.221 1.782.34 2.43.396a1.595 1.595 0 01-.147-.183l-.175-.258.308.04c.273.036.662-.15.968-.338a1.539 1.539 0 01-.524-.121l-.58-.282.645.015c.404.014.79-.105 1.107-.245-4.17.786-7.584-1.482-7.62-1.507l.148-.237c.78.46 2.41.66 3.134.729a1.569 1.569 0 01-.203-.539l-.034-.216.21.06c.457.133.82.168 1.093.162-.635-.135-1.242-.338-1.278-.35l-1.072-.36 1.128.087a4.49 4.49 0 002.14-.375c-4.07.802-6.385-1.224-6.41-1.246l-.65-.585.8.352c.186.082.625.082 1.032.057-.928-.381-1.824-1.092-1.871-1.13l.163-.227c.188.124.579.21.857.257-.022-.22.066-.466.091-.532l.057-.147.139.075c.286.154.632.188.909.186a.52.52 0 01-.16-.197.32.32 0 01-.006-.264l.053-.108.114.036c.527.168 1.154.054 1.586-.07-2.376-.464-4.058-2.118-4.133-2.193l-.507-.505.659.276c.485.203 1.26.346 1.804.427-.465-.355-.867-.794-.89-.82l-.467-.513.629.291a8.264 8.264 0 002.02.615 5.597 5.597 0 01-1.435-.93l-.657-.626.814.399c.91.445 2.59.486 3.45.477-.16-.118-.203-.212-.215-.25l-.061-.2.208.02c.125.011.262-.011.394-.05h-.02c-4.477 0-6.235-1.866-6.311-1.95l-.879-.963 1.063.754c.5.356 1.04.523 1.413.601a.507.507 0 01-.071-.308l.024-.162.156.05c.148.047.33.058.498.052-1.019-.531-1.884-1.479-1.926-1.525l-.32-.354.46.124c.14.038.407.086.627.122-.304-.444-.545-1.034-.558-1.065l.246-.13c.07.107.684.514 1.316.899a.593.593 0 01.16-.191l.042-.032.05.003c.133.007.242.005.332-.002a3.423 3.423 0 01-.578-.404l-.437-.391.567.151c.271.073.563.06.814.02-2.458-.432-3.706-1.725-3.917-1.962a.355.355 0 01-.036-.043l.22-.172a.957.957 0 00.036.04c.184.163.856.295 1.467.367-.092-.107-.138-.193-.141-.2l-.138-.265.291.063c.345.076.89.03 1.295-.023-1.962-.784-2.706-2.054-2.74-2.111l-.407-.713.62.536c.061.053.241.132.447.21l-.035-.046a.201.201 0 01-.015-.02l.228-.162a.069.069 0 00-.015-.014c.055.034.28.066.54.087-.71-.771-1.547-2.534-1.588-2.62l-.095-.201h.643c-.582-.87-.935-2.406-1.127-3.521-.085 1.044-.238 2.402-.479 2.982-.307.739-.891 2.053-1.15 2.633a2.27 2.27 0 00.647-.495l.175-.203.066.26c.027.11.034.204.027.283.196-.083.239-.132.241-.135 0 0-.009.011-.015.032l.271.067c0 .006-.002.012-.005.02-.4 1.447-1.844 2.51-2.753 3.052.458-.125.844-.29.85-.293l.265-.114-.075.28c-.04.148-.203.336-.371.498.435-.108.944-.27.951-.271l.193-.061-.011.202a.535.535 0 01-.087.24 2.36 2.36 0 00.296-.193l.287-.22-.064.357c-.083.456-.921 1.02-1.569 1.393.17-.045.349-.096.516-.148l.647-.198-.517.44c-1.5 1.275-3.545 1.718-4.514 1.862.63.143 1.234-.081 1.242-.084l.242-.092-.056.254c-.032.142-.143.272-.276.381.528-.173 1.105-.578 1.344-.775l.368-.302-.147.454a3.64 3.64 0 01-.31.696c.83-.334 1.273-.888 1.278-.894l.223-.283.026.36c.02.278-.025.526-.086.723a6.784 6.784 0 001.037-1.1l.273-.375-.021.463c-.019.41-.235.822-.402 1.08.173-.052.37-.14.5-.209l.54-.286-.364.493c-.559.76-1.74 1.52-2.41 1.915.742-.1 1.737-.457 1.75-.461l.286-.103-.11.285a1.101 1.101 0 01-.22.37c.175.012.385.009.539-.003l.357-.026-.245.262c-1.438 1.538-5.862 2.168-7.882 2.38 1.538.182 2.707-.148 2.72-.152l.75-.217-.628.465c-.19.14-.45.266-.71.37 1.029-.17 2.18-.608 2.196-.614l.388-.149-.22.354c-.06.097-.211.19-.387.27.41-.063.863-.186 1.085-.256l.366-.116-.206.325c-.342.538-2.024.876-3.396 1.068l-.242.252c-.189.198-.536.377-.831.506 1.1.016 2.784-.527 2.804-.533l.305-.1-.136.292c-.11.238-.536.492-.926.683.147-.028.307-.064.464-.105l.413-.11-.268.333a2.483 2.483 0 01-.357.33c.464-.14.724-.406.96-.65.095-.097.185-.19.284-.27.425-.343 1.027-.593 1.052-.603l.174-.072.018.189c.02.212-.178.475-.364.67a2.868 2.868 0 001.034-.27L20.28 27l.05.158c.032.097.02.201-.032.302-.184.352-.918.686-1.467.894.847-.012 1.693-.34 1.703-.343l.24-.094-.052.253c-.228 1.097-2.938 1.267-4.271 1.284.762.199 1.648.084 1.66.083l.212-.028-.06.206c-.062.217-.508.393-.769.479l-.087-.267c.07-.023.138-.048.204-.075-.538.01-1.364-.046-1.923-.427l-.396-.27.479.014c1.105.033 3.827-.06 4.523-.782-.482.147-1.385.358-2.15.18l-.51-.119.501-.151c.569-.173 1.48-.53 1.813-.84a3.066 3.066 0 01-1.21.17l-.342-.024.261-.223c.144-.122.29-.274.393-.407a3.906 3.906 0 00-.656.41c-.085.068-.17.155-.26.247-.335.345-.753.775-1.704.825l-.503.027.418-.283c.08-.055.232-.161.382-.277-.335.06-.674.088-.809-.014l-.202-.152.236-.091c.292-.112.663-.28.957-.447-.794.212-2.11.495-2.831.275l-.424-.129.42-.138c.007-.002.45-.15.825-.35-.353.014-.796-.007-1.056-.161l-.381-.227.442-.034c1.296-.1 3.115-.343 4.178-.686-.386.067-.788.097-1.02-.003l-.12-.053c-.688.188-1.51.35-2.075.265l-.705-.107.693-.168c.006-.002.34-.084.724-.22a8.156 8.156 0 01-2.847-.209l-.84-.217.866-.058c.066-.005 6.336-.446 8.443-2.136-.22-.003-.476-.025-.616-.103l-.34-.189c-.518.14-1.133.264-1.506.201l-.408-.069.367-.193c.017-.01 1.505-.798 2.405-1.663a.932.932 0 01-.377.044l-.241-.039.156-.189c.003-.003.209-.255.364-.584-.288.32-.694.715-1.117.951l-.546.305.365-.51a1.71 1.71 0 00.25-.676 3.767 3.767 0 01-1.54.845l-.415.113.27-.336c.003-.003.157-.197.311-.508-.454.304-1.2.718-1.764.601l-.438-.09.411-.176c.134-.057.3-.146.435-.244-.395.069-1 .088-1.542-.245l-.373-.228.436-.031c.026-.002 2.422-.187 4.3-1.413-.698.173-.747.084-.789.01l-.072-.13.133-.065c.553-.27 1.348-.726 1.803-1.124a.643.643 0 01-.331.038l-.277-.059.215-.185c.056-.048.114-.106.165-.164-.361.106-.923.262-1.186.279l-.456.03.363-.281c.124-.097.279-.23.409-.358-.364.125-.884.274-1.321.282l-.68.013.62-.28c.026-.013 2.483-1.144 3.235-2.926a4.005 4.005 0 01-.302.113l-.753.25.623-.494s.016-.015.03-.05c-.2.171-.505.382-.845.442l-.26.047.109-.242c.008-.02.877-1.955 1.275-2.914.39-.938.547-4.209.548-4.242l.278-.007c.004.037.38 3.724 1.424 4.945l.198.231h-.783c.378.767 1.198 2.28 1.709 2.583l.468.278-.544-.017a7.084 7.084 0 01-.643-.044.783.783 0 00.086.08l.03.01.465.142-.469.127c-.032.01-.072.02-.144-.022a10.149 10.149 0 01-.501-.171c.431.487 1.302 1.261 2.763 1.726l.518.166-.534.106c-.043.008-.918.18-1.587.15a.942.942 0 00.211.143l.641.314-.712-.049a9.65 9.65 0 01-1.35-.186c.682.522 1.95 1.26 3.84 1.447l.544.055-.503.214c-.027.012-.524.22-1.092.23.135.083.292.164.453.216l.264.085-.225.162c-.037.026-.244.153-.803.133-.03.031-.052.066-.052.08.002 0 .008.008.029.02l-.143.242a23.962 23.962 0 01-1.185-.747c.135.261.31.557.484.734l.295.299-.414-.061c-.018-.003-.284-.042-.552-.09.42.401 1.196 1.064 1.975 1.338l.476.167-.494.103a3.176 3.176 0 01-.9.047.62.62 0 00.256.18l.692.296-.751-.026c-.021-.001-.274-.011-.637-.098 1.06.542 2.858 1.128 5.58 1.014l.516-.022-.436.28c-.02.013-.412.262-.832.344.081.048.195.105.352.165l.618.232-.659.039c-.093.005-1.91.106-3.292-.21.486.308 1.202.66 2.048.772l-.016.279c-.065 0-1.45.01-2.947-.517.257.23.574.483.857.612l.774.354-.846-.087a14.878 14.878 0 01-1.846-.315c.743.585 2.225 1.565 4.012 1.755l.51.055-.468.212c-.047.022-1.08.486-2.019.332.071.048.183.103.356.156l.523.157-.534.114c-.034.007-.794.165-1.434-.096-.038.154-.044.308.007.353l.335.295-.442-.05a5.428 5.428 0 01-.325-.048c.494.315 1.154.676 1.717.77l.925.152-.93.125c-.1.013-.742.095-1.277.082.929.576 3.234 1.62 6.65.624l.666-.194-.54.438c-.044.036-.916.73-2.253.895.354.09.756.175 1.083.197l.41.028-.342.229c-.024.016-.567.365-1.762.08.052.142.143.317.293.415l.451.29-.535-.033a16.679 16.679 0 01-1.908-.244c1.526.621 4.011 1.261 6.732.463l.657-.192-.53.435c-.023.02-.379.309-.898.527l.303-.056-.434.348c-.032.026-.688.547-1.27.66.091.085.202.164.308.178l-.025.279c-.049-.003-.792-.042-1.611-.154.684.273 1.453.564 1.85.659l.38.09-.352.172c-.025.012-.585.273-1.947-.057.028.024.058.05.093.078l.505.403-.626-.158c-.069-.017-1.529-.387-2.602-.85.178.309.474.735.832.93l.82.447-.915-.186c-.043-.01-.879-.183-1.432-.573a.99.99 0 00.19.363l.327.349-.463-.117c-.01-.002-.773-.195-1.505-.439.385.338 1.19.812 2.77.97l.6.06-.565.21c-.034.014-.727.264-1.878.077.19.122.435.252.727.353l.845.292-.894-.02c-.072 0-1.516-.038-2.284-.451a.776.776 0 00.024.037c.246.359 1.08 1.024 3.897 1.448l.507.076-.475.192c-.052.02-1.144.451-2.517.03.155.14.33.262.487.285l-.019.28h-.02zM32.488 62.852l.687.503c.114.082.229.164.343.242a1.8 1.8 0 00.338.19l-.087.225c-.037-.02-.04-.026-.054-.038a.338.338 0 01-.063-.089.564.564 0 01-.04-.108 1.084 1.084 0 01-.029-.202c-.007-.131.005-.256.02-.38l.02-.17.163.062c.15.056.307.104.461.154.156.049.312.095.47.134.312.082.63.148.946.16l-.029.195c-.1-.04-.188-.088-.277-.138a2.401 2.401 0 01-.257-.167 1.689 1.689 0 01-.422-.434c.148.136.313.242.485.332a3.305 3.305 0 00.534.218l.508.159-.536.035a3.706 3.706 0 01-1.015-.098c-.33-.077-.65-.171-.966-.295l.184-.11a2.565 2.565 0 00-.028.334c.001.053.004.106.013.153.005.022.01.044.017.06.003.008.007.014.01.018a.023.023 0 01.001.004c-.003-.001.006.001-.019-.011l-.086.226c-.166-.07-.268-.164-.384-.253a7.656 7.656 0 01-.907-.911zM17.61 61.14a3.567 3.567 0 01-.765.885l-.023-.042a18 18 0 001.1-.456c.181-.083.36-.17.533-.263.17-.096.345-.198.477-.326l.244-.238-.143.308a6.467 6.467 0 01-1.055 1.576c-.21.237-.443.455-.692.654a4.983 4.983 0 01-.801.52l-.058-.192c.336-.053.676-.13 1.001-.233.323-.105.645-.237.898-.435l.314-.245-.125.375a8.047 8.047 0 01-.356.892c-.07.145-.143.289-.228.428a2.272 2.272 0 01-.3.4l-.143-.202a12.532 12.532 0 001.524-.907 6.37 6.37 0 00.689-.547c.212-.198.414-.41.549-.651l.405-.723-.152.817-.112.602-.05.3a2.842 2.842 0 00-.034.284l-.255-.074.934-1.483.242-.384.003.456c.002.267.021.545.065.81.023.133.05.265.09.39.04.124.09.245.157.342l-.23.061.117-1.048.055-.485.184.452a9.228 9.228 0 00.825 1.553c.164.242.338.479.54.685.2.206.423.393.676.513l-.128.145a4.568 4.568 0 01-.333-.724 2.203 2.203 0 01-.102-.393.803.803 0 01.03-.432l.082-.2.078.202c.077.199.166.397.265.587a3 3 0 00.164.272.691.691 0 00.2.207l-.105.066.008-.564.003-.148.108.1c.187.17.392.327.607.462.217.132.45.246.696.286l-.047.036.044-.326.007-.05.045.022c.352.17.737.299 1.131.314l-.01.027-.52-.492.54.469.03.026h-.04a2.208 2.208 0 01-.595-.078 3.491 3.491 0 01-.568-.201l.052-.029-.033.328-.005.042-.042-.005c-.267-.035-.512-.147-.74-.276a4.335 4.335 0 01-.641-.457l.111-.05.005.565.001.123-.106-.058c-.121-.065-.192-.159-.26-.25a3.03 3.03 0 01-.18-.285 6.002 6.002 0 01-.285-.6l.159.002a.641.641 0 00-.011.336c.021.12.056.24.1.358.089.235.203.468.33.683l.164.277-.291-.131a2.613 2.613 0 01-.75-.544 4.908 4.908 0 01-.579-.706 9.403 9.403 0 01-.86-1.595l.238-.032-.11 1.049-.036.335-.194-.274a1.514 1.514 0 01-.196-.413 2.987 2.987 0 01-.101-.425 5.476 5.476 0 01-.074-.856l.244.072-.924 1.489-.274.44.018-.514c.005-.126.021-.221.036-.327.015-.103.034-.204.052-.306l.117-.608.254.095c-.163.283-.382.507-.608.715-.227.208-.47.393-.72.565a12.974 12.974 0 01-1.564.918l-.67.33.527-.533c.1-.1.186-.224.266-.352.08-.128.151-.265.218-.404.134-.277.25-.57.35-.86l.188.13c-.3.233-.642.36-.982.463a7.014 7.014 0 01-1.041.222l-.578.08.52-.273a4.79 4.79 0 00.778-.485c.243-.187.474-.394.683-.621a6.66 6.66 0 001.063-1.514l.101.07c-.16.145-.338.238-.516.331-.18.09-.363.172-.547.25-.368.153-.741.293-1.119.422l-.136.046.113-.088c.305-.238.58-.521.796-.848z" fill="#231F20"/><path d="M25.462 64.604a3.47 3.47 0 01-.517-.344 2.922 2.922 0 01-.437-.446 2.426 2.426 0 01-.494-1.155l-.018-.11.11.032c.286.081.566.169.846.266.279.097.556.2.827.337l-.136.144-.535-.86-.202-.326.353.156c.473.209.96.398 1.45.56.491.16.993.3 1.494.354l-.051.267a.85.85 0 01-.367-.236.818.818 0 01-.203-.385l-.049-.219.217.053c.398.097.801.184 1.204.256.202.036.404.067.606.091.2.023.405.041.596.03l-.05.236-.838-.45-.422-.226h.479c.268.001.541-.001.81-.017.133-.01.268-.02.398-.039.127-.02.267-.047.351-.097l.028.168a15.239 15.239 0 01-1.737-.671 8.524 8.524 0 01-.823-.438c-.263-.162-.523-.35-.703-.605.199.24.467.403.735.55.27.145.551.272.837.387.572.224 1.154.43 1.744.596l.206.057-.177.11c-.151.094-.288.114-.428.144a5.138 5.138 0 01-.415.055c-.276.025-.55.04-.828.04l.057-.226.843.44.395.207-.444.03a3.777 3.777 0 01-.642-.025c-.21-.022-.416-.052-.622-.086a19.766 19.766 0 01-1.225-.246l.168-.166a.575.575 0 00.248.355c.04.027.093.052.127.065l1.19.415-1.242-.148c-.538-.064-1.048-.214-1.548-.383a16.35 16.35 0 01-1.468-.587l.151-.17.508.877.186.32-.322-.175a6.707 6.707 0 00-.791-.354 15.972 15.972 0 00-.826-.29l.093-.08a2.328 2.328 0 00.413 1.123c.234.334.544.613.89.839zM11.281 58.93c-.218.102-.44.195-.662.287a15.735 15.735 0 01-1.355.501 4.77 4.77 0 01-.716.18l-.005-.253c.419.014.846.012 1.267-.018a7.25 7.25 0 001.245-.179l.4-.096-.267.303a1.974 1.974 0 01-.45.378 1.308 1.308 0 01-.561.193l-.032-.204c.307-.06.617-.13.922-.212.307-.08.607-.179.898-.31-.264.182-.562.31-.859.43-.149.06-.302.109-.454.159-.153.05-.306.095-.464.135l-.032-.203a1.12 1.12 0 00.455-.19 1.801 1.801 0 00.377-.34l.133.207c-.425.12-.86.176-1.293.208a9.539 9.539 0 01-1.303-.008l-.005-.252c.221-.026.455-.085.685-.14.23-.058.46-.123.69-.186l1.386-.39zM11.604 60.167a5.74 5.74 0 01-.502.55c-.181.172-.373.334-.591.465l-.028-.092c.168-.027.34-.085.501-.15.164-.066.323-.143.477-.229.153-.087.302-.182.445-.286.144-.103.28-.215.414-.33l.214-.185-.059.279-.162.765-.17-.113c.244-.19.487-.384.722-.584.117-.101.233-.203.341-.31.104-.102.22-.227.262-.316l.359-.758-.108.823-.077.592-.22-.123.702-.59.305-.257-.083.387a2.53 2.53 0 01-.52 1.073 2.114 2.114 0 01-.438.409c-.162.12-.346.204-.531.279l-.06-.263a6.59 6.59 0 001.961-.595c.312-.145.605-.328.88-.532.279-.203.518-.452.741-.714l.24-.281-.096.352c-.117.429-.239.856-.364 1.283l-.08-.052c.406-.308.811-.617 1.222-.919-.383.337-.772.666-1.16.998l-.113.097.033-.15c.097-.433.198-.866.304-1.298l.144.07c-.223.281-.464.551-.747.773a5.13 5.13 0 01-.898.587c-.319.162-.65.298-.99.408a6.092 6.092 0 01-1.049.243l-1.018.136.958-.399c.162-.067.324-.14.464-.248.144-.1.274-.223.384-.361a2.361 2.361 0 00.463-.945l.223.13-.704.587-.27.224.05-.347.085-.59.251.066a.901.901 0 01-.158.229c-.056.064-.114.12-.172.175a7.152 7.152 0 01-.359.315 12.67 12.67 0 01-.75.573l-.242.172.07-.285.189-.76.155.095a5.923 5.923 0 01-.44.327 4.94 4.94 0 01-.471.28c-.163.082-.33.158-.504.215a2.533 2.533 0 01-.537.126l-.254.026.226-.118c.214-.112.413-.26.601-.419.187-.161.37-.328.54-.51z" fill="#231F20"/><path d="M22.32 59.467c-.149.268-.307.53-.475.787a5.816 5.816 0 01-.27.374c-.098.119-.196.24-.337.327l-.031-.06.765-.433.074-.042-.005.087-.041.633-.1-.04.72-.93.084-.109.042.133c.071.227.15.454.237.675.044.11.09.22.142.324.05.102.111.212.175.272l-.14.05.113-.645.023-.13.114.067c.134.08.258.167.38.262.121.095.237.2.341.322l-.177.068a7.77 7.77 0 00-.041-.474 3.056 3.056 0 00-.083-.456l-.084-.3.254.181c.363.26.741.503 1.124.73.192.11.388.217.587.308.196.086.412.168.587.166l-.069.22c-.305-.25-.594-.512-.87-.795a5.314 5.314 0 01-.392-.45c-.12-.162-.24-.331-.297-.562l-.084-.332.287.199c.345.24.707.465 1.076.665.185.1.374.19.565.268.19.077.39.14.57.146l-.113.221c-.156-.209-.303-.42-.443-.64a6.101 6.101 0 01-.201-.336 2.189 2.189 0 01-.173-.373l-.112-.338.31.177c.305.175.616.342.93.5.157.078.316.152.475.222.158.068.322.133.477.17l-.11.227a.734.734 0 01-.137-.162.64.64 0 01-.083-.198.512.512 0 01-.001-.225.625.625 0 01.082-.201l.058-.102.109.056c.365.19.742.368 1.121.528.19.078.382.154.575.215.188.058.4.114.553.097l-.035.224a2.466 2.466 0 01-.524-.414 1.31 1.31 0 01-.343-.597l-.046-.201.194.07c.319.115.647.218.976.303.164.043.33.08.496.107.165.026.334.047.489.032l-.027.179c-.416-.19-.83-.382-1.243-.582-.206-.1-.411-.2-.615-.306-.203-.108-.406-.207-.603-.351l-.421-.31.487.196c.33.132.676.241 1.027.308.175.034.353.057.53.057.177-.001.356-.02.516-.091l.009.062a6.811 6.811 0 01-.877-.22 3.153 3.153 0 01-.42-.17c-.13-.07-.27-.15-.337-.29.072.136.214.21.346.274.136.062.279.109.422.151.287.082.581.145.876.19l.106.016-.097.047c-.17.082-.359.107-.542.114a2.834 2.834 0 01-.549-.041 5.694 5.694 0 01-1.06-.284l.067-.114c.176.12.386.222.587.324.204.1.41.197.617.292.413.19.83.376 1.249.556l.324.14-.35.039c-.19.02-.366 0-.54-.024a5.802 5.802 0 01-.516-.1c-.34-.082-.671-.18-1.003-.292l.148-.13a1.1 1.1 0 00.293.482 2.24 2.24 0 00.47.367l.31.18-.345.043a1.034 1.034 0 01-.356-.018c-.11-.02-.212-.051-.316-.081a7.517 7.517 0 01-.596-.22c-.39-.16-.77-.338-1.145-.529l.167-.045a.303.303 0 00-.046.232.376.376 0 00.05.117.49.49 0 00.084.1l.395.344-.505-.117a3.172 3.172 0 01-.525-.182 9.982 9.982 0 01-.49-.225 19.082 19.082 0 01-.947-.501l.197-.16c.035.103.092.214.153.322.06.107.126.214.194.32.138.211.282.421.43.624l.172.234-.284-.012c-.25-.01-.46-.087-.666-.17-.204-.084-.4-.18-.59-.284a11.63 11.63 0 01-1.101-.689l.203-.133c.035.149.136.313.247.46.113.148.238.29.37.429.263.274.548.536.842.778l.267.222-.336-.002c-.279-.001-.49-.1-.704-.192a7.31 7.31 0 01-.608-.323 13.549 13.549 0 01-1.133-.76l.17-.118c.044.17.063.331.08.494.017.163.027.324.034.488l.011.297-.188-.228a2.808 2.808 0 00-.66-.553l.136-.063-.124.643-.03.158-.11-.108c-.109-.108-.156-.219-.212-.33a4.903 4.903 0 01-.141-.34c-.085-.228-.16-.457-.229-.69l.126.025-.746.91-.117.143.017-.183.06-.632.07.045-.778.41-.031-.059c.123-.07.228-.187.326-.3.098-.117.19-.24.28-.362.178-.249.346-.505.506-.766zM16.745 55.723c-.16.174-.34.328-.537.462a1.981 1.981 0 01-.647.296l-.006-.052c.343-.024.684-.1 1.014-.2.33-.103.65-.237.954-.398l.356-.19-.29.282c-.45.434-.914.852-1.397 1.25-.241.2-.487.393-.746.574-.129.09-.261.177-.401.255-.143.075-.283.155-.48.17l-.014-.19c.393-.07.787-.16 1.174-.267a9.347 9.347 0 001.134-.388l.36-.151-.218.325c-.112.167-.23.325-.358.48-.128.153-.26.304-.435.434l-.1-.216a5.77 5.77 0 00.735-.269 5.89 5.89 0 00.695-.362c.22-.138.429-.295.62-.467.189-.176.353-.374.49-.588l.41-.645-.173.743-.256 1.103-.22-.13.782-.724.187-.172.041.257c.018.113.058.248.101.37.044.125.096.247.153.368.116.24.25.474.4.697l-.25.088a7.035 7.035 0 01-.002-.838c.018-.28.048-.561.15-.845l.254.017c-.006-.02-.001-.002.003.001.003.007.01.015.015.024a1.278 1.278 0 00.146.154c.076.066.16.128.245.188.173.117.357.224.545.325l-.185.144-.494-2.1-.198-.845.425.757c.184.329.386.654.6.964.108.155.222.305.341.448.118.14.25.277.389.36l-.156.138c-.116-.322-.231-.64-.325-.975-.011-.043-.023-.084-.031-.133a.411.411 0 01-.008-.09c.01-.036.007-.077.091-.102.044-.005.041.002.053.004l.027.011c.017.01.032.02.04.028.074.064.128.12.191.176a3.5 3.5 0 00.387.308c.271.185.572.325.89.403.32.08.652.095.98.06l-.026.142a12.09 12.09 0 01-.843-.51 7.166 7.166 0 01-.402-.287c-.129-.105-.259-.21-.36-.358l-.12-.18.188.11c.206.12.422.229.645.315.112.043.226.08.342.105.115.024.235.04.348.02l-.01.052a3.71 3.71 0 01-.59-.51 2.048 2.048 0 01-.24-.308 1.052 1.052 0 01-.15-.357c.029.127.091.243.163.349.072.107.158.203.25.295.181.181.386.342.598.483l.058.039-.068.013a.996.996 0 01-.372-.01 2.308 2.308 0 01-.355-.098 4.56 4.56 0 01-.669-.302l.067-.069c.086.121.216.224.343.32.13.095.266.184.403.27.276.17.558.333.845.485l.211.112-.238.03a2.999 2.999 0 01-1.036-.046 2.95 2.95 0 01-.956-.412 3.729 3.729 0 01-.413-.317c-.064-.056-.13-.12-.185-.165l-.012-.009a.044.044 0 00.013.005c.007 0-.002.004.038.002.032-.004.056-.035.06-.04a.073.073 0 00.014-.04c.003.005.002.017.007.037.006.034.018.075.029.114.095.317.216.636.336.95l.111.292-.267-.153a1.821 1.821 0 01-.461-.404 5.849 5.849 0 01-.36-.463 12.325 12.325 0 01-.62-.982l.227-.089.505 2.097.067.278-.252-.133a6.323 6.323 0 01-.572-.337 3.057 3.057 0 01-.271-.206 1.568 1.568 0 01-.128-.124.822.822 0 01-.06-.075l-.03-.044c-.01-.02-.017-.027-.031-.072l.253.016a2.79 2.79 0 00-.13.765c-.014.265-.01.538.008.801l.033.504-.284-.415a5.348 5.348 0 01-.425-.733 4.254 4.254 0 01-.162-.396 2.467 2.467 0 01-.112-.429l.228.085-.787.719-.321.293.1-.423.264-1.101.238.098a3.301 3.301 0 01-.539.641c-.206.185-.429.35-.662.493a6.175 6.175 0 01-1.5.65l-.641.178.541-.394c.139-.102.27-.245.392-.39.122-.145.237-.302.347-.457l.14.174a9.554 9.554 0 01-1.169.377 12.92 12.92 0 01-1.2.25l-.014-.19c.117-.005.263-.07.393-.14.133-.07.263-.152.39-.238.256-.172.503-.36.746-.552.484-.388.955-.795 1.416-1.211l.065.092a5.632 5.632 0 01-.983.377 4.674 4.674 0 01-1.036.173l-.006-.052c.227-.048.443-.145.643-.269.2-.124.386-.271.552-.438zM27.375 56.472a.91.91 0 01.004.496 1.097 1.097 0 01-.247.452l-.124-.15c.125-.101.245-.22.362-.336a6.31 6.31 0 00.33-.366c.107-.124.198-.26.288-.394.09-.136.158-.28.224-.426l.252-.554v.598c0 .042.008.105.022.158a.876.876 0 00.057.16.866.866 0 00.201.278l-.151.089a1.54 1.54 0 01.04-.478c.032-.154.092-.3.17-.432a2.134 2.134 0 00-.055.667c.005.072.015.148.03.211l.057.24-.208-.15a1.054 1.054 0 01-.29-.316.993.993 0 01-.133-.423l.25.044a2.84 2.84 0 01-.547.905 3.86 3.86 0 01-.787.685l-.124-.15c.054-.05.11-.1.154-.16a1.068 1.068 0 00.225-.648zM29.324 56.499c.15.002.302.056.428.146a.913.913 0 01.17.16c.05.06.092.127.13.195l-.09.03a44.47 44.47 0 01-.213-.85l-.049-.204.178.118c.466.31.928.625 1.388.945l-.175.167c-.212-.319-.426-.637-.633-.959l-.266-.412.44.216c.309.151.624.295.937.437.157.07.314.14.472.201.08.032.159.061.237.087.075.025.162.047.21.051l-.08.24c-.205-.168-.401-.34-.593-.522a4.817 4.817 0 01-.277-.286 1.52 1.52 0 01-.243-.347l-.129-.272.27.132c.213.104.432.204.65.298.11.047.221.091.332.13.112.04.224.08.336.1l-.039.106a3.274 3.274 0 01-.43-.37c-.13-.134-.252-.29-.3-.474a.772.772 0 00.148.234c.06.07.126.134.196.194.139.12.292.226.448.319l.226.134-.264-.028c-.253-.027-.482-.108-.713-.185a9.512 9.512 0 01-.679-.266l.14-.14c.05.092.134.19.22.278.088.09.18.178.274.263.19.17.389.335.59.49l.336.26-.415-.02a.738.738 0 01-.161-.024c-.049-.01-.092-.024-.135-.038a4.084 4.084 0 01-.253-.09 11.186 11.186 0 01-.486-.2c-.32-.14-.633-.293-.946-.448l.175-.196c.207.322.409.648.612.973l.343.55-.518-.382c-.45-.332-.898-.669-1.341-1.01l.129-.085c.051.288.098.577.144.865l.064.399-.153-.368a.954.954 0 00-.247-.354.779.779 0 00-.395-.188zM19.387 50.811c.161-.07.328-.145.512-.141.044.002.1.022.118.074.018.048.007.097-.005.14a1.073 1.073 0 01-.122.244c-.096.151-.211.29-.32.43-.109.14-.215.282-.32.425l-.617.871c-.213.282-.435.592-.79.75l-.066-.13c.458-.286.913-.586 1.329-.926l.196-.16-.053.25-.197.921-.165-.093.847-.833.228-.224-.042.32-.115.864-.212-.087 1.285-1.768.107-.146.098.15a1.816 1.816 0 01.202.422.843.843 0 01.042.248.51.51 0 01-.073.277l-.21-.148c.223-.302.441-.612.648-.927a10.4 10.4 0 00.297-.477c.094-.161.185-.325.252-.49l.17-.415.09.443c.108.548.256 1.097.44 1.625.092.264.195.525.321.77.125.245.268.483.45.671l-.222.125c-.085-.38-.154-.758-.205-1.145a6.664 6.664 0 01-.05-.584c-.003-.199-.007-.398.067-.618l.098-.295.132.29c.115.25.256.502.406.742.15.24.316.47.496.687.183.214.38.415.592.597.217.176.453.325.704.44l-.133.146a2.774 2.774 0 01-.193-.532 1.444 1.444 0 01-.038-.58l.04-.246.134.216c.074.121.191.242.313.34.123.1.261.182.405.25.147.066.3.12.457.156.078.021.158.03.238.047l.242.026-.06.12a7.232 7.232 0 01-.543-.788 3.69 3.69 0 01-.396-.875l-.041-.15.115.104c.238.218.494.421.765.599.134.09.276.168.423.235.147.065.303.12.465.113l-.005.017-.365-.245.376.23.024.015-.029.002a1.07 1.07 0 01-.482-.094 2.918 2.918 0 01-.438-.224 6.226 6.226 0 01-.794-.581l.073-.045c.092.295.245.571.412.835.168.263.356.518.552.758l.111.136-.172-.015-.254-.023c-.084-.014-.169-.023-.252-.043a2.644 2.644 0 01-.49-.157 2.22 2.22 0 01-.447-.264 1.567 1.567 0 01-.366-.387l.173-.03c-.023.16.001.332.045.498.045.166.11.334.187.485l.131.259-.264-.114a3.499 3.499 0 01-.764-.458 4.901 4.901 0 01-.633-.619 6.915 6.915 0 01-.948-1.483l.23-.005c-.048.144-.053.337-.046.52.008.185.027.372.052.559.052.373.122.749.207 1.116l.108.462-.33-.337a3.031 3.031 0 01-.503-.735 6.353 6.353 0 01-.342-.801 9.327 9.327 0 01-.255-.826 12.154 12.154 0 01-.192-.843l.26.028a4.332 4.332 0 01-.273.521 11.17 11.17 0 01-.308.487c-.213.32-.433.63-.663.936l-.21-.148c.044-.067.043-.189.004-.31a1.224 1.224 0 00-.071-.182 1.615 1.615 0 00-.096-.173l.204.004-1.296 1.76-.283.384.07-.471.13-.863.186.095-.863.816-.24.227.076-.32.215-.917.143.09c-.435.34-.896.631-1.366.912l-.066-.13c.307-.13.537-.411.755-.685l.645-.85c.11-.14.221-.28.336-.417.114-.138.23-.27.33-.416a1.11 1.11 0 00.127-.228c.013-.04.024-.084.011-.12-.01-.037-.052-.056-.093-.061-.174-.012-.347.056-.51.118zM27.34 52.1a3.049 3.049 0 001.297.823c.16.054.328.082.494.108l-.092.168c-.228-.253-.448-.51-.655-.781a6.342 6.342 0 01-.3-.42 2.32 2.32 0 01-.134-.23c-.02-.042-.042-.082-.057-.133-.008-.026-.018-.044-.023-.078a1.025 1.025 0 01-.01-.1l-.01-.26.228.162a5.646 5.646 0 001.452.717c.256.088.521.144.788.18.268.039.538.036.807.014l-.01.192a6.678 6.678 0 01-.917-.347 3.596 3.596 0 01-.429-.24c-.132-.091-.272-.201-.326-.358.076.146.222.227.358.305.142.074.29.132.441.186.302.103.611.194.92.264l.527.12-.537.072c-.284.038-.573.06-.859.031a4.354 4.354 0 01-.842-.163 5.609 5.609 0 01-.796-.314 4.95 4.95 0 01-.74-.44l.218-.098a.071.071 0 01.004.025c0 .009.01.03.013.044.008.03.026.065.042.1.033.068.073.138.117.207.083.14.178.277.275.412.195.27.4.537.608.797l.175.218-.266-.05a2.701 2.701 0 01-.998-.4 2.764 2.764 0 01-.763-.733z" fill="#231F20"/><path d="M25.68 50.1c.216.258.418.524.615.793l-.167.034c.025-.215.048-.43.078-.643l.026-.188.164.109c.336.223.668.453.994.69l-.21.159a23.95 23.95 0 01-.234-.689l-.12-.376.31.234c.102.076.224.151.343.217a3.393 3.393 0 001.197.381c-.285.04-.583.023-.869-.048a2.47 2.47 0 01-.42-.139 2.18 2.18 0 01-.4-.212l.192-.142c.091.225.177.452.26.68l.154.414-.362-.255c-.33-.231-.655-.47-.976-.715l.19-.08c-.041.212-.09.423-.137.634l-.053.239-.113-.205c-.162-.292-.32-.587-.462-.891zM12.953 49.216a5.94 5.94 0 00.8-.34c.254-.133.505-.29.69-.5l.25-.286-.174.339c-.214.419-.443.829-.7 1.223-.13.197-.266.39-.415.577-.156.18-.31.368-.553.492l-.073-.18c.433-.183.863-.384 1.279-.601.207-.11.415-.22.61-.344.19-.123.393-.264.5-.417l.328-.473-.1.557a2.034 2.034 0 01-.19.563c-.089.177-.21.343-.367.478l-.141-.216a6.883 6.883 0 001.107-.738c.17-.141.333-.29.47-.457.14-.164.262-.341.333-.532l.264.066a7.581 7.581 0 01-.332 1.264 3.626 3.626 0 01-.277.6c-.115.192-.25.383-.45.523l-.123-.217a4.147 4.147 0 00.76-.471c.232-.185.444-.4.568-.652l.106-.215.094.213c.06.133.111.264.156.402.022.07.044.14.058.215.01.077.037.148-.009.271l-.181-.071.408-1.324.05-.163.09.142.317.499-.126.03.173-1.28.012-.088.057.07c.021.027.073.044.121.035.05-.009.1-.027.146-.057.093-.058.179-.133.255-.217.156-.164.29-.35.42-.538a4.34 4.34 0 01-.388.568c-.073.088-.157.17-.255.238a.45.45 0 01-.167.074c-.063.011-.138.004-.194-.058l.07-.018-.113 1.287-.016.191-.11-.16-.332-.49.14-.021-.37 1.335-.182-.071a.425.425 0 00-.013-.142 1.723 1.723 0 00-.058-.19 4.112 4.112 0 00-.158-.375l.2-.001c-.14.31-.372.549-.62.749a4.336 4.336 0 01-.806.51l-.12-.216c.15-.106.27-.271.37-.445.101-.176.183-.366.252-.563.14-.39.24-.805.307-1.214l.263.066a2.075 2.075 0 01-.378.623c-.154.183-.33.34-.51.487a7.235 7.235 0 01-1.163.758l-1.025.53.885-.746c.124-.106.228-.242.306-.395a1.851 1.851 0 00.17-.485l.23.084c-.085.12-.18.21-.28.284-.098.078-.201.144-.304.21-.207.127-.418.24-.633.347-.43.21-.867.398-1.312.572l-.073-.18c.179-.082.345-.255.495-.424a7.53 7.53 0 00.42-.55c.262-.383.514-.777.744-1.182l.077.053c-.212.219-.473.362-.737.485a5.402 5.402 0 01-.823.293zM8.372 49.44a3.511 3.511 0 01-.572.332 5.87 5.87 0 01-.604.244l-.04-.269a2.706 2.706 0 01.783.182c.083.035.164.075.24.126-.181 0-.353-.006-.526-.01l-.511-.02-.673-.027.633-.243c.203-.078.408-.146.62-.201.21-.054.424-.1.65-.114zM7.758 50.42c.274-.13.546-.257.812-.392a7.79 7.79 0 00.388-.215c.122-.075.246-.163.317-.25l.06-.074.08.036c.08.036.113.072.155.12a.576.576 0 01.087.146.815.815 0 01.058.31l-.22-.106c.205-.167.406-.338.614-.5.207-.165.414-.328.625-.488l.164-.123.034.196c.03.167.056.335.081.503l-.14-.077a2.337 2.337 0 00.56-.312 1.648 1.648 0 00.443-.486 1.305 1.305 0 01-.143.311 1.602 1.602 0 01-.215.272 2.074 2.074 0 01-.568.41l-.11.051-.031-.128c-.042-.165-.082-.33-.119-.495l.199.072c-.2.173-.403.342-.607.509-.202.17-.411.33-.617.495l-.22.177V50.1a.664.664 0 00-.029-.214.32.32 0 00-.042-.084c-.014-.022-.047-.047-.047-.048l.139-.038c-.129.14-.269.209-.408.281a4.1 4.1 0 01-.424.178 6.142 6.142 0 01-.876.245zM19.164 44.439a9.082 9.082 0 01-.345.601c-.12.198-.248.392-.396.576l-.098-.135c.527-.266 1.06-.519 1.595-.768l.527-.246-.37.455-.284.35-.143-.22c.113-.035.234-.082.346-.133.114-.05.226-.105.329-.17.209-.127.391-.292.486-.49l.238.101c-.126.29-.252.578-.384.865l-.166-.122c.239-.197.475-.412.685-.645.107-.115.21-.236.297-.367a1.65 1.65 0 00.213-.422 1.38 1.38 0 01-.152.459 3.118 3.118 0 01-.256.414 5.1 5.1 0 01-.65.724l-.323.298.156-.421c.11-.296.226-.59.342-.883l.238.1c-.12.285-.35.476-.579.623a2.767 2.767 0 01-.361.193 3.259 3.259 0 01-.385.14l-.43.126.288-.346.29-.346.157.209c-.542.233-1.086.462-1.635.679l-.359.141.26-.276c.154-.164.3-.341.445-.519.144-.179.282-.363.424-.545zM31.992 46.944c.147.145.289.295.43.444.143.148.284.299.422.451l-.151.055c-.01-.19-.017-.38-.024-.571l-.005-.15.15.047c.448.141.893.289 1.336.444l-.117.247c-.272-.165-.535-.34-.794-.525a5.616 5.616 0 01-.382-.292 2.767 2.767 0 01-.183-.167c-.03-.03-.06-.062-.09-.1a.487.487 0 01-.043-.069c-.013-.027-.033-.066-.026-.133l.018-.16.148.072c.307.146.627.28.95.396.162.055.324.116.49.159.167.043.336.079.51.097-.175.018-.351.007-.525-.015a4.29 4.29 0 01-.519-.094 7.365 7.365 0 01-1.004-.326l.166-.088c.006-.027-.002-.028.004-.02a.916.916 0 00.093.102c.053.05.112.097.173.143.122.093.248.183.375.272.256.176.52.346.782.514l1.022.656-1.14-.41c-.44-.159-.88-.325-1.316-.497l.145-.103c-.007.19-.013.38-.024.57l-.013.237-.138-.181c-.124-.164-.245-.33-.364-.5-.12-.166-.241-.333-.356-.505zM22.219 41.79c.2.232.394.467.588.702l-.076.021c.02-.271.034-.543.057-.815l.013-.15.112.106c.228.217.46.433.693.643.117.105.235.21.354.31.06.05.12.1.18.145a1.842 1.842 0 00.13.09l.01.004a.034.034 0 00-.015-.003c.003 0-.015-.002-.033.002a.092.092 0 00-.045.026l-.038.097-.072-.84-.023-.263.223.145.912.59-.184.198c-.3-.39-.594-.783-.888-1.177l-.246-.33.393.117c.309.091.621.18.933.265.155.041.312.082.467.117.152.033.323.07.446.072l-.031.219a4.341 4.341 0 01-.589-.317 1.988 1.988 0 01-.27-.21c-.08-.083-.174-.179-.186-.335l-.009-.114.112.033c.317.092.64.176.966.241.164.032.328.056.494.07.165.01.333.019.495-.028-.156.063-.33.079-.497.08-.169 0-.338-.01-.505-.03a7.403 7.403 0 01-.997-.177l.103-.08c.007.065.07.144.144.209.076.065.163.122.253.175.18.105.376.196.57.272l.507.196-.538.023c-.203.008-.351-.031-.518-.06a20.1 20.1 0 01-1.428-.36l.148-.212c.298.39.596.78.889 1.175l.473.635-.657-.437-.904-.601.2-.12.052.841.004.062-.042.035a.15.15 0 01-.058.03.116.116 0 01-.048.004.265.265 0 01-.044-.01.486.486 0 01-.103-.06 1.76 1.76 0 01-.1-.079 5.459 5.459 0 01-.18-.161c-.117-.11-.23-.22-.343-.332a35.21 35.21 0 01-.664-.68l.125-.045c-.036.27-.08.539-.118.809l-.016.107-.06-.086c-.176-.25-.35-.5-.521-.754zM19.893 39.41c-.165.198-.34.385-.51.576-.173.19-.348.376-.525.561l-.108-.164c.255-.117.51-.241.758-.368.125-.063.247-.132.366-.2a2.3 2.3 0 00.332-.222l.418-.356-.202.514c-.084.211-.171.421-.26.631l-.188-.174c.27-.14.54-.285.805-.436.132-.077.263-.154.39-.235.126-.081.251-.171.344-.266l.182-.186-.021.246c-.019.206-.035.413-.06.62l-.097-.034c.147-.173.29-.349.443-.517-.114.197-.236.388-.356.58l-.09.145-.007-.178c-.009-.208-.01-.416-.013-.623l.16.06c-.109.14-.235.234-.36.332a5.618 5.618 0 01-.387.267 10.86 10.86 0 01-.809.47l-.326.17.137-.345c.084-.212.17-.423.259-.633l.215.158c-.124.102-.25.175-.377.246-.127.071-.257.133-.387.194-.26.121-.525.227-.794.326l-.5.183.392-.348c.192-.17.385-.34.582-.504.198-.164.391-.332.594-.49zM20.371 36.3a1.372 1.372 0 01-.38.694l-.023-.041 1.24-.368.133-.039-.072.12-.318.537-.084-.1c.117-.056.236-.13.341-.213.106-.084.202-.18.284-.285.083-.105.148-.222.195-.345.051-.122.07-.255.084-.385l.186.013-.1 1.948-.217-.074c.22-.335.435-.674.643-1.016.104-.171.206-.343.304-.516.095-.172.194-.352.256-.518l.287-.78-.034.828-.087 2.074-.263-.072.442-.837.12-.228.12.228c.132.257.27.512.41.765.07.126.142.252.215.375.073.12.151.248.229.344l-.222.09-.052-1.215-.01-.246.2.14c.346.242.69.486 1.032.733l-.16.141-1.125-2.264-.077-.155.162.051 1.669.522-.027.063a3.269 3.269 0 01-.492-.377c-.148-.142-.29-.303-.357-.498.08.19.228.339.383.47.156.13.326.245.5.345l.23.13-.256-.067-1.69-.447.085-.104 1.19 2.23.205.385-.365-.244a81.97 81.97 0 01-1.045-.714l.19-.106.063 1.215.02.384-.241-.294c-.107-.13-.18-.252-.259-.378-.077-.126-.15-.253-.223-.38-.145-.254-.284-.51-.422-.768h.24l-.435.841-.295.573.032-.644.106-2.074.253.048c-.08.211-.181.382-.281.561-.102.177-.207.35-.313.522a37.59 37.59 0 01-.658 1.017l-.252.377.035-.451.151-1.945.186.013c-.02.149-.047.298-.109.436a1.46 1.46 0 01-.23.382 1.84 1.84 0 01-.7.524l-.207.086.123-.187.343-.521.06.081-1.256.31-.09.022.067-.063c.19-.177.35-.4.413-.66zM16.54 33.894c-.15.165-.298.332-.45.494l-.033-.047.975-.496.98-.483.344-.17-.234.31-.596.79-.138-.172 1.475-.742.013-.007.022-.005a1.843 1.843 0 00.71-.331 1.602 1.602 0 00.485-.606l.259.103c-.282.813-.563 1.628-.854 2.438l-.2-.13c.281-.263.567-.522.852-.78l.165-.15.009.219.028.714-.157-.047c.327-.42.658-.838.994-1.25l.052-.063.024.074c.11.34.22.68.324 1.022a58.67 58.67 0 01-.406-.993l.075.011c-.302.439-.611.873-.923 1.305l-.138.19-.02-.238-.059-.713.174.07c-.274.27-.548.542-.826.809l-.355.34.154-.47c.268-.819.547-1.634.823-2.45l.26.104a1.85 1.85 0 01-.576.71 2.099 2.099 0 01-.828.376l.035-.012-1.493.706-.457.215.32-.387.63-.764.11.14-1 .44-1.007.426-.148.063.115-.11c.162-.153.327-.302.491-.453zM27.48 33.243c.135.11.27.218.409.319.139.1.286.19.433.256l-.112.067-.002-.444v-.164l.151.083c.34.186.674.379 1.009.572l-.173.197c-.207-.26-.416-.516-.619-.779l-.25-.325.392.105c.255.067.51.13.763.2.254.07.508.14.76.215l-.108.174a25.346 25.346 0 01-.367-.474l-.13-.172.203.04c.177.034.353.075.53.115.177.039.353.078.529.124-.182-.007-.362-.02-.542-.035-.18-.013-.361-.025-.54-.044l.073-.133a26 26 0 01.408.44l.22.24-.328-.066c-.258-.053-.514-.113-.77-.171-.258-.057-.512-.123-.768-.184l.142-.22c.207.258.407.523.61.785l.47.605-.643-.408a50.35 50.35 0 01-.974-.63l.15-.081-.04.442-.012.122-.1-.056a2.107 2.107 0 01-.42-.33 3.795 3.795 0 01-.354-.385zM21.355 32.38c.166-.131.335-.257.505-.384l.058-.043.013.078c.067.397.125.795.177 1.193l-.188-.054c.141-.197.283-.392.428-.585l.067-.088.098.06c.245.146.488.295.73.448l-.21.1.06-.536.025-.224.189.122.637.415-.202.148-.113-.47-.07-.294.255.153c.1.06.213.117.323.168.111.053.225.1.341.14.232.077.472.134.712.126l-.03.135a4.161 4.161 0 01-.424-.321 2.142 2.142 0 01-.191-.187.488.488 0 01-.125-.233c.026.085.094.145.157.201.065.057.135.107.207.156.144.095.297.18.449.258l.205.106-.234.03a2.024 2.024 0 01-.787-.07 3.549 3.549 0 01-.73-.291l.184-.141.13.465.094.334-.295-.186-.643-.406.213-.102-.065.535-.026.216-.183-.116a39.64 39.64 0 01-.716-.468l.165-.029c-.15.189-.304.375-.459.56l-.17.204-.017-.258a32.658 32.658 0 01-.06-1.205l.071.034c-.184.104-.367.209-.555.307zM21.883 27.616c.158-.203.323-.4.487-.598l.06-.073.023.098c.104.433.199.868.289 1.304l-.196-.03a.358.358 0 01.174-.163.362.362 0 01.24-.006.773.773 0 01.316.223c.084.088.154.182.218.277.068.095.122.195.182.293l-.25.079c-.051-.454-.11-.908-.155-1.362l-.054-.528.303.433c.21.299.43.594.653.884.113.143.229.284.348.42.118.133.246.271.376.354l-.138.127a6.206 6.206 0 01-.152-.464 3.655 3.655 0 01-.06-.24 1.085 1.085 0 01-.018-.125c0-.048-.016-.08.02-.162.043-.052.096-.038.116-.033a.329.329 0 01.067.026c.04.021.074.044.107.069.067.048.13.1.19.152.123.105.238.219.349.335a10.932 10.932 0 00-.388-.283 2.643 2.643 0 00-.2-.126.803.803 0 00-.102-.05.208.208 0 00-.045-.013c-.017-.004-.012.008.005-.01.007-.006.002.046.012.077l.028.11c.021.074.048.148.075.222.055.148.118.295.18.439l.117.27-.255-.143c-.188-.105-.317-.24-.454-.373a8.328 8.328 0 01-.374-.419c-.24-.286-.464-.581-.682-.885l.25-.095c.055.454.098.909.147 1.363l.069.638-.319-.559c-.053-.093-.102-.191-.16-.28a1.796 1.796 0 00-.184-.252.608.608 0 00-.21-.171c-.034-.01-.062-.015-.087-.007-.024.005-.056.035-.069.055l-.158.228-.038-.258c-.066-.44-.127-.881-.178-1.324l.083.025c-.185.178-.368.358-.558.531zM23.457 26.212c.152.034.292.087.43.146l-.152.085a4.253 4.253 0 01-.037-.713l.017-.63.246.572c.059.136.11.276.154.42.042.145.08.291.096.448a2.462 2.462 0 01-.279-.363 3.873 3.873 0 01-.22-.389l.262-.058c.005.238-.005.476-.04.713l-.028.19-.124-.104a2.506 2.506 0 01-.325-.317zM24.43 26.985c.042-.166.096-.326.155-.483l.046-.118.095.11c.145.168.278.343.41.52l-.242.074a11.14 11.14 0 010-.79l.007-.185.163.059c.18.064.358.132.534.208.176.077.35.158.52.256a4.978 4.978 0 01-.573-.082 8.722 8.722 0 01-.558-.13l.17-.126c.01.263.01.527 0 .79l-.015.446-.226-.372a8.584 8.584 0 01-.326-.576l.14-.008c-.092.14-.19.276-.3.407zM23.195 22.981c.147.137.282.283.412.432l-.135-.012c.06-.076.125-.147.187-.221l.085-.102.09.12c.109.147.218.295.32.448.104.15.2.306.299.462l-.237.123a.71.71 0 01-.04-.192c-.002-.067-.006-.139.034-.222a.268.268 0 01.205-.15c.04-.01.073-.007.106-.004a.824.824 0 01.258.08c.053.02.1.05.147.08.097.055.18.127.266.196-.107-.028-.208-.066-.31-.092a1.668 1.668 0 00-.298-.06.2.2 0 00-.066 0c-.02.001-.041.002-.052.01-.035.009-.028.024-.038.038-.015.038.006.144.037.216l-.237.124c-.103-.151-.207-.302-.302-.459-.1-.154-.191-.313-.282-.473l.175.018c-.075.062-.146.127-.222.186l-.09.07-.045-.082a5.48 5.48 0 01-.267-.534zM22.11 18.02a2.683 2.683 0 01-.593.947 1.16 1.16 0 01-.154.13.494.494 0 01-.232.097l-.03-.272a4.605 4.605 0 011.054-.012 4.59 4.59 0 01-1.015.283l-.03-.272c.013-.009.054-.02.095-.054.04-.026.083-.065.124-.101.085-.074.167-.16.252-.243.17-.166.336-.342.529-.503zM23.601 19.034a1.197 1.197 0 01-.066-.177 2.202 2.202 0 01-.085-.53l-.016-.339.251.237c.102.096.198.198.284.311.085.113.163.233.22.376a1.565 1.565 0 01-.38-.211 2.449 2.449 0 01-.317-.277l.235-.102a2.235 2.235 0 01-.03.355c-.007.06-.022.119-.036.178a1.21 1.21 0 01-.06.178zM21.18 16.018c.144-.13.311-.223.486-.297.174-.077.36-.127.553-.151.192-.024.394-.022.587.039.192.056.376.174.47.346a1.364 1.364 0 00-.51-.131 2.66 2.66 0 00-.513.024c-.347.04-.694.122-1.073.17zM22.573 16.126a.88.88 0 01.109.283c.022.094.03.188.03.282 0 .094-.008.188-.03.283a.878.878 0 01-.109.282.877.877 0 01-.109-.282 1.24 1.24 0 01-.03-.283c0-.094.008-.188.03-.282a.883.883 0 01.11-.283zM22.667 19.847c.058.226.088.453.108.68.023.226.031.452.032.678 0 .227-.009.454-.031.68-.02.227-.051.453-.11.68a4.258 4.258 0 01-.108-.68 7.022 7.022 0 01-.03-.68c0-.226.008-.452.03-.679.02-.226.051-.453.109-.68zM23.27 19.843a.764.764 0 01.293-.033c.094.004.182.024.269.052l-.16.065a.951.951 0 01.147-.186.735.735 0 01.205-.151.743.743 0 01-.025.255.96.96 0 01-.085.22l-.049.094-.11-.03a1.048 1.048 0 01-.256-.1.764.764 0 01-.23-.186zM22.522 28.895c.058.162.088.324.109.486.022.162.03.323.031.485 0 .162-.009.324-.03.486-.021.161-.052.323-.11.485a2.255 2.255 0 01-.108-.485 3.613 3.613 0 01-.031-.486c0-.162.009-.323.03-.485.021-.162.052-.324.11-.486z" fill="#231F20"/><path d="M22.991 28.895c.058.241.088.482.108.723.023.24.029.482.032.722a8.856 8.856 0 01-.031.723c-.02.24-.05.481-.109.722a4.794 4.794 0 01-.109-.722 8.811 8.811 0 010-1.445c.021-.24.051-.482.109-.723zM22.624 41.062a10.208 10.208 0 01-.108-1.063 19.057 19.057 0 010-2.126c.02-.355.05-.709.108-1.063.058.354.088.708.109 1.063a19.058 19.058 0 010 2.126c-.021.354-.051.709-.109 1.063zM23.245 37.82c.058.259.088.517.109.776a10.219 10.219 0 010 1.552c-.02.259-.05.517-.109.776a5.478 5.478 0 01-.109-.776 10.167 10.167 0 010-1.552c.021-.258.051-.517.11-.776zM22.573 48.287c.058.178.088.356.109.534.022.178.03.356.03.535 0 .178-.008.356-.03.534a2.7 2.7 0 01-.109.534 2.699 2.699 0 01-.109-.534 4.372 4.372 0 01-.03-.535c0-.178.008-.356.03-.534.021-.178.052-.356.11-.534zM23.444 48.708c.058.171.088.343.109.514.022.172.03.343.03.514 0 .172-.008.343-.03.515-.02.171-.05.342-.109.514a2.51 2.51 0 01-.109-.514 4.016 4.016 0 01-.03-.515c0-.171.008-.342.03-.514.021-.171.051-.343.11-.514zM22.827 67.204l.118 4.313-.14-.141 1.217.04-.1.1.103-3.066.096 3.066.004.097-.103.003-1.217.04-.145.005.006-.146.161-4.31z" fill="#231F20"/></svg>