<?xml version="1.0" encoding="utf-8"?><svg width="32" height="32" fill="none" xmlns="http://www.w3.org/2000/svg" viewBox="0 0 32 32"><path d="M21.5 9a1.5 1.5 0 100-3 1.5 1.5 0 000 3z" fill="#1E713F"/><path d="M14.414 20H9v-5.414l6.03-6.03A5.35 5.35 0 0115 8a6 6 0 116 6c-.186 0-.371-.01-.556-.03L14.414 20zM11 18h2.586l6.17-6.17.518.095a4.05 4.05 0 10-3.199-3.198l.095.517-6.17 6.17V18zm17 2h-9v2h9v6H4v-6h2v-2H4a2.002 2.002 0 00-2 2v6a2.002 2.002 0 002 2h24a2.002 2.002 0 002-2v-6a2.002 2.002 0 00-2-2z" fill="#1E713F"/><path d="M7 26a1 1 0 100-2 1 1 0 000 2z" fill="#1E713F"/></svg>