<?xml version="1.0" encoding="utf-8"?><svg width="256" height="79" fill="none" xmlns="http://www.w3.org/2000/svg" viewBox="0 0 256 79"><path d="M85.16 34.635l-6.566-8.076 6.006-7.646h2.375L80.812 26.4v.135l6.857 8.1h-2.51zm-8.516 0l.068-7.986-.068-7.736h1.883v15.722h-1.883zM92.263 33.278c.538 0 1.05-.08 1.535-.238a8.826 8.826 0 001.3-.531 12.9 12.9 0 00.862-.476v-3.755c-.194-.03-.485-.064-.873-.102a16.551 16.551 0 00-1.524-.056c-1.39 0-2.249.143-2.577.43-.194.15-.344.418-.448.803-.105.384-.157.848-.157 1.391 0 .89.146 1.535.437 1.934.291.4.773.6 1.445.6zm-.314 1.651c-.687 0-1.296-.162-1.826-.486-.53-.324-.945-.8-1.243-1.425-.3-.626-.449-1.384-.449-2.274 0-1.07.213-1.912.639-2.522.426-.611 1.027-1.045 1.804-1.301.776-.256 1.68-.385 2.711-.385h2.375c0-.754-.019-1.414-.055-1.98-.038-.565-.161-.983-.37-1.255a1.006 1.006 0 00-.616-.407 3.636 3.636 0 00-.818-.09c-.583 0-1.154.056-1.715.17-.56.112-1.068.244-1.523.395-.456.151-.953.34-1.49.566l-.65-1.47c.567-.257 1.09-.472 1.568-.645a12.484 12.484 0 011.603-.453 8.59 8.59 0 011.826-.192c1.016 0 1.822.2 2.42.6.597.399 1.027.957 1.288 1.673.262.717.392 1.558.392 2.523v8.664h-1.21l-.268-1.38h-.135c-.15.106-.362.253-.639.441a9.113 9.113 0 01-.963.566 6.644 6.644 0 01-1.221.475 5.2 5.2 0 01-1.434.192zM100.151 34.93l-.247-1.471c.209-.015.445-.05.706-.102.261-.053.489-.14.684-.26.134-.09.257-.219.369-.385.112-.166.217-.471.314-.916.097-.445.175-1.127.235-2.047l.605-8.28h7.978v13.166h-1.86l.067-6.221-.067-5.316h-4.392l-.695 8.257c-.09 1.116-.377 1.99-.863 2.624-.485.633-1.258.95-2.319.95h-.515zM115.478 38.39l1.748-5.135-4.168-11.786h1.994l3.003 9.614h.09l3.003-9.614h1.994l-4.392 12.33-1.3 4.591h-1.972zM138.402 34.635l-5.221-6.628 4.907-6.538h2.286l-5.064 6.515v.113l5.4 6.538h-2.308zm-7.014 0l.112-6.628-.112-6.538h1.86l-.112 6.538.112 6.628h-1.86zm-7.462 0l5.401-6.538v-.113l-5.065-6.515h2.286l4.907 6.538-5.221 6.628h-2.308zM147.992 34.93c-1.016 0-1.912-.235-2.689-.702-.777-.467-1.382-1.21-1.815-2.229-.433-1.017-.649-2.348-.649-3.992 0-1.342.145-2.458.436-3.348.292-.89.691-1.587 1.199-2.093a4.3 4.3 0 011.793-1.074 7.434 7.434 0 012.196-.317c.568 0 1.146.038 1.737.113.59.076 1.071.158 1.445.249l-.224 1.583c-.284-.03-.732-.086-1.345-.17a14.751 14.751 0 00-1.971-.124c-.553 0-1.02.046-1.401.136-.381.09-.676.241-.885.452-.284.317-.527.894-.728 1.731-.202.837-.303 1.836-.303 2.997 0 1.072.082 1.935.247 2.59.164.657.358 1.155.582 1.494.224.34.426.577.605.712.119.09.28.174.482.25.202.075.489.112.863.112a5.74 5.74 0 001.322-.158 10.92 10.92 0 001.232-.362c.373-.136.792-.309 1.255-.52l.583 1.47c-.658.392-1.285.69-1.883.894-.597.203-1.292.305-2.084.305zM162.222 34.635l-5.221-6.628 4.907-6.538h2.42l-5.288 6.515v.113l5.602 6.538h-2.42zm-6.992 0l.112-6.628-.112-6.538h1.86l-.112 6.538.112 6.628h-1.86zM166.658 34.635V21.47h1.86l-.224 11.107h.112l5.737-11.107h2.375v13.166h-1.86l.224-11.107h-.089l-5.759 11.107h-2.376zM185.661 19.908c-1.001 0-1.815-.268-2.443-.803-.627-.535-.963-1.384-1.008-2.545l1.389-.045c.06.497.235.893.527 1.187.291.294.803.442 1.535.442.851 0 1.43-.148 1.737-.442.305-.294.489-.69.549-1.187l1.165.045c-.06 1.161-.4 2.01-1.02 2.545-.62.535-1.431.803-2.431.803zm-4.953 14.727V21.47h1.86l-.224 11.107h.112l5.736-11.107h2.377v13.166h-1.861l.225-11.108h-.091l-5.758 11.108h-2.376zM202.265 34.635v-11.56l-4.301.023v-1.629h10.352v1.629l-4.192-.023v11.56h-1.859zM215.418 33.278c.166 0 .371-.02.618-.057.246-.037.465-.14.661-.305.208-.181.391-.464.549-.848.156-.385.279-.947.368-1.686.09-.739.136-1.72.136-2.94 0-.996-.028-1.777-.08-2.342-.052-.566-.126-.988-.223-1.267-.097-.279-.212-.479-.348-.6a1.493 1.493 0 00-.391-.248c-.188-.09-.475-.136-.864-.136-.478 0-.967.079-1.466.237a11.232 11.232 0 00-2.252.985v8.732c.312.09.783.192 1.411.305.627.113 1.254.17 1.881.17zm-5.153 5.112V21.47h1.256l.246 1.335h.134c.284-.211.612-.442.986-.69a6.619 6.619 0 011.288-.656 4.397 4.397 0 011.602-.283c.808 0 1.506.23 2.096.69.59.46 1.046 1.176 1.366 2.149.322.973.482 2.236.482 3.79 0 1.462-.134 2.657-.404 3.585-.268.927-.627 1.651-1.075 2.172-.447.52-.955.882-1.523 1.085a5.075 5.075 0 01-1.725.306 13.632 13.632 0 01-2.118-.17 46.93 46.93 0 00-.75-.124v3.732h-1.861zM226.332 33.278c.538 0 1.05-.08 1.534-.238a8.855 8.855 0 001.301-.531c.38-.196.668-.355.862-.476v-3.755c-.194-.03-.486-.064-.873-.102a16.574 16.574 0 00-1.525-.056c-1.388 0-2.248.143-2.577.43-.194.15-.343.418-.447.803-.106.384-.158.848-.158 1.391 0 .89.147 1.535.437 1.934.292.4.774.6 1.446.6zm-.314 1.651c-.687 0-1.296-.162-1.826-.486-.53-.324-.946-.8-1.243-1.425-.3-.626-.449-1.384-.449-2.274 0-1.07.212-1.912.639-2.522.426-.611 1.027-1.045 1.803-1.301.778-.256 1.681-.385 2.712-.385h2.375c0-.754-.019-1.414-.056-1.98-.037-.565-.16-.983-.369-1.255a1.007 1.007 0 00-.618-.407c-.26-.06-.534-.09-.817-.09-.582 0-1.154.056-1.714.17-.56.112-1.068.244-1.524.395-.456.151-.951.34-1.489.566l-.652-1.47a22.577 22.577 0 011.569-.645 12.579 12.579 0 011.603-.453 8.59 8.59 0 011.826-.192c1.016 0 1.822.2 2.421.6.598.399 1.026.957 1.288 1.673.261.717.393 1.558.393 2.523v8.664h-1.212l-.268-1.38h-.134a67.4 67.4 0 01-.638.441 9.281 9.281 0 01-.964.566 6.675 6.675 0 01-1.221.475 5.21 5.21 0 01-1.435.192zM243.385 34.635l-5.221-6.628 4.906-6.538h2.422l-5.29 6.515v.113l5.602 6.538h-2.419zm-6.993 0l.114-6.628-.114-6.538h1.861l-.111 6.538.111 6.628h-1.861zM249.949 34.635v-11.56l-4.301.023v-1.629H256v1.629l-4.19-.023v11.56h-1.861zM104.784 59.224v-8.181h5.225v8.18H109l.025-4.378.012-2.931h-3.269l.012 2.931.025 4.379h-1.021zM112.561 59.224v-8.181h1.02l-.036 4.308.024 2.213 3.293-6.521h1.531v8.18h-1.02l.036-3.872-.024-3.378-3.646 7.25h-1.178zM122.039 59.224l.024-7.345-2.37.035v-.871h5.711v.871l-2.369-.035.024 7.345h-1.02zM129.414 58.494c.348 0 .65-.037.905-.112.256-.074.466-.225.632-.453.166-.227.29-.563.371-1.006.081-.443.121-1.034.121-1.772 0-.737-.038-1.33-.115-1.777-.077-.448-.197-.787-.358-1.019a1.174 1.174 0 00-.632-.464 3.217 3.217 0 00-.924-.118c-.365 0-.674.04-.929.117a1.168 1.168 0 00-.626.465c-.162.232-.282.571-.359 1.019-.077.447-.115 1.04-.115 1.777 0 .738.04 1.329.121 1.772.081.443.203.779.365 1.006.162.228.372.379.632.453.259.075.563.112.911.112zm0 .895c-.421 0-.82-.063-1.197-.189a2.365 2.365 0 01-.996-.653c-.288-.31-.513-.743-.674-1.3-.163-.557-.244-1.268-.244-2.131 0-.863.081-1.57.244-2.119.161-.55.386-.979.674-1.289.287-.31.62-.526.996-.647a3.879 3.879 0 011.197-.183c.429 0 .83.061 1.203.183.373.121.703.337.99.647.288.31.513.74.675 1.289.162.55.243 1.256.243 2.119 0 .863-.081 1.574-.243 2.13-.162.558-.387.991-.675 1.301-.287.31-.617.528-.99.654a3.752 3.752 0 01-1.203.188zM134.615 59.224l.291-8.181h1.483l1.908 5.332h.085l1.919-5.332h1.483l.291 8.18h-1.02l-.097-7.191h-.085l-1.908 5.273h-1.252l-1.895-5.273h-.085l-.098 7.192h-1.02zM144.567 59.224v-8.181h1.02l-.036 3.908-.462-.33h4.472l-.462.33-.024-3.908h1.02v8.18h-1.02l.024-4.06.462.33h-4.472l.462-.33.036 4.06h-1.02zM152.647 59.224v-8.181h1.021l-.037 4.308.024 2.213 3.294-6.521h1.531v8.18h-1.021l.036-3.872-.024-3.378-3.645 7.25h-1.179zM165.648 59.224l-3.56-4.202 3.257-3.979h1.288l-3.342 3.896v.07l3.718 4.215h-1.361zm-4.617 0l.036-4.155-.036-4.026h1.021v8.18h-1.021zM173.571 55.67c.259 0 .469-.014.632-.042a.718.718 0 00.389-.183c.137-.133.23-.362.279-.688.049-.326.073-.74.073-1.242 0-.424-.022-.751-.067-.983-.045-.231-.097-.398-.158-.5a.603.603 0 00-.188-.212 1.118 1.118 0 00-.395-.136 3.315 3.315 0 00-.626-.052c-.316 0-.613.013-.893.04-.28.028-.492.058-.638.09v3.766c.113.016.326.043.638.082.312.04.63.06.954.06zm-2.613 3.554l.049-3.79-.049-4.391c.333-.031.636-.059.912-.082.275-.024.577-.043.905-.06.328-.015.654-.023.978-.023.721 0 1.28.23 1.677.689.397.459.595 1.148.595 2.066 0 .573-.071 1.047-.212 1.424-.142.377-.334.67-.577.877a2.169 2.169 0 01-.815.442c-.299.086-.607.129-.923.129-.251 0-.531-.01-.839-.03-.307-.019-.534-.033-.68-.04v2.789h-1.021zM178.516 56.646l-.34-.459h3.281l-.34.459-1.373-5.168.571.436h-.997l.571-.436-1.373 5.168zm-1.713 2.578l2.297-8.181h1.433l2.297 8.18h-1.045l-.644-2.447.51.282h-3.645l.486-.282-.644 2.448h-1.045zM186.681 59.389c-.575 0-1.081-.136-1.518-.406-.438-.271-.78-.712-1.027-1.325-.247-.611-.371-1.424-.371-2.436 0-.895.079-1.627.237-2.196.158-.568.377-1.01.657-1.324.279-.314.609-.53.99-.647a4.179 4.179 0 011.239-.177c.195 0 .426.01.692.03.268.02.527.043.778.07.251.028.443.057.571.089l-.12.847a38.31 38.31 0 00-1.447-.123 6.714 6.714 0 00-.413-.018c-.396 0-.715.02-.954.059-.239.04-.415.125-.528.259-.106.125-.207.31-.304.553-.097.243-.174.575-.231.995-.057.42-.085.959-.085 1.618 0 .832.083 1.497.249 1.995.166.499.33.826.492.983.114.11.251.187.413.23.163.043.345.064.548.064.307 0 .605-.03.892-.094a5.15 5.15 0 00.766-.223c.222-.087.464-.193.722-.318l.352.777a7.388 7.388 0 01-.716.359 4.573 4.573 0 01-.819.253c-.32.07-.676.106-1.065.106zM192.345 59.224l.024-7.345-2.369.035v-.871h5.71v.871l-2.369-.035.024 7.345h-1.02zM197.011 59.224v-8.181h4.143v.871l-3.585-.035.475-.448-.086 3.508-.45-.294h3.354v.836h-3.354l.45-.342.086 3.685-.475-.447 3.585-.024v.87h-4.143zM203.255 59.224v-8.181h1.022l-.037 3.908-.462-.33h4.473l-.464.33-.024-3.908h1.022v8.18h-1.022l.024-4.06.464.33h-4.473l.462-.33.037 4.06h-1.022zM211.337 59.224v-8.181h1.02l-.036 4.308.024 2.213 3.293-6.521h1.53v8.18h-1.02l.037-3.872-.024-3.378-3.646 7.25h-1.178zM222.504 50.702c-.544 0-.985-.14-1.325-.418-.341-.279-.523-.72-.548-1.324l.754-.024a1 1 0 00.285.618c.158.153.436.23.834.23.461 0 .774-.077.94-.23a.966.966 0 00.298-.618l.632.024c-.016.4-.106.73-.268.988a1.45 1.45 0 01-.649.571c-.272.122-.59.183-.953.183zm-2.785 8.522v-8.18h1.022l-.037 4.307.024 2.213 3.295-6.52h1.53v8.18h-1.02l.035-3.873-.024-3.378-3.645 7.251h-1.18zM254.582 42.534H75.754v.56h178.828v-.56zM52.948 44.614a.25.25 0 11-.5.001.25.25 0 01.5 0zM57.364 30.008a.25.25 0 01-.25.25.25.25 0 010-.5.25.25 0 01.25.25zM59.993 39.943a.25.25 0 11-.498 0 .25.25 0 11.498 0zM48.625 33.886a.25.25 0 11-.5.001.25.25 0 01.5 0zM59.744 21.965a.25.25 0 11-.499 0 .25.25 0 01.5 0zM37.11 3.713a.25.25 0 11-.5.001.25.25 0 01.5 0zM49.12 6.582a.25.25 0 11-.499 0 .25.25 0 01.5 0zM33.02 9.492a.251.251 0 01-.055.35.248.248 0 01-.347-.056.25.25 0 01.055-.35.248.248 0 01.348.056zM40.042 14.251a.25.25 0 01-.056.35.248.248 0 01-.347-.056.25.25 0 01.055-.35.248.248 0 01.348.056zM49.8 24.757a.25.25 0 01-.055.349.248.248 0 01-.348-.056.25.25 0 01.056-.349.248.248 0 01.347.056zM33.725 20.743a.25.25 0 01-.056.349.248.248 0 01-.347-.056.25.25 0 01.055-.349.248.248 0 01.348.056zM39.207 27.644a.25.25 0 01-.055.35.248.248 0 01-.348-.056.25.25 0 01.055-.35.248.248 0 01.348.056zM42.983 39.66a.251.251 0 01-.055.349.249.249 0 01-.348-.056.25.25 0 01.055-.349.248.248 0 01.348.055zM30.658 76.592c1.39-1.695 2.992-3.206 4.692-4.59a36.592 36.592 0 012.648-1.952c.453-.31.916-.603 1.387-.886.237-.139.47-.283.71-.417l.721-.395c.97-.514 1.973-.963 2.988-1.375 1.014-.416 2.059-.75 3.105-1.063a31.63 31.63 0 013.188-.763l.807-.143.806-.13a97.05 97.05 0 001.606-.29 43.636 43.636 0 003.177-.708c.52-.141 1.04-.29 1.532-.486.244-.097.482-.209.686-.343.1-.067.19-.142.247-.217.06-.077.069-.131.062-.185a.513.513 0 00-.135-.222 1.769 1.769 0 00-.271-.23 5.351 5.351 0 00-.67-.395c-.474-.24-.972-.449-1.473-.651a79.886 79.886 0 00-1.52-.588c-.246-.094-.527-.188-.79-.343-.26-.152-.53-.353-.701-.678a1.173 1.173 0 01-.133-.526 1.457 1.457 0 01.087-.506c.11-.31.284-.561.469-.789.374-.45.804-.815 1.245-1.156.888-.675 1.84-1.23 2.8-1.76.96-.531 1.948-1.002 2.943-1.455.497-.226.998-.444 1.504-.65a40.644 40.644 0 011.524-.6l.022.05c-1.961.953-3.898 1.955-5.767 3.055-.93.553-1.843 1.143-2.68 1.807-.415.332-.815.687-1.133 1.082a2.302 2.302 0 00-.364.615c-.073.21-.074.395.012.558.083.166.261.317.468.437.208.121.444.21.704.313.507.201 1.015.404 1.52.616.506.215 1.01.435 1.506.696.247.133.493.272.73.448.12.088.236.184.345.305a.992.992 0 01.255.487.703.703 0 01-.03.321.823.823 0 01-.145.252 1.556 1.556 0 01-.37.314c-.258.158-.52.27-.784.367-.528.192-1.061.332-1.597.454-1.072.24-2.151.413-3.23.58-1.076.168-2.166.284-3.233.47-1.069.19-2.13.434-3.162.775-2.07.663-4.036 1.607-5.922 2.669a52.303 52.303 0 00-2.776 1.69 47.574 47.574 0 00-2.654 1.88 51.398 51.398 0 00-2.53 2.056c-.407.36-.817.718-1.215 1.09-.397.372-.789.752-1.169 1.142l-.042-.037z" fill="#FDFDFD"/><path d="M45.826 69.856c.86-.637 1.699-1.297 2.55-1.95.856-.644 1.736-1.268 2.668-1.816.463-.276.943-.538 1.433-.773.49-.233.992-.43 1.502-.602a29.048 29.048 0 013.105-.84l.02.052c-.474.262-.964.485-1.455.698-.49.215-.986.413-1.477.616-.983.408-1.978.739-2.911 1.241-.94.488-1.839 1.057-2.724 1.653-.89.588-1.77 1.204-2.68 1.768l-.03-.047z" fill="#FDFDFD"/><path d="M22.806 8.862a21.23 21.23 0 013.033-3.437 21.094 21.094 0 013.719-2.698A20.87 20.87 0 0138.323.043c.386-.016.772-.03 1.158-.04.383-.006.763 0 1.144 0l2.286.003C44.45 0 46.001.142 47.51.475a21.037 21.037 0 018.346 3.867c2.45 1.886 4.507 4.297 5.932 7.051 1.433 2.747 2.27 5.813 2.38 8.915.028.78.022 1.541.022 2.307V57.05c-.002.383.005.763-.01 1.152-.009.388-.014.776-.051 1.162l-.045.58c-.02.193-.047.385-.07.578-.027.192-.047.385-.077.576l-.102.573a20.949 20.949 0 01-1.336 4.445 21.432 21.432 0 01-5.374 7.49c-2.307 2.059-5.054 3.635-8.02 4.509-1.481.442-3.01.719-4.55.825-.771.056-1.547.052-2.305.056-.762.006-1.524 0-2.285-.002-.38 0-.768-.023-1.153-.038-.386-.007-.77-.053-1.153-.09-.385-.03-.765-.095-1.145-.155-.383-.05-.758-.136-1.135-.218a20.71 20.71 0 01-4.357-1.486 20.958 20.958 0 01-3.916-2.4 21.164 21.164 0 01-3.288-3.19 21.152 21.152 0 007.324 5.323 20.364 20.364 0 004.323 1.335c.37.069.74.142 1.116.18.373.048.746.101 1.123.118.376.026.75.06 1.127.056.377.004.75.015 1.134.004.761-.002 1.523-.007 2.285-.002.38-.001.766.01 1.14-.005.375-.013.752-.008 1.126-.046 1.5-.103 2.988-.373 4.429-.802 2.887-.85 5.561-2.386 7.808-4.39a20.867 20.867 0 005.232-7.292 20.386 20.386 0 001.3-4.327l.1-.558c.03-.186.05-.374.074-.56.023-.188.05-.375.07-.563l.043-.564c.036-.376.041-.754.05-1.131.014-.375.008-.761.01-1.143V22.615c0-.765.006-1.534-.022-2.284-.107-3.02-.922-6.003-2.317-8.677-1.387-2.681-3.39-5.03-5.776-6.866a20.477 20.477 0 00-8.124-3.765 20.426 20.426 0 00-4.48-.456L40.624.57l-1.142.007a73.05 73.05 0 01-1.127.03 20.517 20.517 0 00-8.655 2.382 20.89 20.89 0 00-3.755 2.559 21.119 21.119 0 00-3.14 3.314z" fill="#FDFDFD"/><path d="M50.146 13.35s.612-.127 1.098.307c0 0 .343.162.757 0 .414-.163 1.747-.814 2.954-.796 1.206.018 2.683.38 3.422.434.738.054 1.027-.018.63.18-.396.2-1.099.399-1.675.345-.576-.055-2.413-.091-3.152.009-.738.099-1.837.37-2.36.533-.522.163-.666.145-.63.434.036.29.108.611.216.767.108.156-.162.101-.504.101-.342 0-1.153-.198-1.387-.415-.234-.218-.198-.254 0-.453s.306-.597.198-.886c-.108-.29-.522-1.013-1.279-1.52-.756-.506-1.675-1.284-2.485-1.646-.81-.361-1.585-1.085-1.891-1.41-.307-.326-.415-.543 0-.38.414.163 2.053 1.03 2.683 1.338.63.308 1.063.615 1.567 1.085.505.47 1.423 1.34 1.838 1.972zM39.966 19.481s.267-.178.581-.065c0 0 .194.011.36-.146.167-.157.676-.723 1.254-.947.578-.224 1.35-.337 1.712-.453.361-.116.485-.206.334-.035-.15.17-.447.401-.731.486-.285.085-1.166.422-1.499.611-.332.19-.803.53-1.02.709-.218.178-.29.197-.218.328.073.13.169.27.25.323.08.053-.058.08-.22.145-.164.066-.587.128-.74.07-.153-.059-.143-.083-.087-.216a.474.474 0 00-.075-.46 1.83 1.83 0 00-.898-.476c-.457-.096-1.043-.289-1.497-.305-.455-.016-.962-.211-1.17-.307-.208-.096-.3-.178-.072-.18.228-.003 1.174.094 1.532.12.359.024.623.087.953.214.33.127.933.363 1.251.584zM23.194 48.822l.402-.51c.003-.003.201-.264.266-.706-.478.31-1.55.962-2.121.982l-.52.018.441-.277c.01-.007 1.095-.7 1.832-2.12l.248.13a6.44 6.44 0 01-1.356 1.773c.573-.255 1.259-.69 1.557-.895l.22-.152-.001.267c0 .242-.04.451-.091.623.652-.64 1.019-1.733 1.023-1.746l.153-.467.115.477c.187.776.47 1.18.712 1.39-.31-.584-.339-1.295-.34-1.334l-.013-.367.253.265c1.303 1.366 2.186 1.894 2.692 2.097a.74.74 0 01-.082-.128l-.143-.31.318.12c.73.271 1.295.322 1.67.309a7.018 7.018 0 01-2.463-1.66l-.308-.345.447.115c.29.075.816.08 1.194.072-.688-.476-1.64-1.305-1.866-1.503a1.142 1.142 0 01-.05-.044l.188-.208.05.043c.4.331 1.266.56 1.795.676a8.124 8.124 0 01-.215-.283l-.002-.002a.226.226 0 01-.051-.058c-.074-.128-.015-.193.027-.22.107-.07.175.012.24.1.15.094.762.278 1.341.42v-.314l.159.022c1.12.151 1.827-.014 2.18-.145a.17.17 0 01-.018-.053c-.013-.083.04-.161.138-.203l.018-.006c.34-.09.546-.219.67-.33-6.287.611-6.92-1.655-6.945-1.754l-.072-.293.27.134c.873.434 1.721.48 2.226.455-.428-.275-.56-.612-.567-.63l-.123-.33.315.154c.481.235 1.827.49 2.665.634a3.748 3.748 0 01-.257-.28l-.256-.311.392.084c.518.11 1.041.08 1.41.029a2.551 2.551 0 01-.38-.237l-.359-.281.455.03c.782.052 1.3-.192 1.594-.4-4.596.399-8.434-2.063-8.474-2.088l.152-.236c.04.026 4.035 2.583 8.713 2l.33-.041-.202.265c-.024.032-.529.679-1.624.776.112.05.236.094.357.11l.678.087-.658.187c-.036.01-.785.219-1.642.135.13.124.262.226.354.267l.123.02.968.144-.97.133a.4.4 0 01-.177-.021c-.468-.074-1.984-.32-2.866-.588.131.12.322.248.595.339l.48.16-.494.11c-.052.011-1.183.252-2.488-.251.474.587 2.016 1.695 6.762 1.177l.217-.023-.07.207c-.005.017-.12.345-.636.587l.146.012-.32.224c-.033.022-.788.533-2.49.338v.35l-.17-.04a13.057 13.057 0 01-1.108-.302.728.728 0 00.146.133l.676.385-.767-.124a9.94 9.94 0 01-1.357-.331c.476.39 1.032.823 1.368 1.001l.438.233-.495.031c-.037.002-.732.045-1.29.002.448.406 1.37 1.126 2.575 1.468l.4.114-.387.152c-.031.012-.668.252-1.805-.039l.014.007.387.196-.427.068c-.042.008-1.031.136-3.174-2.012.064.37.215.912.567 1.211l.301.257-.395-.01c-.038 0-.859-.038-1.326-1.429-.23.534-.714 1.46-1.436 1.833l-.576.299z" fill="#FDFDFD"/><path d="M38.96 67.247c-.698 0-2.15-.282-4.278-2.089.304.59.708 1.31.94 1.506l.333.282-.434-.035a2.09 2.09 0 01-1.358-.744c.017.062.044.13.09.2l.242.383-.415-.179c-.078-.033-1.907-.825-2.26-1.656l.257-.11c.214.503 1.192 1.067 1.801 1.365a.787.787 0 01.062-.482l.126-.232.121.235c.254.495.663.732.966.844-.434-.624-.969-1.744-1.041-1.898l-.308-.65.528.487c2.357 2.175 3.939 2.483 4.627 2.488-.283-.282-.338-.69-.34-.713l-.025-.19.188.034c.526.096.919.152 1.208.184-1.222-.58-2.317-1.492-2.372-1.538l-.41-.344.525.098c1.955.367 3.152.414 3.85.374-2.873-.429-3.133-1.21-3.154-1.305l-.046-.206.207.037c.707.13 1.205.152 1.548.131-1.965-.26-3.937-.998-3.96-1.007l-1.067-.403 1.133.133c.412.048.757.002 1.018-.068-2.865-.076-3.922-.662-4.3-1.16-.271-.358-.19-.667-.187-.68l.04-.143.14.048c.824.283 1.963.49 2.686.604-.248-.22-.314-.415-.318-.428l-.078-.24.244.06c.924.23 1.594.244 2.033.2-6.422-1.155-7.885-2.24-8.178-2.795-.115-.216-.062-.358-.05-.384l.1-.22.14.196c.194.268 1.43.706 2.36.983-.022-.22.11-.427.127-.453l.082-.123.118.09c.465.354 1.494.5 2.047.555a7.362 7.362 0 01-.514-.783l-.248-.434.436.24c1.264.699 2.16.862 2.681.879-.543-.28-.749-.588-.76-.604l-.18-.276.324.062c2.203.422 3.28.27 3.757.118a27.25 27.25 0 01-2.255-.59l.063-.271c.618.094 1.346.005 1.928-.11-5.691-.135-7.643-1.87-7.728-1.948l-.672-.62.826.39c.228.107.476.146.683.156a4.187 4.187 0 01-.956-.83l-.58-.727.767.524c.807.55 1.917.713 2.652.757a2.792 2.792 0 01-.212-.122l-.595-.386.696.13c.602.114 1.476-.001 2.06-.107-7.103-1.7-7.736-4.595-7.76-4.72l-.078-.41.309.279a9.227 9.227 0 001.556 1.139 1.746 1.746 0 01-.085-.272l.274-.051.005.02c.053.164.543.423 1.066.616-.041-.414.29-.93.34-1.003l.12-.182.114.187c.473.78 1.258 1.1 1.266 1.104l.04.025c.283.25.592.303.822.297-.748-.587-1.505-1.996-1.541-2.064l-.312-.585.52.408c1.588 1.245 2.76 1.6 3.416 1.691-.56-.358-1.133-.905-1.166-.937l-.314-.3.43.06c3.122.445 4.851.171 5.647-.054-1.016-.163-2.678-.626-2.767-.65l-.753-.211.78-.065c.213-.017.428-.07.62-.134-1.332-.052-3.342-.521-3.446-.546l-1.265-.297 1.299.02c1.162.02 1.354-.197 1.385-.264.035-.076-.046-.173-.046-.174l-.366-.422.52.199c.488.187 1.249.023 1.66-.092a.435.435 0 01-.059-.238l.007-.093.088-.03c.208-.07.434-.212.635-.364-3.36 1.127-8.177-.049-8.396-.103l.067-.272c.057.014 5.733 1.399 8.977-.19l.706-.347-.544.57c-.028.029-.651.676-1.24.928.02.025.054.04.101.043l.667.044-.629.228c-.049.017-1.078.385-1.86.252a.377.377 0 01-.033.176c-.078.173-.285.293-.626.361.997.195 2.482.436 3.13.294l.873-.19-.773.449c-.02.011-.374.214-.83.352.928.243 2.33.579 2.727.54l.608-.062-.521.32c-.063.04-1.55.915-5.932.36.36.311.932.764 1.305.854l.592.143-.595.13c-.06.013-1.386.278-3.697-1.346.383.609.948 1.38 1.394 1.551l.345.134-.347.129c-.032.011-.781.28-1.43-.278a3.2 3.2 0 01-1.25-1.017c-.142.27-.273.649-.113.792l.48.43-.614-.191a6.213 6.213 0 01-.934-.372l-.106.226c-.035-.015-.765-.317-1.71-1.07.56.937 2.362 2.9 7.934 4.114l.586.128-.582.145c-.056.014-1.1.272-2.05.292.073.023.148.045.224.062l.96.212-.981.064c-.072.006-1.438.087-2.692-.36.168.12.361.237.575.336l.399.183-.431.082c-.017.003-.24.043-.541.03 1.043.57 3.47 1.522 7.997 1.465l.896-.011-.85.284c-.054.018-.994.328-2.013.411.454.12 1.014.257 1.595.37l.256.048-.183.187c-.03.03-.752.722-3.884.196.183.135.454.291.838.414l.403.13-.4.137c-.045.015-1.045.337-2.99-.616.168.254.343.488.438.54l.524.291-.599-.028c-.07-.003-1.645-.083-2.43-.547a.315.315 0 00-.017.17c.008.03.027.074.101.113l1.194.617-1.295-.358c-.201-.056-1.64-.46-2.417-.866.519.507 2.313 1.498 8.493 2.557l.417.071-.377.192c-.035.017-.814.398-2.516.046.117.116.303.25.592.363l1.035.405-1.103-.135c-.082-.01-1.934-.24-3.25-.656.017.078.056.18.145.293.307.39 1.327 1.044 4.71 1.044h.436l-.343.253c-.02.014-.362.262-.96.353.907.288 2.478.724 3.896.807l.314.019-.224.221c-.046.046-.473.411-2.115.17.35.276 1.266.73 3.621.973l.439.045-.385.217c-.037.02-.914.485-4.343-.096.572.425 1.608 1.128 2.578 1.44l.458.147-.465.122c-.037.01-.396.084-1.867-.17.064.181.202.437.485.513l.448.121-.44.148a1.588 1.588 0 01-.477.057z" fill="#FDFDFD"/><path d="M16.34 52.399a4.84 4.84 0 01-.13.252l.038-.03a.306.306 0 00.092-.222zm4.531 17.68l-.422-.285c-.022-.014-.51-.347-1.005-1.055a.597.597 0 01-.389-.057c-.187-.1-.325-.298-.41-.592-.312.29-.693.683-.747.848l-.266-.082c.15-.525.53-1.966.477-2.32a2.61 2.61 0 00-.048-.255c-.418.408-1.176 1.21-1.271 1.596l-.115.463-.153-.451a5.814 5.814 0 00-.248-.592c-.212.336-.666.94-1.286 1.134l-.354.11.193-.317c.004-.007.362-.599.563-1.305-.5.233-1.567.716-2.023.824l-.515.122.388-.361c.446-.416 1.395-1.392 1.878-2.196-.35.428-.829.908-1.316 1.078l-.268.093.09-.27c.075-.224.15-.542.162-.781-.307.43-.88 1.23-1.022 1.39l-.143.162-.25-.55c-.136.256-.356.639-.568.867l-.235.252-.006-.345c-.01-.512-.055-1.08-.121-1.417-.189.34-.553.861-1.081 1.057-.33.122-.673.1-1.022-.066l-1.648.666.847-.891-1.311.147c-.793.09-2.649-.161-2.727-.172l-.633-.086.61-.187c.034-.01 3.331-1.02 5.315-1.725 1.593-.567 3.127-1.205 3.836-2.04-.715.49-1.948 1.308-2.458 1.48-.703.237-1.017.352-1.02.353l-.118-.253c.004-.002.353-.213.585-.63-.367.189-.95.432-1.444.397l-.417-.033.353-.225c.006-.004.37-.239.762-.579-1.079.575-2.954 1.5-3.878 1.512l-.017-.28c-.015.002-.021.005-.022.005.002 0 .085-.042.18-.297-.304.033-.827.06-1.078-.11l-.21-.143.232-.102c1.057-.467 2.886-1.328 3.944-1.973-1.37.504-3.892 1.392-4.868 1.47l-.776.064.706-.33c.861-.402 2.008-1.096 2.266-1.565-.646.226-2.459.77-4.027.413l-.483-.11.469-.16c.517-.176 1.084-.43 1.357-.629-.834-.027-3.023-.157-3.475-.776l-.19-.26.318.038c.052.006 4.958.558 8.987-.956a8.184 8.184 0 01-2.105-.6l-.512-.22.556-.048c.071-.006 6.796-.604 8.971-3.328-.508.243-1.273.503-1.732.157l-.18-.136.201-.102c.028-.014 2.46-1.255 3.297-2.658-.623.595-1.269 1.11-1.528.98l-.142-.07c-.239.394-.576.793-.966.801l-.22.005.09-.202c0-.002.05-.121.064-.304-.268.565-.75 1.498-1.135 1.81l-.374.303.155-.457c.005-.017.12-.4-.185-.974-.245.313-.803.935-1.373.938l-.354.001.258-.244c.01-.01.93-.89 1.163-1.822-.378.536-1.02 1.351-1.514 1.484l-.417.112.272-.336a.578.578 0 00.101-.227c-.348.357-1.053 1.02-1.57 1.128l-.314.066.166-.276c.001-.002.091-.154.143-.37-.412.417-1.26 1.082-2.478 1.027L7.2 55.23l.373-.24c.019-.011 1.434-.921 2.407-1.709-.348.125-.736.212-1.021.13l-.314-.089.281-.167c1.397-.827 2.903-1.841 3.34-2.306l-.72.167.117-.228c-1.01.975-2.968 2.72-4.063 2.72l-.045-.001-.01-.28c-.002 0 .104-.032.164-.279-.212.14-.53.309-.886.364l-.429.067.31-.306a26.865 26.865 0 001.475-1.577c-.538.418-1.245.876-1.813.923l-.441.036.341-.284c.148-.123.35-.32.494-.508-.76.403-2.48 1.25-3.734 1.387l-.781.084.704-.35c.414-.205 1.405-.746 1.865-1.175-.17.01-.374-.003-.562-.075l-.29-.11.274-.145c.01-.005.636-.337 1.194-.735-.636.19-1.57.384-2.383.225l-.614-.121.607-.153c.384-.096.79-.222 1.13-.348-.86.162-2.163.25-3.468-.27l-.525-.208.56-.061c.075-.008 6.637-.735 9.175-1.87-.54.102-1.227.181-1.757.074l-.964-.194.98-.083c.075-.006.294-.044.402-.136-.5.03-1.741.043-2.175-.51l-.328-.419.491.203c.004.002.279.112.68.13-.571-.217-1.382-.581-1.753-1.02l-.299-.351.443.126c.065.018 6.564 1.812 12.42-1.436l.134.246c-4.93 2.735-10.305 1.955-12.049 1.595.708.456 1.792.78 1.806.783l.509.15-.517.121a2.603 2.603 0 01-.46.065c.478.072 1.012.05 1.278.021l.134-.014.02.134a.411.411 0 01-.121.36c.886-.014 1.91-.316 1.924-.32l.592-.178-.46.416c-1.357 1.23-7.428 2.064-9.437 2.311 1.877.483 3.64-.188 3.659-.195l.282-.11-.1.286c-.1.286-.765.56-1.35.748 1.082-.054 2.158-.513 2.171-.518l.643-.278-.488.504c-.396.41-1.087.84-1.505 1.082.215 0 .394-.048.396-.048l.305-.083-.144.282c-.174.341-.8.766-1.344 1.087 1.443-.431 3.056-1.349 3.076-1.36l.233-.134-.025.269c-.02.213-.196.46-.374.66.896-.377 1.946-1.4 1.958-1.413l.342-.335-.108.467c-.097.417-1.115 1.512-1.716 2.13.282-.144.477-.314.48-.317l.243-.215-.011.326a1.493 1.493 0 01-.103.533c1.474-.402 4.143-3.192 4.172-3.222l.671-.706-.698 1.355.57-.132.026.145c.08.457-1.766 1.67-3.145 2.506.437-.097.945-.352 1.162-.478l.794-.462-.62.678c-.579.631-1.986 1.603-2.702 2.08 1.27-.18 2.012-1.199 2.02-1.21l.213-.3.04.366c.024.232-.018.447-.07.613.492-.267 1.108-.889 1.341-1.15l.151-.17.083.212c.054.136.06.263.045.375.495-.387 1.11-1.27 1.345-1.645l.223-.355.035.417c.068.817-.502 1.658-.909 2.147.345-.23.659-.62.785-.808l.118-.175.114.178c.248.382.333.713.353.957.468-.63 1-1.855 1.006-1.87l.145-.335.116.347c.092.277.083.527.053.703.351-.207.708-.866.875-1.306l.11-.289.144.273c.13.246.145.442.117.588.337-.22.961-.777 1.48-1.31l.335-.345-.098.471c-.313 1.492-2.643 2.888-3.436 3.324.527.097 1.365-.341 1.688-.55l.469-.305-.271.49c-1.534 2.769-7.107 3.659-8.934 3.88 1.174.412 2.05.42 2.06.42h.672l-.618.268c-3.389 1.469-7.594 1.346-9.1 1.244.815.299 2.422.39 3.106.398l.182.002-.05.176c-.083.297-.706.604-1.196.804 1.708.174 3.57-.564 3.59-.572l.168-.068.023.18c.068.534-.846 1.171-1.599 1.601 1.773-.462 4.718-1.593 4.755-1.607l.495-.19-.338.41c-.525.639-3.409 1.983-4.44 2.451.247.016.554-.011.758-.046l.215-.036-.057.21a2.108 2.108 0 01-.139.386c1.413-.273 4.183-1.865 4.213-1.882l.598-.346-.417.552c-.296.39-.71.745-1.023.985.561-.143 1.114-.494 1.121-.499l.306-.196-.096.351a1.938 1.938 0 01-.341.68l.39-.134c.686-.231 2.9-1.798 2.922-1.814l.369-.262-.158.425c-.45 1.216-2.346 2.036-4.328 2.74-1.462.52-3.634 1.205-4.696 1.535.623.068 1.534.146 2.006.093l1.694-.19.381-.042-.485.51.568-.229.057.03c.295.154.583.181.853.081.677-.25 1.067-1.197 1.071-1.207l.09-.224.15.19c.165.213.23.973.254 1.466a7.27 7.27 0 00.424-.76l.13-.27.31.684c.263-.347.778-1.068 1.062-1.47l.124-.173.11.183c.14.233.067.683-.01.993.747-.448 1.448-1.587 1.455-1.6l.227-.37.031.433c.059.792-1.131 2.123-1.816 2.82.705-.279 1.65-.73 1.662-.735l.254-.121-.058.276c-.104.502-.303.97-.457 1.283.536-.364.877-1.029.882-1.037l.12-.237.127.233c.109.201.197.394.26.546.364-.613 1.23-1.433 1.345-1.541l.047-.045.065.008c.108.013.195.118.264.59.045.305-.143 1.139-.3 1.75.229-.239.472-.456.55-.525l.187-.165.043.246c.057.33.167.548.317.63.132.072.26.02.265.017l.106-.045.066.095c.256.381.517.657.706.832a6.82 6.82 0 01.062-1.064l.063-.457.201.415c.174.359.638.521.951.592-.835-1.319-.498-2.015-.483-2.046l.091-.177.136.146c.166.179.697.545 1.02.76.054-.19.135-.451.167-.554l.042-.136.135.045c.746.249 1.116.626 1.295.977.095-.43.208-.863.23-.945l.112-.427.153.414a4.153 4.153 0 001.74 2.102 5.928 5.928 0 01-.16-1.105l-.028-.604.29.53c.187.343.526.57.797.707-.316-.595-.59-1.528-.628-1.66l-.308-1.07.562.96c.238.406.957.69 1.404.833a5.772 5.772 0 01-.363-.97l-.204-.742.452.622c.454.625 1.636 1.284 2.26 1.604a4.71 4.71 0 01-.25-.851l-.099-.531.344.416c.246.298.522.532.752.699-.097-.242-.144-.46-.147-.477l-.08-.381.303.243c.46.368 1.431.663 2.104.835-.627-.546-1.086-1.285-1.11-1.326l-.26-.422.44.224.474.237a6.507 6.507 0 01-.492-.811l.25-.125c.003.008.405.81.868 1.241l.202.189-.27.052c-.045.009-.067.013-.661-.283.302.396.788.95 1.308 1.199l.98.47-1.066-.206c-.078-.015-1.69-.33-2.613-.84.07.193.172.403.299.512l.82.704-.972-.471c-.024-.012-.485-.239-.969-.688.072.227.171.476.296.626l.393.473-.558-.256c-.071-.032-1.471-.678-2.329-1.423.103.263.222.506.326.59l.468.382-.587-.137c-.049-.01-.933-.22-1.527-.636.18.526.441 1.188.658 1.393l.405.383-.537-.146c-.032-.008-.63-.176-1.076-.61.04.317.111.684.223.872l.214.357-.385-.155c-.058-.023-1.332-.55-2.05-2.044-.098.396-.2.846-.24 1.115a1.11 1.11 0 01-.022.247l-.213.842-.061-.867a1.37 1.37 0 01.02-.26c-.01-.315-.171-.902-1.13-1.268-.083.268-.16.53-.167.574l-.034.212-.18-.113c-.033-.022-.682-.44-1.051-.744-.028.292.029.904.687 1.829l.174.243-.298-.022c-.039-.003-.809-.067-1.262-.495-.033.378-.044.816.026.966l.22.46zM17.902 44.077c-.222 0-.462-.026-.716-.091l-.408-.105.39-.16c.017-.008 1.496-.626 2.503-1.578-.325.141-.715.275-1.038.284l-.471.013.388-.27c.004-.002.36-.253.509-.691-.459.392-1.34 1.088-1.92 1.182l-.403.066.278-.3c.023-.024.065-.063.12-.115.155-.145.439-.41.651-.704-.513.45-1.244 1.056-1.544 1.122l-.611.133.497-.382c.079-.06.224-.19.34-.34-.64.449-1.907 1.176-2.856.71l-.332-.162.355-.099c.017-.004 1.363-.385 2.079-1.001-.525.192-1.362.434-2.152.41l-.692-.024.647-.247c.356-.136.697-.297.937-.435-.702.137-1.896.29-2.287-.158l-.172-.196.257-.036c.035-.005 2.893-.402 4.38-.817-.281-.02-.549-.069-.663-.18l-.16-.157.21-.076c.031-.011 3.087-1.114 3.98-2.212l.216.177c-.753.927-2.846 1.814-3.717 2.154.254.027.608.03.924.008l.602-.041-.523.302c-.733.425-3.634.888-4.763 1.055.557.107 1.534-.047 2.157-.21l.192-.05-.018.199c-.019.201-.334.419-.698.605a7.533 7.533 0 001.75-.54l.38-.18-.197.372c-.365.69-1.5 1.175-2.143 1.403 1.11.099 2.517-1.083 2.533-1.096l.217-.185.013.286a.705.705 0 01-.055.289c.406-.32.891-.746 1.23-1.06l.285-.265-.053.388c-.051.372-.328.747-.6 1.043.677-.402 1.428-1.098 1.438-1.107l.24-.223-.006.328a1.577 1.577 0 01-.356.96c.55-.155 1.14-.503 1.148-.507l.587-.348-.403.551c-.709.97-2.011 1.691-2.683 2.018.865.068 1.493-.325 1.5-.33l.15.237a2.86 2.86 0 01-1.442.383z" fill="#FDFDFD"/><path d="M18.63 38.024l.234-.287c-.571.248-.998.24-1.022.24l-.815-.023.776-.25c.421-.137.534-.564.538-.582l.271.068c-.003.014-.054.214-.209.415.27-.078.611-.22.97-.483l.884-.648-.94 1.15c.215-.053.45-.132.564-.233l.185.21c-.292.26-1.004.364-1.084.375l-.353.048z" fill="#FDFDFD"/><path d="M16.074 38.029l.548-.29c.2-.105.484-.293.675-.486-.372.126-.918.257-1.26.1l-.301-.136.307-.121c.02-.008 1.786-.713 2.54-1.658a1.117 1.117 0 01-.222.027l-.222.006c-.322.329-.75.71-1.123.855l-.345.134.17-.33c.006-.01.101-.204.032-.4-.22.43-.76 1.339-1.444 1.463l-.32.058.178-.273c.004-.006.31-.48.424-.938-.468.56-1.436 1.587-2.352 1.738l-.573.094.468-.346c.057-.042.168-.138.264-.257-.347.14-.897.306-1.495.273l-.65-.037.608-.234c.208-.08.69-.303.97-.553-.301.021-.725.028-.944-.082l-.278-.14.29-.116c.164-.066.472-.199.776-.352-.833.195-2.065.358-3.046-.035l-.512-.205.548-.064c.044-.005 3.982-.476 5.572-1.435-.516.086-1.262.163-1.766.012l-.372-.111c-.422.098-.845.157-1.072.072l-.308-.114.296-.144c.227-.11.463-.272.58-.407-.405.083-1.23.195-1.941-.064l-.595-.215.63-.056c.471-.041.99-.143 1.274-.259-.576-.099-1.762-.368-2.31-.967l-.295-.325.428.093c.088.019 8.51 1.8 10.829-1.325-.435.202-1.091.465-1.51.45l-.533-.02.476-.245c.006-.003.589-.308.662-.794l-2.335.681-.078-.27 2.677-.78.018.167c.04.38-.144.68-.348.892.587-.174 1.272-.544 1.281-.549l.394-.213-.203.4c-1.7 3.347-8.684 2.375-10.794 1.996.792.436 1.98.577 1.995.578l.183.021-.07.172c-.088.218-.466.358-.855.446.632.015 1.187-.142 1.195-.144l.144-.042.031.148c.051.24-.166.469-.392.635.482-.063 1.192-.278 1.647-.445l.238-.088-.053.249c-.036.168-.165.292-.313.381.75.023 1.666-.202 1.678-.205l.447-.112-.31.342c-.904.995-4.064 1.565-5.49 1.777 1.426.212 3.098-.41 3.117-.417l.56-.211-.409.438c-.238.255-.813.546-1.22.733.231.002.496-.02.678-.044l.25-.035-.104.231c-.105.235-.375.445-.644.606a3.69 3.69 0 001.015-.361l.266-.154-.06.303a.948.948 0 01-.141.327c.98-.498 1.934-1.793 1.946-1.808l.198-.272.052.333c.06.383-.13.861-.292 1.186.567-.393.989-1.353.994-1.364l.078-.18.144.133c.19.176.24.391.23.577.581-.371 1.233-1.175 1.24-1.184l.232-.287.016.369a.82.82 0 01-.053.313c.146-.047.244-.115.246-.116l.423-.295-.217.47c-.403.87-1.664 1.577-2.39 1.925.347-.055.73-.2.905-.279l.247-.11-.053.266c-.045.225-.245.443-.458.616a1.65 1.65 0 00.371-.16l.153.234c-.017.012-.436.285-1.145.314l-.618.025z" fill="#FDFDFD"/><path d="M20.79 22.41c-.1.032-.214.067-.339.103l.188-.016c.003 0 .07-.011.151-.087zm7.226 17.014c-.172 0-1.292-.016-2.182-.406l.112-.257c.485.213 1.059.307 1.481.35a3.2 3.2 0 01-.466-.509l-.316-.436.488.227c.858.399 1.658.402 2.19.33-2.29-.424-3.125-1.028-3.416-1.479-.195-.303-.141-.526-.134-.55l.07-.256.17.203c.263.312 1.024.474 1.657.55a3.066 3.066 0 01-.598-.457l-.345-.361.482.129a5.16 5.16 0 001.4.187c-1.911-.41-2.346-1.306-2.366-1.35l-.143-.312.32.123c.544.208 1.23.406 1.631.515-.124-.295-.156-.616-.158-.635l-.052-.535.305.442c.194.28.623.483.989.613a4.254 4.254 0 01-.619-.982l-.154-.356.346.175c.712.361 1.81.696 2.437.873-.047-.081-.056-.142-.048-.185l.026-.155.15.044c.715.21 1.23.263 1.573.26-1.021-.352-2.567-1.014-2.646-1.048l.096-.263c.707.22 1.781.34 2.43.395a1.595 1.595 0 01-.147-.182l-.175-.258.308.04c.273.035.662-.15.968-.338a1.538 1.538 0 01-.524-.122l-.58-.282.644.016c.405.013.79-.105 1.108-.245-4.17.786-7.585-1.483-7.62-1.507l.148-.237c.78.459 2.41.659 3.134.728a1.57 1.57 0 01-.203-.538l-.034-.217.21.06c.457.133.82.169 1.093.162-.635-.135-1.242-.338-1.278-.35l-1.072-.36 1.128.088a4.49 4.49 0 002.14-.375c-4.07.802-6.385-1.224-6.41-1.247l-.65-.585.8.352c.186.083.625.082 1.032.057-.928-.38-1.824-1.091-1.871-1.129l.163-.227c.188.123.578.21.857.256-.023-.22.066-.466.091-.531l.057-.147.139.075c.286.154.632.188.909.186a.52.52 0 01-.16-.198.32.32 0 01-.006-.263l.052-.109.115.037c.527.167 1.154.053 1.585-.07-2.375-.464-4.057-2.118-4.132-2.193l-.507-.506.659.277c.484.203 1.259.345 1.804.426a7.583 7.583 0 01-.89-.82l-.467-.513.629.292a8.264 8.264 0 002.02.615 5.593 5.593 0 01-1.435-.93l-.657-.626.814.398c.91.445 2.59.487 3.45.477-.16-.117-.203-.212-.215-.25l-.061-.2.208.02c.125.012.262-.01.394-.049h-.02c-4.477 0-6.235-1.867-6.311-1.95l-.879-.964 1.063.755c.5.355 1.04.522 1.413.6a.505.505 0 01-.071-.307l.024-.162.156.05c.148.046.33.057.498.052-1.02-.532-1.884-1.48-1.926-1.526l-.32-.354.46.125c.14.038.407.085.627.122a6.586 6.586 0 01-.558-1.065l.246-.13c.07.107.684.513 1.316.898a.592.592 0 01.16-.19l.041-.032.052.003c.132.006.241.004.331-.002a3.421 3.421 0 01-.578-.404l-.437-.392.566.152c.272.073.564.06.815.02-2.458-.433-3.706-1.726-3.917-1.962a.355.355 0 01-.036-.043l.22-.172.036.04c.184.163.855.295 1.467.366-.092-.106-.138-.192-.142-.2l-.137-.265.291.064c.345.075.89.03 1.295-.024-1.962-.784-2.706-2.053-2.74-2.111l-.407-.713.62.537c.061.053.241.131.446.209-.01-.015-.022-.03-.034-.045a.19.19 0 01-.015-.02l.228-.162c-.008-.01-.015-.014-.015-.014.054.033.28.065.539.086-.71-.77-1.547-2.534-1.587-2.62l-.095-.2h.643c-.582-.871-.935-2.407-1.127-3.522-.086 1.044-.238 2.403-.48 2.983-.306.738-.89 2.052-1.149 2.632.363-.171.643-.49.647-.495l.175-.202.066.26a.88.88 0 01.027.283c.196-.084.239-.133.24-.136 0 0-.008.011-.014.033l.271.067-.005.02c-.4 1.446-1.844 2.509-2.753 3.052.458-.126.844-.29.85-.293l.265-.115-.076.28c-.04.148-.203.336-.37.498.435-.108.944-.269.951-.27l.192-.062-.01.202a.534.534 0 01-.087.24c.108-.059.215-.13.296-.192l.287-.22-.065.356c-.082.456-.92 1.02-1.568 1.393.17-.045.348-.096.516-.147l.647-.198-.517.439c-1.5 1.275-3.545 1.718-4.514 1.862.63.143 1.234-.08 1.242-.084l.242-.092-.056.254c-.032.143-.143.272-.276.381.528-.172 1.105-.578 1.344-.774l.367-.302-.146.453c-.09.28-.207.518-.31.696a3.34 3.34 0 001.278-.894l.223-.283.026.36c.02.279-.025.526-.087.723a6.782 6.782 0 001.038-1.1l.273-.375-.021.464c-.019.41-.235.821-.402 1.08.173-.053.37-.141.499-.21l.54-.285-.363.493c-.559.76-1.74 1.52-2.41 1.914.742-.1 1.737-.456 1.75-.46l.286-.104-.11.286a1.101 1.101 0 01-.22.369c.175.013.385.01.539-.002l.357-.026-.245.262c-1.438 1.538-5.862 2.167-7.882 2.379 1.538.182 2.706-.147 2.72-.151l.75-.217-.628.464c-.19.141-.45.266-.71.37 1.029-.17 2.18-.608 2.196-.613l.388-.15-.22.354c-.06.098-.211.19-.387.27.41-.062.863-.185 1.085-.255l.366-.116-.207.325c-.341.537-2.023.876-3.395 1.067l-.242.253c-.189.197-.537.377-.831.506 1.1.016 2.784-.527 2.804-.534l.305-.1-.136.293c-.11.238-.536.492-.926.682.147-.027.307-.063.464-.105l.413-.11-.269.334a2.477 2.477 0 01-.356.33c.464-.14.724-.407.96-.65.095-.098.185-.19.284-.27.425-.343 1.027-.593 1.052-.604l.174-.071.018.188c.02.213-.178.476-.364.671a2.87 2.87 0 001.034-.27L20.28 27l.05.159c.032.097.02.2-.032.302-.184.352-.919.686-1.467.893.847-.012 1.693-.339 1.703-.343l.24-.094-.052.253c-.228 1.098-2.938 1.268-4.272 1.284.763.2 1.649.085 1.66.084l.212-.029-.059.206c-.062.218-.509.393-.769.48l-.087-.267c.07-.023.138-.049.204-.076-.539.011-1.364-.045-1.923-.426l-.396-.27.479.014c1.105.033 3.827-.06 4.523-.782-.482.146-1.385.358-2.15.18l-.51-.12.501-.151c.569-.172 1.48-.53 1.812-.84a3.064 3.064 0 01-1.21.17l-.341-.024.261-.222c.144-.122.29-.274.393-.408a3.906 3.906 0 00-.656.41c-.086.069-.17.155-.26.247-.335.346-.753.775-1.704.826l-.503.026.418-.283c.08-.054.232-.16.382-.277-.335.061-.674.088-.809-.013l-.203-.153.237-.09c.292-.112.662-.28.957-.447-.794.211-2.11.494-2.831.275l-.424-.13.42-.138c.007-.002.45-.15.825-.35-.353.014-.796-.007-1.056-.16l-.382-.227.442-.034c1.297-.1 3.116-.343 4.179-.686-.386.067-.788.097-1.02-.004l-.12-.052c-.688.187-1.51.35-2.075.264l-.705-.106.693-.169c.006-.001.34-.084.724-.22a8.156 8.156 0 01-2.847-.208l-.84-.218.866-.058c.066-.004 6.336-.446 8.443-2.135-.22-.003-.476-.026-.616-.104l-.34-.188c-.518.139-1.133.264-1.506.2l-.408-.068.367-.193c.017-.01 1.505-.799 2.405-1.663a.934.934 0 01-.378.044l-.24-.04.156-.188c.003-.004.209-.256.364-.585-.288.32-.694.716-1.117.952l-.546.304.365-.509c.002-.003.191-.274.25-.677a3.768 3.768 0 01-1.54.846l-.415.113.27-.337c.003-.003.157-.197.311-.508-.454.305-1.2.719-1.764.602l-.438-.09.411-.176c.134-.057.3-.147.434-.244-.394.068-.999.088-1.541-.245l-.373-.229.436-.03c.026-.003 2.422-.187 4.3-1.414-.698.173-.747.084-.789.01l-.072-.13.133-.065c.553-.269 1.348-.726 1.803-1.123a.642.642 0 01-.331.037l-.277-.058.215-.185c.056-.048.114-.107.164-.165-.36.107-.922.262-1.185.28l-.456.029.362-.28c.125-.098.28-.23.41-.358-.364.125-.884.273-1.322.282l-.68.013.62-.281c.027-.012 2.484-1.143 3.236-2.925a3.984 3.984 0 01-.302.112l-.754.25.624-.493s.016-.016.03-.05c-.2.17-.505.381-.845.442l-.26.046.109-.242c.008-.02.877-1.954 1.275-2.913.39-.938.546-4.21.548-4.242l.278-.008c.004.037.38 3.724 1.424 4.945l.198.232h-.783c.378.766 1.198 2.28 1.709 2.583l.468.278-.544-.017a7.081 7.081 0 01-.643-.045.783.783 0 00.086.081l.03.01.465.142-.469.127c-.032.009-.072.02-.144-.022a10.113 10.113 0 01-.501-.172c.431.487 1.302 1.262 2.763 1.727l.518.165-.534.106c-.043.009-.918.18-1.587.15a.937.937 0 00.211.143l.641.315-.712-.05a9.649 9.649 0 01-1.35-.185c.682.522 1.95 1.26 3.84 1.447l.544.054-.503.215c-.027.011-.524.22-1.092.23.135.082.292.164.453.215l.264.085-.225.162c-.037.027-.244.153-.803.133-.03.032-.052.066-.052.08.002.001.008.009.028.021l-.143.241a24.01 24.01 0 01-1.184-.746c.135.26.31.556.484.734l.295.298-.414-.06c-.018-.004-.284-.043-.552-.09.42.4 1.196 1.064 1.975 1.338l.475.167-.493.102a3.177 3.177 0 01-.9.048.622.622 0 00.256.18l.692.295-.751-.026c-.021 0-.274-.011-.637-.097 1.06.541 2.858 1.127 5.58 1.013l.516-.021-.436.28c-.02.013-.412.261-.832.343.081.049.195.106.352.165l.618.233-.66.038c-.092.006-1.91.107-3.291-.209.486.307 1.202.66 2.048.771l-.016.28c-.066-.001-1.451.01-2.947-.517.257.23.574.483.857.612l.774.353-.846-.086a14.895 14.895 0 01-1.846-.316c.743.585 2.225 1.565 4.011 1.756l.51.054-.467.213c-.047.021-1.08.486-2.019.332.07.048.183.103.356.155l.523.157-.534.114c-.034.008-.794.165-1.434-.095-.038.153-.044.308.007.353l.335.294-.442-.05a5.415 5.415 0 01-.325-.048c.494.316 1.154.677 1.716.77l.926.153-.93.124c-.1.014-.742.096-1.277.083.929.575 3.234 1.62 6.65.624l.666-.194-.54.438c-.044.035-.916.73-2.253.895.354.09.756.174 1.083.197l.41.028-.342.228c-.024.016-.567.366-1.762.08.052.143.142.318.293.415l.45.291-.535-.033a16.681 16.681 0 01-1.907-.245c1.526.622 4.011 1.262 6.732.464l.657-.193-.53.436c-.023.02-.379.308-.898.526l.303-.056-.434.348c-.032.027-.688.548-1.27.66.091.086.202.165.308.178l-.025.28c-.05-.003-.792-.043-1.611-.155.684.274 1.453.565 1.85.66l.38.09-.352.172c-.025.012-.585.272-1.947-.057.027.024.058.05.093.077l.505.403-.626-.157c-.069-.017-1.529-.387-2.602-.85.178.308.474.735.832.93l.82.447-.915-.187c-.043-.009-.879-.183-1.432-.573a.99.99 0 00.19.363l.327.35-.463-.117c-.01-.003-.773-.196-1.505-.44.385.338 1.19.812 2.77.97l.6.06-.565.211c-.034.013-.727.264-1.878.077.19.122.435.252.726.353l.846.292-.894-.02c-.072-.001-1.516-.038-2.285-.452a.969.969 0 00.025.037c.246.36 1.08 1.024 3.897 1.448l.507.076-.475.193c-.052.02-1.144.45-2.517.03.155.14.33.262.487.285l-.019.279h-.02zM32.49 62.852l.686.503c.114.082.229.164.343.242.112.075.24.153.338.19l-.086.225c-.038-.02-.04-.026-.054-.038a.344.344 0 01-.063-.089.564.564 0 01-.04-.108 1.084 1.084 0 01-.03-.202c-.007-.131.005-.256.02-.38l.02-.17.163.062c.15.056.307.104.462.154.155.049.311.095.468.134.314.082.632.148.947.16l-.029.195c-.1-.04-.188-.088-.277-.138a2.4 2.4 0 01-.257-.167 1.688 1.688 0 01-.422-.434c.148.136.313.242.486.332a3.307 3.307 0 00.535.218l.506.159-.536.035a3.706 3.706 0 01-1.015-.098c-.33-.077-.65-.171-.966-.295l.184-.11a2.565 2.565 0 00-.027.334c0 .053.003.106.012.153a.35.35 0 00.028.081c-.003 0 .006.002-.019-.01l-.086.226c-.165-.07-.267-.164-.384-.253a7.673 7.673 0 01-.907-.911zM17.612 61.14a3.569 3.569 0 01-.766.885l-.023-.042c.372-.14.74-.291 1.1-.456.181-.083.36-.17.533-.263a2.25 2.25 0 00.477-.325l.244-.239-.143.308a6.468 6.468 0 01-1.054 1.576 5.55 5.55 0 01-.693.654 4.991 4.991 0 01-.801.521l-.058-.193c.336-.053.676-.13 1.001-.233.323-.105.645-.237.898-.434l.314-.245-.125.375a8.036 8.036 0 01-.356.892 4.58 4.58 0 01-.228.427 2.264 2.264 0 01-.3.401l-.143-.203a12.552 12.552 0 001.523-.907c.242-.17.476-.35.69-.547.212-.197.414-.41.549-.651l.405-.722-.152.816-.112.602-.05.3a2.788 2.788 0 00-.034.284l-.256-.074.935-1.483.242-.384.003.456c.002.268.021.545.065.81.023.133.05.265.09.39.04.125.09.245.157.342l-.23.061.117-1.048.054-.484.184.451a9.247 9.247 0 00.826 1.553c.164.242.338.48.54.685.2.206.423.393.676.513l-.128.145a4.572 4.572 0 01-.333-.724 2.204 2.204 0 01-.102-.393.803.803 0 01.03-.432l.082-.2.078.202c.077.2.166.398.265.587.051.094.105.186.164.273a.693.693 0 00.2.206l-.105.066.008-.563.002-.148.11.099c.186.17.39.328.607.462.216.133.448.246.695.286l-.047.036.044-.326.007-.05.045.022c.352.17.737.3 1.131.314l-.01.027-.52-.492.54.47.03.025-.04.001a2.208 2.208 0 01-.595-.079 3.515 3.515 0 01-.568-.201l.052-.028-.033.328-.005.041-.042-.005c-.267-.035-.512-.147-.74-.276a4.35 4.35 0 01-.641-.457l.11-.049.006.564.001.123-.106-.057c-.121-.066-.191-.16-.26-.25a3.063 3.063 0 01-.18-.285 5.98 5.98 0 01-.285-.601l.159.002a.64.64 0 00-.011.337c.021.12.056.24.1.358.089.235.203.467.33.683l.164.276-.291-.131a2.61 2.61 0 01-.75-.544 4.896 4.896 0 01-.579-.706 9.375 9.375 0 01-.86-1.595l.238-.032-.11 1.049-.036.335-.194-.274a1.51 1.51 0 01-.196-.413 2.988 2.988 0 01-.101-.425 5.474 5.474 0 01-.074-.856l.245.072-.925 1.49-.274.44.018-.515c.005-.125.021-.221.036-.327.015-.103.034-.204.052-.306l.117-.607.254.094c-.163.283-.382.508-.608.716-.227.208-.47.392-.72.564a13.029 13.029 0 01-1.564.918l-.67.33.527-.532c.1-.1.186-.225.266-.353.08-.128.15-.265.218-.404.134-.277.25-.569.35-.86l.188.13c-.3.233-.642.36-.982.464a7.027 7.027 0 01-1.041.22l-.578.08.52-.272c.27-.142.537-.293.778-.485a5.35 5.35 0 00.683-.62 6.675 6.675 0 001.063-1.514l.101.07c-.16.145-.338.237-.516.33-.18.09-.363.172-.546.25a18.05 18.05 0 01-1.12.422l-.136.046.113-.088c.305-.238.58-.521.796-.847z" fill="#FDFDFD"/><path d="M25.462 64.604a3.47 3.47 0 01-.516-.344 2.918 2.918 0 01-.438-.446 2.426 2.426 0 01-.494-1.155l-.018-.11.111.032c.285.081.566.169.845.266.28.097.556.2.828.337l-.137.144-.534-.86-.203-.326.354.156c.472.209.959.398 1.45.56.49.16.992.3 1.494.354l-.052.267a.848.848 0 01-.367-.236.82.82 0 01-.203-.385l-.048-.219.217.053c.397.097.8.184 1.204.256.201.036.404.067.605.091.201.023.405.041.596.03l-.049.236-.838-.45-.423-.226h.48c.268.001.54-.001.809-.017.134-.01.268-.02.398-.039.127-.02.267-.047.351-.097l.029.168a15.232 15.232 0 01-1.738-.671 8.514 8.514 0 01-.823-.438c-.263-.162-.523-.35-.702-.605.198.24.466.403.734.55.27.145.551.272.837.387.572.224 1.155.43 1.745.596l.205.057-.177.11c-.15.094-.288.114-.428.144a5.126 5.126 0 01-.415.055 8.91 8.91 0 01-.828.04l.057-.226.843.44.395.207-.444.03a3.778 3.778 0 01-.642-.025c-.209-.022-.416-.052-.622-.086a19.748 19.748 0 01-1.225-.246l.168-.166a.577.577 0 00.248.355c.04.027.093.052.127.065l1.19.415-1.241-.148c-.539-.064-1.049-.214-1.548-.383a16.35 16.35 0 01-1.469-.587l.152-.17.507.877.186.32-.322-.175a6.721 6.721 0 00-.791-.354 15.976 15.976 0 00-.826-.29l.093-.08a2.327 2.327 0 00.413 1.123c.234.334.544.613.89.839zM11.283 58.93c-.218.102-.44.194-.662.287a15.792 15.792 0 01-1.355.5 4.77 4.77 0 01-.716.18l-.005-.252c.418.013.846.012 1.266-.019a7.25 7.25 0 001.245-.178l.4-.097-.266.304a1.995 1.995 0 01-.45.377 1.308 1.308 0 01-.562.193l-.032-.203c.307-.06.618-.13.923-.212.306-.08.607-.18.898-.311-.264.182-.562.31-.86.43-.148.06-.3.11-.454.16-.153.05-.306.095-.463.134l-.032-.203a1.12 1.12 0 00.455-.19 1.81 1.81 0 00.377-.34l.133.208c-.425.12-.86.176-1.294.207a9.539 9.539 0 01-1.302-.007l-.006-.253c.222-.025.455-.084.685-.14.231-.058.46-.123.692-.185l1.385-.39zM11.606 60.167a5.74 5.74 0 01-.503.55c-.18.172-.373.334-.59.465l-.028-.092c.167-.027.339-.085.5-.15.164-.066.323-.143.477-.229.154-.087.303-.182.446-.286a5.9 5.9 0 00.414-.33l.213-.185-.059.279-.161.765-.17-.113c.244-.19.487-.384.722-.584.116-.101.233-.203.34-.31.104-.102.22-.227.262-.316l.36-.758-.109.823-.077.592-.22-.123.702-.59.305-.257-.082.387a2.53 2.53 0 01-.52 1.073 2.117 2.117 0 01-.439.409 2.32 2.32 0 01-.53.279l-.061-.263a6.59 6.59 0 001.961-.595c.312-.145.605-.328.88-.532.28-.203.518-.452.742-.714l.24-.281-.096.352c-.118.429-.24.856-.365 1.283l-.08-.052c.406-.308.812-.617 1.222-.919-.383.337-.772.666-1.16.998l-.113.097.034-.15c.097-.433.198-.866.303-1.298l.144.07a4.58 4.58 0 01-.746.773c-.28.223-.578.427-.898.587-.32.162-.65.298-.99.408a6.095 6.095 0 01-1.049.243l-1.018.136.957-.399c.163-.067.325-.14.465-.248.144-.1.273-.223.383-.361a2.36 2.36 0 00.464-.945l.223.13-.705.587-.269.224.05-.347.085-.59.25.066a.906.906 0 01-.158.229c-.055.064-.113.12-.171.175a7.11 7.11 0 01-.36.315c-.243.202-.493.39-.75.573l-.242.172.07-.285.19-.76.154.095a5.944 5.944 0 01-.44.327c-.151.102-.309.195-.47.28-.164.082-.33.158-.504.215a2.533 2.533 0 01-.538.126l-.253.026.226-.118c.214-.112.413-.26.6-.419.187-.161.37-.328.54-.51z" fill="#FDFDFD"/><path d="M22.321 59.467c-.149.268-.306.53-.475.787a5.75 5.75 0 01-.27.374c-.098.119-.195.24-.337.327l-.03-.06.764-.433.074-.042-.005.087-.041.633-.1-.04.72-.93.084-.109.042.134c.071.227.15.453.237.674.045.11.09.22.142.325.05.101.111.211.175.27l-.14.051.113-.645.023-.13.114.067c.135.08.258.167.38.262.122.096.238.2.341.322l-.177.068a7.78 7.78 0 00-.041-.474 3.057 3.057 0 00-.082-.456l-.085-.3.254.182c.363.259.741.502 1.124.729.193.11.388.217.587.308.196.086.412.169.587.167l-.069.22c-.305-.25-.594-.513-.87-.796a5.344 5.344 0 01-.392-.45c-.12-.162-.239-.33-.297-.562l-.084-.332.287.2c.345.238.707.464 1.077.664.184.1.373.19.564.268.19.077.39.14.57.146l-.113.222c-.155-.21-.303-.42-.443-.64a6.104 6.104 0 01-.201-.337 2.184 2.184 0 01-.172-.373l-.113-.337.31.176c.305.175.616.343.93.5.157.078.316.153.475.222.159.068.322.133.477.17l-.11.228a.735.735 0 01-.137-.163.639.639 0 01-.083-.198.511.511 0 01-.001-.225.624.624 0 01.082-.201l.059-.101.108.056c.366.189.742.367 1.121.527.19.078.382.155.575.215.188.058.4.114.553.097l-.035.224a2.468 2.468 0 01-.524-.414 1.309 1.309 0 01-.343-.597l-.046-.2.194.069c.32.115.647.218.976.303.165.043.33.08.496.107.165.027.334.047.49.032l-.028.179c-.416-.19-.83-.382-1.242-.581-.206-.1-.412-.2-.615-.306-.204-.109-.406-.208-.603-.352l-.422-.31.488.196c.33.133.676.242 1.026.309.176.034.354.056.53.056.177 0 .357-.02.516-.091l.009.062a6.815 6.815 0 01-.877-.219 3.159 3.159 0 01-.42-.17c-.13-.07-.27-.152-.337-.29.072.135.214.209.346.273.136.063.279.109.422.152.288.08.582.144.876.189l.106.016-.096.047c-.171.083-.36.108-.543.114a2.833 2.833 0 01-.549-.041 5.697 5.697 0 01-1.06-.283l.067-.114c.176.12.386.222.587.323.204.1.41.197.617.293.414.19.831.375 1.25.556l.323.14-.35.038c-.19.02-.366 0-.54-.024a5.838 5.838 0 01-.516-.1c-.34-.081-.671-.179-1.003-.291l.148-.131a1.1 1.1 0 00.294.482 2.238 2.238 0 00.47.367l.31.18-.346.044a1.034 1.034 0 01-.356-.019c-.11-.02-.212-.05-.315-.081a7.493 7.493 0 01-.597-.22c-.39-.16-.769-.337-1.145-.529l.167-.045a.303.303 0 00-.045.232c.009.04.026.08.05.117a.49.49 0 00.083.1l.395.344-.505-.117a3.175 3.175 0 01-.525-.181 9.799 9.799 0 01-.49-.226 18.997 18.997 0 01-.947-.5l.197-.162c.035.104.093.215.153.323.06.108.126.215.195.32.137.211.282.422.43.624l.171.234-.283-.012c-.25-.01-.462-.087-.667-.169-.204-.084-.4-.18-.59-.285a11.636 11.636 0 01-1.101-.688l.203-.133c.035.148.136.312.247.459.113.148.238.291.37.429.264.274.549.536.842.779l.267.22h-.336c-.279-.002-.49-.102-.704-.193a7.31 7.31 0 01-.607-.323 13.525 13.525 0 01-1.133-.76l.17-.118c.043.17.063.331.08.494.016.163.026.324.033.489l.011.296-.188-.228a2.806 2.806 0 00-.66-.552l.137-.063-.125.642-.03.159-.11-.108c-.109-.109-.156-.22-.212-.332a4.932 4.932 0 01-.141-.338c-.085-.228-.16-.458-.229-.69l.126.024-.745.91-.118.143.018-.183.06-.631.068.045-.777.41-.031-.06a1.37 1.37 0 00.327-.3c.098-.117.189-.24.28-.362.177-.248.346-.504.505-.766zM16.747 55.723c-.16.174-.34.328-.537.462a1.982 1.982 0 01-.647.296l-.006-.052c.343-.024.684-.1 1.014-.2.33-.103.65-.237.954-.398l.356-.19-.291.282c-.45.434-.913.852-1.396 1.25-.241.2-.487.393-.746.574-.129.09-.261.177-.402.255-.142.075-.282.155-.479.17l-.014-.19c.393-.07.787-.16 1.173-.267a9.348 9.348 0 001.135-.388l.36-.151-.218.325c-.112.167-.23.325-.358.48-.128.153-.26.304-.435.434l-.1-.216c.246-.07.496-.164.734-.269a5.89 5.89 0 00.696-.362c.22-.138.429-.295.62-.467a3.05 3.05 0 00.49-.588l.41-.645-.173.743-.256 1.103-.22-.13.782-.724.187-.172.042.257c.017.113.057.248.1.37.044.125.096.247.153.368.116.24.25.474.4.697l-.25.088a7.035 7.035 0 01-.002-.838c.018-.28.048-.561.15-.845l.254.017c-.006-.02-.001-.002.003.001.003.007.01.015.015.024a1.28 1.28 0 00.146.154c.076.066.16.128.245.188.173.117.357.224.545.325l-.185.144-.493-2.1-.2-.845.426.757c.184.329.385.654.6.964.108.155.222.305.341.448.118.14.25.277.389.36l-.156.138c-.116-.322-.231-.64-.325-.975-.011-.043-.023-.084-.031-.133a.405.405 0 01-.008-.09c.01-.036.007-.077.091-.102.044-.005.041.002.053.004l.027.011a.3.3 0 01.04.028c.074.064.128.12.191.176.123.112.25.215.387.308.271.185.572.325.89.403.32.08.652.095.98.06l-.026.142c-.288-.16-.57-.327-.843-.51a7.164 7.164 0 01-.402-.287c-.129-.105-.259-.21-.36-.358l-.12-.18.188.11c.205.12.422.229.645.315.112.043.226.08.342.105.115.024.235.04.348.02l-.01.052a3.71 3.71 0 01-.59-.51 2.054 2.054 0 01-.24-.308 1.05 1.05 0 01-.15-.357c.029.127.09.243.163.349.072.107.158.203.25.295.181.181.386.342.598.483l.058.039-.068.013a.997.997 0 01-.372-.01 2.307 2.307 0 01-.355-.098 4.56 4.56 0 01-.669-.302l.067-.069c.086.121.216.224.343.32.13.095.266.184.403.27.276.17.558.333.845.485l.211.112-.238.03a2.998 2.998 0 01-1.036-.046 2.948 2.948 0 01-.956-.412 3.71 3.71 0 01-.413-.317c-.064-.056-.13-.12-.185-.165l-.012-.009a.044.044 0 00.013.005c.007 0-.002.004.037.002.033-.004.057-.035.061-.04a.072.072 0 00.014-.04c.003.005.002.017.007.037.006.034.018.075.029.114.095.317.216.636.336.95l.111.292-.267-.153a1.822 1.822 0 01-.461-.404 5.847 5.847 0 01-.36-.463 12.296 12.296 0 01-.62-.982l.227-.089.505 2.097.067.278-.252-.133a6.322 6.322 0 01-.572-.337 3.042 3.042 0 01-.271-.206 1.553 1.553 0 01-.189-.199c-.01-.014-.02-.028-.029-.044-.01-.02-.017-.027-.031-.072l.252.016c-.082.232-.113.5-.129.765a6.78 6.78 0 00.008.801l.033.504-.284-.415a5.347 5.347 0 01-.425-.733 4.254 4.254 0 01-.162-.396 2.476 2.476 0 01-.112-.429l.228.085-.787.719-.321.293.1-.423.264-1.101.238.098a3.302 3.302 0 01-.539.641c-.207.185-.429.35-.662.493a6.167 6.167 0 01-1.5.65l-.641.178.541-.394a2.37 2.37 0 00.391-.39c.123-.145.238-.302.348-.457l.14.174a9.543 9.543 0 01-1.17.377c-.395.101-.793.186-1.198.25l-.015-.19c.117-.005.263-.07.393-.14.133-.07.263-.152.39-.238.256-.172.503-.36.746-.552.484-.388.955-.795 1.416-1.211l.065.092a5.635 5.635 0 01-.983.377 4.676 4.676 0 01-1.036.173l-.006-.052c.227-.048.443-.145.643-.269.2-.124.386-.271.552-.438zM27.374 56.472a.911.911 0 01.005.496 1.097 1.097 0 01-.248.452l-.123-.15c.124-.101.244-.22.36-.336.118-.116.226-.241.332-.366.106-.124.197-.26.287-.394.09-.136.158-.28.224-.426l.252-.554v.598c0 .042.008.105.022.158a.876.876 0 00.057.16.864.864 0 00.202.278l-.152.089a1.54 1.54 0 01.04-.478c.032-.154.092-.3.171-.432a2.141 2.141 0 00-.056.667c.006.072.016.148.03.211l.058.24-.209-.15a1.054 1.054 0 01-.289-.316.993.993 0 01-.134-.423l.251.044a2.84 2.84 0 01-.548.905 3.854 3.854 0 01-.787.685l-.124-.15a1.075 1.075 0 00.379-.809zM29.324 56.5c.15.002.302.055.428.145a.91.91 0 01.17.16c.05.06.092.127.13.196l-.09.03a44.47 44.47 0 01-.213-.851l-.049-.203.178.118c.466.31.928.625 1.388.944l-.175.168c-.212-.32-.426-.638-.633-.96l-.266-.411.44.216c.309.15.624.295.937.437.157.07.314.139.472.2a3.9 3.9 0 00.237.087c.075.026.162.048.21.052l-.08.239c-.205-.168-.401-.34-.593-.522a4.817 4.817 0 01-.277-.286 1.523 1.523 0 01-.243-.346l-.129-.272.27.132c.213.104.432.204.65.298.11.047.221.09.332.13.112.039.224.079.336.1l-.039.106a3.267 3.267 0 01-.43-.37c-.13-.135-.252-.29-.3-.474a.77.77 0 00.148.233c.06.07.126.135.196.194.139.12.292.226.448.32l.226.133-.264-.028c-.253-.027-.482-.107-.713-.184a9.464 9.464 0 01-.679-.266l.14-.14c.05.091.134.189.22.278.088.089.18.177.274.263.19.17.389.335.59.49l.336.259-.415-.02a.738.738 0 01-.161-.023c-.049-.01-.092-.025-.135-.038a4.084 4.084 0 01-.253-.09 11.186 11.186 0 01-.486-.201c-.32-.14-.633-.292-.946-.448l.175-.196c.207.323.409.649.612.974l.343.55-.518-.383c-.45-.332-.898-.668-1.341-1.01l.129-.084c.051.287.098.576.144.865l.064.398-.153-.368a.954.954 0 00-.247-.354.779.779 0 00-.395-.188zM19.387 50.812c.162-.07.329-.146.513-.142.044.002.1.023.118.074.018.049.007.098-.005.141a1.073 1.073 0 01-.122.243c-.096.152-.211.29-.32.43-.109.14-.215.282-.32.426l-.618.87c-.212.283-.434.593-.79.751l-.065-.13c.458-.286.913-.587 1.328-.926l.197-.16-.054.25-.197.92-.164-.092.847-.834.228-.224-.043.32-.114.865-.212-.087 1.285-1.768.106-.146.099.15a1.848 1.848 0 01.202.422.843.843 0 01.042.248.508.508 0 01-.073.276l-.21-.148c.223-.302.441-.612.647-.927.104-.157.204-.316.298-.477.093-.16.185-.325.252-.489l.17-.415.09.443c.108.547.256 1.096.44 1.624.091.265.195.525.32.77.126.245.269.483.451.671l-.222.125c-.086-.38-.154-.758-.205-1.144a6.668 6.668 0 01-.05-.585c-.003-.198-.007-.397.067-.618l.098-.295.132.29a6.621 6.621 0 00.902 1.43c.183.214.38.415.592.596.217.177.452.326.703.441l-.132.145a2.776 2.776 0 01-.193-.532 1.444 1.444 0 01-.038-.58l.04-.245.133.215c.075.122.192.242.314.34.123.1.26.182.405.251.146.066.299.119.456.156.078.02.16.03.238.046l.243.026-.061.121a7.241 7.241 0 01-.542-.789 3.685 3.685 0 01-.396-.875l-.041-.15.114.105c.239.217.495.42.765.598.135.09.277.169.424.235.146.065.303.12.464.113l-.004.018-.366-.246.377.23.024.015-.029.003a1.07 1.07 0 01-.482-.095 2.927 2.927 0 01-.438-.224 6.233 6.233 0 01-.795-.58l.073-.046c.092.296.245.572.412.836.169.263.357.517.553.758l.111.136-.172-.015-.254-.023c-.084-.015-.169-.023-.252-.044a2.646 2.646 0 01-.49-.156 2.222 2.222 0 01-.447-.264 1.565 1.565 0 01-.366-.387l.173-.03c-.023.159.001.331.045.498.045.165.11.334.187.484l.131.26-.264-.114a3.504 3.504 0 01-.765-.458 4.914 4.914 0 01-.632-.62 6.915 6.915 0 01-.948-1.482l.23-.006c-.048.145-.053.337-.046.52.008.185.027.372.051.56.052.373.123.748.208 1.116l.108.461-.33-.337a3.029 3.029 0 01-.504-.735 6.338 6.338 0 01-.34-.8 9.293 9.293 0 01-.256-.826 12.097 12.097 0 01-.192-.843l.26.027a4.338 4.338 0 01-.274.522c-.098.166-.201.328-.308.487-.212.319-.433.629-.663.936l-.21-.148c.044-.068.044-.19.004-.31a1.241 1.241 0 00-.07-.183 1.623 1.623 0 00-.096-.172l.204.004-1.296 1.76-.284.383.071-.47.13-.864.186.096-.864.816-.239.226.075-.32.216-.916.142.09c-.435.34-.896.631-1.366.911l-.065-.13c.306-.129.537-.41.755-.685l.645-.85c.11-.14.221-.28.335-.416.114-.138.231-.27.331-.416.05-.073.096-.148.127-.229.012-.04.023-.083.01-.12-.01-.037-.05-.056-.093-.06-.173-.013-.346.055-.51.118zM27.338 52.099a3.049 3.049 0 001.297.823c.16.054.328.083.494.109l-.092.167a12.33 12.33 0 01-.655-.78 6.306 6.306 0 01-.3-.42 2.32 2.32 0 01-.134-.23c-.02-.043-.041-.082-.057-.133-.007-.027-.018-.045-.023-.078a1.027 1.027 0 01-.009-.1l-.01-.26.228.161a5.634 5.634 0 001.45.717c.257.089.523.144.79.18.267.04.537.036.806.015l-.01.192a6.678 6.678 0 01-.916-.348 3.587 3.587 0 01-.43-.238c-.132-.093-.271-.203-.326-.36.076.146.223.227.359.305a3.5 3.5 0 00.44.187c.303.102.611.194.92.264l.528.119-.538.073c-.283.038-.573.06-.859.03a4.357 4.357 0 01-.842-.163 5.613 5.613 0 01-.796-.314 4.945 4.945 0 01-.74-.44l.218-.098a.071.071 0 01.004.026c0 .008.01.029.013.043.008.03.026.065.042.1.034.068.074.139.117.208.084.14.178.276.275.412.195.27.4.537.609.797l.175.218-.267-.05a2.701 2.701 0 01-.998-.401 2.762 2.762 0 01-.763-.733z" fill="#FDFDFD"/><path d="M25.68 50.1c.217.257.419.523.616.792l-.167.034c.025-.214.048-.429.078-.643l.026-.188.164.11c.336.222.668.452.994.689l-.21.16a23.845 23.845 0 01-.234-.69l-.12-.375.31.233c.102.076.224.152.343.217a3.39 3.39 0 001.197.381c-.285.04-.584.024-.869-.048a2.474 2.474 0 01-.42-.138 2.174 2.174 0 01-.4-.212l.192-.142c.091.224.177.452.26.679l.154.415-.362-.255c-.33-.232-.655-.47-.976-.716l.19-.079c-.041.212-.09.422-.137.633l-.053.239-.114-.205c-.161-.292-.319-.586-.461-.89zM12.951 49.216c.275-.094.543-.208.8-.34.255-.133.505-.29.69-.5l.25-.286-.174.339a13.25 13.25 0 01-.7 1.223 7.68 7.68 0 01-.415.577c-.156.18-.31.367-.553.491l-.072-.179c.432-.184.862-.384 1.278-.602.207-.109.415-.22.61-.344.19-.123.393-.264.5-.417l.328-.472-.1.557a2.028 2.028 0 01-.19.562c-.089.177-.21.344-.367.48l-.141-.218a6.866 6.866 0 001.107-.737c.17-.141.333-.29.47-.457.14-.164.262-.341.333-.532l.264.066a7.534 7.534 0 01-.332 1.263 3.634 3.634 0 01-.277.601c-.115.192-.25.382-.45.523l-.123-.217a4.136 4.136 0 00.76-.471c.232-.186.444-.4.568-.653l.106-.215.095.214c.058.132.11.264.155.402.022.07.044.14.058.214.01.078.037.149-.008.272l-.182-.071.408-1.325.05-.162.09.141.317.5-.126.03.173-1.28.012-.088.057.07c.022.026.073.044.121.035.05-.01.1-.027.146-.058a1.22 1.22 0 00.255-.216c.156-.164.291-.35.42-.539-.117.197-.24.391-.388.568a1.27 1.27 0 01-.255.238.454.454 0 01-.167.075c-.063.01-.138.004-.193-.058l.068-.018-.112 1.286-.016.192-.11-.161-.332-.49.14-.02-.37 1.335-.182-.072a.429.429 0 00-.013-.141 1.766 1.766 0 00-.058-.19 4.13 4.13 0 00-.158-.375l.2-.002c-.14.31-.372.55-.62.75a4.346 4.346 0 01-.806.51l-.12-.216c.15-.106.27-.272.37-.446.101-.175.183-.366.252-.562.14-.39.24-.805.307-1.214l.263.066a2.071 2.071 0 01-.378.623c-.154.183-.33.34-.51.487a7.292 7.292 0 01-1.163.758l-1.025.53.885-.747c.125-.105.228-.241.307-.394a1.857 1.857 0 00.17-.486l.229.085a1.27 1.27 0 01-.28.284c-.098.078-.201.144-.304.21-.207.127-.418.24-.632.347-.431.21-.868.398-1.313.572l-.073-.18c.18-.082.345-.255.495-.424.148-.175.287-.36.42-.55.262-.384.514-.778.744-1.183l.077.054c-.212.218-.473.362-.737.485a5.412 5.412 0 01-.822.293zM8.372 49.44a3.511 3.511 0 01-.572.332 5.87 5.87 0 01-.604.244l-.04-.269a2.706 2.706 0 01.783.182c.083.035.165.075.24.126-.181 0-.353-.006-.526-.01l-.51-.02-.674-.027.633-.243c.203-.078.409-.146.62-.201.21-.054.425-.1.65-.114zM7.756 50.42c.274-.129.546-.257.813-.392.132-.068.262-.14.387-.214.122-.075.246-.164.318-.25l.06-.074.079.035c.08.036.113.073.155.12a.574.574 0 01.088.147.815.815 0 01.057.309l-.219-.106c.205-.167.406-.338.614-.5.206-.165.413-.328.624-.487l.164-.123.035.195c.03.167.055.335.08.503l-.14-.077a2.337 2.337 0 00.56-.311 1.648 1.648 0 00.443-.486 1.305 1.305 0 01-.143.31 1.606 1.606 0 01-.215.273 2.067 2.067 0 01-.568.41l-.109.051-.032-.129c-.041-.165-.082-.33-.119-.495l.2.072c-.2.173-.403.342-.608.51-.202.169-.41.33-.617.495l-.22.176.001-.281a.664.664 0 00-.03-.215.32.32 0 00-.042-.084c-.013-.021-.046-.046-.047-.048l.14-.037c-.13.14-.27.208-.408.28a4.1 4.1 0 01-.425.179 6.142 6.142 0 01-.876.245zM19.163 44.439a9.082 9.082 0 01-.345.601c-.12.198-.248.392-.396.576l-.099-.135c.528-.266 1.06-.519 1.595-.768l.528-.246-.37.455-.285.35-.142-.22c.113-.035.233-.082.346-.133.113-.05.225-.105.329-.17.209-.127.391-.292.486-.49l.238.101c-.127.29-.253.578-.384.865l-.166-.122c.239-.197.474-.412.685-.645.107-.115.21-.236.296-.367a1.65 1.65 0 00.214-.422 1.38 1.38 0 01-.152.459 3.107 3.107 0 01-.257.414 5.1 5.1 0 01-.65.724l-.322.298.156-.421c.11-.296.226-.59.341-.883l.239.1c-.12.285-.35.476-.58.623a2.773 2.773 0 01-.36.193 3.259 3.259 0 01-.385.14l-.43.126.288-.346.289-.346.157.209c-.542.233-1.085.462-1.634.679l-.36.141.26-.276c.155-.164.3-.341.446-.519.143-.179.282-.363.424-.545zM31.992 46.944c.147.145.288.295.43.444.143.148.284.299.421.451l-.15.055c-.011-.19-.017-.38-.024-.571l-.005-.15.15.047c.447.141.893.289 1.336.444l-.117.247c-.273-.165-.535-.34-.795-.525a5.618 5.618 0 01-.381-.292 2.792 2.792 0 01-.184-.167 1.1 1.1 0 01-.089-.1.487.487 0 01-.044-.069c-.012-.027-.032-.066-.025-.133l.017-.16.149.072c.306.146.627.28.95.396.162.055.324.116.49.159.167.043.335.079.51.097-.175.018-.351.007-.526-.015a4.296 4.296 0 01-.518-.094 7.368 7.368 0 01-1.004-.326l.166-.088c.005-.027-.002-.028.004-.02a.9.9 0 00.093.102c.053.05.112.097.173.143.121.093.247.183.375.272.256.176.52.346.782.514l1.021.656-1.138-.41c-.442-.159-.88-.325-1.317-.497l.144-.103c-.006.19-.012.38-.023.57l-.013.237-.138-.181c-.124-.164-.245-.33-.364-.5-.12-.166-.241-.333-.356-.505zM22.22 41.79c.2.232.394.467.588.702l-.076.021c.02-.271.034-.543.057-.815l.013-.15.112.106c.228.217.46.433.693.643.117.105.235.21.354.31.06.05.12.1.18.145a1.842 1.842 0 00.13.09l.01.004a.034.034 0 00-.015-.003c.003 0-.015-.002-.033.002a.092.092 0 00-.045.026l-.037.097-.073-.84-.023-.263.223.145.912.59-.184.198c-.3-.39-.594-.783-.888-1.177l-.246-.33.393.117c.31.091.621.18.933.265.156.041.312.082.468.117.15.033.322.07.445.072l-.031.219a4.341 4.341 0 01-.589-.317 1.988 1.988 0 01-.27-.21c-.08-.083-.174-.179-.186-.335l-.009-.114.112.033c.317.092.64.176.967.241.163.032.327.056.493.07.165.01.333.019.495-.028-.156.063-.329.079-.497.08-.169 0-.338-.01-.505-.03a7.403 7.403 0 01-.997-.177l.103-.08c.007.065.07.144.144.209.076.065.163.122.253.175.18.105.376.196.57.272l.508.196-.538.023c-.204.008-.352-.031-.519-.06a20.067 20.067 0 01-1.428-.36l.148-.212c.298.39.596.78.889 1.175l.473.635-.657-.437-.904-.601.2-.12.052.841.004.062-.042.035a.15.15 0 01-.058.03.116.116 0 01-.048.004.265.265 0 01-.043-.01.486.486 0 01-.104-.06 1.76 1.76 0 01-.099-.079 5.459 5.459 0 01-.18-.161c-.118-.11-.231-.22-.344-.332a35.21 35.21 0 01-.664-.68l.125-.045c-.035.27-.079.539-.118.809l-.016.107-.06-.086c-.176-.25-.35-.5-.521-.754zM19.892 39.41c-.165.198-.34.385-.51.576-.173.19-.349.376-.525.56l-.108-.164c.255-.116.51-.24.758-.367.125-.063.247-.132.366-.2.119-.069.237-.142.332-.222l.418-.356-.202.513c-.084.212-.171.422-.26.632l-.188-.175c.27-.14.54-.285.806-.435.131-.077.262-.155.39-.236.125-.08.25-.17.343-.266l.182-.185-.021.245c-.019.207-.035.414-.06.62l-.096-.034c.146-.172.29-.348.442-.516-.114.197-.236.388-.356.58l-.09.145-.007-.179c-.009-.207-.01-.415-.013-.622l.16.06c-.109.14-.235.234-.36.331a5.581 5.581 0 01-.387.268c-.264.168-.531.324-.809.469l-.326.17.137-.345c.084-.211.17-.422.259-.632l.215.158c-.124.102-.25.175-.377.246-.127.071-.257.133-.387.194-.26.12-.525.227-.794.326l-.5.183.392-.348c.192-.17.385-.34.582-.504.198-.164.391-.332.594-.49zM20.373 36.3a1.372 1.372 0 01-.38.694l-.023-.041 1.24-.368.132-.039-.072.12-.318.537-.084-.1a1.8 1.8 0 00.341-.213c.106-.084.202-.18.284-.285.083-.105.148-.222.195-.345a1.36 1.36 0 00.084-.385l.186.013-.1 1.948-.217-.074c.22-.335.435-.674.643-1.016.104-.171.207-.343.304-.516.095-.172.194-.352.256-.518l.287-.78-.034.828-.087 2.074-.263-.072.442-.837.12-.228.12.228c.132.257.27.512.41.765.07.126.142.252.215.375.074.12.151.248.23.344l-.223.09-.052-1.215-.01-.246.2.14c.346.242.69.486 1.032.733l-.16.141-1.125-2.264-.077-.155.162.051 1.67.522-.027.063a3.274 3.274 0 01-.492-.377c-.149-.142-.29-.303-.358-.498.08.19.229.339.383.47.156.13.326.245.5.345l.23.13-.256-.067-1.69-.447.085-.104 1.19 2.23.205.385-.365-.244c-.35-.235-.698-.474-1.045-.714l.19-.106.064 1.215.02.384-.242-.294c-.106-.13-.18-.252-.259-.378-.076-.126-.15-.253-.223-.38-.144-.254-.284-.51-.422-.768h.24l-.435.841-.295.573.033-.644.105-2.074.253.048c-.08.211-.18.382-.28.561-.102.177-.208.35-.314.522-.214.343-.433.68-.657 1.017l-.252.377.035-.451.15-1.945.186.013c-.02.149-.046.298-.108.436a1.463 1.463 0 01-.23.382 1.837 1.837 0 01-.7.524l-.208.086.124-.187.343-.521.06.081-1.257.31-.09.022.067-.063c.19-.177.35-.4.414-.66zM16.54 33.894c-.15.165-.297.332-.45.494l-.032-.047.974-.496.98-.483.345-.17-.234.31-.597.79-.138-.172 1.475-.742.013-.007.023-.005a1.845 1.845 0 00.71-.331 1.606 1.606 0 00.485-.606l.258.103c-.282.813-.563 1.628-.854 2.438l-.2-.13c.281-.263.567-.522.853-.78l.165-.15.008.219.029.714-.158-.047a71.8 71.8 0 01.995-1.25l.05-.063.025.074c.11.34.22.68.324 1.022-.139-.33-.272-.661-.405-.993l.075.011c-.303.439-.612.873-.924 1.305l-.138.19-.02-.238-.058-.713.173.07c-.274.27-.548.542-.826.809l-.354.34.154-.47c.268-.819.546-1.634.823-2.45l.259.104a1.85 1.85 0 01-.576.71 2.099 2.099 0 01-.828.376l.036-.012-1.493.706-.457.215.32-.387.63-.764.11.14-1.002.44-1.006.426-.148.063.115-.11c.162-.153.328-.302.492-.453zM27.479 33.243c.134.11.27.218.408.319.14.1.286.19.433.256l-.111.067-.002-.444v-.164l.15.083c.34.186.675.379 1.01.572l-.174.197c-.207-.26-.416-.516-.619-.779l-.25-.325.393.105c.254.067.51.13.763.2s.507.14.76.215l-.109.174a25.346 25.346 0 01-.367-.474l-.13-.172.203.04c.178.034.354.075.53.115.177.039.353.078.529.124-.181-.007-.361-.02-.542-.035-.18-.013-.36-.025-.54-.044l.073-.133a26 26 0 01.408.44l.22.24-.328-.066c-.258-.053-.514-.113-.77-.171-.257-.057-.512-.123-.768-.184l.142-.22c.207.258.408.523.61.785l.47.605-.642-.408a50.35 50.35 0 01-.974-.63l.15-.081-.041.442-.012.122-.1-.056a2.107 2.107 0 01-.42-.33 3.784 3.784 0 01-.353-.385zM21.355 32.381c.165-.132.334-.258.504-.384l.058-.043.013.077c.067.397.125.795.177 1.194l-.187-.055c.14-.196.282-.391.427-.584l.066-.088.1.059c.244.147.487.296.728.448l-.208.1.06-.536.024-.224.189.123.637.415-.202.147-.113-.47-.07-.293.255.153c.1.06.213.117.323.168.112.052.226.099.341.14.232.077.472.133.712.125l-.03.136a4.162 4.162 0 01-.424-.322 2.14 2.14 0 01-.191-.186.487.487 0 01-.125-.233c.026.085.094.144.157.2.065.058.135.108.207.156.144.095.297.18.449.258l.205.106-.234.03a2.023 2.023 0 01-.787-.07 3.526 3.526 0 01-.73-.291l.184-.14.13.465.094.334-.295-.187-.643-.406.213-.101-.065.535-.026.216-.182-.116c-.241-.154-.48-.31-.717-.468l.165-.03c-.15.189-.304.375-.459.56l-.17.204-.017-.258a32.45 32.45 0 01-.06-1.204l.071.034c-.184.104-.367.208-.554.306zM21.884 27.616c.159-.203.323-.4.487-.598l.06-.073.024.097c.104.434.198.869.288 1.305l-.196-.03a.359.359 0 01.174-.163.363.363 0 01.24-.006.773.773 0 01.316.223c.084.088.154.181.218.277.068.095.122.194.182.292l-.249.08c-.052-.455-.11-.908-.156-1.362l-.053-.529.302.433c.21.3.43.595.653.884.113.144.229.285.348.421.118.133.247.271.376.354l-.138.127a6.157 6.157 0 01-.152-.464 3.624 3.624 0 01-.06-.24 1.091 1.091 0 01-.018-.125c0-.048-.015-.08.02-.162.043-.052.096-.039.116-.034a.334.334 0 01.067.027c.04.02.074.044.108.068.067.049.129.1.19.153.123.105.237.218.348.334a10.807 10.807 0 00-.388-.282 2.645 2.645 0 00-.2-.127.824.824 0 00-.101-.05.211.211 0 00-.046-.012c-.017-.004-.012.008.005-.01.007-.007.002.046.012.077l.028.11c.021.073.048.148.075.222.056.147.118.295.18.439l.117.27-.254-.143c-.189-.106-.318-.24-.454-.373a8.284 8.284 0 01-.375-.42c-.24-.285-.464-.58-.682-.884l.25-.095c.055.453.098.908.147 1.363l.069.638-.319-.56c-.053-.093-.101-.19-.16-.279a1.808 1.808 0 00-.184-.252.607.607 0 00-.21-.171c-.034-.01-.062-.016-.087-.008-.024.006-.055.036-.069.055l-.158.229-.038-.258c-.066-.44-.126-.882-.178-1.324l.083.024c-.184.179-.368.358-.558.532zM23.456 26.212c.152.034.292.087.43.146l-.152.085a4.242 4.242 0 01-.036-.713l.016-.63.246.572c.06.136.11.276.154.42.043.145.08.291.096.448a2.462 2.462 0 01-.278-.363 3.874 3.874 0 01-.221-.389l.262-.058c.005.238-.005.476-.04.713l-.028.19-.123-.104a2.506 2.506 0 01-.326-.317zM24.428 26.985c.043-.166.097-.326.156-.483l.045-.118.095.11c.145.168.279.343.41.52l-.242.074a11.08 11.08 0 010-.79l.008-.185.163.059c.18.064.358.132.534.208.176.077.35.158.519.256a4.972 4.972 0 01-.572-.082 8.69 8.69 0 01-.559-.13l.17-.126c.01.263.01.527.001.79l-.015.446-.226-.372a8.673 8.673 0 01-.326-.576l.14-.008c-.093.14-.191.276-.3.407zM23.197 22.981c.147.137.282.283.411.432l-.134-.012c.06-.076.125-.147.187-.221l.085-.102.09.12c.109.147.218.295.32.448.104.15.2.306.298.462l-.236.123a.71.71 0 01-.04-.192c-.003-.067-.006-.139.034-.222a.268.268 0 01.205-.15c.04-.01.073-.007.106-.004a.825.825 0 01.258.08c.053.02.1.05.147.08.097.055.18.127.265.196-.106-.028-.207-.066-.31-.092a1.668 1.668 0 00-.297-.06.2.2 0 00-.066 0c-.02.001-.041.002-.053.01-.034.009-.027.024-.037.038-.015.038.006.144.037.216l-.237.124c-.103-.151-.207-.302-.303-.459-.099-.154-.19-.313-.281-.473l.174.018c-.074.062-.145.127-.222.186l-.089.07-.046-.082a5.503 5.503 0 01-.266-.534zM22.11 18.02a2.683 2.683 0 01-.591.947c-.048.045-.094.09-.154.13a.495.495 0 01-.233.097l-.03-.272a4.605 4.605 0 011.054-.012 4.59 4.59 0 01-1.015.283l-.029-.272c.013-.009.053-.02.094-.054.04-.026.083-.065.125-.101.084-.074.166-.16.25-.243.17-.166.337-.342.53-.503zM23.6 19.034a1.21 1.21 0 01-.067-.177c-.016-.058-.033-.117-.043-.176a2.202 2.202 0 01-.042-.354l-.016-.339.252.237c.101.096.198.198.283.311.085.113.164.233.22.376a1.565 1.565 0 01-.38-.211 2.449 2.449 0 01-.317-.277l.235-.102a2.235 2.235 0 01-.029.355c-.008.06-.022.119-.037.178a1.21 1.21 0 01-.06.178zM21.18 16.018c.143-.13.31-.222.485-.297a2 2 0 01.554-.15c.191-.025.393-.023.587.038.191.056.375.174.47.346a1.364 1.364 0 00-.51-.13 2.668 2.668 0 00-.513.023c-.348.04-.695.122-1.074.17zM22.574 16.126a.88.88 0 01.109.283c.022.094.03.188.03.282 0 .095-.008.189-.03.283a.875.875 0 01-.109.282.877.877 0 01-.109-.282 1.24 1.24 0 01-.03-.283c0-.094.008-.188.03-.282a.883.883 0 01.11-.283zM22.666 19.846c.057.227.087.453.108.68.022.226.03.453.031.68 0 .226-.008.452-.03.679-.021.226-.051.453-.11.68a4.258 4.258 0 01-.108-.68 7.023 7.023 0 01-.031-.68c0-.226.009-.453.031-.679.02-.227.05-.453.109-.68zM23.268 19.843a.766.766 0 01.294-.033c.093.005.182.025.268.053l-.158.064a.955.955 0 01.145-.185.738.738 0 01.206-.152.743.743 0 01-.026.255.956.956 0 01-.085.22l-.048.094-.111-.03a1.05 1.05 0 01-.255-.1.764.764 0 01-.23-.186zM22.523 28.895c.057.162.087.324.108.486.022.161.03.323.031.485 0 .162-.008.323-.03.485-.021.162-.051.324-.11.486a2.258 2.258 0 01-.108-.486 3.612 3.612 0 01-.031-.485c0-.162.009-.324.031-.485.02-.162.05-.324.108-.486z" fill="#FDFDFD"/><path d="M22.992 28.895c.058.241.088.482.109.723a8.854 8.854 0 010 1.445c-.02.24-.05.481-.109.722a4.79 4.79 0 01-.108-.723 8.81 8.81 0 010-1.444c.02-.241.05-.482.108-.723zM22.623 41.062a10.234 10.234 0 01-.108-1.063 19.258 19.258 0 01-.032-1.064c.003-.354.009-.708.03-1.063.022-.354.052-.709.11-1.063.058.355.088.709.109 1.063a19.154 19.154 0 010 2.127c-.021.354-.051.708-.109 1.063zM23.244 37.82c.058.26.088.518.108.776a10.167 10.167 0 010 1.552c-.02.259-.05.517-.108.776a5.476 5.476 0 01-.11-.776 10.22 10.22 0 01-.03-.776c.003-.258.009-.517.031-.776.02-.258.051-.517.109-.775zM22.574 48.287c.058.178.088.356.109.534.022.178.03.356.03.534 0 .178-.008.356-.03.534-.02.178-.05.356-.109.535a2.699 2.699 0 01-.109-.535 4.372 4.372 0 01-.03-.534c0-.178.008-.356.03-.534.021-.178.052-.356.11-.534zM23.446 48.709c.058.17.088.342.108.514.023.171.03.343.031.514 0 .171-.008.343-.03.514-.02.172-.05.343-.11.514a2.51 2.51 0 01-.108-.514 4.016 4.016 0 01-.03-.514c0-.172.008-.343.03-.514.021-.172.051-.343.109-.514zM22.828 67.204l.118 4.313-.14-.141 1.217.04-.1.1.103-3.066.096 3.066.003.097-.102.003-1.217.04-.145.005.005-.146.162-4.31z" fill="#FDFDFD"/></svg>