<?xml version="1.0" encoding="utf-8"?><svg width="16" height="16" fill="none" xmlns="http://www.w3.org/2000/svg" viewBox="0 0 16 16"><path fill-rule="evenodd" clip-rule="evenodd" d="M13.591 4.385c.89.858 1.658 1.966 2.303 3.325a1.106 1.106 0 010 .945c-1.736 3.674-4.367 5.51-7.894 5.51-1.272 0-2.428-.24-3.468-.72l1.012-1.012c.748.274 1.567.411 2.456.411 2.962 0 5.129-1.5 6.655-4.66-.573-1.186-1.236-2.138-1.997-2.865l.933-.934zm.354-3.342l.782.783a.146.146 0 010 .208L1.66 15.1a.147.147 0 01-.208 0l-.783-.783a.147.147 0 010-.208L2.61 12.17c-.977-.88-1.812-2.052-2.505-3.512a1.106 1.106 0 010-.945C1.842 4.038 4.473 2.202 8 2.202c1.38 0 2.624.282 3.73.847l2.008-2.006a.146.146 0 01.207 0zM8 3.523c-2.96 0-5.127 1.5-6.655 4.66.623 1.29 1.354 2.303 2.201 3.05l1.53-1.53a3.23 3.23 0 014.37-4.37l1.29-1.29c-.825-.349-1.735-.52-2.736-.52zm-1.905 3.73A2.057 2.057 0 005.97 8.81l2.585-2.585a2.057 2.057 0 00-2.459 1.026zM7.74 10.23a2.052 2.052 0 001.642-.593 2.054 2.054 0 00.593-1.642l.97-.969a3.23 3.23 0 01-4.174 4.173l.97-.97z" fill="#A4A4A4"/></svg>